<svg width="600" height="472" viewBox="0 0 600 472" fill="none" xmlns="http://www.w3.org/2000/svg">
<mask id="mask0_4114_3048" style="mask-type:alpha" maskUnits="userSpaceOnUse" x="0" y="0" width="600" height="472">
<rect width="600" height="472" rx="16" fill="#E9EEF7"/>
</mask>
<g mask="url(#mask0_4114_3048)">
<path d="M-607.842 -227.397C-607.842 -600.956 -527.761 -681.037 -154.202 -681.037H74.8864C448.445 -681.037 528.51 -600.972 528.51 -227.413V1.67558C528.51 375.234 448.445 455.3 74.8864 455.3H-154.202C-527.761 455.315 -607.842 375.25 -607.842 1.69135V-227.397Z" stroke="#F7F9FC" stroke-width="0.6" stroke-miterlimit="10"/>
<path d="M-668.153 -239.266C-668.153 -651.565 -579.67 -739.95 -166.918 -739.95H86.2058C498.958 -739.95 587.423 -651.582 587.423 -239.284V13.5619C587.423 425.86 498.958 514.228 86.2058 514.228H-166.918C-579.67 514.246 -668.153 425.877 -668.153 13.5793V-239.266Z" stroke="#F7F9FC" stroke-width="0.4" stroke-miterlimit="10"/>
<path d="M-728.275 -251.386C-728.275 -703.213 -631.122 -800.072 -177.922 -800.072H100.008C553.207 -800.072 650.342 -703.232 650.342 -251.405V25.6828C650.342 477.51 553.207 574.351 100.008 574.351H-177.922C-631.122 574.37 -728.275 477.529 -728.275 25.7019V-251.386Z" stroke="#F7F9FC" stroke-width="0.2" stroke-miterlimit="10"/>
<path d="M-787 -262.659C-787 -751.258 -681.865 -856 -191.435 -856H109.326C599.757 -856 704.871 -751.278 704.871 -262.68V36.958C704.871 525.556 599.757 630.278 109.326 630.278H-191.435C-681.865 630.299 -787 525.577 -787 36.9786V-262.659Z" stroke="#F7F9FC" stroke-width="0.2" stroke-miterlimit="10"/>
<path d="M-550.148 -215.771C-550.148 -551.408 -478.213 -623.344 -142.575 -623.344H63.2593C398.897 -623.344 470.832 -551.408 470.832 -215.771V-9.93604C470.832 325.701 398.897 397.637 63.2593 397.637H-142.575C-478.213 397.637 -550.148 325.701 -550.148 -9.93604V-215.771Z" stroke="#F7F9FC" stroke-width="0.8" stroke-miterlimit="10"/>
<path d="M-492.471 -204.143C-492.471 -501.859 -428.664 -565.665 -130.948 -565.665H51.6165C349.332 -565.665 413.139 -501.859 413.139 -204.143V-21.5778C413.139 276.138 349.332 339.944 51.6165 339.944H-130.948C-428.664 339.944 -492.471 276.138 -492.471 -21.5778V-204.143Z" stroke="#F7F9FC" stroke-miterlimit="10"/>
<path d="M-434.793 -192.517C-434.793 -452.311 -379.116 -507.988 -119.322 -507.988H39.9895C299.784 -507.988 355.461 -452.311 355.461 -192.517V-33.2058C355.461 226.589 299.784 282.265 39.9895 282.265H-119.322C-379.116 282.265 -434.793 226.589 -434.793 -33.2058V-192.517Z" stroke="#F7F9FC" stroke-width="1.2" stroke-miterlimit="10"/>
<path d="M-377.116 -180.889C-377.116 -402.746 -329.569 -450.31 -107.696 -450.31H28.3615C250.219 -450.31 297.782 -402.762 297.782 -180.889V-44.8319C297.782 177.025 250.234 224.589 28.3615 224.589H-107.696C-329.553 224.589 -377.116 177.041 -377.116 -44.8319V-180.889Z" stroke="#F7F9FC" stroke-width="1.4" stroke-miterlimit="10"/>
<path d="M-319.422 -169.262C-319.422 -353.198 -280.004 -392.632 -96.0523 -392.632H16.7511C200.687 -392.632 240.121 -353.214 240.121 -169.262V-56.4589C240.121 127.477 200.702 166.911 16.7511 166.911H-96.0523C-279.988 166.911 -319.422 127.492 -319.422 -56.4589V-169.262Z" stroke="#F7F9FC" stroke-width="1.6" stroke-miterlimit="10"/>
<path d="M-261.744 -157.636C-261.744 -303.65 -230.455 -334.938 -84.4412 -334.938H5.10828C151.122 -334.938 182.411 -303.65 182.411 -157.636V-68.0861C182.411 77.9281 151.122 109.217 5.10828 109.217H-84.4412C-230.455 109.217 -261.744 77.9281 -261.744 -68.0861V-157.636Z" stroke="#F7F9FC" stroke-width="1.8" stroke-miterlimit="10"/>
<path d="M-204.066 -145.993C-204.066 -254.086 -180.907 -277.245 -72.8143 -277.245H-6.53445C101.558 -277.245 124.718 -254.086 124.718 -145.993V-79.713C124.718 28.3797 101.558 51.5391 -6.53445 51.5391H-72.8143C-180.907 51.5391 -204.066 28.3797 -204.066 -79.713V-145.993Z" stroke="#F7F9FC" stroke-width="2" stroke-miterlimit="10"/>
</g>
</svg>
