<svg width="600" height="472" viewBox="0 0 600 472" fill="none" xmlns="http://www.w3.org/2000/svg">
<mask id="mask0_4114_3108" style="mask-type:alpha" maskUnits="userSpaceOnUse" x="0" y="0" width="600" height="472">
<rect width="600" height="472" rx="16" fill="#E9EEF7"/>
</mask>
<g mask="url(#mask0_4114_3108)">
<path d="M75.1582 -227.397C75.1582 -600.956 155.239 -681.037 528.798 -681.037H757.886C1131.45 -681.037 1211.51 -600.972 1211.51 -227.413V1.67558C1211.51 375.234 1131.45 455.3 757.886 455.3H528.798C155.239 455.315 75.1582 375.25 75.1582 1.69135V-227.397Z" stroke="#F7F9FC" stroke-width="0.6" stroke-miterlimit="10"/>
<path d="M14.8467 -239.266C14.8467 -651.565 103.33 -739.95 516.082 -739.95H769.206C1181.96 -739.95 1270.42 -651.582 1270.42 -239.284V13.5619C1270.42 425.86 1181.96 514.228 769.206 514.228H516.082C103.33 514.246 14.8467 425.877 14.8467 13.5793V-239.266Z" stroke="#F7F9FC" stroke-width="0.4" stroke-miterlimit="10"/>
<path d="M-45.2754 -251.386C-45.2754 -703.213 51.8785 -800.072 505.078 -800.072H783.008C1236.21 -800.072 1333.34 -703.232 1333.34 -251.405V25.6828C1333.34 477.51 1236.21 574.351 783.008 574.351H505.078C51.8785 574.37 -45.2754 477.529 -45.2754 25.7019V-251.386Z" stroke="#F7F9FC" stroke-width="0.2" stroke-miterlimit="10"/>
<path d="M-104 -262.659C-104 -751.258 1.13505 -856 491.565 -856H792.326C1282.76 -856 1387.87 -751.278 1387.87 -262.68V36.958C1387.87 525.556 1282.76 630.278 792.326 630.278H491.565C1.13505 630.299 -104 525.577 -104 36.9786V-262.659Z" stroke="#F7F9FC" stroke-width="0.2" stroke-miterlimit="10"/>
<path d="M132.852 -215.771C132.852 -551.408 204.787 -623.344 540.425 -623.344H746.259C1081.9 -623.344 1153.83 -551.408 1153.83 -215.771V-9.93604C1153.83 325.701 1081.9 397.637 746.259 397.637H540.425C204.787 397.637 132.852 325.701 132.852 -9.93604V-215.771Z" stroke="#F7F9FC" stroke-width="0.8" stroke-miterlimit="10"/>
<path d="M190.529 -204.143C190.529 -501.859 254.336 -565.665 552.052 -565.665H734.617C1032.33 -565.665 1096.14 -501.859 1096.14 -204.143V-21.5778C1096.14 276.138 1032.33 339.944 734.617 339.944H552.052C254.336 339.944 190.529 276.138 190.529 -21.5778V-204.143Z" stroke="#F7F9FC" stroke-miterlimit="10"/>
<path d="M248.207 -192.517C248.207 -452.311 303.884 -507.988 563.678 -507.988H722.989C982.784 -507.988 1038.46 -452.311 1038.46 -192.517V-33.2058C1038.46 226.589 982.784 282.265 722.989 282.265H563.678C303.884 282.265 248.207 226.589 248.207 -33.2058V-192.517Z" stroke="#F7F9FC" stroke-width="1.2" stroke-miterlimit="10"/>
<path d="M305.884 -180.889C305.884 -402.746 353.431 -450.31 575.304 -450.31H711.361C933.219 -450.31 980.782 -402.762 980.782 -180.889V-44.8319C980.782 177.025 933.234 224.589 711.361 224.589H575.304C353.447 224.589 305.884 177.041 305.884 -44.8319V-180.889Z" stroke="#F7F9FC" stroke-width="1.4" stroke-miterlimit="10"/>
<path d="M363.578 -169.262C363.578 -353.198 402.996 -392.632 586.948 -392.632H699.751C883.687 -392.632 923.121 -353.214 923.121 -169.262V-56.4589C923.121 127.477 883.702 166.911 699.751 166.911H586.948C403.012 166.911 363.578 127.492 363.578 -56.4589V-169.262Z" stroke="#F7F9FC" stroke-width="1.6" stroke-miterlimit="10"/>
<path d="M421.256 -157.636C421.256 -303.65 452.545 -334.938 598.559 -334.938H688.108C834.122 -334.938 865.411 -303.65 865.411 -157.636V-68.0861C865.411 77.9281 834.122 109.217 688.108 109.217H598.559C452.545 109.217 421.256 77.9281 421.256 -68.0861V-157.636Z" stroke="#F7F9FC" stroke-width="1.8" stroke-miterlimit="10"/>
<path d="M478.934 -145.993C478.934 -254.086 502.093 -277.245 610.186 -277.245H676.466C784.558 -277.245 807.718 -254.086 807.718 -145.993V-79.713C807.718 28.3797 784.558 51.5391 676.466 51.5391H610.186C502.093 51.5391 478.934 28.3797 478.934 -79.713V-145.993Z" stroke="#F7F9FC" stroke-width="2" stroke-miterlimit="10"/>
</g>
</svg>
