<svg width="600" height="472" viewBox="0 0 600 472" fill="none" xmlns="http://www.w3.org/2000/svg">
<mask id="mask0_4114_3068" style="mask-type:alpha" maskUnits="userSpaceOnUse" x="0" y="0" width="600" height="472">
<rect width="600" height="472" rx="16" fill="url(#paint0_linear_4114_3068)"/>
</mask>
<g mask="url(#mask0_4114_3068)">
<path d="M-607.842 472.603C-607.842 99.0441 -527.761 18.9631 -154.202 18.9631H74.8864C448.445 18.9631 528.51 99.0283 528.51 472.587V701.676C528.51 1075.23 448.445 1155.3 74.8864 1155.3H-154.202C-527.761 1155.32 -607.842 1075.25 -607.842 701.691V472.603Z" stroke="#F7F9FC" stroke-width="0.6" stroke-miterlimit="10"/>
<path d="M-668.153 460.734C-668.153 48.4354 -579.67 -39.9502 -166.918 -39.9502H86.2058C498.958 -39.9502 587.423 48.418 587.423 460.716V713.562C587.423 1125.86 498.958 1214.23 86.2058 1214.23H-166.918C-579.67 1214.25 -668.153 1125.88 -668.153 713.579V460.734Z" stroke="#F7F9FC" stroke-width="0.4" stroke-miterlimit="10"/>
<path d="M-728.275 448.615C-728.275 -3.21267 -631.122 -100.072 -177.922 -100.072H100.008C553.207 -100.072 650.342 -3.23174 650.342 448.595V725.683C650.342 1177.51 553.207 1274.35 100.008 1274.35H-177.922C-631.122 1274.37 -728.275 1177.53 -728.275 725.702V448.615Z" stroke="#F7F9FC" stroke-width="0.2" stroke-miterlimit="10"/>
<path d="M-787 437.341C-787 -51.2576 -681.865 -156 -191.435 -156H109.326C599.757 -156 704.871 -51.2783 704.871 437.32V736.958C704.871 1225.56 599.757 1330.28 109.326 1330.28H-191.435C-681.865 1330.3 -787 1225.58 -787 736.979V437.341Z" stroke="#F7F9FC" stroke-width="0.2" stroke-miterlimit="10"/>
<path d="M-550.148 484.229C-550.148 148.592 -478.213 76.6562 -142.575 76.6562H63.2593C398.897 76.6562 470.832 148.592 470.832 484.229V690.064C470.832 1025.7 398.897 1097.64 63.2593 1097.64H-142.575C-478.213 1097.64 -550.148 1025.7 -550.148 690.064V484.229Z" stroke="#F7F9FC" stroke-width="0.8" stroke-miterlimit="10"/>
<path d="M-492.471 495.857C-492.471 198.141 -428.664 134.335 -130.948 134.335H51.6165C349.332 134.335 413.139 198.141 413.139 495.857V678.422C413.139 976.138 349.332 1039.94 51.6165 1039.94H-130.948C-428.664 1039.94 -492.471 976.138 -492.471 678.422V495.857Z" stroke="#F7F9FC" stroke-miterlimit="10"/>
<path d="M-434.793 507.483C-434.793 247.689 -379.116 192.012 -119.322 192.012H39.9895C299.784 192.012 355.461 247.689 355.461 507.483V666.794C355.461 926.589 299.784 982.265 39.9895 982.265H-119.322C-379.116 982.265 -434.793 926.589 -434.793 666.794V507.483Z" stroke="#F7F9FC" stroke-width="1.2" stroke-miterlimit="10"/>
<path d="M-377.116 519.111C-377.116 297.254 -329.569 249.69 -107.696 249.69H28.3615C250.219 249.69 297.782 297.238 297.782 519.111V655.168C297.782 877.025 250.234 924.589 28.3615 924.589H-107.696C-329.553 924.589 -377.116 877.041 -377.116 655.168V519.111Z" stroke="#F7F9FC" stroke-width="1.4" stroke-miterlimit="10"/>
<path d="M-319.422 530.738C-319.422 346.802 -280.004 307.368 -96.0523 307.368H16.7511C200.687 307.368 240.121 346.786 240.121 530.738V643.541C240.121 827.477 200.702 866.911 16.7511 866.911H-96.0523C-279.988 866.911 -319.422 827.492 -319.422 643.541V530.738Z" stroke="#F7F9FC" stroke-width="1.6" stroke-miterlimit="10"/>
<path d="M-261.744 542.364C-261.744 396.35 -230.455 365.062 -84.4412 365.062H5.10828C151.122 365.062 182.411 396.35 182.411 542.364V631.914C182.411 777.928 151.122 809.217 5.10828 809.217H-84.4412C-230.455 809.217 -261.744 777.928 -261.744 631.914V542.364Z" stroke="#F7F9FC" stroke-width="1.8" stroke-miterlimit="10"/>
<path d="M-204.066 554.007C-204.066 445.914 -180.907 422.755 -72.8143 422.755H-6.53445C101.558 422.755 124.718 445.914 124.718 554.007V620.287C124.718 728.38 101.558 751.539 -6.53445 751.539H-72.8143C-180.907 751.539 -204.066 728.38 -204.066 620.287V554.007Z" stroke="#F7F9FC" stroke-width="2" stroke-miterlimit="10"/>
</g>
<defs>
<linearGradient id="paint0_linear_4114_3068" x1="309.5" y1="231.5" x2="7.50005" y2="472" gradientUnits="userSpaceOnUse">
<stop offset="0.16" stop-color="#E9EEF7"/>
<stop offset="1" stop-color="#E9EEF7" stop-opacity="0.2"/>
</linearGradient>
</defs>
</svg>
