<svg width="600" height="472" viewBox="0 0 600 472" fill="none" xmlns="http://www.w3.org/2000/svg">
<mask id="mask0_4114_3088" style="mask-type:alpha" maskUnits="userSpaceOnUse" x="0" y="0" width="600" height="472">
<rect width="600" height="472" rx="16" fill="url(#paint0_linear_4114_3088)"/>
</mask>
<g mask="url(#mask0_4114_3088)">
<path d="M75.1582 472.603C75.1582 99.0441 155.239 18.9631 528.798 18.9631H757.886C1131.45 18.9631 1211.51 99.0283 1211.51 472.587V701.676C1211.51 1075.23 1131.45 1155.3 757.886 1155.3H528.798C155.239 1155.32 75.1582 1075.25 75.1582 701.691V472.603Z" stroke="#F7F9FC" stroke-width="0.6" stroke-miterlimit="10"/>
<path d="M14.8467 460.734C14.8467 48.4354 103.33 -39.9502 516.082 -39.9502H769.206C1181.96 -39.9502 1270.42 48.418 1270.42 460.716V713.562C1270.42 1125.86 1181.96 1214.23 769.206 1214.23H516.082C103.33 1214.25 14.8467 1125.88 14.8467 713.579V460.734Z" stroke="#F7F9FC" stroke-width="0.4" stroke-miterlimit="10"/>
<path d="M-45.2754 448.615C-45.2754 -3.21267 51.8785 -100.072 505.078 -100.072H783.008C1236.21 -100.072 1333.34 -3.23174 1333.34 448.595V725.683C1333.34 1177.51 1236.21 1274.35 783.008 1274.35H505.078C51.8785 1274.37 -45.2754 1177.53 -45.2754 725.702V448.615Z" stroke="#F7F9FC" stroke-width="0.2" stroke-miterlimit="10"/>
<path d="M-104 437.341C-104 -51.2576 1.13505 -156 491.565 -156H792.326C1282.76 -156 1387.87 -51.2783 1387.87 437.32V736.958C1387.87 1225.56 1282.76 1330.28 792.326 1330.28H491.565C1.13505 1330.3 -104 1225.58 -104 736.979V437.341Z" stroke="#F7F9FC" stroke-width="0.2" stroke-miterlimit="10"/>
<path d="M132.852 484.229C132.852 148.592 204.787 76.6562 540.425 76.6562H746.259C1081.9 76.6562 1153.83 148.592 1153.83 484.229V690.064C1153.83 1025.7 1081.9 1097.64 746.259 1097.64H540.425C204.787 1097.64 132.852 1025.7 132.852 690.064V484.229Z" stroke="#F7F9FC" stroke-width="0.8" stroke-miterlimit="10"/>
<path d="M190.529 495.857C190.529 198.141 254.336 134.335 552.052 134.335H734.617C1032.33 134.335 1096.14 198.141 1096.14 495.857V678.422C1096.14 976.138 1032.33 1039.94 734.617 1039.94H552.052C254.336 1039.94 190.529 976.138 190.529 678.422V495.857Z" stroke="#F7F9FC" stroke-miterlimit="10"/>
<path d="M248.207 507.483C248.207 247.689 303.884 192.012 563.678 192.012H722.989C982.784 192.012 1038.46 247.689 1038.46 507.483V666.794C1038.46 926.589 982.784 982.265 722.989 982.265H563.678C303.884 982.265 248.207 926.589 248.207 666.794V507.483Z" stroke="#F7F9FC" stroke-width="1.2" stroke-miterlimit="10"/>
<path d="M305.884 519.111C305.884 297.254 353.431 249.69 575.304 249.69H711.361C933.219 249.69 980.782 297.238 980.782 519.111V655.168C980.782 877.025 933.234 924.589 711.361 924.589H575.304C353.447 924.589 305.884 877.041 305.884 655.168V519.111Z" stroke="#F7F9FC" stroke-width="1.4" stroke-miterlimit="10"/>
<path d="M363.578 530.738C363.578 346.802 402.996 307.368 586.948 307.368H699.751C883.687 307.368 923.121 346.786 923.121 530.738V643.541C923.121 827.477 883.702 866.911 699.751 866.911H586.948C403.012 866.911 363.578 827.492 363.578 643.541V530.738Z" stroke="#F7F9FC" stroke-width="1.6" stroke-miterlimit="10"/>
<path d="M421.256 542.364C421.256 396.35 452.545 365.062 598.559 365.062H688.108C834.122 365.062 865.411 396.35 865.411 542.364V631.914C865.411 777.928 834.122 809.217 688.108 809.217H598.559C452.545 809.217 421.256 777.928 421.256 631.914V542.364Z" stroke="#F7F9FC" stroke-width="1.8" stroke-miterlimit="10"/>
<path d="M478.934 554.007C478.934 445.914 502.093 422.755 610.186 422.755H676.466C784.558 422.755 807.718 445.914 807.718 554.007V620.287C807.718 728.38 784.558 751.539 676.466 751.539H610.186C502.093 751.539 478.934 728.38 478.934 620.287V554.007Z" stroke="#F7F9FC" stroke-width="2" stroke-miterlimit="10"/>
</g>
<defs>
<linearGradient id="paint0_linear_4114_3088" x1="300" y1="260" x2="600" y2="472" gradientUnits="userSpaceOnUse">
<stop offset="0.148709" stop-color="#E9EEF7"/>
<stop offset="1" stop-color="#E9EEF7" stop-opacity="0.2"/>
</linearGradient>
</defs>
</svg>
