<svg width="24" height="24" viewBox="0 0 24 24" fill="none" xmlns="http://www.w3.org/2000/svg">
<path fill-rule="evenodd" clip-rule="evenodd" d="M9.65567 6.00301L6.95807 6.20665C6.60261 6.23349 6.30697 6.4935 6.23916 6.8445C5.58207 10.2462 6.25964 13.3258 8.51198 15.5397C10.7554 17.7449 13.8625 18.4051 17.3212 17.77C17.6928 17.7017 17.9664 17.3812 17.9703 17.0022L17.9999 14.1483C18.0056 13.5984 17.5769 13.1434 17.0277 13.1073L14.8184 12.9623L14.7196 12.9604C14.4572 12.968 14.2055 13.0737 14.0169 13.2591L12.9791 14.2795L9.77738 11.1326L10.7882 10.1396C11.0196 9.91217 11.1307 9.59 11.0873 9.2689L10.7664 6.8954C10.6929 6.35105 10.204 5.96162 9.65567 6.00301ZM9.69224 7.09351L10.002 9.38194L8.96794 10.3994C8.55694 10.8034 8.55694 11.4623 8.96794 11.8663L12.2461 15.0886L12.316 15.1513C12.7238 15.4862 13.3284 15.4652 13.7116 15.0886L14.7661 14.0515L16.9087 14.1922L16.882 16.7386L16.6786 16.7715C13.7267 17.2146 11.1437 16.5972 9.27644 14.7618L9.14168 14.6259C7.37438 12.7971 6.78648 10.3017 7.23495 7.47746L7.26822 7.27676L9.69224 7.09351Z" fill="#131F4A"/>
</svg>
