<svg width="600" height="633" viewBox="0 0 600 633" fill="none" xmlns="http://www.w3.org/2000/svg">
<rect width="600" height="600" rx="16" fill="#E9EEF7"/>
<mask id="mask0_4207_5955" style="mask-type:alpha" maskUnits="userSpaceOnUse" x="0" y="0" width="600" height="600">
<rect width="600" height="600" rx="16" fill="#E9EEF7"/>
</mask>
<g mask="url(#mask0_4207_5955)">
<path d="M77.1582 526.603C77.1582 153.044 157.239 72.9631 530.798 72.9631H759.886C1133.45 72.9631 1213.51 153.028 1213.51 526.587V755.676C1213.51 1129.23 1133.45 1209.3 759.886 1209.3H530.798C157.239 1209.32 77.1582 1129.25 77.1582 755.691V526.603Z" stroke="#F7F9FC" stroke-width="0.6" stroke-miterlimit="10"/>
<path d="M16.8467 514.734C16.8467 102.435 105.33 14.0498 518.082 14.0498H771.206C1183.96 14.0498 1272.42 102.418 1272.42 514.716V767.562C1272.42 1179.86 1183.96 1268.23 771.206 1268.23H518.082C105.33 1268.25 16.8467 1179.88 16.8467 767.579V514.734Z" stroke="#F7F9FC" stroke-width="0.4" stroke-miterlimit="10"/>
<path d="M-43.2754 502.615C-43.2754 50.7873 53.8785 -46.0723 507.078 -46.0723H785.008C1238.21 -46.0723 1335.34 50.7683 1335.34 502.595V779.683C1335.34 1231.51 1238.21 1328.35 785.008 1328.35H507.078C53.8785 1328.37 -43.2754 1231.53 -43.2754 779.702V502.615Z" stroke="#F7F9FC" stroke-width="0.2" stroke-miterlimit="10"/>
<path d="M-102 491.341C-102 2.74236 3.13505 -102 493.565 -102H794.326C1284.76 -102 1389.87 2.72174 1389.87 491.32V790.958C1389.87 1279.56 1284.76 1384.28 794.326 1384.28H493.565C3.13505 1384.3 -102 1279.58 -102 790.979V491.341Z" stroke="#F7F9FC" stroke-width="0.2" stroke-miterlimit="10"/>
<path d="M134.852 538.229C134.852 202.592 206.787 130.656 542.425 130.656H748.259C1083.9 130.656 1155.83 202.592 1155.83 538.229V744.064C1155.83 1079.7 1083.9 1151.64 748.259 1151.64H542.425C206.787 1151.64 134.852 1079.7 134.852 744.064V538.229Z" stroke="#F7F9FC" stroke-width="0.8" stroke-miterlimit="10"/>
<path d="M192.529 549.857C192.529 252.141 256.336 188.335 554.052 188.335H736.617C1034.33 188.335 1098.14 252.141 1098.14 549.857V732.422C1098.14 1030.14 1034.33 1093.94 736.617 1093.94H554.052C256.336 1093.94 192.529 1030.14 192.529 732.422V549.857Z" stroke="#F7F9FC" stroke-miterlimit="10"/>
<path d="M250.207 561.483C250.207 301.689 305.884 246.012 565.678 246.012H724.989C984.784 246.012 1040.46 301.689 1040.46 561.483V720.794C1040.46 980.589 984.784 1036.27 724.989 1036.27H565.678C305.884 1036.27 250.207 980.589 250.207 720.794V561.483Z" stroke="#F7F9FC" stroke-width="1.2" stroke-miterlimit="10"/>
<path d="M307.884 573.111C307.884 351.254 355.431 303.69 577.304 303.69H713.361C935.219 303.69 982.782 351.238 982.782 573.111V709.168C982.782 931.025 935.234 978.589 713.361 978.589H577.304C355.447 978.589 307.884 931.041 307.884 709.168V573.111Z" stroke="#F7F9FC" stroke-width="1.4" stroke-miterlimit="10"/>
<path d="M365.578 584.738C365.578 400.802 404.996 361.368 588.948 361.368H701.751C885.687 361.368 925.121 400.786 925.121 584.738V697.541C925.121 881.477 885.702 920.911 701.751 920.911H588.948C405.012 920.911 365.578 881.492 365.578 697.541V584.738Z" stroke="#F7F9FC" stroke-width="1.6" stroke-miterlimit="10"/>
<path d="M423.256 596.364C423.256 450.35 454.545 419.062 600.559 419.062H690.108C836.122 419.062 867.411 450.35 867.411 596.364V685.914C867.411 831.928 836.122 863.217 690.108 863.217H600.559C454.545 863.217 423.256 831.928 423.256 685.914V596.364Z" stroke="#F7F9FC" stroke-width="1.8" stroke-miterlimit="10"/>
<path d="M480.934 608.007C480.934 499.914 504.093 476.755 612.186 476.755H678.466C786.558 476.755 809.718 499.914 809.718 608.007V674.287C809.718 782.38 786.558 805.539 678.466 805.539H612.186C504.093 805.539 480.934 782.38 480.934 674.287V608.007Z" stroke="#F7F9FC" stroke-width="2" stroke-miterlimit="10"/>
</g>
<g filter="url(#filter0_ddd_4207_5955)">
<rect x="156" y="59" width="288" height="482" rx="16" fill="white"/>
<rect x="157" y="60" width="286" height="480" rx="15" stroke="#DDE5F3" stroke-width="2"/>
</g>
<mask id="mask1_4207_5955" style="mask-type:alpha" maskUnits="userSpaceOnUse" x="156" y="59" width="288" height="480">
<rect x="156" y="59" width="288" height="480" rx="16" fill="white"/>
</mask>
<g mask="url(#mask1_4207_5955)">
<g filter="url(#filter1_d_4207_5955)">
<rect x="174" y="121" width="252" height="112" rx="8" fill="white" shape-rendering="crispEdges"/>
<rect x="174.5" y="121.5" width="251" height="111" rx="7.5" stroke="#5AE9D7" shape-rendering="crispEdges"/>
<path fill-rule="evenodd" clip-rule="evenodd" d="M198.348 147.678L199.356 149.67C199.447 149.85 199.375 150.07 199.195 150.161L198.109 150.711C197.929 150.801 197.709 150.729 197.618 150.549L196.61 148.557L194.873 149.645L194.877 143.616C194.877 143.315 195.221 143.143 195.461 143.324L200.252 146.922L198.348 147.678Z" stroke="#131F4A" stroke-width="1.1" stroke-linecap="round" stroke-linejoin="round"/>
<path d="M201.773 142.227C204.409 144.863 204.409 149.136 201.773 151.773C199.137 154.409 194.863 154.409 192.227 151.773C189.591 149.136 189.591 144.863 192.227 142.227C194.863 139.59 199.137 139.59 201.773 142.227" stroke="#131F4A" stroke-width="1.1" stroke-linecap="round" stroke-linejoin="round"/>
<path d="M220.804 151L220.084 149.176H216.328L215.62 151H214.156L217.528 142.6H218.824L222.304 151H220.804ZM218.2 144.4L216.808 147.94H219.604L218.2 144.4ZM227.244 151.156C224.76 151.156 222.924 149.32 222.924 146.812C222.924 144.292 224.76 142.456 227.244 142.456C229.224 142.456 230.82 143.692 231.264 145.588H229.872C229.464 144.472 228.48 143.788 227.244 143.788C225.564 143.788 224.328 145.06 224.328 146.812C224.328 148.564 225.564 149.824 227.244 149.824C228.528 149.824 229.512 149.092 229.896 147.904H231.3C230.856 149.884 229.26 151.156 227.244 151.156ZM238.352 142.6V143.896H235.892V151H234.512V143.896H232.052V142.6H238.352ZM239.929 151V142.6H241.297V151H239.929ZM247.572 151.168C245.016 151.168 243.144 149.296 243.144 146.8C243.144 144.316 245.016 142.444 247.572 142.444C250.116 142.444 252 144.316 252 146.8C252 149.296 250.116 151.168 247.572 151.168ZM247.572 149.836C249.3 149.836 250.596 148.54 250.596 146.8C250.596 145.072 249.3 143.776 247.572 143.776C245.844 143.776 244.536 145.084 244.536 146.8C244.536 148.528 245.844 149.836 247.572 149.836ZM259.358 142.6H260.702V151H259.55L255.182 145.012V151H253.838V142.6H255.074L259.358 148.504V142.6Z" fill="#131F4A"/>
<rect x="325" y="135" width="87" height="24" rx="4" fill="#EDFDFB"/>
<path d="M339.848 151.156C337.364 151.156 335.528 149.32 335.528 146.812C335.528 144.292 337.364 142.456 339.848 142.456C341.828 142.456 343.424 143.692 343.868 145.588H342.476C342.068 144.472 341.084 143.788 339.848 143.788C338.168 143.788 336.932 145.06 336.932 146.812C336.932 148.564 338.168 149.824 339.848 149.824C341.132 149.824 342.116 149.092 342.5 147.904H343.904C343.46 149.884 341.864 151.156 339.848 151.156ZM349.489 151.168C346.933 151.168 345.061 149.296 345.061 146.8C345.061 144.316 346.933 142.444 349.489 142.444C352.033 142.444 353.917 144.316 353.917 146.8C353.917 149.296 352.033 151.168 349.489 151.168ZM349.489 149.836C351.217 149.836 352.513 148.54 352.513 146.8C352.513 145.072 351.217 143.776 349.489 143.776C347.761 143.776 346.453 145.084 346.453 146.8C346.453 148.528 347.761 149.836 349.489 149.836ZM365.693 151H364.277L363.305 144.916L360.569 150.88H360.221L357.485 144.916L356.501 151H355.097L356.477 142.6H357.833L360.389 148.312L362.957 142.6H364.337L365.693 151ZM370.587 142.6C372.219 142.6 373.455 143.788 373.455 145.384C373.455 146.968 372.231 148.156 370.587 148.156H368.859V151H367.491V142.6H370.587ZM370.527 146.848C371.427 146.848 372.051 146.224 372.051 145.384C372.051 144.532 371.427 143.908 370.527 143.908H368.859V146.848H370.527ZM376.482 149.716H379.974V151H375.114V142.6H376.482V149.716ZM382.909 149.704H386.545V151H381.541V142.6H386.413V143.896H382.909V146.092H386.101V147.352H382.909V149.704ZM393.933 142.6V143.896H391.473V151H390.093V143.896H387.633V142.6H393.933ZM396.878 149.704H400.514V151H395.51V142.6H400.382V143.896H396.878V146.092H400.07V147.352H396.878V149.704Z" fill="#1CCFB8"/>
<path d="M194.888 183.904C195.77 184.324 196.288 185.206 196.288 186.256C196.288 187.796 194.958 189.014 193.264 189.014H189.246V179.214H193.194C194.832 179.214 196.036 180.292 196.036 181.734C196.036 182.574 195.602 183.442 194.888 183.904ZM194.426 181.958C194.426 181.23 193.866 180.684 193.096 180.684H190.828V183.232H193.096C193.866 183.232 194.426 182.686 194.426 181.958ZM193.18 187.474C194.034 187.474 194.65 186.886 194.65 186.088C194.65 185.29 194.034 184.702 193.18 184.702H190.828V187.474H193.18ZM201.602 189.196C199.278 189.196 197.556 187.502 197.556 185.22C197.556 182.938 199.278 181.258 201.602 181.258C203.912 181.258 205.634 182.952 205.634 185.22C205.634 187.502 203.912 189.196 201.602 189.196ZM201.602 187.712C203.03 187.712 204.052 186.676 204.052 185.22C204.052 183.778 203.03 182.742 201.602 182.742C200.16 182.742 199.138 183.778 199.138 185.22C199.138 186.676 200.16 187.712 201.602 187.712ZM210.789 189.196C208.465 189.196 206.743 187.502 206.743 185.22C206.743 182.938 208.465 181.258 210.789 181.258C213.099 181.258 214.821 182.952 214.821 185.22C214.821 187.502 213.099 189.196 210.789 189.196ZM210.789 187.712C212.217 187.712 213.239 186.676 213.239 185.22C213.239 183.778 212.217 182.742 210.789 182.742C209.347 182.742 208.325 183.778 208.325 185.22C208.325 186.676 209.347 187.712 210.789 187.712ZM221.405 189L219.137 185.78H218.199V189H216.645V178.738H218.199V184.366H219.151L221.195 181.44H223.029L220.467 185.08L223.309 189H221.405ZM231.979 181.272C233.743 181.272 234.849 182.504 234.849 184.45V189H233.295V184.772C233.295 183.4 232.707 182.672 231.559 182.672C230.383 182.672 229.529 183.624 229.529 184.954V189H227.975V178.738H229.529V182.308C230.103 181.664 230.971 181.272 231.979 181.272ZM240.444 189.196C238.12 189.196 236.398 187.502 236.398 185.22C236.398 182.938 238.12 181.258 240.444 181.258C242.754 181.258 244.476 182.952 244.476 185.22C244.476 187.502 242.754 189.196 240.444 189.196ZM240.444 187.712C241.872 187.712 242.894 186.676 242.894 185.22C242.894 183.778 241.872 182.742 240.444 182.742C239.002 182.742 237.98 183.778 237.98 185.22C237.98 186.676 239.002 187.712 240.444 187.712ZM249.463 189.196C247.377 189.196 246.019 187.852 246.019 185.808V181.44H247.573V185.598C247.573 186.914 248.287 187.712 249.463 187.712C250.639 187.712 251.339 186.9 251.339 185.598V181.44H252.893V185.808C252.893 187.852 251.549 189.196 249.463 189.196ZM257.497 189.196C255.663 189.196 254.459 188.174 254.417 186.606H255.929C255.971 187.404 256.643 187.824 257.553 187.824C258.393 187.824 259.037 187.474 259.037 186.844C259.037 186.116 258.225 185.962 257.301 185.808C256.041 185.584 254.557 185.304 254.557 183.554C254.557 182.196 255.719 181.258 257.483 181.258C259.233 181.258 260.381 182.224 260.409 183.68H258.939C258.911 182.966 258.351 182.574 257.441 182.574C256.587 182.574 256.055 182.952 256.055 183.498C256.055 184.17 256.825 184.296 257.735 184.45C259.009 184.66 260.563 184.912 260.563 186.774C260.563 188.244 259.345 189.196 257.497 189.196ZM269.419 185.248C269.419 185.416 269.405 185.584 269.377 185.752H263.245C263.441 186.984 264.323 187.74 265.555 187.74C266.465 187.74 267.193 187.32 267.599 186.62H269.237C268.635 188.216 267.249 189.196 265.555 189.196C263.343 189.196 261.677 187.488 261.677 185.22C261.677 182.966 263.343 181.258 265.555 181.258C267.879 181.258 269.419 183.05 269.419 185.248ZM265.555 182.672C264.393 182.672 263.539 183.372 263.287 184.492H267.851C267.571 183.344 266.717 182.672 265.555 182.672ZM277.737 187.6H278.605V189H277.443C275.791 189 274.769 187.978 274.769 186.312V182.784H273.411V182.476L276.043 179.676H276.309V181.44H278.563V182.784H276.323V186.186C276.323 187.096 276.827 187.6 277.737 187.6ZM283.524 189.196C281.2 189.196 279.478 187.502 279.478 185.22C279.478 182.938 281.2 181.258 283.524 181.258C285.834 181.258 287.556 182.952 287.556 185.22C287.556 187.502 285.834 189.196 283.524 189.196ZM283.524 187.712C284.952 187.712 285.974 186.676 285.974 185.22C285.974 183.778 284.952 182.742 283.524 182.742C282.082 182.742 281.06 183.778 281.06 185.22C281.06 186.676 282.082 187.712 283.524 187.712ZM292.543 189.196C290.457 189.196 289.099 187.852 289.099 185.808V181.44H290.653V185.598C290.653 186.914 291.367 187.712 292.543 187.712C293.719 187.712 294.419 186.9 294.419 185.598V181.44H295.973V185.808C295.973 187.852 294.629 189.196 292.543 189.196ZM301.697 181.398H302.369V182.868H301.543C300.255 182.868 299.625 183.61 299.625 184.982V189H298.071V181.44H299.121L299.373 182.476C299.919 181.762 300.661 181.398 301.697 181.398Z" fill="#131F4A"/>
<path d="M193.796 208.644C194.576 208.98 195.044 209.772 195.044 210.696C195.044 211.992 193.952 213 192.5 213H189.14V204.6H192.464C193.832 204.6 194.828 205.524 194.828 206.748C194.828 207.504 194.42 208.272 193.796 208.644ZM193.748 206.892C193.748 206.184 193.172 205.632 192.44 205.632H190.184V208.152H192.44C193.196 208.152 193.748 207.588 193.748 206.892ZM192.488 211.968C193.328 211.968 193.964 211.38 193.964 210.576C193.964 209.784 193.328 209.184 192.5 209.184H190.184V211.968H192.488ZM199.682 213.144C197.714 213.144 196.238 211.704 196.238 209.76C196.238 207.816 197.714 206.388 199.682 206.388C201.638 206.388 203.114 207.828 203.114 209.76C203.114 211.704 201.638 213.144 199.682 213.144ZM199.682 212.16C201.062 212.16 202.07 211.152 202.07 209.772C202.07 208.38 201.062 207.372 199.682 207.372C198.29 207.372 197.282 208.38 197.282 209.76C197.282 211.152 198.29 212.16 199.682 212.16ZM207.593 213.144C205.625 213.144 204.149 211.704 204.149 209.76C204.149 207.816 205.625 206.388 207.593 206.388C209.549 206.388 211.025 207.828 211.025 209.76C211.025 211.704 209.549 213.144 207.593 213.144ZM207.593 212.16C208.973 212.16 209.981 211.152 209.981 209.772C209.981 208.38 208.973 207.372 207.593 207.372C206.201 207.372 205.193 208.38 205.193 209.76C205.193 211.152 206.201 212.16 207.593 212.16ZM216.847 213L214.639 210.096H213.703V213H212.683V204.216H213.703V209.16H214.651L216.643 206.52H217.891L215.527 209.628L218.131 213H216.847ZM225.565 206.388C227.113 206.388 228.073 207.444 228.073 209.124V213H227.053V209.364C227.053 208.056 226.429 207.312 225.313 207.312C224.197 207.312 223.345 208.26 223.345 209.472V213H222.325V204.216H223.345V207.408C223.849 206.772 224.629 206.388 225.565 206.388ZM232.952 213.144C230.984 213.144 229.508 211.704 229.508 209.76C229.508 207.816 230.984 206.388 232.952 206.388C234.908 206.388 236.384 207.828 236.384 209.76C236.384 211.704 234.908 213.144 232.952 213.144ZM232.952 212.16C234.332 212.16 235.34 211.152 235.34 209.772C235.34 208.38 234.332 207.372 232.952 207.372C231.56 207.372 230.552 208.38 230.552 209.76C230.552 211.152 231.56 212.16 232.952 212.16ZM240.694 213.144C238.954 213.144 237.826 212.016 237.826 210.276V206.52H238.846V210.108C238.846 211.38 239.554 212.16 240.694 212.16C241.858 212.16 242.554 211.368 242.554 210.108V206.52H243.574V210.276C243.574 212.016 242.458 213.144 240.694 213.144ZM247.568 213.144C246.032 213.144 245.036 212.328 244.976 211.02H245.984C246.032 211.788 246.692 212.208 247.604 212.208C248.492 212.208 249.128 211.824 249.128 211.2C249.128 210.432 248.324 210.288 247.448 210.144C246.344 209.952 245.096 209.724 245.096 208.26C245.096 207.144 246.08 206.388 247.544 206.388C249.008 206.388 249.944 207.168 249.98 208.392H249.02C248.984 207.684 248.432 207.3 247.52 207.3C246.644 207.3 246.092 207.66 246.092 208.224C246.092 208.908 246.836 209.04 247.7 209.172C248.816 209.352 250.136 209.568 250.136 211.152C250.136 212.364 249.104 213.144 247.568 213.144ZM257.728 209.796C257.728 209.916 257.716 210.036 257.704 210.156H252.184C252.34 211.356 253.24 212.148 254.464 212.148C255.364 212.148 256.084 211.728 256.48 211.032H257.56C257.008 212.364 255.868 213.144 254.464 213.144C252.58 213.144 251.164 211.692 251.164 209.76C251.164 207.84 252.58 206.388 254.464 206.388C256.432 206.388 257.728 207.9 257.728 209.796ZM254.464 207.348C253.288 207.348 252.412 208.092 252.208 209.22H256.708C256.492 208.068 255.616 207.348 254.464 207.348ZM264.88 212.064H265.588V213H264.748C263.356 213 262.492 212.148 262.492 210.744V207.444H261.352V207.264L263.356 205.152H263.512V206.52H265.552V207.444H263.512V210.708C263.512 211.584 263.992 212.064 264.88 212.064ZM269.796 213.144C267.828 213.144 266.352 211.704 266.352 209.76C266.352 207.816 267.828 206.388 269.796 206.388C271.752 206.388 273.228 207.828 273.228 209.76C273.228 211.704 271.752 213.144 269.796 213.144ZM269.796 212.16C271.176 212.16 272.184 211.152 272.184 209.772C272.184 208.38 271.176 207.372 269.796 207.372C268.404 207.372 267.396 208.38 267.396 209.76C267.396 211.152 268.404 212.16 269.796 212.16ZM277.538 213.144C275.798 213.144 274.67 212.016 274.67 210.276V206.52H275.69V210.108C275.69 211.38 276.398 212.16 277.538 212.16C278.702 212.16 279.398 211.368 279.398 210.108V206.52H280.418V210.276C280.418 212.016 279.302 213.144 277.538 213.144ZM285.324 206.496H285.9V207.456H285.24C284.052 207.456 283.38 208.224 283.38 209.484V213H282.36V206.52H283.092L283.248 207.516C283.716 206.844 284.388 206.496 285.324 206.496ZM297.498 206.52H298.53L296.322 213H295.494L293.67 208.596L291.834 213H291.006L288.822 206.52H289.878L291.498 211.296L293.478 206.628H293.85L295.854 211.344L297.498 206.52ZM299.75 205.404V204.24H300.854V205.404H299.75ZM299.786 213V206.52H300.806V213H299.786ZM305.544 212.064H306.252V213H305.412C304.02 213 303.156 212.148 303.156 210.744V207.444H302.016V207.264L304.02 205.152H304.176V206.52H306.216V207.444H304.176V210.708C304.176 211.584 304.656 212.064 305.544 212.064ZM310.854 206.388C312.402 206.388 313.362 207.444 313.362 209.124V213H312.342V209.364C312.342 208.056 311.718 207.312 310.602 207.312C309.486 207.312 308.634 208.26 308.634 209.472V213H307.614V204.216H308.634V207.408C309.138 206.772 309.918 206.388 310.854 206.388ZM322.901 206.52H323.993L320.897 213.276C320.201 214.812 319.589 215.316 318.365 215.316H317.753V214.392H318.269C319.145 214.392 319.445 214.128 319.973 213.048L320.201 212.568L317.321 206.52H318.425L320.729 211.428L322.901 206.52ZM327.897 213.144C325.929 213.144 324.453 211.704 324.453 209.76C324.453 207.816 325.929 206.388 327.897 206.388C329.853 206.388 331.329 207.828 331.329 209.76C331.329 211.704 329.853 213.144 327.897 213.144ZM327.897 212.16C329.277 212.16 330.285 211.152 330.285 209.772C330.285 208.38 329.277 207.372 327.897 207.372C326.505 207.372 325.497 208.38 325.497 209.76C325.497 211.152 326.505 212.16 327.897 212.16ZM335.639 213.144C333.899 213.144 332.771 212.016 332.771 210.276V206.52H333.791V210.108C333.791 211.38 334.499 212.16 335.639 212.16C336.803 212.16 337.499 211.368 337.499 210.108V206.52H338.519V210.276C338.519 212.016 337.403 213.144 335.639 213.144ZM343.425 206.496H344.001V207.456H343.341C342.153 207.456 341.481 208.224 341.481 209.484V213H340.461V206.52H341.193L341.349 207.516C341.817 206.844 342.489 206.496 343.425 206.496ZM353.423 206.52H354.227V213H353.387L353.279 212.028C352.679 212.724 351.791 213.144 350.735 213.144C348.815 213.144 347.375 211.692 347.375 209.772C347.375 207.828 348.815 206.388 350.735 206.388C351.791 206.388 352.691 206.808 353.291 207.516L353.423 206.52ZM350.807 212.16C352.187 212.16 353.183 211.14 353.183 209.76C353.183 208.392 352.187 207.372 350.807 207.372C349.439 207.372 348.419 208.404 348.419 209.76C348.419 211.128 349.439 212.16 350.807 212.16ZM361.634 206.52L362.318 206.532V212.1C362.318 214.188 361.118 215.46 359.138 215.46C357.554 215.46 356.426 214.632 356.078 213.264H357.098C357.386 214.068 358.202 214.524 359.138 214.524C360.434 214.524 361.322 213.672 361.322 212.232V211.836C360.746 212.436 359.918 212.796 358.958 212.796C357.158 212.796 355.778 211.404 355.778 209.592C355.778 207.792 357.158 206.388 358.958 206.388C360.002 206.388 360.89 206.82 361.478 207.528L361.634 206.52ZM359.066 211.824C360.374 211.824 361.31 210.876 361.31 209.592C361.31 208.308 360.362 207.36 359.066 207.36C357.77 207.36 356.81 208.32 356.81 209.592C356.81 210.864 357.77 211.824 359.066 211.824ZM370.428 209.796C370.428 209.916 370.416 210.036 370.404 210.156H364.884C365.04 211.356 365.94 212.148 367.164 212.148C368.064 212.148 368.784 211.728 369.18 211.032H370.26C369.708 212.364 368.568 213.144 367.164 213.144C365.28 213.144 363.864 211.692 363.864 209.76C363.864 207.84 365.28 206.388 367.164 206.388C369.132 206.388 370.428 207.9 370.428 209.796ZM367.164 207.348C365.988 207.348 365.112 208.092 364.908 209.22H369.408C369.192 208.068 368.316 207.348 367.164 207.348ZM375.19 206.388C376.738 206.388 377.698 207.54 377.698 209.124V213H376.678V209.364C376.678 208.056 376.054 207.312 374.938 207.312C373.822 207.312 372.97 208.26 372.97 209.472V213H371.95V206.52H372.682L372.874 207.54C373.366 206.82 374.194 206.388 375.19 206.388ZM382.278 212.064H382.986V213H382.146C380.754 213 379.89 212.148 379.89 210.744V207.444H378.75V207.264L380.754 205.152H380.91V206.52H382.95V207.444H380.91V210.708C380.91 211.584 381.39 212.064 382.278 212.064Z" fill="#9197AE"/>
</g>
<g filter="url(#filter2_d_4207_5955)">
<rect x="174" y="241" width="252" height="136" rx="8" fill="white" shape-rendering="crispEdges"/>
<rect x="174.5" y="241.5" width="251" height="135" rx="7.5" stroke="#DDE5F3" shape-rendering="crispEdges"/>
<path d="M202.129 271.38C201.783 271.785 201.389 272.146 200.957 272.458" stroke="#131F4A" stroke-width="1.1" stroke-linecap="round" stroke-linejoin="round"/>
<path d="M193.248 261.389C194.32 260.67 195.61 260.25 196.998 260.25C197.682 260.25 198.341 260.354 198.963 260.543" stroke="#131F4A" stroke-width="1.1" stroke-linecap="round" stroke-linejoin="round"/>
<path d="M196.999 270L196.999 264" stroke="#131F4A" stroke-width="1.1" stroke-linecap="round" stroke-linejoin="round"/>
<path d="M199.249 267.75L196.999 270L194.749 267.75" stroke="#131F4A" stroke-width="1.1" stroke-linecap="round" stroke-linejoin="round"/>
<path d="M201.237 261.75C202.198 262.526 202.936 263.563 203.356 264.75" stroke="#131F4A" stroke-width="1.1" stroke-linecap="round" stroke-linejoin="round"/>
<path d="M203.357 269.25C203.606 268.545 203.749 267.791 203.749 267" stroke="#131F4A" stroke-width="1.1" stroke-linecap="round" stroke-linejoin="round"/>
<path d="M191.402 263.25C190.679 264.323 190.249 265.609 190.249 267C190.249 270.728 193.271 273.75 196.999 273.75" stroke="#131F4A" stroke-width="1.1" stroke-linecap="round" stroke-linejoin="round"/>
<path d="M218.344 271.168C216.412 271.168 214.972 269.8 214.972 267.868V262.6H216.352V267.784C216.352 269.02 217.18 269.836 218.344 269.836C219.508 269.836 220.324 269.02 220.324 267.784V262.6H221.716V267.868C221.716 269.8 220.276 271.168 218.344 271.168ZM227.099 262.6C228.731 262.6 229.967 263.788 229.967 265.384C229.967 266.968 228.743 268.156 227.099 268.156H225.371V271H224.003V262.6H227.099ZM227.039 266.848C227.939 266.848 228.563 266.224 228.563 265.384C228.563 264.532 227.939 263.908 227.039 263.908H225.371V266.848H227.039ZM232.994 269.716H236.486V271H231.626V262.6H232.994V269.716ZM241.508 271.168C238.952 271.168 237.08 269.296 237.08 266.8C237.08 264.316 238.952 262.444 241.508 262.444C244.052 262.444 245.936 264.316 245.936 266.8C245.936 269.296 244.052 271.168 241.508 271.168ZM241.508 269.836C243.236 269.836 244.532 268.54 244.532 266.8C244.532 265.072 243.236 263.776 241.508 263.776C239.78 263.776 238.472 265.084 238.472 266.8C238.472 268.528 239.78 269.836 241.508 269.836ZM253.182 271L252.462 269.176H248.706L247.998 271H246.534L249.906 262.6H251.202L254.682 271H253.182ZM250.578 264.4L249.186 267.94H251.982L250.578 264.4ZM259.111 262.6C261.583 262.6 263.371 264.364 263.371 266.8C263.371 269.236 261.583 271 259.111 271H256.159V262.6H259.111ZM259.075 269.716C260.779 269.716 261.967 268.492 261.967 266.8C261.967 265.108 260.779 263.896 259.075 263.896H257.527V269.716H259.075Z" fill="#131F4A"/>
<rect x="309" y="255" width="103" height="24" rx="4" fill="#E9EEF7"/>
<path d="M325.588 262.6H326.932V271H325.78L321.412 265.012V271H320.068V262.6H321.304L325.588 268.504V262.6ZM333.208 271.168C330.652 271.168 328.78 269.296 328.78 266.8C328.78 264.316 330.652 262.444 333.208 262.444C335.752 262.444 337.636 264.316 337.636 266.8C337.636 269.296 335.752 271.168 333.208 271.168ZM333.208 269.836C334.936 269.836 336.232 268.54 336.232 266.8C336.232 265.072 334.936 263.776 333.208 263.776C331.48 263.776 330.172 265.084 330.172 266.8C330.172 268.528 331.48 269.836 333.208 269.836ZM344.606 262.6V263.896H342.146V271H340.766V263.896H338.306V262.6H344.606ZM351.675 271.132C349.791 271.132 348.507 270.076 348.507 268.36H349.911C349.911 269.296 350.679 269.824 351.663 269.824C352.563 269.824 353.319 269.344 353.319 268.576C353.319 267.736 352.419 267.532 351.411 267.292C350.127 266.98 348.651 266.62 348.651 264.892C348.651 263.38 349.803 262.48 351.591 262.48C353.415 262.48 354.495 263.476 354.495 265.06H353.127C353.127 264.22 352.431 263.764 351.555 263.764C350.715 263.764 350.031 264.148 350.031 264.832C350.031 265.612 350.895 265.816 351.891 266.056C353.199 266.38 354.735 266.752 354.735 268.564C354.735 270.244 353.379 271.132 351.675 271.132ZM361.92 262.6V263.896H359.46V271H358.08V263.896H355.62V262.6H361.92ZM368.435 271L367.715 269.176H363.959L363.251 271H361.787L365.159 262.6H366.455L369.935 271H368.435ZM365.831 264.4L364.439 267.94H367.235L365.831 264.4ZM376.188 271L374.376 267.892H372.78V271H371.412V262.6H374.676C376.296 262.6 377.496 263.716 377.496 265.264C377.496 266.404 376.812 267.316 375.792 267.7L377.736 271H376.188ZM372.78 263.896V266.608H374.592C375.504 266.608 376.092 266.044 376.092 265.252C376.092 264.472 375.504 263.896 374.592 263.896H372.78ZM384.812 262.6V263.896H382.352V271H380.972V263.896H378.512V262.6H384.812ZM387.756 269.704H391.392V271H386.388V262.6H391.26V263.896H387.756V266.092H390.948V267.352H387.756V269.704ZM396.248 262.6C398.72 262.6 400.508 264.364 400.508 266.8C400.508 269.236 398.72 271 396.248 271H393.296V262.6H396.248ZM396.212 269.716C397.916 269.716 399.104 268.492 399.104 266.8C399.104 265.108 397.916 263.896 396.212 263.896H394.664V269.716H396.212Z" fill="#636B87"/>
<path d="M193.068 309.196C190.814 309.196 189.134 307.6 189.134 305.346V299.2H190.744V305.248C190.744 306.69 191.71 307.642 193.068 307.642C194.426 307.642 195.378 306.69 195.378 305.248V299.2H197.002V305.346C197.002 307.6 195.322 309.196 193.068 309.196ZM203.187 301.258C205.441 301.258 207.107 302.952 207.107 305.22C207.107 307.488 205.441 309.196 203.187 309.196C202.207 309.196 201.339 308.86 200.681 308.286V311.716H199.127V301.44H200.163L200.457 302.378C201.143 301.678 202.095 301.258 203.187 301.258ZM203.061 307.712C204.489 307.712 205.525 306.648 205.525 305.22C205.525 303.806 204.489 302.742 203.061 302.742C201.633 302.742 200.583 303.806 200.583 305.22C200.583 306.648 201.633 307.712 203.061 307.712ZM208.78 309V298.738H210.334V309H208.78ZM216.026 309.196C213.702 309.196 211.98 307.502 211.98 305.22C211.98 302.938 213.702 301.258 216.026 301.258C218.336 301.258 220.058 302.952 220.058 305.22C220.058 307.502 218.336 309.196 216.026 309.196ZM216.026 307.712C217.454 307.712 218.476 306.676 218.476 305.22C218.476 303.778 217.454 302.742 216.026 302.742C214.584 302.742 213.562 303.778 213.562 305.22C213.562 306.676 214.584 307.712 216.026 307.712ZM228.055 301.44H229.245V309H227.999L227.845 308.09C227.159 308.776 226.207 309.196 225.101 309.196C222.847 309.196 221.167 307.488 221.167 305.22C221.167 302.952 222.847 301.258 225.101 301.258C226.221 301.258 227.187 301.678 227.873 302.392L228.055 301.44ZM225.227 307.698C226.655 307.698 227.691 306.648 227.691 305.22C227.691 303.792 226.655 302.742 225.227 302.742C223.799 302.742 222.749 303.806 222.749 305.22C222.749 306.634 223.799 307.698 225.227 307.698ZM237.341 298.738H238.895V309.014H237.719L237.509 308.146C236.837 308.804 235.899 309.196 234.849 309.196C232.553 309.196 230.915 307.488 230.915 305.234C230.915 302.952 232.553 301.258 234.849 301.258C235.815 301.258 236.669 301.58 237.341 302.14V298.738ZM234.961 307.712C236.389 307.712 237.439 306.634 237.439 305.22C237.439 303.806 236.389 302.742 234.961 302.742C233.547 302.742 232.497 303.806 232.497 305.22C232.497 306.648 233.547 307.712 234.961 307.712ZM249.703 301.44H251.355L247.883 309.14C247.029 311.044 246.273 311.716 244.733 311.716H243.963V310.316H244.621C245.615 310.316 245.923 310.022 246.483 308.818L246.651 308.454L243.361 301.44H245.041L247.449 306.718L249.703 301.44ZM255.797 309.196C253.473 309.196 251.751 307.502 251.751 305.22C251.751 302.938 253.473 301.258 255.797 301.258C258.107 301.258 259.829 302.952 259.829 305.22C259.829 307.502 258.107 309.196 255.797 309.196ZM255.797 307.712C257.225 307.712 258.247 306.676 258.247 305.22C258.247 303.778 257.225 302.742 255.797 302.742C254.355 302.742 253.333 303.778 253.333 305.22C253.333 306.676 254.355 307.712 255.797 307.712ZM264.817 309.196C262.731 309.196 261.373 307.852 261.373 305.808V301.44H262.927V305.598C262.927 306.914 263.641 307.712 264.817 307.712C265.993 307.712 266.693 306.9 266.693 305.598V301.44H268.247V305.808C268.247 307.852 266.903 309.196 264.817 309.196ZM273.97 301.398H274.642V302.868H273.816C272.528 302.868 271.898 303.61 271.898 304.982V309H270.344V301.44H271.394L271.646 302.476C272.192 301.762 272.934 301.398 273.97 301.398ZM285.579 299.2H287.147V309H285.803L280.707 302.014V309H279.139V299.2H280.581L285.579 306.088V299.2ZM292.889 309.196C290.565 309.196 288.843 307.502 288.843 305.22C288.843 302.938 290.565 301.258 292.889 301.258C295.199 301.258 296.921 302.952 296.921 305.22C296.921 307.502 295.199 309.196 292.889 309.196ZM292.889 307.712C294.317 307.712 295.339 306.676 295.339 305.22C295.339 303.778 294.317 302.742 292.889 302.742C291.447 302.742 290.425 303.778 290.425 305.22C290.425 306.676 291.447 307.712 292.889 307.712ZM306.794 309.196C303.812 309.196 301.628 307.012 301.628 304.1C301.628 301.202 303.812 299.018 306.794 299.018C309.762 299.018 311.96 301.202 311.96 304.1C311.96 307.012 309.762 309.196 306.794 309.196ZM306.794 307.642C308.81 307.642 310.322 306.13 310.322 304.1C310.322 302.084 308.81 300.572 306.794 300.572C304.778 300.572 303.252 302.098 303.252 304.1C303.252 306.116 304.778 307.642 306.794 307.642ZM317.648 301.258C319.944 301.258 321.582 302.952 321.582 305.234C321.582 307.488 319.944 309.196 317.648 309.196C316.598 309.196 315.66 308.804 314.988 308.146L314.792 309.014H313.616V298.738H315.17V302.14C315.828 301.58 316.682 301.258 317.648 301.258ZM317.536 307.698C318.964 307.698 320 306.648 320 305.22C320 303.806 318.964 302.742 317.536 302.742C316.108 302.742 315.058 303.806 315.058 305.22C315.058 306.634 316.108 307.698 317.536 307.698ZM323.394 300.278V298.668H325.004V300.278H323.394ZM321.546 311.716V310.302H322.078C322.946 310.302 323.422 309.812 323.422 308.944V301.454H324.976V309.07C324.976 310.638 323.898 311.716 322.316 311.716H321.546ZM334.374 305.248C334.374 305.416 334.36 305.584 334.332 305.752H328.2C328.396 306.984 329.278 307.74 330.51 307.74C331.42 307.74 332.148 307.32 332.554 306.62H334.192C333.59 308.216 332.204 309.196 330.51 309.196C328.298 309.196 326.632 307.488 326.632 305.22C326.632 302.966 328.298 301.258 330.51 301.258C332.834 301.258 334.374 303.05 334.374 305.248ZM330.51 302.672C329.348 302.672 328.494 303.372 328.242 304.492H332.806C332.526 303.344 331.672 302.672 330.51 302.672ZM339.426 309.196C337.172 309.196 335.464 307.474 335.464 305.22C335.464 302.966 337.172 301.258 339.426 301.258C341.302 301.258 342.758 302.406 343.178 304.142H341.638C341.246 303.274 340.406 302.742 339.426 302.742C338.068 302.742 337.046 303.82 337.046 305.22C337.046 306.62 338.082 307.712 339.426 307.712C340.42 307.712 341.218 307.18 341.624 306.256H343.192C342.786 308.02 341.288 309.196 339.426 309.196ZM348.079 307.6H348.947V309H347.785C346.133 309 345.111 307.978 345.111 306.312V302.784H343.753V302.476L346.385 299.676H346.651V301.44H348.905V302.784H346.665V306.186C346.665 307.096 347.169 307.6 348.079 307.6ZM350.433 300.278V298.668H352.029V300.278H350.433ZM350.461 309V301.44H352.015V309H350.461ZM357.707 309.196C355.383 309.196 353.661 307.502 353.661 305.22C353.661 302.938 355.383 301.258 357.707 301.258C360.017 301.258 361.739 302.952 361.739 305.22C361.739 307.502 360.017 309.196 357.707 309.196ZM357.707 307.712C359.135 307.712 360.157 306.676 360.157 305.22C360.157 303.778 359.135 302.742 357.707 302.742C356.265 302.742 355.243 303.778 355.243 305.22C355.243 306.676 356.265 307.712 357.707 307.712ZM367.399 301.272C369.177 301.272 370.283 302.588 370.283 304.45V309H368.729V304.772C368.729 303.4 368.127 302.672 366.993 302.672C365.803 302.672 364.963 303.624 364.963 304.954V309H363.409V301.44H364.487L364.795 302.504C365.355 301.734 366.293 301.272 367.399 301.272ZM193.656 333.182C190.758 333.182 188.616 331.04 188.616 328.114C188.616 325.174 190.758 323.032 193.656 323.032C195.966 323.032 197.828 324.474 198.346 326.686H196.722C196.246 325.384 195.098 324.586 193.656 324.586C191.696 324.586 190.254 326.07 190.254 328.114C190.254 330.158 191.696 331.628 193.656 331.628C195.154 331.628 196.302 330.774 196.75 329.388H198.388C197.87 331.698 196.008 333.182 193.656 333.182ZM207.13 329.248C207.13 329.416 207.116 329.584 207.088 329.752H200.956C201.152 330.984 202.034 331.74 203.266 331.74C204.176 331.74 204.904 331.32 205.31 330.62H206.948C206.346 332.216 204.96 333.196 203.266 333.196C201.054 333.196 199.388 331.488 199.388 329.22C199.388 326.966 201.054 325.258 203.266 325.258C205.59 325.258 207.13 327.05 207.13 329.248ZM203.266 326.672C202.104 326.672 201.25 327.372 200.998 328.492H205.562C205.282 327.344 204.428 326.672 203.266 326.672ZM212.406 325.398H213.078V326.868H212.252C210.964 326.868 210.334 327.61 210.334 328.982V333H208.78V325.44H209.83L210.082 326.476C210.628 325.762 211.37 325.398 212.406 325.398ZM217.663 331.6H218.531V333H217.369C215.717 333 214.695 331.978 214.695 330.312V326.784H213.337V326.476L215.969 323.676H216.235V325.44H218.489V326.784H216.249V330.186C216.249 331.096 216.753 331.6 217.663 331.6ZM220.017 324.278V322.668H221.613V324.278H220.017ZM220.045 333V325.44H221.599V333H220.045ZM228.089 325.524V326.812H225.947V333.014H224.393V326.812H222.979V325.524H224.393V324.88C224.393 323.34 225.163 322.486 226.815 322.486H228.075V323.718H227.109C226.269 323.718 225.905 324.068 225.905 324.908V325.524H228.089ZM229.369 324.278V322.668H230.965V324.278H229.369ZM229.397 333V325.44H230.951V333H229.397ZM236.559 333.196C234.305 333.196 232.597 331.474 232.597 329.22C232.597 326.966 234.305 325.258 236.559 325.258C238.435 325.258 239.891 326.406 240.311 328.142H238.771C238.379 327.274 237.539 326.742 236.559 326.742C235.201 326.742 234.179 327.82 234.179 329.22C234.179 330.62 235.215 331.712 236.559 331.712C237.553 331.712 238.351 331.18 238.757 330.256H240.325C239.919 332.02 238.421 333.196 236.559 333.196ZM248.194 325.44H249.384V333H248.138L247.984 332.09C247.298 332.776 246.346 333.196 245.24 333.196C242.986 333.196 241.306 331.488 241.306 329.22C241.306 326.952 242.986 325.258 245.24 325.258C246.36 325.258 247.326 325.678 248.012 326.392L248.194 325.44ZM245.366 331.698C246.794 331.698 247.83 330.648 247.83 329.22C247.83 327.792 246.794 326.742 245.366 326.742C243.938 326.742 242.888 327.806 242.888 329.22C242.888 330.634 243.938 331.698 245.366 331.698ZM254.974 331.6H255.842V333H254.68C253.028 333 252.006 331.978 252.006 330.312V326.784H250.648V326.476L253.28 323.676H253.546V325.44H255.8V326.784H253.56V330.186C253.56 331.096 254.064 331.6 254.974 331.6ZM264.456 329.248C264.456 329.416 264.442 329.584 264.414 329.752H258.282C258.478 330.984 259.36 331.74 260.592 331.74C261.502 331.74 262.23 331.32 262.636 330.62H264.274C263.672 332.216 262.286 333.196 260.592 333.196C258.38 333.196 256.714 331.488 256.714 329.22C256.714 326.966 258.38 325.258 260.592 325.258C262.916 325.258 264.456 327.05 264.456 329.248ZM260.592 326.672C259.43 326.672 258.576 327.372 258.324 328.492H262.888C262.608 327.344 261.754 326.672 260.592 326.672Z" fill="#131F4A"/>
<path d="M192.344 357.144C190.448 357.144 189.044 355.788 189.044 353.88V348.6H190.112V353.796C190.112 355.188 191.036 356.112 192.344 356.112C193.64 356.112 194.576 355.188 194.576 353.796V348.6H195.632V353.88C195.632 355.788 194.228 357.144 192.344 357.144ZM201.066 350.388C202.998 350.388 204.39 351.828 204.39 353.76C204.39 355.692 202.998 357.144 201.066 357.144C200.094 357.144 199.242 356.772 198.642 356.136V359.316H197.622V350.52H198.33L198.534 351.516C199.134 350.808 200.022 350.388 201.066 350.388ZM200.994 356.16C202.362 356.16 203.37 355.14 203.37 353.76C203.37 352.392 202.362 351.372 200.994 351.372C199.614 351.372 198.606 352.404 198.606 353.76C198.606 355.128 199.614 356.16 200.994 356.16ZM205.942 357V348.216H206.962V357H205.942ZM211.94 357.144C209.972 357.144 208.496 355.704 208.496 353.76C208.496 351.816 209.972 350.388 211.94 350.388C213.896 350.388 215.372 351.828 215.372 353.76C215.372 355.704 213.896 357.144 211.94 357.144ZM211.94 356.16C213.32 356.16 214.328 355.152 214.328 353.772C214.328 352.38 213.32 351.372 211.94 351.372C210.548 351.372 209.54 352.38 209.54 353.76C209.54 355.152 210.548 356.16 211.94 356.16ZM222.454 350.52H223.258V357H222.418L222.31 356.028C221.71 356.724 220.822 357.144 219.766 357.144C217.846 357.144 216.406 355.692 216.406 353.772C216.406 351.828 217.846 350.388 219.766 350.388C220.822 350.388 221.722 350.808 222.322 351.516L222.454 350.52ZM219.838 356.16C221.218 356.16 222.214 355.14 222.214 353.76C222.214 352.392 221.218 351.372 219.838 351.372C218.47 351.372 217.45 352.404 217.45 353.76C217.45 355.128 218.47 356.16 219.838 356.16ZM230.545 348.216H231.565V357.012H230.773L230.641 356.088C230.041 356.748 229.165 357.144 228.145 357.144C226.201 357.144 224.797 355.692 224.797 353.772C224.797 351.828 226.201 350.388 228.145 350.388C229.105 350.388 229.945 350.748 230.545 351.348V348.216ZM228.217 356.16C229.597 356.16 230.605 355.128 230.605 353.772C230.605 352.404 229.597 351.372 228.217 351.372C226.849 351.372 225.841 352.392 225.841 353.772C225.841 355.14 226.849 356.16 228.217 356.16ZM242.546 348.6H243.578V357H242.69L237.914 350.448V357H236.882V348.6H237.842L242.546 355.08V348.6ZM248.585 357.144C246.617 357.144 245.141 355.704 245.141 353.76C245.141 351.816 246.617 350.388 248.585 350.388C250.541 350.388 252.017 351.828 252.017 353.76C252.017 355.704 250.541 357.144 248.585 357.144ZM248.585 356.16C249.965 356.16 250.973 355.152 250.973 353.772C250.973 352.38 249.965 351.372 248.585 351.372C247.193 351.372 246.185 352.38 246.185 353.76C246.185 355.152 247.193 356.16 248.585 356.16ZM260.656 357.144C258.112 357.144 256.252 355.284 256.252 352.812C256.252 350.328 258.112 348.468 260.656 348.468C263.2 348.468 265.048 350.328 265.048 352.812C265.048 355.284 263.2 357.144 260.656 357.144ZM260.656 356.112C262.564 356.112 263.98 354.696 263.98 352.812C263.98 350.916 262.564 349.5 260.656 349.5C258.748 349.5 257.332 350.928 257.332 352.812C257.332 354.684 258.748 356.112 260.656 356.112ZM270.018 350.388C271.974 350.388 273.366 351.828 273.366 353.76C273.366 355.692 271.974 357.144 270.018 357.144C269.01 357.144 268.134 356.748 267.534 356.088L267.39 357H266.598V348.216H267.618V351.348C268.218 350.748 269.058 350.388 270.018 350.388ZM269.946 356.16C271.314 356.16 272.322 355.14 272.322 353.76C272.322 352.392 271.314 351.372 269.946 351.372C268.566 351.372 267.558 352.404 267.558 353.76C267.558 355.116 268.566 356.16 269.946 356.16ZM275.027 349.404V348.24H276.131V349.404H275.027ZM273.383 359.316V358.392H273.767C274.595 358.392 275.051 357.912 275.051 357.084V350.52H276.071V357.168C276.071 358.464 275.207 359.316 273.911 359.316H273.383ZM284.178 353.796C284.178 353.916 284.166 354.036 284.154 354.156H278.634C278.79 355.356 279.69 356.148 280.914 356.148C281.814 356.148 282.534 355.728 282.93 355.032H284.01C283.458 356.364 282.318 357.144 280.914 357.144C279.03 357.144 277.614 355.692 277.614 353.76C277.614 351.84 279.03 350.388 280.914 350.388C282.882 350.388 284.178 351.9 284.178 353.796ZM280.914 351.348C279.738 351.348 278.862 352.092 278.658 353.22H283.158C282.942 352.068 282.066 351.348 280.914 351.348ZM288.556 357.144C286.636 357.144 285.184 355.692 285.184 353.76C285.184 351.828 286.636 350.388 288.556 350.388C290.104 350.388 291.316 351.3 291.712 352.716H290.692C290.32 351.876 289.516 351.372 288.556 351.372C287.224 351.372 286.228 352.416 286.228 353.76C286.228 355.116 287.236 356.16 288.556 356.16C289.504 356.16 290.296 355.656 290.692 354.792H291.724C291.328 356.22 290.092 357.144 288.556 357.144ZM295.829 356.064H296.537V357H295.697C294.305 357 293.441 356.148 293.441 354.744V351.444H292.301V351.264L294.305 349.152H294.461V350.52H296.501V351.444H294.461V354.708C294.461 355.584 294.941 356.064 295.829 356.064ZM297.863 349.404V348.24H298.967V349.404H297.863ZM297.899 357V350.52H298.919V357H297.899ZM303.897 357.144C301.929 357.144 300.453 355.704 300.453 353.76C300.453 351.816 301.929 350.388 303.897 350.388C305.853 350.388 307.329 351.828 307.329 353.76C307.329 355.704 305.853 357.144 303.897 357.144ZM303.897 356.16C305.277 356.16 306.285 355.152 306.285 353.772C306.285 352.38 305.277 351.372 303.897 351.372C302.505 351.372 301.497 352.38 301.497 353.76C301.497 355.152 302.505 356.16 303.897 356.16ZM312.119 350.388C313.667 350.388 314.627 351.54 314.627 353.124V357H313.607V353.364C313.607 352.056 312.983 351.312 311.867 351.312C310.751 351.312 309.899 352.26 309.899 353.472V357H308.879V350.52H309.611L309.803 351.54C310.295 350.82 311.123 350.388 312.119 350.388ZM323.571 357.132C321.075 357.132 319.263 355.32 319.263 352.812C319.263 350.292 321.075 348.48 323.571 348.48C325.515 348.48 327.075 349.632 327.555 351.444H326.475C326.031 350.232 324.951 349.5 323.571 349.5C321.699 349.5 320.343 350.88 320.343 352.812C320.343 354.744 321.699 356.1 323.571 356.1C324.987 356.1 326.079 355.332 326.523 354.048H327.591C327.111 355.944 325.551 357.132 323.571 357.132ZM335.096 353.796C335.096 353.916 335.084 354.036 335.072 354.156H329.552C329.708 355.356 330.608 356.148 331.832 356.148C332.732 356.148 333.452 355.728 333.848 355.032H334.928C334.376 356.364 333.236 357.144 331.832 357.144C329.948 357.144 328.532 355.692 328.532 353.76C328.532 351.84 329.948 350.388 331.832 350.388C333.8 350.388 335.096 351.9 335.096 353.796ZM331.832 351.348C330.656 351.348 329.78 352.092 329.576 353.22H334.076C333.86 352.068 332.984 351.348 331.832 351.348ZM339.582 350.496H340.158V351.456H339.498C338.31 351.456 337.638 352.224 337.638 353.484V357H336.618V350.52H337.35L337.506 351.516C337.974 350.844 338.646 350.496 339.582 350.496ZM343.935 356.064H344.643V357H343.803C342.411 357 341.547 356.148 341.547 354.744V351.444H340.407V351.264L342.411 349.152H342.567V350.52H344.607V351.444H342.567V354.708C342.567 355.584 343.047 356.064 343.935 356.064ZM345.968 349.404V348.24H347.072V349.404H345.968ZM346.004 357V350.52H347.024V357H346.004ZM352.543 350.568V351.42H350.551V357H349.531V351.42H348.259V350.568H349.531V350.04C349.531 348.66 350.167 347.976 351.619 347.976H352.531V348.804H351.799C350.887 348.804 350.527 349.152 350.527 350.064V350.568H352.543ZM353.679 349.404V348.24H354.783V349.404H353.679ZM353.715 357V350.52H354.735V357H353.715ZM359.642 357.144C357.722 357.144 356.27 355.692 356.27 353.76C356.27 351.828 357.722 350.388 359.642 350.388C361.19 350.388 362.402 351.3 362.798 352.716H361.778C361.406 351.876 360.602 351.372 359.642 351.372C358.31 351.372 357.314 352.416 357.314 353.76C357.314 355.116 358.322 356.16 359.642 356.16C360.59 356.16 361.382 355.656 361.778 354.792H362.81C362.414 356.22 361.178 357.144 359.642 357.144ZM369.759 350.52H370.563V357H369.723L369.615 356.028C369.015 356.724 368.127 357.144 367.071 357.144C365.151 357.144 363.711 355.692 363.711 353.772C363.711 351.828 365.151 350.388 367.071 350.388C368.127 350.388 369.027 350.808 369.627 351.516L369.759 350.52ZM367.143 356.16C368.523 356.16 369.519 355.14 369.519 353.76C369.519 352.392 368.523 351.372 367.143 351.372C365.775 351.372 364.755 352.404 364.755 353.76C364.755 355.128 365.775 356.16 367.143 356.16ZM375.306 356.064H376.014V357H375.174C373.782 357 372.918 356.148 372.918 354.744V351.444H371.778V351.264L373.782 349.152H373.938V350.52H375.978V351.444H373.938V354.708C373.938 355.584 374.418 356.064 375.306 356.064ZM383.353 353.796C383.353 353.916 383.341 354.036 383.329 354.156H377.809C377.965 355.356 378.865 356.148 380.089 356.148C380.989 356.148 381.709 355.728 382.105 355.032H383.185C382.633 356.364 381.493 357.144 380.089 357.144C378.205 357.144 376.789 355.692 376.789 353.76C376.789 351.84 378.205 350.388 380.089 350.388C382.057 350.388 383.353 351.9 383.353 353.796ZM380.089 351.348C378.913 351.348 378.037 352.092 377.833 353.22H382.333C382.117 352.068 381.241 351.348 380.089 351.348Z" fill="#9197AE"/>
</g>
<g filter="url(#filter3_d_4207_5955)">
<rect x="174" y="385" width="252" height="136" rx="8" fill="white" shape-rendering="crispEdges"/>
<rect x="174.5" y="385.5" width="251" height="135" rx="7.5" stroke="#DDE5F3" shape-rendering="crispEdges"/>
<path d="M202.129 415.38C201.783 415.785 201.389 416.146 200.957 416.458" stroke="#131F4A" stroke-width="1.1" stroke-linecap="round" stroke-linejoin="round"/>
<path d="M193.248 405.389C194.32 404.67 195.61 404.25 196.998 404.25C197.682 404.25 198.341 404.354 198.963 404.543" stroke="#131F4A" stroke-width="1.1" stroke-linecap="round" stroke-linejoin="round"/>
<path d="M196.999 414L196.999 408" stroke="#131F4A" stroke-width="1.1" stroke-linecap="round" stroke-linejoin="round"/>
<path d="M199.249 411.75L196.999 414L194.749 411.75" stroke="#131F4A" stroke-width="1.1" stroke-linecap="round" stroke-linejoin="round"/>
<path d="M201.237 405.75C202.198 406.526 202.936 407.563 203.356 408.75" stroke="#131F4A" stroke-width="1.1" stroke-linecap="round" stroke-linejoin="round"/>
<path d="M203.357 413.25C203.606 412.545 203.749 411.791 203.749 411" stroke="#131F4A" stroke-width="1.1" stroke-linecap="round" stroke-linejoin="round"/>
<path d="M191.402 407.25C190.679 408.323 190.249 409.609 190.249 411C190.249 414.728 193.271 417.75 196.999 417.75" stroke="#131F4A" stroke-width="1.1" stroke-linecap="round" stroke-linejoin="round"/>
<path d="M218.344 415.168C216.412 415.168 214.972 413.8 214.972 411.868V406.6H216.352V411.784C216.352 413.02 217.18 413.836 218.344 413.836C219.508 413.836 220.324 413.02 220.324 411.784V406.6H221.716V411.868C221.716 413.8 220.276 415.168 218.344 415.168ZM227.099 406.6C228.731 406.6 229.967 407.788 229.967 409.384C229.967 410.968 228.743 412.156 227.099 412.156H225.371V415H224.003V406.6H227.099ZM227.039 410.848C227.939 410.848 228.563 410.224 228.563 409.384C228.563 408.532 227.939 407.908 227.039 407.908H225.371V410.848H227.039ZM232.994 413.716H236.486V415H231.626V406.6H232.994V413.716ZM241.508 415.168C238.952 415.168 237.08 413.296 237.08 410.8C237.08 408.316 238.952 406.444 241.508 406.444C244.052 406.444 245.936 408.316 245.936 410.8C245.936 413.296 244.052 415.168 241.508 415.168ZM241.508 413.836C243.236 413.836 244.532 412.54 244.532 410.8C244.532 409.072 243.236 407.776 241.508 407.776C239.78 407.776 238.472 409.084 238.472 410.8C238.472 412.528 239.78 413.836 241.508 413.836ZM253.182 415L252.462 413.176H248.706L247.998 415H246.534L249.906 406.6H251.202L254.682 415H253.182ZM250.578 408.4L249.186 411.94H251.982L250.578 408.4ZM259.111 406.6C261.583 406.6 263.371 408.364 263.371 410.8C263.371 413.236 261.583 415 259.111 415H256.159V406.6H259.111ZM259.075 413.716C260.779 413.716 261.967 412.492 261.967 410.8C261.967 409.108 260.779 407.896 259.075 407.896H257.527V413.716H259.075Z" fill="#131F4A"/>
<rect x="309" y="399" width="103" height="24" rx="4" fill="#E9EEF7"/>
<path d="M325.588 406.6H326.932V415H325.78L321.412 409.012V415H320.068V406.6H321.304L325.588 412.504V406.6ZM333.208 415.168C330.652 415.168 328.78 413.296 328.78 410.8C328.78 408.316 330.652 406.444 333.208 406.444C335.752 406.444 337.636 408.316 337.636 410.8C337.636 413.296 335.752 415.168 333.208 415.168ZM333.208 413.836C334.936 413.836 336.232 412.54 336.232 410.8C336.232 409.072 334.936 407.776 333.208 407.776C331.48 407.776 330.172 409.084 330.172 410.8C330.172 412.528 331.48 413.836 333.208 413.836ZM344.606 406.6V407.896H342.146V415H340.766V407.896H338.306V406.6H344.606ZM351.675 415.132C349.791 415.132 348.507 414.076 348.507 412.36H349.911C349.911 413.296 350.679 413.824 351.663 413.824C352.563 413.824 353.319 413.344 353.319 412.576C353.319 411.736 352.419 411.532 351.411 411.292C350.127 410.98 348.651 410.62 348.651 408.892C348.651 407.38 349.803 406.48 351.591 406.48C353.415 406.48 354.495 407.476 354.495 409.06H353.127C353.127 408.22 352.431 407.764 351.555 407.764C350.715 407.764 350.031 408.148 350.031 408.832C350.031 409.612 350.895 409.816 351.891 410.056C353.199 410.38 354.735 410.752 354.735 412.564C354.735 414.244 353.379 415.132 351.675 415.132ZM361.92 406.6V407.896H359.46V415H358.08V407.896H355.62V406.6H361.92ZM368.435 415L367.715 413.176H363.959L363.251 415H361.787L365.159 406.6H366.455L369.935 415H368.435ZM365.831 408.4L364.439 411.94H367.235L365.831 408.4ZM376.188 415L374.376 411.892H372.78V415H371.412V406.6H374.676C376.296 406.6 377.496 407.716 377.496 409.264C377.496 410.404 376.812 411.316 375.792 411.7L377.736 415H376.188ZM372.78 407.896V410.608H374.592C375.504 410.608 376.092 410.044 376.092 409.252C376.092 408.472 375.504 407.896 374.592 407.896H372.78ZM384.812 406.6V407.896H382.352V415H380.972V407.896H378.512V406.6H384.812ZM387.756 413.704H391.392V415H386.388V406.6H391.26V407.896H387.756V410.092H390.948V411.352H387.756V413.704ZM396.248 406.6C398.72 406.6 400.508 408.364 400.508 410.8C400.508 413.236 398.72 415 396.248 415H393.296V406.6H396.248ZM396.212 413.716C397.916 413.716 399.104 412.492 399.104 410.8C399.104 409.108 397.916 407.896 396.212 407.896H394.664V413.716H396.212Z" fill="#636B87"/>
<path d="M193.068 453.196C190.814 453.196 189.134 451.6 189.134 449.346V443.2H190.744V449.248C190.744 450.69 191.71 451.642 193.068 451.642C194.426 451.642 195.378 450.69 195.378 449.248V443.2H197.002V449.346C197.002 451.6 195.322 453.196 193.068 453.196ZM203.187 445.258C205.441 445.258 207.107 446.952 207.107 449.22C207.107 451.488 205.441 453.196 203.187 453.196C202.207 453.196 201.339 452.86 200.681 452.286V455.716H199.127V445.44H200.163L200.457 446.378C201.143 445.678 202.095 445.258 203.187 445.258ZM203.061 451.712C204.489 451.712 205.525 450.648 205.525 449.22C205.525 447.806 204.489 446.742 203.061 446.742C201.633 446.742 200.583 447.806 200.583 449.22C200.583 450.648 201.633 451.712 203.061 451.712ZM208.78 453V442.738H210.334V453H208.78ZM216.026 453.196C213.702 453.196 211.98 451.502 211.98 449.22C211.98 446.938 213.702 445.258 216.026 445.258C218.336 445.258 220.058 446.952 220.058 449.22C220.058 451.502 218.336 453.196 216.026 453.196ZM216.026 451.712C217.454 451.712 218.476 450.676 218.476 449.22C218.476 447.778 217.454 446.742 216.026 446.742C214.584 446.742 213.562 447.778 213.562 449.22C213.562 450.676 214.584 451.712 216.026 451.712ZM228.055 445.44H229.245V453H227.999L227.845 452.09C227.159 452.776 226.207 453.196 225.101 453.196C222.847 453.196 221.167 451.488 221.167 449.22C221.167 446.952 222.847 445.258 225.101 445.258C226.221 445.258 227.187 445.678 227.873 446.392L228.055 445.44ZM225.227 451.698C226.655 451.698 227.691 450.648 227.691 449.22C227.691 447.792 226.655 446.742 225.227 446.742C223.799 446.742 222.749 447.806 222.749 449.22C222.749 450.634 223.799 451.698 225.227 451.698ZM237.341 442.738H238.895V453.014H237.719L237.509 452.146C236.837 452.804 235.899 453.196 234.849 453.196C232.553 453.196 230.915 451.488 230.915 449.234C230.915 446.952 232.553 445.258 234.849 445.258C235.815 445.258 236.669 445.58 237.341 446.14V442.738ZM234.961 451.712C236.389 451.712 237.439 450.634 237.439 449.22C237.439 447.806 236.389 446.742 234.961 446.742C233.547 446.742 232.497 447.806 232.497 449.22C232.497 450.648 233.547 451.712 234.961 451.712ZM249.703 445.44H251.355L247.883 453.14C247.029 455.044 246.273 455.716 244.733 455.716H243.963V454.316H244.621C245.615 454.316 245.923 454.022 246.483 452.818L246.651 452.454L243.361 445.44H245.041L247.449 450.718L249.703 445.44ZM255.797 453.196C253.473 453.196 251.751 451.502 251.751 449.22C251.751 446.938 253.473 445.258 255.797 445.258C258.107 445.258 259.829 446.952 259.829 449.22C259.829 451.502 258.107 453.196 255.797 453.196ZM255.797 451.712C257.225 451.712 258.247 450.676 258.247 449.22C258.247 447.778 257.225 446.742 255.797 446.742C254.355 446.742 253.333 447.778 253.333 449.22C253.333 450.676 254.355 451.712 255.797 451.712ZM264.817 453.196C262.731 453.196 261.373 451.852 261.373 449.808V445.44H262.927V449.598C262.927 450.914 263.641 451.712 264.817 451.712C265.993 451.712 266.693 450.9 266.693 449.598V445.44H268.247V449.808C268.247 451.852 266.903 453.196 264.817 453.196ZM273.97 445.398H274.642V446.868H273.816C272.528 446.868 271.898 447.61 271.898 448.982V453H270.344V445.44H271.394L271.646 446.476C272.192 445.762 272.934 445.398 273.97 445.398ZM285.579 443.2H287.147V453H285.803L280.707 446.014V453H279.139V443.2H280.581L285.579 450.088V443.2ZM292.889 453.196C290.565 453.196 288.843 451.502 288.843 449.22C288.843 446.938 290.565 445.258 292.889 445.258C295.199 445.258 296.921 446.952 296.921 449.22C296.921 451.502 295.199 453.196 292.889 453.196ZM292.889 451.712C294.317 451.712 295.339 450.676 295.339 449.22C295.339 447.778 294.317 446.742 292.889 446.742C291.447 446.742 290.425 447.778 290.425 449.22C290.425 450.676 291.447 451.712 292.889 451.712ZM306.794 453.196C303.812 453.196 301.628 451.012 301.628 448.1C301.628 445.202 303.812 443.018 306.794 443.018C309.762 443.018 311.96 445.202 311.96 448.1C311.96 451.012 309.762 453.196 306.794 453.196ZM306.794 451.642C308.81 451.642 310.322 450.13 310.322 448.1C310.322 446.084 308.81 444.572 306.794 444.572C304.778 444.572 303.252 446.098 303.252 448.1C303.252 450.116 304.778 451.642 306.794 451.642ZM317.648 445.258C319.944 445.258 321.582 446.952 321.582 449.234C321.582 451.488 319.944 453.196 317.648 453.196C316.598 453.196 315.66 452.804 314.988 452.146L314.792 453.014H313.616V442.738H315.17V446.14C315.828 445.58 316.682 445.258 317.648 445.258ZM317.536 451.698C318.964 451.698 320 450.648 320 449.22C320 447.806 318.964 446.742 317.536 446.742C316.108 446.742 315.058 447.806 315.058 449.22C315.058 450.634 316.108 451.698 317.536 451.698ZM323.394 444.278V442.668H325.004V444.278H323.394ZM321.546 455.716V454.302H322.078C322.946 454.302 323.422 453.812 323.422 452.944V445.454H324.976V453.07C324.976 454.638 323.898 455.716 322.316 455.716H321.546ZM334.374 449.248C334.374 449.416 334.36 449.584 334.332 449.752H328.2C328.396 450.984 329.278 451.74 330.51 451.74C331.42 451.74 332.148 451.32 332.554 450.62H334.192C333.59 452.216 332.204 453.196 330.51 453.196C328.298 453.196 326.632 451.488 326.632 449.22C326.632 446.966 328.298 445.258 330.51 445.258C332.834 445.258 334.374 447.05 334.374 449.248ZM330.51 446.672C329.348 446.672 328.494 447.372 328.242 448.492H332.806C332.526 447.344 331.672 446.672 330.51 446.672ZM339.426 453.196C337.172 453.196 335.464 451.474 335.464 449.22C335.464 446.966 337.172 445.258 339.426 445.258C341.302 445.258 342.758 446.406 343.178 448.142H341.638C341.246 447.274 340.406 446.742 339.426 446.742C338.068 446.742 337.046 447.82 337.046 449.22C337.046 450.62 338.082 451.712 339.426 451.712C340.42 451.712 341.218 451.18 341.624 450.256H343.192C342.786 452.02 341.288 453.196 339.426 453.196ZM348.079 451.6H348.947V453H347.785C346.133 453 345.111 451.978 345.111 450.312V446.784H343.753V446.476L346.385 443.676H346.651V445.44H348.905V446.784H346.665V450.186C346.665 451.096 347.169 451.6 348.079 451.6ZM350.433 444.278V442.668H352.029V444.278H350.433ZM350.461 453V445.44H352.015V453H350.461ZM357.707 453.196C355.383 453.196 353.661 451.502 353.661 449.22C353.661 446.938 355.383 445.258 357.707 445.258C360.017 445.258 361.739 446.952 361.739 449.22C361.739 451.502 360.017 453.196 357.707 453.196ZM357.707 451.712C359.135 451.712 360.157 450.676 360.157 449.22C360.157 447.778 359.135 446.742 357.707 446.742C356.265 446.742 355.243 447.778 355.243 449.22C355.243 450.676 356.265 451.712 357.707 451.712ZM367.399 445.272C369.177 445.272 370.283 446.588 370.283 448.45V453H368.729V448.772C368.729 447.4 368.127 446.672 366.993 446.672C365.803 446.672 364.963 447.624 364.963 448.954V453H363.409V445.44H364.487L364.795 446.504C365.355 445.734 366.293 445.272 367.399 445.272ZM193.656 477.182C190.758 477.182 188.616 475.04 188.616 472.114C188.616 469.174 190.758 467.032 193.656 467.032C195.966 467.032 197.828 468.474 198.346 470.686H196.722C196.246 469.384 195.098 468.586 193.656 468.586C191.696 468.586 190.254 470.07 190.254 472.114C190.254 474.158 191.696 475.628 193.656 475.628C195.154 475.628 196.302 474.774 196.75 473.388H198.388C197.87 475.698 196.008 477.182 193.656 477.182ZM207.13 473.248C207.13 473.416 207.116 473.584 207.088 473.752H200.956C201.152 474.984 202.034 475.74 203.266 475.74C204.176 475.74 204.904 475.32 205.31 474.62H206.948C206.346 476.216 204.96 477.196 203.266 477.196C201.054 477.196 199.388 475.488 199.388 473.22C199.388 470.966 201.054 469.258 203.266 469.258C205.59 469.258 207.13 471.05 207.13 473.248ZM203.266 470.672C202.104 470.672 201.25 471.372 200.998 472.492H205.562C205.282 471.344 204.428 470.672 203.266 470.672ZM212.406 469.398H213.078V470.868H212.252C210.964 470.868 210.334 471.61 210.334 472.982V477H208.78V469.44H209.83L210.082 470.476C210.628 469.762 211.37 469.398 212.406 469.398ZM217.663 475.6H218.531V477H217.369C215.717 477 214.695 475.978 214.695 474.312V470.784H213.337V470.476L215.969 467.676H216.235V469.44H218.489V470.784H216.249V474.186C216.249 475.096 216.753 475.6 217.663 475.6ZM220.017 468.278V466.668H221.613V468.278H220.017ZM220.045 477V469.44H221.599V477H220.045ZM228.089 469.524V470.812H225.947V477.014H224.393V470.812H222.979V469.524H224.393V468.88C224.393 467.34 225.163 466.486 226.815 466.486H228.075V467.718H227.109C226.269 467.718 225.905 468.068 225.905 468.908V469.524H228.089ZM229.369 468.278V466.668H230.965V468.278H229.369ZM229.397 477V469.44H230.951V477H229.397ZM236.559 477.196C234.305 477.196 232.597 475.474 232.597 473.22C232.597 470.966 234.305 469.258 236.559 469.258C238.435 469.258 239.891 470.406 240.311 472.142H238.771C238.379 471.274 237.539 470.742 236.559 470.742C235.201 470.742 234.179 471.82 234.179 473.22C234.179 474.62 235.215 475.712 236.559 475.712C237.553 475.712 238.351 475.18 238.757 474.256H240.325C239.919 476.02 238.421 477.196 236.559 477.196ZM248.194 469.44H249.384V477H248.138L247.984 476.09C247.298 476.776 246.346 477.196 245.24 477.196C242.986 477.196 241.306 475.488 241.306 473.22C241.306 470.952 242.986 469.258 245.24 469.258C246.36 469.258 247.326 469.678 248.012 470.392L248.194 469.44ZM245.366 475.698C246.794 475.698 247.83 474.648 247.83 473.22C247.83 471.792 246.794 470.742 245.366 470.742C243.938 470.742 242.888 471.806 242.888 473.22C242.888 474.634 243.938 475.698 245.366 475.698ZM254.974 475.6H255.842V477H254.68C253.028 477 252.006 475.978 252.006 474.312V470.784H250.648V470.476L253.28 467.676H253.546V469.44H255.8V470.784H253.56V474.186C253.56 475.096 254.064 475.6 254.974 475.6ZM264.456 473.248C264.456 473.416 264.442 473.584 264.414 473.752H258.282C258.478 474.984 259.36 475.74 260.592 475.74C261.502 475.74 262.23 475.32 262.636 474.62H264.274C263.672 476.216 262.286 477.196 260.592 477.196C258.38 477.196 256.714 475.488 256.714 473.22C256.714 470.966 258.38 469.258 260.592 469.258C262.916 469.258 264.456 471.05 264.456 473.248ZM260.592 470.672C259.43 470.672 258.576 471.372 258.324 472.492H262.888C262.608 471.344 261.754 470.672 260.592 470.672Z" fill="#131F4A"/>
<path d="M192.344 501.144C190.448 501.144 189.044 499.788 189.044 497.88V492.6H190.112V497.796C190.112 499.188 191.036 500.112 192.344 500.112C193.64 500.112 194.576 499.188 194.576 497.796V492.6H195.632V497.88C195.632 499.788 194.228 501.144 192.344 501.144ZM201.066 494.388C202.998 494.388 204.39 495.828 204.39 497.76C204.39 499.692 202.998 501.144 201.066 501.144C200.094 501.144 199.242 500.772 198.642 500.136V503.316H197.622V494.52H198.33L198.534 495.516C199.134 494.808 200.022 494.388 201.066 494.388ZM200.994 500.16C202.362 500.16 203.37 499.14 203.37 497.76C203.37 496.392 202.362 495.372 200.994 495.372C199.614 495.372 198.606 496.404 198.606 497.76C198.606 499.128 199.614 500.16 200.994 500.16ZM205.942 501V492.216H206.962V501H205.942ZM211.94 501.144C209.972 501.144 208.496 499.704 208.496 497.76C208.496 495.816 209.972 494.388 211.94 494.388C213.896 494.388 215.372 495.828 215.372 497.76C215.372 499.704 213.896 501.144 211.94 501.144ZM211.94 500.16C213.32 500.16 214.328 499.152 214.328 497.772C214.328 496.38 213.32 495.372 211.94 495.372C210.548 495.372 209.54 496.38 209.54 497.76C209.54 499.152 210.548 500.16 211.94 500.16ZM222.454 494.52H223.258V501H222.418L222.31 500.028C221.71 500.724 220.822 501.144 219.766 501.144C217.846 501.144 216.406 499.692 216.406 497.772C216.406 495.828 217.846 494.388 219.766 494.388C220.822 494.388 221.722 494.808 222.322 495.516L222.454 494.52ZM219.838 500.16C221.218 500.16 222.214 499.14 222.214 497.76C222.214 496.392 221.218 495.372 219.838 495.372C218.47 495.372 217.45 496.404 217.45 497.76C217.45 499.128 218.47 500.16 219.838 500.16ZM230.545 492.216H231.565V501.012H230.773L230.641 500.088C230.041 500.748 229.165 501.144 228.145 501.144C226.201 501.144 224.797 499.692 224.797 497.772C224.797 495.828 226.201 494.388 228.145 494.388C229.105 494.388 229.945 494.748 230.545 495.348V492.216ZM228.217 500.16C229.597 500.16 230.605 499.128 230.605 497.772C230.605 496.404 229.597 495.372 228.217 495.372C226.849 495.372 225.841 496.392 225.841 497.772C225.841 499.14 226.849 500.16 228.217 500.16ZM242.546 492.6H243.578V501H242.69L237.914 494.448V501H236.882V492.6H237.842L242.546 499.08V492.6ZM248.585 501.144C246.617 501.144 245.141 499.704 245.141 497.76C245.141 495.816 246.617 494.388 248.585 494.388C250.541 494.388 252.017 495.828 252.017 497.76C252.017 499.704 250.541 501.144 248.585 501.144ZM248.585 500.16C249.965 500.16 250.973 499.152 250.973 497.772C250.973 496.38 249.965 495.372 248.585 495.372C247.193 495.372 246.185 496.38 246.185 497.76C246.185 499.152 247.193 500.16 248.585 500.16ZM260.656 501.144C258.112 501.144 256.252 499.284 256.252 496.812C256.252 494.328 258.112 492.468 260.656 492.468C263.2 492.468 265.048 494.328 265.048 496.812C265.048 499.284 263.2 501.144 260.656 501.144ZM260.656 500.112C262.564 500.112 263.98 498.696 263.98 496.812C263.98 494.916 262.564 493.5 260.656 493.5C258.748 493.5 257.332 494.928 257.332 496.812C257.332 498.684 258.748 500.112 260.656 500.112ZM270.018 494.388C271.974 494.388 273.366 495.828 273.366 497.76C273.366 499.692 271.974 501.144 270.018 501.144C269.01 501.144 268.134 500.748 267.534 500.088L267.39 501H266.598V492.216H267.618V495.348C268.218 494.748 269.058 494.388 270.018 494.388ZM269.946 500.16C271.314 500.16 272.322 499.14 272.322 497.76C272.322 496.392 271.314 495.372 269.946 495.372C268.566 495.372 267.558 496.404 267.558 497.76C267.558 499.116 268.566 500.16 269.946 500.16ZM275.027 493.404V492.24H276.131V493.404H275.027ZM273.383 503.316V502.392H273.767C274.595 502.392 275.051 501.912 275.051 501.084V494.52H276.071V501.168C276.071 502.464 275.207 503.316 273.911 503.316H273.383ZM284.178 497.796C284.178 497.916 284.166 498.036 284.154 498.156H278.634C278.79 499.356 279.69 500.148 280.914 500.148C281.814 500.148 282.534 499.728 282.93 499.032H284.01C283.458 500.364 282.318 501.144 280.914 501.144C279.03 501.144 277.614 499.692 277.614 497.76C277.614 495.84 279.03 494.388 280.914 494.388C282.882 494.388 284.178 495.9 284.178 497.796ZM280.914 495.348C279.738 495.348 278.862 496.092 278.658 497.22H283.158C282.942 496.068 282.066 495.348 280.914 495.348ZM288.556 501.144C286.636 501.144 285.184 499.692 285.184 497.76C285.184 495.828 286.636 494.388 288.556 494.388C290.104 494.388 291.316 495.3 291.712 496.716H290.692C290.32 495.876 289.516 495.372 288.556 495.372C287.224 495.372 286.228 496.416 286.228 497.76C286.228 499.116 287.236 500.16 288.556 500.16C289.504 500.16 290.296 499.656 290.692 498.792H291.724C291.328 500.22 290.092 501.144 288.556 501.144ZM295.829 500.064H296.537V501H295.697C294.305 501 293.441 500.148 293.441 498.744V495.444H292.301V495.264L294.305 493.152H294.461V494.52H296.501V495.444H294.461V498.708C294.461 499.584 294.941 500.064 295.829 500.064ZM297.863 493.404V492.24H298.967V493.404H297.863ZM297.899 501V494.52H298.919V501H297.899ZM303.897 501.144C301.929 501.144 300.453 499.704 300.453 497.76C300.453 495.816 301.929 494.388 303.897 494.388C305.853 494.388 307.329 495.828 307.329 497.76C307.329 499.704 305.853 501.144 303.897 501.144ZM303.897 500.16C305.277 500.16 306.285 499.152 306.285 497.772C306.285 496.38 305.277 495.372 303.897 495.372C302.505 495.372 301.497 496.38 301.497 497.76C301.497 499.152 302.505 500.16 303.897 500.16ZM312.119 494.388C313.667 494.388 314.627 495.54 314.627 497.124V501H313.607V497.364C313.607 496.056 312.983 495.312 311.867 495.312C310.751 495.312 309.899 496.26 309.899 497.472V501H308.879V494.52H309.611L309.803 495.54C310.295 494.82 311.123 494.388 312.119 494.388ZM323.571 501.132C321.075 501.132 319.263 499.32 319.263 496.812C319.263 494.292 321.075 492.48 323.571 492.48C325.515 492.48 327.075 493.632 327.555 495.444H326.475C326.031 494.232 324.951 493.5 323.571 493.5C321.699 493.5 320.343 494.88 320.343 496.812C320.343 498.744 321.699 500.1 323.571 500.1C324.987 500.1 326.079 499.332 326.523 498.048H327.591C327.111 499.944 325.551 501.132 323.571 501.132ZM335.096 497.796C335.096 497.916 335.084 498.036 335.072 498.156H329.552C329.708 499.356 330.608 500.148 331.832 500.148C332.732 500.148 333.452 499.728 333.848 499.032H334.928C334.376 500.364 333.236 501.144 331.832 501.144C329.948 501.144 328.532 499.692 328.532 497.76C328.532 495.84 329.948 494.388 331.832 494.388C333.8 494.388 335.096 495.9 335.096 497.796ZM331.832 495.348C330.656 495.348 329.78 496.092 329.576 497.22H334.076C333.86 496.068 332.984 495.348 331.832 495.348ZM339.582 494.496H340.158V495.456H339.498C338.31 495.456 337.638 496.224 337.638 497.484V501H336.618V494.52H337.35L337.506 495.516C337.974 494.844 338.646 494.496 339.582 494.496ZM343.935 500.064H344.643V501H343.803C342.411 501 341.547 500.148 341.547 498.744V495.444H340.407V495.264L342.411 493.152H342.567V494.52H344.607V495.444H342.567V498.708C342.567 499.584 343.047 500.064 343.935 500.064ZM345.968 493.404V492.24H347.072V493.404H345.968ZM346.004 501V494.52H347.024V501H346.004ZM352.543 494.568V495.42H350.551V501H349.531V495.42H348.259V494.568H349.531V494.04C349.531 492.66 350.167 491.976 351.619 491.976H352.531V492.804H351.799C350.887 492.804 350.527 493.152 350.527 494.064V494.568H352.543ZM353.679 493.404V492.24H354.783V493.404H353.679ZM353.715 501V494.52H354.735V501H353.715ZM359.642 501.144C357.722 501.144 356.27 499.692 356.27 497.76C356.27 495.828 357.722 494.388 359.642 494.388C361.19 494.388 362.402 495.3 362.798 496.716H361.778C361.406 495.876 360.602 495.372 359.642 495.372C358.31 495.372 357.314 496.416 357.314 497.76C357.314 499.116 358.322 500.16 359.642 500.16C360.59 500.16 361.382 499.656 361.778 498.792H362.81C362.414 500.22 361.178 501.144 359.642 501.144ZM369.759 494.52H370.563V501H369.723L369.615 500.028C369.015 500.724 368.127 501.144 367.071 501.144C365.151 501.144 363.711 499.692 363.711 497.772C363.711 495.828 365.151 494.388 367.071 494.388C368.127 494.388 369.027 494.808 369.627 495.516L369.759 494.52ZM367.143 500.16C368.523 500.16 369.519 499.14 369.519 497.76C369.519 496.392 368.523 495.372 367.143 495.372C365.775 495.372 364.755 496.404 364.755 497.76C364.755 499.128 365.775 500.16 367.143 500.16ZM375.306 500.064H376.014V501H375.174C373.782 501 372.918 500.148 372.918 498.744V495.444H371.778V495.264L373.782 493.152H373.938V494.52H375.978V495.444H373.938V498.708C373.938 499.584 374.418 500.064 375.306 500.064ZM383.353 497.796C383.353 497.916 383.341 498.036 383.329 498.156H377.809C377.965 499.356 378.865 500.148 380.089 500.148C380.989 500.148 381.709 499.728 382.105 499.032H383.185C382.633 500.364 381.493 501.144 380.089 501.144C378.205 501.144 376.789 499.692 376.789 497.76C376.789 495.84 378.205 494.388 380.089 494.388C382.057 494.388 383.353 495.9 383.353 497.796ZM380.089 495.348C378.913 495.348 378.037 496.092 377.833 497.22H382.333C382.117 496.068 381.241 495.348 380.089 495.348Z" fill="#9197AE"/>
</g>
</g>
<path d="M319.636 96.108C317.788 96.108 316.528 95.076 316.528 93.42H317.608C317.608 94.464 318.46 95.076 319.624 95.076C320.68 95.076 321.508 94.524 321.508 93.636C321.508 92.652 320.512 92.424 319.42 92.16C318.124 91.86 316.696 91.512 316.696 89.832C316.696 88.38 317.812 87.504 319.552 87.504C321.292 87.504 322.36 88.464 322.36 89.988H321.316C321.316 89.052 320.548 88.512 319.528 88.512C318.508 88.512 317.74 88.992 317.74 89.796C317.74 90.708 318.712 90.948 319.792 91.2C321.112 91.524 322.6 91.872 322.6 93.624C322.6 95.208 321.304 96.108 319.636 96.108ZM327.408 89.388C328.956 89.388 329.916 90.444 329.916 92.124V96H328.896V92.364C328.896 91.056 328.272 90.312 327.156 90.312C326.04 90.312 325.188 91.26 325.188 92.472V96H324.168V87.216H325.188V90.408C325.692 89.772 326.472 89.388 327.408 89.388ZM334.796 96.144C332.828 96.144 331.352 94.704 331.352 92.76C331.352 90.816 332.828 89.388 334.796 89.388C336.752 89.388 338.228 90.828 338.228 92.76C338.228 94.704 336.752 96.144 334.796 96.144ZM334.796 95.16C336.176 95.16 337.184 94.152 337.184 92.772C337.184 91.38 336.176 90.372 334.796 90.372C333.404 90.372 332.396 91.38 332.396 92.76C332.396 94.152 333.404 95.16 334.796 95.16ZM347.58 89.52H348.612L346.404 96H345.576L343.752 91.596L341.916 96H341.088L338.904 89.52H339.96L341.58 94.296L343.56 89.628H343.932L345.936 94.344L347.58 89.52ZM356.265 89.568V90.42H354.273V96H353.253V90.42H351.981V89.568H353.253V89.04C353.253 87.66 353.889 86.976 355.341 86.976H356.253V87.804H355.521C354.609 87.804 354.249 88.152 354.249 89.064V89.568H356.265ZM357.402 88.404V87.24H358.506V88.404H357.402ZM357.438 96V89.52H358.458V96H357.438ZM363.748 89.388C365.296 89.388 366.256 90.54 366.256 92.124V96H365.236V92.364C365.236 91.056 364.612 90.312 363.496 90.312C362.38 90.312 361.528 91.26 361.528 92.472V96H360.508V89.52H361.24L361.432 90.54C361.924 89.82 362.752 89.388 363.748 89.388ZM368.172 88.404V87.24H369.276V88.404H368.172ZM368.208 96V89.52H369.228V96H368.208ZM373.33 96.144C371.794 96.144 370.798 95.328 370.738 94.02H371.746C371.794 94.788 372.454 95.208 373.366 95.208C374.254 95.208 374.89 94.824 374.89 94.2C374.89 93.432 374.086 93.288 373.21 93.144C372.106 92.952 370.858 92.724 370.858 91.26C370.858 90.144 371.842 89.388 373.306 89.388C374.77 89.388 375.706 90.168 375.742 91.392H374.782C374.746 90.684 374.194 90.3 373.282 90.3C372.406 90.3 371.854 90.66 371.854 91.224C371.854 91.908 372.598 92.04 373.462 92.172C374.578 92.352 375.898 92.568 375.898 94.152C375.898 95.364 374.866 96.144 373.33 96.144ZM380.67 89.388C382.218 89.388 383.178 90.444 383.178 92.124V96H382.158V92.364C382.158 91.056 381.534 90.312 380.418 90.312C379.302 90.312 378.45 91.26 378.45 92.472V96H377.43V87.216H378.45V90.408C378.954 89.772 379.734 89.388 380.67 89.388ZM391.189 92.796C391.189 92.916 391.177 93.036 391.165 93.156H385.645C385.801 94.356 386.701 95.148 387.925 95.148C388.825 95.148 389.545 94.728 389.941 94.032H391.021C390.469 95.364 389.329 96.144 387.925 96.144C386.041 96.144 384.625 94.692 384.625 92.76C384.625 90.84 386.041 89.388 387.925 89.388C389.893 89.388 391.189 90.9 391.189 92.796ZM387.925 90.348C386.749 90.348 385.873 91.092 385.669 92.22H390.169C389.953 91.068 389.077 90.348 387.925 90.348ZM397.943 87.216H398.963V96.012H398.171L398.039 95.088C397.439 95.748 396.563 96.144 395.543 96.144C393.599 96.144 392.195 94.692 392.195 92.772C392.195 90.828 393.599 89.388 395.543 89.388C396.503 89.388 397.343 89.748 397.943 90.348V87.216ZM395.615 95.16C396.995 95.16 398.003 94.128 398.003 92.772C398.003 91.404 396.995 90.372 395.615 90.372C394.247 90.372 393.239 91.392 393.239 92.772C393.239 94.14 394.247 95.16 395.615 95.16Z" fill="#636B87"/>
<rect x="408" y="83" width="18" height="18" rx="4" fill="#1CCFB8"/>
<path d="M422.334 88.3333L415 95.6666L411.667 92.3333" stroke="white" stroke-width="1.5" stroke-linecap="round" stroke-linejoin="round"/>
<path d="M183.828 83.4V85.344H180.138V96H178.068V85.344H174.378V83.4H183.828ZM192.47 86.28H194V96H192.398L192.2 94.83C191.318 95.712 190.094 96.252 188.672 96.252C185.774 96.252 183.614 94.056 183.614 91.14C183.614 88.224 185.774 86.046 188.672 86.046C190.112 86.046 191.354 86.586 192.236 87.504L192.47 86.28ZM188.834 94.326C190.67 94.326 192.002 92.976 192.002 91.14C192.002 89.304 190.67 87.954 188.834 87.954C186.998 87.954 185.648 89.322 185.648 91.14C185.648 92.958 186.998 94.326 188.834 94.326ZM200.089 96.252C197.731 96.252 196.183 94.938 196.129 92.922H198.073C198.127 93.948 198.991 94.488 200.161 94.488C201.241 94.488 202.069 94.038 202.069 93.228C202.069 92.292 201.025 92.094 199.837 91.896C198.217 91.608 196.309 91.248 196.309 88.998C196.309 87.252 197.803 86.046 200.071 86.046C202.321 86.046 203.797 87.288 203.833 89.16H201.943C201.907 88.242 201.187 87.738 200.017 87.738C198.919 87.738 198.235 88.224 198.235 88.926C198.235 89.79 199.225 89.952 200.395 90.15C202.033 90.42 204.031 90.744 204.031 93.138C204.031 95.028 202.465 96.252 200.089 96.252ZM212.502 96L209.586 91.86H208.38V96H206.382V82.806H208.38V90.042H209.604L212.232 86.28H214.59L211.296 90.96L214.95 96H212.502ZM219.496 96.252C217.138 96.252 215.59 94.938 215.536 92.922H217.48C217.534 93.948 218.398 94.488 219.568 94.488C220.648 94.488 221.476 94.038 221.476 93.228C221.476 92.292 220.432 92.094 219.244 91.896C217.624 91.608 215.716 91.248 215.716 88.998C215.716 87.252 217.21 86.046 219.478 86.046C221.728 86.046 223.204 87.288 223.24 89.16H221.35C221.314 88.242 220.594 87.738 219.424 87.738C218.326 87.738 217.642 88.224 217.642 88.926C217.642 89.79 218.632 89.952 219.802 90.15C221.44 90.42 223.438 90.744 223.438 93.138C223.438 95.028 221.872 96.252 219.496 96.252Z" fill="#131F4A"/>
<rect x="237" y="79" width="55" height="24" rx="4" fill="#E9EEF7"/>
<path d="M247.336 87.02H250.024V95H248.752V88.196H247.336V87.02ZM259.573 95.168C257.017 95.168 255.145 93.296 255.145 90.8C255.145 88.316 257.017 86.444 259.573 86.444C262.117 86.444 264.001 88.316 264.001 90.8C264.001 93.296 262.117 95.168 259.573 95.168ZM259.573 93.836C261.301 93.836 262.597 92.54 262.597 90.8C262.597 89.072 261.301 87.776 259.573 87.776C257.845 87.776 256.537 89.084 256.537 90.8C256.537 92.528 257.845 93.836 259.573 93.836ZM270.675 87.896H267.207V90.272H270.363V91.544H267.207V95H265.839V86.6H270.675V87.896ZM279.637 90.752C280.297 91.148 280.693 91.844 280.693 92.648C280.693 94.112 279.505 95.156 277.801 95.156C276.073 95.156 274.909 94.136 274.909 92.648C274.909 91.856 275.293 91.16 275.965 90.752C275.461 90.356 275.161 89.744 275.161 89.072C275.161 87.788 276.241 86.876 277.801 86.876C279.361 86.876 280.429 87.776 280.429 89.072C280.429 89.756 280.129 90.38 279.637 90.752ZM277.801 87.956C276.997 87.956 276.433 88.436 276.433 89.096C276.433 89.768 276.997 90.236 277.801 90.236C278.593 90.236 279.145 89.768 279.145 89.096C279.145 88.436 278.593 87.956 277.801 87.956ZM277.801 94.016C278.749 94.016 279.397 93.464 279.397 92.66C279.397 91.856 278.749 91.304 277.801 91.304C276.853 91.304 276.205 91.856 276.205 92.66C276.205 93.464 276.853 94.016 277.801 94.016Z" fill="#131F4A"/>
<g filter="url(#filter4_d_4207_5955)">
<rect x="300" y="332" width="240" height="116" rx="12" fill="white" shape-rendering="crispEdges"/>
<rect x="300.5" y="332.5" width="239" height="115" rx="11.5" stroke="#CCD0E0" stroke-dasharray="8 8" shape-rendering="crispEdges"/>
<g filter="url(#filter5_d_4207_5955)">
<rect x="398" y="352" width="44" height="44" rx="12" fill="#F7F9FC"/>
<rect x="398.5" y="352.5" width="43" height="43" rx="11.5" stroke="#DDE5F3"/>
</g>
<path fill-rule="evenodd" clip-rule="evenodd" d="M414.324 371.068C411.885 371.401 410 373.47 410 376C410 378.761 412.239 381 415 381H426C428.209 381 430 379.209 430 377C430 374.791 428.209 373 426 373C426 369.686 423.314 367 420 367C417.363 367 415.129 368.703 414.324 371.068Z" stroke="#131F4A" stroke-width="1.5" stroke-linecap="round" stroke-linejoin="round"/>
<path d="M417.833 374.667L420 372.5L422.167 374.667" stroke="#131F4A" stroke-width="1.5" stroke-linecap="round" stroke-linejoin="round"/>
<path d="M420 377.5V372.5" stroke="#131F4A" stroke-width="1.5" stroke-linecap="round" stroke-linejoin="round"/>
<path d="M360.749 420.196C358.495 420.196 356.815 418.6 356.815 416.346V410.2H358.425V416.248C358.425 417.69 359.391 418.642 360.749 418.642C362.107 418.642 363.059 417.69 363.059 416.248V410.2H364.683V416.346C364.683 418.6 363.003 420.196 360.749 420.196ZM370.868 412.258C373.122 412.258 374.788 413.952 374.788 416.22C374.788 418.488 373.122 420.196 370.868 420.196C369.888 420.196 369.02 419.86 368.362 419.286V422.716H366.808V412.44H367.844L368.138 413.378C368.824 412.678 369.776 412.258 370.868 412.258ZM370.742 418.712C372.17 418.712 373.206 417.648 373.206 416.22C373.206 414.806 372.17 413.742 370.742 413.742C369.314 413.742 368.264 414.806 368.264 416.22C368.264 417.648 369.314 418.712 370.742 418.712ZM376.46 420V409.738H378.014V420H376.46ZM383.706 420.196C381.382 420.196 379.66 418.502 379.66 416.22C379.66 413.938 381.382 412.258 383.706 412.258C386.016 412.258 387.738 413.952 387.738 416.22C387.738 418.502 386.016 420.196 383.706 420.196ZM383.706 418.712C385.134 418.712 386.156 417.676 386.156 416.22C386.156 414.778 385.134 413.742 383.706 413.742C382.264 413.742 381.242 414.778 381.242 416.22C381.242 417.676 382.264 418.712 383.706 418.712ZM395.736 412.44H396.926V420H395.68L395.526 419.09C394.84 419.776 393.888 420.196 392.782 420.196C390.528 420.196 388.848 418.488 388.848 416.22C388.848 413.952 390.528 412.258 392.782 412.258C393.902 412.258 394.868 412.678 395.554 413.392L395.736 412.44ZM392.908 418.698C394.336 418.698 395.372 417.648 395.372 416.22C395.372 414.792 394.336 413.742 392.908 413.742C391.48 413.742 390.43 414.806 390.43 416.22C390.43 417.634 391.48 418.698 392.908 418.698ZM405.022 409.738H406.576V420.014H405.4L405.19 419.146C404.518 419.804 403.58 420.196 402.53 420.196C400.234 420.196 398.596 418.488 398.596 416.234C398.596 413.952 400.234 412.258 402.53 412.258C403.496 412.258 404.35 412.58 405.022 413.14V409.738ZM402.642 418.712C404.07 418.712 405.12 417.634 405.12 416.22C405.12 414.806 404.07 413.742 402.642 413.742C401.228 413.742 400.178 414.806 400.178 416.22C400.178 417.648 401.228 418.712 402.642 418.712ZM418.188 409.738H419.742V420.014H418.566L418.356 419.146C417.684 419.804 416.746 420.196 415.696 420.196C413.4 420.196 411.762 418.488 411.762 416.234C411.762 413.952 413.4 412.258 415.696 412.258C416.662 412.258 417.516 412.58 418.188 413.14V409.738ZM415.808 418.712C417.236 418.712 418.286 417.634 418.286 416.22C418.286 414.806 417.236 413.742 415.808 413.742C414.394 413.742 413.344 414.806 413.344 416.22C413.344 417.648 414.394 418.712 415.808 418.712ZM425.446 420.196C423.122 420.196 421.4 418.502 421.4 416.22C421.4 413.938 423.122 412.258 425.446 412.258C427.756 412.258 429.478 413.952 429.478 416.22C429.478 418.502 427.756 420.196 425.446 420.196ZM425.446 418.712C426.874 418.712 427.896 417.676 427.896 416.22C427.896 414.778 426.874 413.742 425.446 413.742C424.004 413.742 422.982 414.778 422.982 416.22C422.982 417.676 424.004 418.712 425.446 418.712ZM434.55 420.196C432.296 420.196 430.588 418.474 430.588 416.22C430.588 413.966 432.296 412.258 434.55 412.258C436.426 412.258 437.882 413.406 438.302 415.142H436.762C436.37 414.274 435.53 413.742 434.55 413.742C433.192 413.742 432.17 414.82 432.17 416.22C432.17 417.62 433.206 418.712 434.55 418.712C435.544 418.712 436.342 418.18 436.748 417.256H438.316C437.91 419.02 436.412 420.196 434.55 420.196ZM443.175 420.196C441.089 420.196 439.731 418.852 439.731 416.808V412.44H441.285V416.598C441.285 417.914 441.999 418.712 443.175 418.712C444.351 418.712 445.051 417.9 445.051 416.598V412.44H446.605V416.808C446.605 418.852 445.261 420.196 443.175 420.196ZM457.145 412.272C458.741 412.272 459.819 413.49 459.819 415.198V420H458.265V415.576C458.265 414.358 457.733 413.672 456.795 413.672C455.787 413.672 455.017 414.582 455.017 415.87V420H453.505V415.576C453.505 414.358 452.973 413.672 452.035 413.672C451.027 413.672 450.257 414.582 450.257 415.87V420H448.703V412.44H449.795L450.061 413.42C450.635 412.72 451.503 412.272 452.413 412.272C453.435 412.272 454.247 412.776 454.681 413.602C455.227 412.79 456.151 412.272 457.145 412.272ZM469.119 416.248C469.119 416.416 469.105 416.584 469.077 416.752H462.945C463.141 417.984 464.023 418.74 465.255 418.74C466.165 418.74 466.893 418.32 467.299 417.62H468.937C468.335 419.216 466.949 420.196 465.255 420.196C463.043 420.196 461.377 418.488 461.377 416.22C461.377 413.966 463.043 412.258 465.255 412.258C467.579 412.258 469.119 414.05 469.119 416.248ZM465.255 413.672C464.093 413.672 463.239 414.372 462.987 415.492H467.551C467.271 414.344 466.417 413.672 465.255 413.672ZM474.759 412.272C476.537 412.272 477.643 413.588 477.643 415.45V420H476.089V415.772C476.089 414.4 475.487 413.672 474.353 413.672C473.163 413.672 472.323 414.624 472.323 415.954V420H470.769V412.44H471.847L472.155 413.504C472.715 412.734 473.653 412.272 474.759 412.272ZM483.043 418.6H483.911V420H482.749C481.097 420 480.075 418.978 480.075 417.312V413.784H478.717V413.476L481.349 410.676H481.615V412.44H483.869V413.784H481.629V417.186C481.629 418.096 482.133 418.6 483.043 418.6Z" fill="#202537"/>
</g>
<defs>
<filter id="filter0_ddd_4207_5955" x="104" y="47" width="392" height="586" filterUnits="userSpaceOnUse" color-interpolation-filters="sRGB">
<feFlood flood-opacity="0" result="BackgroundImageFix"/>
<feColorMatrix in="SourceAlpha" type="matrix" values="0 0 0 0 0 0 0 0 0 0 0 0 0 0 0 0 0 0 127 0" result="hardAlpha"/>
<feMorphology radius="8" operator="erode" in="SourceAlpha" result="effect1_dropShadow_4207_5955"/>
<feOffset dy="12"/>
<feGaussianBlur stdDeviation="6"/>
<feComposite in2="hardAlpha" operator="out"/>
<feColorMatrix type="matrix" values="0 0 0 0 0.898039 0 0 0 0 0.909804 0 0 0 0 0.921569 0 0 0 0.5 0"/>
<feBlend mode="multiply" in2="BackgroundImageFix" result="effect1_dropShadow_4207_5955"/>
<feColorMatrix in="SourceAlpha" type="matrix" values="0 0 0 0 0 0 0 0 0 0 0 0 0 0 0 0 0 0 127 0" result="hardAlpha"/>
<feMorphology radius="8" operator="erode" in="SourceAlpha" result="effect2_dropShadow_4207_5955"/>
<feOffset dy="32"/>
<feGaussianBlur stdDeviation="24"/>
<feComposite in2="hardAlpha" operator="out"/>
<feColorMatrix type="matrix" values="0 0 0 0 0 0 0 0 0 0 0 0 0 0 0 0 0 0 0.02 0"/>
<feBlend mode="multiply" in2="effect1_dropShadow_4207_5955" result="effect2_dropShadow_4207_5955"/>
<feColorMatrix in="SourceAlpha" type="matrix" values="0 0 0 0 0 0 0 0 0 0 0 0 0 0 0 0 0 0 127 0" result="hardAlpha"/>
<feMorphology radius="12" operator="erode" in="SourceAlpha" result="effect3_dropShadow_4207_5955"/>
<feOffset dy="40"/>
<feGaussianBlur stdDeviation="32"/>
<feComposite in2="hardAlpha" operator="out"/>
<feColorMatrix type="matrix" values="0 0 0 0 0 0 0 0 0 0 0 0 0 0 0 0 0 0 0.02 0"/>
<feBlend mode="multiply" in2="effect2_dropShadow_4207_5955" result="effect3_dropShadow_4207_5955"/>
<feBlend mode="normal" in="SourceGraphic" in2="effect3_dropShadow_4207_5955" result="shape"/>
</filter>
<filter id="filter1_d_4207_5955" x="172" y="120" width="256" height="116" filterUnits="userSpaceOnUse" color-interpolation-filters="sRGB">
<feFlood flood-opacity="0" result="BackgroundImageFix"/>
<feColorMatrix in="SourceAlpha" type="matrix" values="0 0 0 0 0 0 0 0 0 0 0 0 0 0 0 0 0 0 127 0" result="hardAlpha"/>
<feOffset dy="1"/>
<feGaussianBlur stdDeviation="1"/>
<feComposite in2="hardAlpha" operator="out"/>
<feColorMatrix type="matrix" values="0 0 0 0 0.891 0 0 0 0 0.894 0 0 0 0 0.9 0 0 0 0.25 0"/>
<feBlend mode="normal" in2="BackgroundImageFix" result="effect1_dropShadow_4207_5955"/>
<feBlend mode="normal" in="SourceGraphic" in2="effect1_dropShadow_4207_5955" result="shape"/>
</filter>
<filter id="filter2_d_4207_5955" x="172" y="240" width="256" height="140" filterUnits="userSpaceOnUse" color-interpolation-filters="sRGB">
<feFlood flood-opacity="0" result="BackgroundImageFix"/>
<feColorMatrix in="SourceAlpha" type="matrix" values="0 0 0 0 0 0 0 0 0 0 0 0 0 0 0 0 0 0 127 0" result="hardAlpha"/>
<feOffset dy="1"/>
<feGaussianBlur stdDeviation="1"/>
<feComposite in2="hardAlpha" operator="out"/>
<feColorMatrix type="matrix" values="0 0 0 0 0.891 0 0 0 0 0.894 0 0 0 0 0.9 0 0 0 0.25 0"/>
<feBlend mode="normal" in2="BackgroundImageFix" result="effect1_dropShadow_4207_5955"/>
<feBlend mode="normal" in="SourceGraphic" in2="effect1_dropShadow_4207_5955" result="shape"/>
</filter>
<filter id="filter3_d_4207_5955" x="172" y="384" width="256" height="140" filterUnits="userSpaceOnUse" color-interpolation-filters="sRGB">
<feFlood flood-opacity="0" result="BackgroundImageFix"/>
<feColorMatrix in="SourceAlpha" type="matrix" values="0 0 0 0 0 0 0 0 0 0 0 0 0 0 0 0 0 0 127 0" result="hardAlpha"/>
<feOffset dy="1"/>
<feGaussianBlur stdDeviation="1"/>
<feComposite in2="hardAlpha" operator="out"/>
<feColorMatrix type="matrix" values="0 0 0 0 0.891 0 0 0 0 0.894 0 0 0 0 0.9 0 0 0 0.25 0"/>
<feBlend mode="normal" in2="BackgroundImageFix" result="effect1_dropShadow_4207_5955"/>
<feBlend mode="normal" in="SourceGraphic" in2="effect1_dropShadow_4207_5955" result="shape"/>
</filter>
<filter id="filter4_d_4207_5955" x="298" y="331" width="244" height="120" filterUnits="userSpaceOnUse" color-interpolation-filters="sRGB">
<feFlood flood-opacity="0" result="BackgroundImageFix"/>
<feColorMatrix in="SourceAlpha" type="matrix" values="0 0 0 0 0 0 0 0 0 0 0 0 0 0 0 0 0 0 127 0" result="hardAlpha"/>
<feOffset dy="1"/>
<feGaussianBlur stdDeviation="1"/>
<feComposite in2="hardAlpha" operator="out"/>
<feColorMatrix type="matrix" values="0 0 0 0 0.898039 0 0 0 0 0.909804 0 0 0 0 0.921569 0 0 0 0.8 0"/>
<feBlend mode="normal" in2="BackgroundImageFix" result="effect1_dropShadow_4207_5955"/>
<feBlend mode="normal" in="SourceGraphic" in2="effect1_dropShadow_4207_5955" result="shape"/>
</filter>
<filter id="filter5_d_4207_5955" x="396" y="351" width="48" height="48" filterUnits="userSpaceOnUse" color-interpolation-filters="sRGB">
<feFlood flood-opacity="0" result="BackgroundImageFix"/>
<feColorMatrix in="SourceAlpha" type="matrix" values="0 0 0 0 0 0 0 0 0 0 0 0 0 0 0 0 0 0 127 0" result="hardAlpha"/>
<feOffset dy="1"/>
<feGaussianBlur stdDeviation="1"/>
<feComposite in2="hardAlpha" operator="out"/>
<feColorMatrix type="matrix" values="0 0 0 0 0.891 0 0 0 0 0.894 0 0 0 0 0.9 0 0 0 0.25 0"/>
<feBlend mode="normal" in2="BackgroundImageFix" result="effect1_dropShadow_4207_5955"/>
<feBlend mode="normal" in="SourceGraphic" in2="effect1_dropShadow_4207_5955" result="shape"/>
</filter>
</defs>
</svg>
