<svg width="24" height="24" viewBox="0 0 24 24" fill="none" xmlns="http://www.w3.org/2000/svg">
<path fill-rule="evenodd" clip-rule="evenodd" d="M21.0036 17.0022C21.0036 19.2122 19.212 21.0038 17.0019 21.0038H6.99776C4.7877 21.0038 2.99609 19.2122 2.99609 17.0022V6.998C2.99609 4.78795 4.7877 2.99634 6.99776 2.99634H17.0019C19.212 2.99634 21.0036 4.78795 21.0036 6.998V17.0022Z" stroke="#1CCFB8" stroke-width="1.5" stroke-linecap="round" stroke-linejoin="round"/>
<path d="M2.99609 13.0005L4.29179 11.7048C4.74413 11.2524 5.35764 10.9983 5.99734 10.9983C6.63704 10.9983 7.25055 11.2524 7.70288 11.7048L11.9998 16.0017" stroke="#1CCFB8" stroke-width="1.5" stroke-linecap="round" stroke-linejoin="round"/>
<path d="M7.00098 21.0038L13.2988 14.706C14.2407 13.764 15.7679 13.764 16.7099 14.706L20.6507 18.6468" stroke="#1CCFB8" stroke-width="1.5" stroke-linecap="round" stroke-linejoin="round"/>
</svg>
