<svg width="31" height="32" viewBox="0 0 31 32" fill="none" xmlns="http://www.w3.org/2000/svg">
<g clip-path="url(#clip0_4238_51703)">
<path d="M0.50293 8.73557L15.5062 0L30.4762 8.73557V12.1033H28.1091V23.1397H2.80342V12.1033H0.50293V8.73557ZM15.4356 3.93104L6.26689 9.33262V19.7355H24.7377V9.33262L15.4356 3.93104ZM20.7012 14.4023V17.7031H10.2993V14.4023H20.7012ZM20.7012 13.6308H10.2993V10.4301H20.7015L20.7012 13.6308ZM5.63399 27.2689C5.46747 27.3688 5.36732 27.4358 5.16731 27.4358C4.46715 27.4358 3.96699 26.8023 3.96699 26.1353C3.96699 25.335 4.46715 24.8348 5.10064 24.8348C5.83429 24.8348 6.23429 25.4017 6.23429 26.1018C6.23429 26.4686 6.13444 26.6686 5.96762 26.9688L6.26778 27.2355L5.96762 27.5356L5.63399 27.2689ZM5.29917 26.9036L5.13235 26.6701L5.4325 26.4366L5.63251 26.6366C5.66599 26.4032 5.69917 26.1697 5.69917 26.0366C5.69917 25.6031 5.39902 25.3365 5.06568 25.3365C4.73234 25.3365 4.49886 25.6031 4.49886 26.1033C4.49886 26.6369 4.86568 26.9036 5.29917 26.9036ZM9.7991 30.6332C9.7991 29.933 10.3324 29.3994 10.9328 29.3994C11.5994 29.3994 12.0996 29.9662 12.0996 30.6998C12.0996 31.5001 11.5994 32.0003 10.9659 32.0003C10.3324 32 9.7991 31.5001 9.7991 30.6332ZM10.9313 29.9037C10.6311 29.9037 10.3313 30.2038 10.3313 30.704C10.3313 31.2041 10.6314 31.5043 10.9648 31.5043C11.2981 31.5043 11.5648 31.1709 11.5648 30.704C11.5648 30.237 11.2981 29.9037 10.9313 29.9037ZM17.3992 24.8351C18.0994 24.8351 18.5661 25.402 18.5661 26.1021C18.5661 26.9024 18.0994 27.4358 17.4324 27.4358C16.7989 27.4358 16.2988 26.9021 16.2988 26.1021C16.2988 25.3021 16.766 24.8351 17.3992 24.8351ZM18.0395 26.1356C18.0395 25.602 17.7394 25.3353 17.4061 25.3353C17.0727 25.3353 16.8392 25.6354 16.8392 26.1356C16.8392 26.6358 17.0727 26.9356 17.4727 26.9356C17.8392 26.9356 18.0395 26.6358 18.0395 26.1356ZM8.73508 27.3398L9.56858 24.9059H10.1686L11.0021 27.3398H10.5019L10.3354 26.8731H9.40176L9.23524 27.3398H8.73508ZM9.86725 25.6381L9.5671 26.3717H10.1339L9.86725 25.6381ZM28.1023 26.4689H28.5357C28.4691 26.8023 28.3692 26.9359 28.0691 26.9359C27.7022 26.9359 27.4691 26.6358 27.4691 26.1691C27.4691 25.6689 27.7357 25.3688 28.1026 25.3688C28.4027 25.3688 28.536 25.5353 28.7026 25.8023H29.0359C29.0359 25.3688 28.7692 24.9021 28.0691 24.9021C27.4024 24.9021 26.9354 25.3688 26.9354 26.2357C26.9354 26.9024 27.3689 27.4361 27.9354 27.4361C28.102 27.4361 28.3023 27.3694 28.6356 27.2026L28.7357 27.4026H29.0691V26.1021H28.1023V26.4689ZM27.0394 29.4687L27.8062 30.9357V31.936H28.2729V30.9357L29.1399 29.4687H28.5731L28.0397 30.4023L27.5728 29.4687H27.0394ZM21.1353 26.5688C21.202 27.0689 21.4687 27.4358 22.1356 27.4358C22.7024 27.4358 23.1025 27.1024 23.1025 26.6355C23.1025 26.402 22.9691 26.1685 22.7691 26.1018L22.1356 25.8683C21.8023 25.735 21.7688 25.6348 21.7688 25.5682C21.7688 25.4683 21.869 25.3347 22.1021 25.3347C22.3021 25.3347 22.4023 25.4345 22.5688 25.7015H22.9691C22.9691 25.268 22.7691 24.868 22.1356 24.868C21.6687 24.868 21.2352 25.2014 21.2352 25.6348C21.2352 25.9015 21.4352 26.135 21.7685 26.2683L22.3353 26.4683C22.5353 26.535 22.5688 26.6017 22.5688 26.7018C22.5688 26.8017 22.469 26.9685 22.202 26.9685C22.002 26.9685 21.802 26.8352 21.602 26.5685L21.1353 26.5688ZM24.5072 27.3398H25.0074V25.9063L26.0077 27.3398H26.4744V24.9059H26.0077V26.4396L25.0074 24.9059H24.5072V27.3398ZM20.6672 29.4687V31.936H21.1341V30.5022L22.1341 31.936H22.6011V29.4687H22.1341V31.0023L21.1341 29.4687H20.6672ZM13.8712 27.3398H14.3713V26.3063H15.3047V27.3398H15.8048V24.9059H15.3047V25.7726H14.3713V24.9059H13.8712V27.3398ZM12.9352 31.936V29.4687H13.8685C14.3687 29.4687 14.7355 29.7354 14.7355 30.1689C14.7355 30.3022 14.6688 30.5357 14.502 30.8023C14.702 31.1357 14.7687 31.3025 14.8022 31.936H14.302C14.2685 31.5025 14.2021 31.3692 14.0018 31.0358H13.4685V31.936H12.9352ZM13.467 29.9733V30.5401H13.9337C14.1002 30.5401 14.2338 30.4403 14.2338 30.2734C14.2338 30.1066 14.1005 29.9733 13.9337 29.9733H13.467ZM6.63104 24.903V26.37C6.63104 27.0369 6.96438 27.4035 7.53121 27.4035C8.13151 27.4035 8.43167 27.0035 8.43167 26.37V24.903H7.93121V26.37C7.93121 26.6701 7.86455 26.9036 7.53091 26.9036C7.23076 26.9036 7.1309 26.6701 7.1309 26.37V24.903H6.63104ZM15.4031 29.4687V29.9689H16.0365V31.936H16.5367V29.9689H17.2037V29.4687H15.4031ZM24.7354 29.4687V29.9689H25.4021V31.936H25.9022V29.9689H26.5357V29.4687H24.7354ZM18.9993 24.9018V26.4355C18.9993 27.0355 19.3326 27.4358 19.8662 27.4358C20.4331 27.4358 20.7664 27.1356 20.7664 26.4355V24.9018H20.2663V26.402C20.2663 26.7353 20.1661 26.9356 19.8994 26.9356C19.6328 26.9356 19.4994 26.7356 19.4994 26.402V24.9018H18.9993ZM17.9353 29.466V31.1665C17.9353 31.6998 18.3018 32 18.8019 32C19.3688 32 19.7021 31.6667 19.7021 31.0998V29.466H19.2019V31.0332C19.2019 31.3333 19.1018 31.5333 18.8351 31.5333C18.535 31.5333 18.4348 31.2998 18.4348 31V29.4663L17.9353 29.466ZM4.86716 29.4687H5.80051C6.26718 29.4687 6.60082 29.802 6.60082 30.269C6.60082 30.9025 6.10066 31.1025 5.36702 31.1025V31.936H4.86686V29.4687H4.86716ZM5.36287 29.9733V30.5401H5.79636C5.9297 30.5401 6.06303 30.4403 6.06303 30.2734C6.06303 30.1066 5.9297 29.9733 5.79636 29.9733H5.36287ZM1.96281 27.3398H3.69647V26.9063H2.46297V26.2728H3.52995V25.8393H2.46297V25.306H3.69647V24.9059H1.96281V27.3398ZM11.331 24.9059V27.3398H12.8981V26.8731H11.8311V24.9059H11.331ZM23.5392 29.4687H24.0394V31.936H23.5392V29.4687ZM23.4355 24.9059H23.9357V27.3398H23.4355V24.9059ZM1.75451 30.6186C1.75451 29.9185 2.28785 29.3848 2.88816 29.3848C3.55484 29.3848 4.055 29.9517 4.055 30.6853C4.055 31.4856 3.55484 31.9858 2.92134 31.9858C2.28785 31.9858 1.75451 31.4856 1.75451 30.6186ZM2.88668 29.8894C2.58652 29.8894 2.28667 30.1896 2.28667 30.6895C2.28667 31.1896 2.58682 31.4898 2.92016 31.4898C3.2535 31.4898 3.52017 31.1564 3.52017 30.6895C3.52017 30.2228 3.2535 29.8894 2.88668 29.8894ZM7.4195 29.4687H8.35285C8.81982 29.4687 9.15316 29.802 9.15316 30.269C9.15316 30.9025 8.65301 31.1025 7.91966 31.1025V31.936H7.4195V29.4687ZM7.91551 29.9733V30.5401H8.349C8.48234 30.5401 8.61567 30.4403 8.61567 30.2734C8.61567 30.1066 8.48234 29.9733 8.349 29.9733H7.91551Z" fill="#9197AE"/>
</g>
<defs>
<clipPath id="clip0_4238_51703">
<rect width="29.9776" height="32" fill="white" transform="translate(0.500977)"/>
</clipPath>
</defs>
</svg>
