<svg width="32" height="32" viewBox="0 0 32 32" fill="none" xmlns="http://www.w3.org/2000/svg">
<g clip-path="url(#clip0_4238_51701)">
<path d="M0 8.96492L15.9279 0.00244141L31.5008 9.05379V12.2039H29.0161V23.3407H2.4403V12.2042H0V8.96492ZM15.9267 3.37892L5.67783 9.32458V20.5057H25.9536V9.32458L15.9267 3.37892ZM10.4758 13.5842V10.8331H21.0795V13.5842H10.4758ZM10.4758 14.9559H21.0795V17.707H10.4758V14.9559ZM16.2377 31.998V28.4929H18.1012C19.4323 28.4929 20.3641 28.8923 20.3641 30.3123C20.3641 31.6878 19.5212 31.9983 18.0568 31.9983L16.2377 31.998ZM17.2133 29.2457V31.2422H18.0121C18.766 31.2422 19.2987 31.1092 19.2987 30.3105C19.2987 29.6007 18.7219 29.2457 18.1009 29.2457H17.2133ZM25.9139 31.998V28.4929H28.4872C29.4631 28.4929 29.8628 28.8037 29.8628 29.6021C29.8628 30.179 29.552 30.4453 28.8866 30.5342L29.9069 31.9983H28.8422L27.8218 30.5342H26.8901V31.9983L25.9139 31.998ZM28.3498 29.2463H26.8857V29.7787H28.3053C28.7933 29.7787 28.9266 29.7787 28.9266 29.5124C28.9266 29.2908 28.7491 29.2463 28.3498 29.2463ZM10.9157 28.4929V31.998H11.8475V29.8685L13.7109 31.998H14.8201V28.4929H13.8884V30.6669L12.0249 28.4929H10.9157ZM1.81519 28.4929V31.998H5.32025V31.2437L2.79137 31.1993V28.4929H1.81519ZM6.30176 31.998H9.71794V31.2437H7.32208V30.4894H9.31858V29.7796H7.32208V29.2472H9.71794V28.4929H6.30176V31.998ZM21.4318 28.4929V31.998L24.8035 31.9538V31.2437H22.4077V30.4894H24.4486V29.7796H22.4077V29.2472H24.8035V28.4929H21.4318ZM8.73673 27.6036L9.62403 24.4534H10.3783L11.2656 27.6036H10.5744L10.378 26.8937H9.57929L9.38287 27.6036H8.73673ZM9.9825 25.1256L9.71646 26.3679H10.2933L9.9825 25.1256ZM3.81436 26.4502V25.6071C3.81436 24.8083 4.0804 24.3648 4.87912 24.3648C5.76642 24.3648 5.94388 24.8972 5.94388 25.6515V26.3172C5.94388 26.7166 5.89944 26.894 5.76642 27.1604L6.2988 27.3378L6.25436 27.5597C4.43561 27.5597 3.81436 27.5153 3.81436 26.4502ZM4.47828 25.6512V26.4055C4.47828 26.9823 4.56715 27.1598 4.87764 27.1598C5.23256 27.1598 5.27699 27.0267 5.27699 26.4499V25.6068C5.27699 24.9855 5.23285 24.8969 4.92207 24.8969C4.52271 24.8966 4.47828 25.0744 4.47828 25.6512ZM21.8276 26.7601C21.8276 27.248 22.1381 27.6477 22.8479 27.6477C23.4247 27.6477 23.9571 27.2483 23.9571 26.7601C23.9571 26.0058 22.5374 25.6509 22.5374 25.1627C22.5374 24.9852 22.7149 24.8966 22.8924 24.8966C23.1584 24.8966 23.2917 25.0741 23.4247 25.3404L23.8685 25.163C23.8244 24.7192 23.5136 24.3642 22.8482 24.3642C22.3158 24.3642 21.8723 24.6303 21.8723 25.163C21.8723 26.0506 23.292 26.2722 23.292 26.849C23.292 27.0709 23.159 27.1598 22.8927 27.1598C22.6263 27.1598 22.4489 26.9823 22.3603 26.6718L21.8276 26.7601ZM17.0412 26.5826V25.5623C17.0412 24.7192 17.4406 24.3642 18.106 24.3642C18.9491 24.3642 19.1707 24.6747 19.1707 25.4734V26.4496C19.1707 27.2928 18.9488 27.6477 18.106 27.6477C17.2634 27.6474 17.0412 27.3369 17.0412 26.5826ZM17.7051 25.5179V26.4938C17.7051 26.9376 17.7493 27.1595 18.1045 27.1595C18.3705 27.1595 18.5038 26.982 18.5038 26.4496V25.5179C18.5038 25.163 18.4597 24.8522 18.1045 24.8522C17.7493 24.8522 17.7051 25.1185 17.7051 25.5179ZM27.7291 26.4496C27.7291 27.3814 27.9954 27.6477 28.8827 27.6477C29.5695 27.6477 29.77 27.3257 29.77 26.982V25.9614H28.8383V26.4493H29.1488V26.8042C29.1488 27.0703 29.0602 27.2036 28.8383 27.2036C28.3945 27.2036 28.3504 26.8928 28.3504 26.4493V25.7395C28.3504 25.2071 28.3945 24.8522 28.8383 24.8522C29.1488 24.8522 29.3262 25.0741 29.3707 25.3846L29.8142 25.2071C29.77 24.6747 29.4148 24.364 28.7939 24.364C27.9066 24.364 27.7291 24.8519 27.7291 25.5176V26.4496ZM19.4365 24.4528V26.2719C19.4365 27.3369 19.619 27.6773 20.5507 27.6773C21.2605 27.6773 21.5216 27.2925 21.5216 26.3607V24.4528H20.9003V26.2719C20.9003 26.9817 20.8559 27.1595 20.5009 27.1595C20.146 27.1595 20.1016 26.8931 20.1016 26.2277V24.4528H19.4365ZM25.3341 24.4534V27.6036H25.8665V25.4737L26.6208 27.6036H27.4195V24.4534H26.8868V26.4055L26.177 24.4534H25.3341ZM6.56928 24.4528V26.3607C6.56928 27.248 6.65816 27.6474 7.54546 27.6474C8.56578 27.6474 8.61022 27.1595 8.61022 26.2719V24.4528H7.98896V26.3163C7.98896 26.9376 7.90038 27.115 7.5896 27.115C7.23468 27.115 7.19025 26.9376 7.19025 26.2277V24.4528H6.56928ZM14.5982 24.4534V27.6036H15.2195V26.1839H15.9738V27.6036H16.5947V24.4534H15.9738V25.6512H15.2195V24.4534H14.5982ZM1.77519 24.4534V27.6036H3.37263V27.1156H2.39645V26.228H3.28375V25.7842H2.39645V24.9414H3.37263V24.4534H1.77519ZM11.5355 24.4534V27.6036H12.9996V27.1156H12.0679V24.4534H11.5355ZM24.2747 24.4534H24.8515V27.6036H24.2747V24.4534Z" fill="#9197AE"/>
</g>
<defs>
<clipPath id="clip0_4238_51701">
<rect width="31.5008" height="32" fill="white"/>
</clipPath>
</defs>
</svg>
