<svg width="18" height="18" viewBox="0 0 18 18" fill="none" xmlns="http://www.w3.org/2000/svg">
<path d="M7.26367 7.26361C7.44144 6.49744 8.13927 5.96622 8.92511 5.99883C9.80461 5.95012 10.5586 6.62032 10.6133 7.49946C10.6133 8.62786 9.00014 9.00008 9.00014 9.7504" stroke="#636B87" stroke-width="1.1" stroke-linecap="round" stroke-linejoin="round"/>
<path d="M9.09395 11.814C9.09388 11.8658 9.05188 11.9077 9.00012 11.9077C8.94835 11.9076 8.90639 11.8657 8.90637 11.8139C8.90635 11.7621 8.94827 11.7202 9.00004 11.7201C9.02495 11.7201 9.04886 11.7299 9.06648 11.7476C9.08409 11.7652 9.09398 11.7891 9.09395 11.814" stroke="#636B87" stroke-width="1.1" stroke-linecap="round" stroke-linejoin="round"/>
<path fill-rule="evenodd" clip-rule="evenodd" d="M3.47048 12.8701C1.45816 9.99784 1.97529 6.06385 4.66156 3.8092C7.34784 1.55454 11.3119 1.72736 13.7918 4.20723C16.2717 6.6871 16.4445 10.6512 14.1898 13.3375C11.9352 16.0237 8.00117 16.5409 5.12888 14.5285L2.99668 15.0023L3.47048 12.8701Z" stroke="#636B87" stroke-width="1.1" stroke-linecap="round" stroke-linejoin="round"/>
</svg>
