<svg width="635" height="311" viewBox="0 0 635 311" fill="none" xmlns="http://www.w3.org/2000/svg">
<g filter="url(#filter0_dd_4835_24403)">
<rect width="184" height="214" rx="20" transform="matrix(0.866025 0.5 -2.20305e-08 1 470.75 0)" fill="white"/>
<rect x="0.433013" y="0.75" width="183" height="213" rx="19.5" transform="matrix(0.866025 0.5 -2.20305e-08 1 470.808 -0.216506)" stroke="#DDE5F3"/>
</g>
<path opacity="0.5" d="M507.125 150.92C507.125 118.048 513.226 114.522 541.697 130.96L559.156 141.04C587.624 157.476 593.728 168.045 593.728 200.92L593.728 221.08C593.728 253.952 587.627 257.478 559.156 241.04L541.697 230.96C513.228 214.524 507.125 203.955 507.125 171.08L507.125 150.92Z" stroke="#E9EEF7" stroke-width="0.6" stroke-miterlimit="10"/>
<path opacity="0.7" d="M519.25 160.742C519.25 137.074 523.643 134.536 544.142 146.371L556.712 153.629C577.209 165.463 581.604 173.072 581.604 196.742L581.604 211.258C581.604 234.926 577.211 237.464 556.712 225.629L544.142 218.371C523.644 206.537 519.25 198.928 519.25 175.258L519.25 160.742Z" stroke="#E9EEF7" stroke-width="0.8" stroke-miterlimit="10"/>
<rect width="44" height="44" rx="12" transform="matrix(0.866025 0.5 -2.20305e-08 1 531.375 153)" fill="#FFEFEB"/>
<rect x="0.433013" y="0.75" width="43" height="43" rx="11.5" transform="matrix(0.866025 0.5 -2.20305e-08 1 531.433 152.783)" stroke="#FF7958" stroke-opacity="0.5"/>
<path d="M546.098 192.503L546.098 177.496L542.632 175.496C542.154 175.219 541.766 175.443 541.766 175.996L541.766 190.002" stroke="#FF7958" stroke-width="1.5" stroke-linecap="round" stroke-linejoin="round"/>
<path d="M559.094 200.006L559.094 186C559.094 185.447 558.706 184.776 558.227 184.499L554.762 182.499L554.762 197.505" stroke="#FF7958" stroke-width="1.5" stroke-linecap="round" stroke-linejoin="round"/>
<path d="M548.695 191.002L552.161 193.003" stroke="#FF7958" stroke-width="1.5" stroke-linecap="round" stroke-linejoin="round"/>
<path d="M549.129 194.253L549.129 191.252L551.728 192.753L551.728 195.754" stroke="#FF7958" stroke-width="1.5" stroke-linecap="round" stroke-linejoin="round"/>
<path d="M548.262 187.751L552.594 190.252" stroke="#FF7958" stroke-width="1.5" stroke-linecap="round" stroke-linejoin="round"/>
<path d="M548.262 184.749L552.594 187.251" stroke="#FF7958" stroke-width="1.5" stroke-linecap="round" stroke-linejoin="round"/>
<path d="M543.93 183.749L546.096 185" stroke="#FF7958" stroke-width="1.5" stroke-linecap="round" stroke-linejoin="round"/>
<path d="M543.93 187.251L546.096 188.501" stroke="#FF7958" stroke-width="1.5" stroke-linecap="round" stroke-linejoin="round"/>
<path d="M543.93 180.248L546.096 181.498" stroke="#FF7958" stroke-width="1.5" stroke-linecap="round" stroke-linejoin="round"/>
<path d="M554.762 190.002L556.928 191.252" stroke="#FF7958" stroke-width="1.5" stroke-linecap="round" stroke-linejoin="round"/>
<path d="M554.762 193.503L556.928 194.754" stroke="#FF7958" stroke-width="1.5" stroke-linecap="round" stroke-linejoin="round"/>
<path d="M554.762 186.5L556.928 187.751" stroke="#FF7958" stroke-width="1.5" stroke-linecap="round" stroke-linejoin="round"/>
<path d="M554.762 197.505L554.762 180.538C554.771 179.98 554.383 179.29 553.895 178.997L546.964 174.995C546.476 174.725 546.089 174.967 546.098 175.536L546.098 192.503" stroke="#FF7958" stroke-width="1.5" stroke-linecap="round" stroke-linejoin="round"/>
<path d="M559.959 200.506L540.898 189.501" stroke="#FF7958" stroke-width="1.5" stroke-linecap="round" stroke-linejoin="round"/>
<circle cx="1.50063" cy="1.50063" r="1.50063" transform="matrix(0.866025 0.5 -2.20305e-08 1 549.129 179.247)" stroke="#FF7958" stroke-width="1.5" stroke-linecap="round" stroke-linejoin="round"/>
<path d="M532.289 60.53L532.289 60.55C535.857 62.61 538.438 67.04 538.438 71.08C538.438 75.14 535.857 76.59 532.289 74.53L528.254 72.2L528.254 58.2L532.289 60.53ZM532.255 72.87C534.974 74.44 536.897 73.29 536.897 70.19C536.897 67.11 534.974 63.74 532.255 62.17L529.778 60.74L529.778 71.44L532.255 72.87ZM544.576 81.804C541.909 80.264 540.09 77.494 540.09 74.734L541.649 75.634C541.649 77.374 542.879 79.104 544.559 80.074C546.083 80.954 547.278 80.724 547.278 79.244C547.278 77.604 545.841 76.394 544.265 75.044C542.394 73.464 540.333 71.694 540.333 68.894C540.333 66.474 541.944 65.944 544.455 67.394C546.967 68.844 548.508 71.334 548.508 73.874L547.001 73.004C547.001 71.444 545.893 69.904 544.421 69.054C542.948 68.204 541.84 68.364 541.84 69.704C541.84 71.224 543.243 72.434 544.802 73.754C546.707 75.394 548.855 77.214 548.855 80.134C548.855 82.774 546.984 83.194 544.576 81.804ZM556.678 88.8308C553.075 86.7508 550.46 82.2208 550.46 78.0408C550.46 73.8408 553.075 72.3308 556.678 74.4108C559.484 76.0308 561.735 79.2508 562.428 82.6708L560.869 81.7708C560.229 79.3808 558.67 77.2608 556.678 76.1108C553.976 74.5508 552.019 75.7208 552.019 78.9408C552.019 82.1608 553.976 85.5508 556.678 87.1108C558.722 88.2908 560.298 87.9208 560.939 86.1508L562.48 87.0408C561.787 89.8008 559.536 90.4808 556.678 88.8308ZM571.805 97.3445L569.016 90.2745L566.262 88.6845L566.262 94.1445L564.738 93.2645L564.738 79.2645L569.346 81.9245C571.615 83.2345 573.295 86.0045 573.295 88.4845C573.295 90.4645 572.203 91.3745 570.61 90.9745L573.52 98.3345L571.805 97.3445ZM566.262 81.8245L566.262 87.0045L569.259 88.7345C570.748 89.5945 571.736 89.0845 571.736 87.5845C571.736 86.0845 570.748 84.4145 569.259 83.5545L566.262 81.8245Z" fill="#131F4A"/>
<g filter="url(#filter1_dd_4835_24403)">
<rect width="184" height="214" rx="20" transform="matrix(0.866025 0.5 -2.20305e-08 1 377.398 0)" fill="white"/>
<rect x="0.433013" y="0.75" width="183" height="213" rx="19.5" transform="matrix(0.866025 0.5 -2.20305e-08 1 377.456 -0.216506)" stroke="#DDE5F3"/>
</g>
<path opacity="0.5" d="M413.773 150.92C413.773 118.048 419.874 114.522 448.345 130.96L465.804 141.04C494.273 157.476 500.376 168.045 500.376 200.92L500.376 221.08C500.376 253.952 494.275 257.478 465.804 241.04L448.345 230.96C419.877 214.524 413.773 203.955 413.773 171.08L413.773 150.92Z" stroke="#E9EEF7" stroke-width="0.6" stroke-miterlimit="10"/>
<path opacity="0.7" d="M425.898 160.742C425.898 137.074 430.291 134.536 450.79 146.371L463.361 153.629C483.858 165.463 488.252 173.072 488.252 196.742L488.252 211.258C488.252 234.926 483.86 237.464 463.361 225.629L450.79 218.371C430.293 206.537 425.898 198.928 425.898 175.258L425.898 160.742Z" stroke="#E9EEF7" stroke-width="0.8" stroke-miterlimit="10"/>
<rect width="44" height="44" rx="12" transform="matrix(0.866025 0.5 -2.20305e-08 1 438.023 153)" fill="#FFEFEB"/>
<rect x="0.433013" y="0.75" width="43" height="43" rx="11.5" transform="matrix(0.866025 0.5 -2.20305e-08 1 438.081 152.783)" stroke="#FF7958" stroke-opacity="0.5"/>
<path fill-rule="evenodd" clip-rule="evenodd" d="M458.719 195.477L458.719 195.093C458.721 194 459.489 193.556 460.438 194.101L463.156 195.67C464.104 196.22 464.872 197.551 464.874 198.647L464.874 199.031V199.031C464.874 199.293 464.691 199.399 464.464 199.269L459.129 196.188C458.902 196.057 458.719 195.739 458.719 195.477V195.477Z" stroke="#FF7958" stroke-width="1.5" stroke-linecap="round" stroke-linejoin="round"/>
<path fill-rule="evenodd" clip-rule="evenodd" d="M461.791 192.512C460.885 191.987 460.152 190.714 460.152 189.668C460.153 188.622 460.888 188.199 461.794 188.722C462.7 189.245 463.435 190.517 463.436 191.564C463.437 192.611 462.703 193.036 461.797 192.515L461.791 192.512Z" stroke="#FF7958" stroke-width="1.5" stroke-linecap="round" stroke-linejoin="round"/>
<path d="M449.277 180.193L456.152 177.358C456.683 177.139 457.467 177.591 457.997 178.423L464.872 189.197" stroke="#FF7958" stroke-width="1.5" stroke-linecap="round" stroke-linejoin="round"/>
<path d="M463.759 187.47L463.759 181.674C463.759 181.457 463.684 181.205 463.552 180.975C463.419 180.745 463.238 180.554 463.05 180.446L460.924 179.218C460.532 178.992 460.215 179.175 460.215 179.627L460.215 181.916" stroke="#FF7958" stroke-width="1.5" stroke-linecap="round" stroke-linejoin="round"/>
<path d="M454.949 192.776L454.949 187.592C454.949 187.14 455.267 186.956 455.658 187.182L457.076 188.001" stroke="#FF7958" stroke-width="1.5" stroke-linecap="round" stroke-linejoin="round"/>
<path d="M450.394 179.753L450.394 190.144" stroke="#FF7958" stroke-width="1.5" stroke-linecap="round" stroke-linejoin="round"/>
<path d="M456.208 193.503L449.277 189.501" stroke="#FF7958" stroke-width="1.5" stroke-linecap="round" stroke-linejoin="round"/>
<path d="M415.912 61.2361L413.123 54.1661L410.369 52.5761L410.369 58.0361L408.845 57.1561L408.845 43.1561L413.452 45.8161C415.721 47.1261 417.401 49.8961 417.401 52.3761C417.401 54.3561 416.31 55.2661 414.717 54.8661L417.627 62.2261L415.912 61.2361ZM410.369 45.7161L410.369 50.8961L413.366 52.6261C414.855 53.4861 415.843 52.9761 415.843 51.4761C415.843 49.9761 414.855 48.3061 413.366 47.4461L410.369 45.7161ZM428.379 63.0942C428.379 63.2942 428.362 63.4842 428.345 63.6742L420.377 59.0742C420.603 61.2042 421.902 63.2742 423.668 64.2942C424.967 65.0442 426.007 64.9442 426.578 64.1142L428.137 65.0142C427.34 66.7742 425.695 67.1242 423.668 65.9542C420.949 64.3842 418.905 60.7842 418.905 57.5642C418.905 54.3642 420.949 53.1242 423.668 54.6942C426.509 56.3342 428.379 59.9342 428.379 63.0942ZM423.668 56.2942C421.971 55.3142 420.706 55.8242 420.412 57.5342L426.907 61.2842C426.595 59.1842 425.331 57.2542 423.668 56.2942ZM435.253 61.3825C437.487 62.6725 438.873 65.3925 438.873 68.0325L438.873 74.4925L437.401 73.6425L437.401 67.5825C437.401 65.4025 436.5 63.6425 434.889 62.7125C433.278 61.7825 432.049 62.6525 432.049 64.6725L432.049 70.5525L430.576 69.7025L430.576 58.9025L431.633 59.5125L431.91 61.3725C432.62 60.5825 433.815 60.5525 435.253 61.3825ZM445.915 78.7986C443.075 77.1586 440.944 73.5286 440.944 70.2886C440.944 67.0486 443.075 65.8986 445.915 67.5386C448.739 69.1686 450.869 72.7986 450.869 76.0186C450.869 79.2586 448.739 80.4286 445.915 78.7986ZM445.915 77.1586C447.907 78.3086 449.362 77.4686 449.362 75.1686C449.362 72.8486 447.907 70.3286 445.915 69.1786C443.906 68.0186 442.451 68.8586 442.451 71.1586C442.451 73.4786 443.906 75.9986 445.915 77.1586ZM459.435 75.5641L460.942 76.4341L457.01 84.9641L455.659 84.1841L451.623 71.0541L453.148 71.9341L456.335 82.3741L459.435 75.5641ZM470.462 81.9305L471.622 82.6005L471.622 93.4005L470.41 92.7005L470.254 90.9905C469.388 91.6505 468.106 91.6105 466.582 90.7305C463.811 89.1305 461.732 85.5105 461.732 82.3105C461.732 79.0705 463.811 77.8705 466.582 79.4705C468.106 80.3505 469.405 81.8005 470.271 83.4805L470.462 81.9305ZM466.686 89.1505C468.678 90.3005 470.115 89.4305 470.115 87.1305C470.115 84.8505 468.678 82.3205 466.686 81.1705C464.711 80.0305 463.239 80.9005 463.239 83.1605C463.239 85.4405 464.711 88.0105 466.686 89.1505ZM478.468 95.7927L479.49 96.3827L479.49 97.9427L478.277 97.2427C476.268 96.0827 475.021 93.9427 475.021 91.6027L475.021 86.1027L473.376 85.1527L473.376 84.8527L476.268 83.0027L476.493 83.1327L476.493 85.4127L479.438 87.1127L479.438 88.6527L476.493 86.9527L476.493 92.3927C476.493 93.8527 477.186 95.0527 478.468 95.7927ZM481.403 86.3875L481.403 84.4475L482.997 85.3675L482.997 87.3075L481.403 86.3875ZM481.455 99.0775L481.455 88.2775L482.928 89.1275L482.928 99.9275L481.455 99.0775ZM490.113 104.316C487.273 102.676 485.142 99.0461 485.142 95.8061C485.142 92.5661 487.273 91.4161 490.113 93.0561C492.936 94.6861 495.067 98.3161 495.067 101.536C495.067 104.776 492.936 105.946 490.113 104.316ZM490.113 102.676C492.105 103.826 493.56 102.986 493.56 100.686C493.56 98.3661 492.105 95.8461 490.113 94.6961C488.104 93.5361 486.649 94.3761 486.649 96.6761C486.649 98.9961 488.104 101.516 490.113 102.676ZM501.981 99.9079C504.215 101.198 505.601 103.918 505.601 106.558L505.601 113.018L504.128 112.168L504.128 106.108C504.128 103.928 503.228 102.168 501.617 101.238C500.006 100.308 498.776 101.178 498.776 103.198L498.776 109.078L497.304 108.228L497.304 97.4279L498.361 98.0379L498.638 99.8979C499.348 99.1079 500.543 99.0779 501.981 99.9079ZM434.253 96.1851L439.57 99.2551L439.57 100.895L432.728 96.9451L432.728 82.9451L434.253 83.8251L434.253 96.1851ZM445.239 104.408C442.398 102.768 440.268 99.1379 440.268 95.8979C440.268 92.6579 442.398 91.5079 445.239 93.1479C448.062 94.7779 450.192 98.4079 450.192 101.628C450.192 104.868 448.062 106.038 445.239 104.408ZM445.239 102.768C447.231 103.918 448.686 103.078 448.686 100.778C448.686 98.4579 447.231 95.9379 445.239 94.7879C443.23 93.6279 441.775 94.4679 441.775 96.7679C441.775 99.0879 443.23 101.608 445.239 102.768ZM460.415 102.13L461.575 102.8L461.575 113.6L460.363 112.9L460.207 111.19C459.341 111.85 458.059 111.81 456.535 110.93C453.764 109.33 451.685 105.71 451.685 102.51C451.685 99.2697 453.764 98.0697 456.535 99.6697C458.059 100.55 459.358 102 460.224 103.68L460.415 102.13ZM456.639 109.35C458.631 110.5 460.068 109.63 460.068 107.33C460.068 105.05 458.631 102.52 456.639 101.37C454.664 100.23 453.192 101.1 453.192 103.36C453.192 105.64 454.664 108.21 456.639 109.35ZM469.217 106.992C471.452 108.282 472.837 111.002 472.837 113.642L472.837 120.102L471.365 119.252L471.365 113.192C471.365 111.012 470.464 109.252 468.854 108.322C467.243 107.392 466.013 108.262 466.013 110.282L466.013 116.162L464.541 115.312L464.541 104.512L465.597 105.122L465.874 106.982C466.585 106.192 467.78 106.162 469.217 106.992ZM478.615 123.678C476.398 122.398 474.961 120.208 474.874 117.978L476.329 118.818C476.398 120.138 477.351 121.388 478.667 122.148C479.949 122.888 480.867 122.778 480.867 121.738C480.867 120.458 479.707 119.548 478.442 118.578C476.849 117.338 475.047 115.918 475.047 113.478C475.047 111.618 476.468 111.178 478.581 112.398C480.694 113.618 482.045 115.698 482.097 117.768L480.711 116.968C480.659 115.758 479.862 114.658 478.546 113.898C477.282 113.168 476.485 113.308 476.485 114.248C476.485 115.388 477.559 116.228 478.806 117.168C480.417 118.398 482.322 119.858 482.322 122.498C482.322 124.518 480.832 124.958 478.615 123.678Z" fill="#131F4A"/>
<g filter="url(#filter2_dd_4835_24403)">
<rect width="184" height="214" rx="20" transform="matrix(0.866025 0.5 -2.20305e-08 1 284.047 0)" fill="white"/>
<rect x="0.433013" y="0.75" width="183" height="213" rx="19.5" transform="matrix(0.866025 0.5 -2.20305e-08 1 284.105 -0.216506)" stroke="#DDE5F3"/>
</g>
<path opacity="0.5" d="M320.422 150.92C320.422 118.048 326.523 114.522 354.994 130.96L372.453 141.04C400.921 157.476 407.024 168.045 407.024 200.92L407.024 221.08C407.024 253.952 400.924 257.478 372.453 241.04L354.994 230.96C326.525 214.524 320.422 203.955 320.422 171.08L320.422 150.92Z" stroke="#E9EEF7" stroke-width="0.6" stroke-miterlimit="10"/>
<path opacity="0.7" d="M332.547 160.742C332.547 137.074 336.94 134.536 357.439 146.371L370.009 153.629C390.506 165.463 394.901 173.072 394.901 196.742L394.901 211.258C394.901 234.926 390.508 237.464 370.009 225.629L357.439 218.371C336.941 206.537 332.547 198.928 332.547 175.258L332.547 160.742Z" stroke="#E9EEF7" stroke-width="0.8" stroke-miterlimit="10"/>
<rect width="44" height="44" rx="12" transform="matrix(0.866025 0.5 -2.20305e-08 1 344.672 153)" fill="#FFEFEB"/>
<rect x="0.433013" y="0.75" width="43" height="43" rx="11.5" transform="matrix(0.866025 0.5 -2.20305e-08 1 344.73 152.783)" stroke="#FF7958" stroke-opacity="0.5"/>
<path d="M365.406 190.567L365.406 194.624C365.406 195.37 365.93 196.277 366.576 196.65L370.475 198.901C370.785 199.08 371.082 199.109 371.302 198.983C371.521 198.856 371.644 198.584 371.644 198.225L371.644 194.234" stroke="#FF7958" stroke-width="1.5" stroke-linecap="round" stroke-linejoin="round"/>
<path d="M372.387 195.351L368.976 190.23C368.691 189.803 368.286 189.569 368.001 189.668L364.59 190.849" stroke="#FF7958" stroke-width="1.5" stroke-linecap="round" stroke-linejoin="round"/>
<path d="M360.258 185.5L362.857 187" stroke="#FF7958" stroke-width="1.5" stroke-linecap="round" stroke-linejoin="round"/>
<path d="M360.258 189.001L361.124 189.501" stroke="#FF7958" stroke-width="1.5" stroke-linecap="round" stroke-linejoin="round"/>
<path d="M367.189 182.999L364.59 184.499L362.238 181.141L360.258 181.998" stroke="#FF7958" stroke-width="1.5" stroke-linecap="round" stroke-linejoin="round"/>
<path d="M367.19 185L367.19 182.999L365.457 181.998" stroke="#FF7958" stroke-width="1.5" stroke-linecap="round" stroke-linejoin="round"/>
<path d="M362.858 194.504L358.526 192.002C357.569 191.45 356.793 190.106 356.793 189.001L356.793 174.995C356.793 173.89 357.569 173.442 358.526 173.995L368.922 179.997C369.879 180.55 370.655 181.894 370.655 182.999L370.655 189.001" stroke="#FF7958" stroke-width="1.5" stroke-linecap="round" stroke-linejoin="round"/>
<path d="M313.835 56.4187C310.233 54.3387 307.617 49.8087 307.617 45.6287C307.617 41.4287 310.233 39.9187 313.835 41.9987C316.641 43.6187 318.893 46.8387 319.586 50.2587L318.027 49.3587C317.386 46.9687 315.827 44.8487 313.835 43.6987C311.133 42.1387 309.176 43.3087 309.176 46.5287C309.176 49.7487 311.133 53.1387 313.835 54.6987C315.879 55.8787 317.455 55.5087 318.096 53.7387L319.638 54.6287C318.945 57.3887 316.693 58.0687 313.835 56.4187ZM325.949 63.4323C323.108 61.7923 320.978 58.1623 320.978 54.9223C320.978 51.6823 323.108 50.5323 325.949 52.1723C328.772 53.8023 330.902 57.4323 330.902 60.6523C330.902 63.8923 328.772 65.0623 325.949 63.4323ZM325.949 61.7923C327.941 62.9423 329.396 62.1023 329.396 59.8023C329.396 57.4823 327.941 54.9623 325.949 53.8123C323.94 52.6523 322.485 53.4923 322.485 55.7923C322.485 58.1123 323.94 60.6323 325.949 61.7923ZM337.816 59.0241C340.051 60.3141 341.436 63.0341 341.436 65.6741L341.436 72.1341L339.964 71.2841L339.964 65.2241C339.964 63.0441 339.063 61.2841 337.453 60.3541C335.842 59.4241 334.612 60.2941 334.612 62.3141L334.612 68.1941L333.14 67.3441L333.14 56.5441L334.196 57.1541L334.474 59.0141C335.184 58.2241 336.379 58.1941 337.816 59.0241ZM347.215 75.7102C344.997 74.4302 343.56 72.2402 343.473 70.0102L344.928 70.8502C344.997 72.1702 345.95 73.4202 347.266 74.1802C348.548 74.9202 349.466 74.8102 349.466 73.7702C349.466 72.4902 348.306 71.5802 347.041 70.6102C345.448 69.3702 343.646 67.9502 343.646 65.5102C343.646 63.6502 345.067 63.2102 347.18 64.4302C349.293 65.6502 350.644 67.7302 350.696 69.8002L349.31 69.0002C349.258 67.7902 348.462 66.6902 347.145 65.9302C345.881 65.2002 345.084 65.3402 345.084 66.2802C345.084 67.4202 346.158 68.2602 347.405 69.2002C349.016 70.4302 350.921 71.8902 350.921 74.5302C350.921 76.5502 349.432 76.9902 347.215 75.7102ZM356.928 79.5183L357.95 80.1083L357.95 81.6683L356.738 80.9683C354.728 79.8083 353.481 77.6683 353.481 75.3283L353.481 69.8283L351.836 68.8783L351.836 68.5783L354.728 66.7283L354.954 66.8583L354.954 69.1383L357.898 70.8383L357.898 72.3783L354.954 70.6783L354.954 76.1183C354.954 77.5783 355.646 78.7783 356.928 79.5183ZM364.194 74.4331L365.025 74.9131L365.025 76.5131L364.073 75.9631C362.358 74.9731 361.388 75.6931 361.388 77.7931L361.388 83.6531L359.916 82.8031L359.916 72.0031L360.972 72.6131L361.197 74.4031C361.873 73.6731 362.843 73.6531 364.194 74.4331ZM370.581 89.2005C368.069 87.7505 366.441 84.9305 366.441 82.0305L366.441 75.7705L367.913 76.6205L367.913 82.6005C367.913 84.7205 368.935 86.6105 370.581 87.5605C372.261 88.5305 373.265 87.7905 373.265 85.6905L373.265 79.7105L374.737 80.5605L374.737 86.8205C374.737 89.7205 373.127 90.6705 370.581 89.2005ZM381.663 95.5989C378.892 93.9989 376.796 90.3689 376.796 87.1489C376.796 83.9289 378.892 82.7389 381.663 84.3389C383.897 85.6289 385.647 88.1589 386.218 90.8489L384.746 89.9989C384.209 88.2889 383.048 86.7789 381.663 85.9789C379.74 84.8689 378.303 85.7789 378.303 88.0189C378.303 90.2789 379.758 92.8589 381.663 93.9589C383.031 94.7489 384.174 94.5689 384.746 93.4589L386.235 94.3189C385.664 96.3689 383.88 96.8789 381.663 95.5989ZM392.161 99.8601L393.183 100.45L393.183 102.01L391.971 101.31C389.961 100.15 388.714 98.0101 388.714 95.6701L388.714 90.1701L387.069 89.2201L387.069 88.9201L389.961 87.0701L390.187 87.2001L390.187 89.4801L393.131 91.1801L393.131 92.7201L390.187 91.0201L390.187 96.4601C390.187 97.9201 390.879 99.1201 392.161 99.8601ZM395.097 90.4549L395.097 88.5149L396.69 89.4349L396.69 91.3749L395.097 90.4549ZM395.149 103.145L395.149 92.3449L396.621 93.1949L396.621 103.995L395.149 103.145ZM403.806 108.384C400.966 106.744 398.835 103.114 398.835 99.8735C398.835 96.6335 400.966 95.4835 403.806 97.1235C406.63 98.7535 408.76 102.384 408.76 105.604C408.76 108.844 406.63 110.014 403.806 108.384ZM403.806 106.744C405.798 107.894 407.253 107.054 407.253 104.754C407.253 102.434 405.798 99.9135 403.806 98.7635C401.797 97.6035 400.342 98.4435 400.342 100.744C400.342 103.064 401.797 105.584 403.806 106.744ZM415.674 103.975C417.908 105.265 419.294 107.985 419.294 110.625L419.294 117.085L417.822 116.235L417.822 110.175C417.822 107.995 416.921 106.235 415.31 105.305C413.7 104.375 412.47 105.245 412.47 107.265L412.47 113.145L410.998 112.295L410.998 101.495L412.054 102.105L412.331 103.965C413.041 103.175 414.236 103.145 415.674 103.975ZM340.901 96.1851L346.219 99.2551L346.219 100.895L339.377 96.9451L339.377 82.9451L340.901 83.8251L340.901 96.1851ZM351.887 104.408C349.047 102.768 346.916 99.1379 346.916 95.8979C346.916 92.6579 349.047 91.5079 351.887 93.1479C354.71 94.7779 356.841 98.4079 356.841 101.628C356.841 104.868 354.71 106.038 351.887 104.408ZM351.887 102.768C353.879 103.918 355.334 103.078 355.334 100.778C355.334 98.4579 353.879 95.9379 351.887 94.7879C349.878 93.6279 348.423 94.4679 348.423 96.7679C348.423 99.0879 349.878 101.608 351.887 102.768ZM367.063 102.13L368.224 102.8L368.224 113.6L367.011 112.9L366.855 111.19C365.989 111.85 364.707 111.81 363.183 110.93C360.412 109.33 358.334 105.71 358.334 102.51C358.334 99.2697 360.412 98.0697 363.183 99.6697C364.707 100.55 366.007 102 366.873 103.68L367.063 102.13ZM363.287 109.35C365.279 110.5 366.717 109.63 366.717 107.33C366.717 105.05 365.279 102.52 363.287 101.37C361.313 100.23 359.84 101.1 359.84 103.36C359.84 105.64 361.313 108.21 363.287 109.35ZM375.866 106.992C378.1 108.282 379.486 111.002 379.486 113.642L379.486 120.102L378.013 119.252L378.013 113.192C378.013 111.012 377.113 109.252 375.502 108.322C373.891 107.392 372.661 108.262 372.661 110.282L372.661 116.162L371.189 115.312L371.189 104.512L372.246 105.122L372.523 106.982C373.233 106.192 374.428 106.162 375.866 106.992ZM385.264 123.678C383.047 122.398 381.609 120.208 381.523 117.978L382.978 118.818C383.047 120.138 383.999 121.388 385.316 122.148C386.597 122.888 387.515 122.778 387.515 121.738C387.515 120.458 386.355 119.548 385.091 118.578C383.497 117.338 381.696 115.918 381.696 113.478C381.696 111.618 383.116 111.178 385.229 112.398C387.342 113.618 388.693 115.698 388.745 117.768L387.36 116.968C387.308 115.758 386.511 114.658 385.195 113.898C383.93 113.168 383.133 113.308 383.133 114.248C383.133 115.388 384.207 116.228 385.454 117.168C387.065 118.398 388.97 119.858 388.97 122.498C388.97 124.518 387.481 124.958 385.264 123.678Z" fill="#131F4A"/>
<g filter="url(#filter3_dd_4835_24403)">
<rect width="184" height="214" rx="20" transform="matrix(0.866025 0.5 -2.20305e-08 1 190.699 0)" fill="white"/>
<rect x="0.433013" y="0.75" width="183" height="213" rx="19.5" transform="matrix(0.866025 0.5 -2.20305e-08 1 190.757 -0.216506)" stroke="#DDE5F3"/>
</g>
<path opacity="0.5" d="M227.074 150.92C227.074 118.048 233.175 114.522 261.646 130.96L279.105 141.04C307.573 157.476 313.677 168.045 313.677 200.92L313.677 221.08C313.677 253.952 307.576 257.478 279.105 241.04L261.646 230.96C233.178 214.524 227.074 203.955 227.074 171.08L227.074 150.92Z" stroke="#E9EEF7" stroke-width="0.6" stroke-miterlimit="10"/>
<path opacity="0.7" d="M239.199 160.742C239.199 137.074 243.592 134.536 264.091 146.371L276.661 153.629C297.159 165.463 301.553 173.072 301.553 196.742L301.553 211.258C301.553 234.926 297.16 237.464 276.661 225.629L264.091 218.371C243.594 206.537 239.199 198.928 239.199 175.258L239.199 160.742Z" stroke="#E9EEF7" stroke-width="0.8" stroke-miterlimit="10"/>
<rect width="44" height="44" rx="12" transform="matrix(0.866025 0.5 -2.20305e-08 1 251.324 153)" fill="#FFEFEB"/>
<rect x="0.433013" y="0.75" width="43" height="43" rx="11.5" transform="matrix(0.866025 0.5 -2.20305e-08 1 251.382 152.783)" stroke="#FF7958" stroke-opacity="0.5"/>
<path d="M273.843 179L273.843 186.74" stroke="#FF7958" stroke-width="1.5" stroke-linecap="round" stroke-linejoin="round"/>
<path d="M266.913 182.74L266.913 175" stroke="#FF7958" stroke-width="1.5" stroke-linecap="round" stroke-linejoin="round"/>
<path d="M270.376 193.326L272.981 196.411C273.488 197.012 274.081 196.856 273.984 196.148L273.486 192.511L275.594 191.357C276.004 191.132 275.778 190.197 275.211 189.774L272.298 187.604L270.996 183.803C270.742 183.062 270.01 182.639 269.756 183.087L268.454 185.384L265.542 184.192C264.975 183.959 264.748 184.634 265.159 185.333L267.267 188.921L266.769 191.982C266.672 192.578 267.264 193.417 267.772 193.403L270.377 193.326" stroke="#FF7958" stroke-width="1.5" stroke-linecap="round" stroke-linejoin="round"/>
<path d="M268.7 184.953L265.187 180.599C264.649 179.932 264.316 179.078 264.316 178.361L264.316 175.5C264.316 174.395 265.091 173.947 266.048 174.5L274.709 179.5C275.666 180.053 276.441 181.395 276.441 182.5L276.441 185.361C276.441 186.078 276.109 186.549 275.57 186.594L272.057 186.891" stroke="#FF7958" stroke-width="1.5" stroke-linecap="round" stroke-linejoin="round"/>
<path d="M222.084 49.86C223.209 51.07 223.885 52.78 223.885 54.32C223.885 56.48 222.309 57.25 220.213 56.04L215.363 53.24L215.363 39.24L220.161 42.01C222.135 43.15 223.573 45.52 223.573 47.56C223.573 48.82 222.984 49.76 222.084 49.86ZM222.014 46.9C222.014 45.72 221.183 44.32 220.126 43.71L216.87 41.83L216.87 46.03L220.126 47.91C221.218 48.54 222.014 48.06 222.014 46.9ZM220.196 54.31C221.408 55.01 222.326 54.56 222.326 53.22C222.326 51.9 221.408 50.37 220.213 49.68L216.87 47.75L216.87 52.39L220.196 54.31ZM230.547 51.1665L231.379 51.6465L231.379 53.2465L230.426 52.6965C228.711 51.7065 227.741 52.4265 227.741 54.5265L227.741 60.3865L226.269 59.5365L226.269 48.7365L227.326 49.3465L227.551 51.1365C228.226 50.4065 229.196 50.3865 230.547 51.1665ZM232.898 50.7039L232.898 48.7639L234.492 49.6839L234.492 51.6239L232.898 50.7039ZM232.95 63.3939L232.95 52.5939L234.422 53.4439L234.422 64.2439L232.95 63.3939ZM244.934 55.6725L246.406 56.5225L246.406 71.1825L245.263 70.5225L245.072 68.8725C244.206 69.4725 242.942 69.4025 241.47 68.5525C238.664 66.9325 236.637 63.3425 236.637 60.1425C236.637 56.9025 238.664 55.6725 241.47 57.2925C242.855 58.0925 244.068 59.3925 244.934 60.8925L244.934 55.6725ZM241.573 66.9725C243.565 68.1225 245.02 67.2425 245.02 64.9825C245.02 62.7025 243.565 60.1425 241.573 58.9925C239.599 57.8525 238.144 58.7125 238.144 61.0125C238.144 63.2925 239.599 65.8325 241.573 66.9725ZM257.099 66.5364L258.087 67.1264L258.087 76.4064C258.087 79.8864 256.354 81.0064 253.497 79.3564C251.21 78.0364 249.582 75.7164 249.08 73.1464L250.552 73.9964C250.968 75.5764 252.146 77.0164 253.497 77.7964C255.367 78.8764 256.649 78.1964 256.649 75.7964L256.649 75.1364C255.818 75.6564 254.622 75.5664 253.237 74.7664C250.639 73.2664 248.647 69.7964 248.647 66.7764C248.647 63.7764 250.639 62.5864 253.237 64.0864C254.744 64.9564 256.025 66.4164 256.874 68.0864L257.099 66.5364ZM253.393 73.2364C255.281 74.3264 256.632 73.5264 256.632 71.3864C256.632 69.2464 255.263 66.8764 253.393 65.7964C251.522 64.7164 250.136 65.5164 250.136 67.6364C250.136 69.7564 251.522 72.1564 253.393 73.2364ZM269.792 79.3246C269.792 79.5246 269.775 79.7146 269.758 79.9046L261.79 75.3046C262.015 77.4346 263.314 79.5046 265.081 80.5246C266.38 81.2746 267.419 81.1746 267.991 80.3446L269.55 81.2446C268.753 83.0046 267.108 83.3546 265.081 82.1846C262.362 80.6146 260.318 77.0146 260.318 73.7946C260.318 70.5946 262.362 69.3546 265.081 70.9246C267.922 72.5646 269.792 76.1646 269.792 79.3246ZM265.081 72.5246C263.384 71.5446 262.119 72.0546 261.825 73.7646L268.32 77.5146C268.008 75.4146 266.744 73.4846 265.081 72.5246ZM278.22 87.8902L283.537 90.9602L283.537 92.6002L276.695 88.6502L276.695 74.6502L278.22 75.5302L278.22 87.8902ZM289.206 96.113C286.365 94.473 284.235 90.843 284.235 87.603C284.235 84.363 286.365 83.213 289.206 84.853C292.029 86.483 294.159 90.113 294.159 93.333C294.159 96.573 292.029 97.743 289.206 96.113ZM289.206 94.473C291.197 95.623 292.652 94.783 292.652 92.483C292.652 90.163 291.197 87.643 289.206 86.493C287.196 85.333 285.742 86.173 285.742 88.473C285.742 90.793 287.196 93.313 289.206 94.473ZM304.382 93.8348L305.542 94.5048L305.542 105.305L304.33 104.605L304.174 102.895C303.308 103.555 302.026 103.515 300.502 102.635C297.73 101.035 295.652 97.4148 295.652 94.2148C295.652 90.9748 297.73 89.7748 300.502 91.3748C302.026 92.2548 303.325 93.7048 304.191 95.3848L304.382 93.8348ZM300.606 101.055C302.598 102.205 304.035 101.335 304.035 99.0348C304.035 96.7548 302.598 94.2248 300.606 93.0748C298.631 91.9348 297.159 92.8048 297.159 95.0648C297.159 97.3448 298.631 99.9148 300.606 101.055ZM313.184 98.697C315.418 99.987 316.804 102.707 316.804 105.347L316.804 111.807L315.332 110.957L315.332 104.897C315.332 102.717 314.431 100.957 312.82 100.027C311.21 99.097 309.98 99.967 309.98 101.987L309.98 107.867L308.508 107.017L308.508 96.217L309.564 96.827L309.841 98.687C310.551 97.897 311.747 97.867 313.184 98.697ZM322.582 115.383C320.365 114.103 318.928 111.913 318.841 109.683L320.296 110.523C320.365 111.843 321.318 113.093 322.634 113.853C323.916 114.593 324.834 114.483 324.834 113.443C324.834 112.163 323.673 111.253 322.409 110.283C320.816 109.043 319.014 107.623 319.014 105.183C319.014 103.323 320.435 102.883 322.548 104.103C324.661 105.323 326.012 107.403 326.064 109.473L324.678 108.673C324.626 107.463 323.829 106.363 322.513 105.603C321.249 104.873 320.452 105.013 320.452 105.953C320.452 107.093 321.526 107.933 322.773 108.873C324.384 110.103 326.289 111.563 326.289 114.203C326.289 116.223 324.799 116.663 322.582 115.383Z" fill="#131F4A"/>
<g filter="url(#filter4_dd_4835_24403)">
<rect width="184" height="214" rx="20" transform="matrix(0.866025 0.5 -2.20305e-08 1 97.3516 0)" fill="white"/>
<rect x="0.433013" y="0.75" width="183" height="213" rx="19.5" transform="matrix(0.866025 0.5 -2.20305e-08 1 97.4096 -0.216506)" stroke="#DDE5F3"/>
</g>
<path opacity="0.5" d="M133.727 150.92C133.727 118.048 139.827 114.522 168.298 130.96L185.757 141.04C214.226 157.476 220.329 168.045 220.329 200.92L220.329 221.08C220.329 253.952 214.228 257.478 185.757 241.04L168.298 230.96C139.83 214.524 133.727 203.955 133.727 171.08L133.727 150.92Z" stroke="#E9EEF7" stroke-width="0.6" stroke-miterlimit="10"/>
<path opacity="0.7" d="M145.852 160.742C145.852 137.074 150.244 134.536 170.743 146.371L183.314 153.629C203.811 165.463 208.205 173.072 208.205 196.742L208.205 211.258C208.205 234.926 203.813 237.464 183.314 225.629L170.743 218.371C150.246 206.537 145.852 198.928 145.852 175.258L145.852 160.742Z" stroke="#E9EEF7" stroke-width="0.8" stroke-miterlimit="10"/>
<rect width="44" height="44" rx="12" transform="matrix(0.866025 0.5 -2.20305e-08 1 157.977 153)" fill="#FFEFEB"/>
<rect x="0.433013" y="0.75" width="43" height="43" rx="11.5" transform="matrix(0.866025 0.5 -2.20305e-08 1 158.035 152.783)" stroke="#FF7958" stroke-opacity="0.5"/>
<path fill-rule="evenodd" clip-rule="evenodd" d="M171.83 192.003L170.097 191.002C169.619 190.726 169.23 190.054 169.23 189.501L169.23 183.499C169.23 182.947 169.619 182.723 170.097 182.999L171.83 183.999C172.308 184.275 172.696 184.948 172.696 185.5L172.696 191.502C172.696 192.055 172.308 192.279 171.83 192.003Z" stroke="#FF7958" stroke-width="1.5" stroke-linecap="round" stroke-linejoin="round"/>
<path d="M177.894 191.502L179.915 192.669C180.29 192.886 180.655 192.956 180.955 192.869L183.048 192.265C183.57 192.115 184.301 192.597 184.763 193.397V193.397C185.276 194.285 185.276 195.244 184.763 195.539L182.967 196.576C182.484 196.856 181.867 196.881 181.196 196.648L178.658 195.769C178.154 195.594 177.635 195.281 177.137 194.849L174.841 192.861C174.567 192.623 174.285 192.42 174.002 192.257L172.695 191.502" stroke="#FF7958" stroke-width="1.5" stroke-linecap="round" stroke-linejoin="round"/>
<path d="M177.894 191.502L179.18 192.245C179.905 192.664 180.493 192.325 180.493 191.487L180.493 191.184C180.493 190.489 180.083 189.646 179.499 189.141L177.513 187.421C177.19 187.141 176.859 186.903 176.526 186.711V186.711C175.723 186.248 174.938 186.068 174.27 186.198L172.695 186.5" stroke="#FF7958" stroke-width="1.5" stroke-linecap="round" stroke-linejoin="round"/>
<path d="M178.283 178.896L174.276 176.585C174.046 176.453 173.826 176.432 173.664 176.525L172.949 176.938C172.611 177.133 172.611 177.767 172.949 178.352L173.667 179.595C173.829 179.875 174.05 180.109 174.279 180.241L178.285 182.551L178.295 182.557C178.869 184.176 180.019 185.728 181.361 186.501C183.274 187.6 184.825 186.699 184.825 184.491C184.826 182.283 183.277 179.602 181.364 178.499C180.027 177.732 178.88 177.959 178.303 178.908" stroke="#FF7958" stroke-width="1.5" stroke-linecap="round" stroke-linejoin="round"/>
<path d="M181.36 182.764C181.485 182.836 181.585 182.777 181.585 182.633C181.585 182.489 181.483 182.312 181.359 182.241C181.234 182.169 181.133 182.227 181.133 182.371C181.133 182.516 181.234 182.691 181.36 182.764" stroke="#FF7958" stroke-width="1.5" stroke-linecap="round" stroke-linejoin="round"/>
<path d="M151.393 70.2009L148.604 63.1309L145.85 61.5409L145.85 67.0009L144.326 66.1209L144.326 52.1209L148.933 54.7809C151.202 56.0909 152.882 58.8609 152.882 61.3409C152.882 63.3209 151.791 64.2309 150.197 63.8309L153.107 71.1909L151.393 70.2009ZM145.85 54.6809L145.85 59.8609L148.846 61.5909C150.336 62.4509 151.323 61.9409 151.323 60.4409C151.323 58.9409 150.336 57.2709 148.846 56.4109L145.85 54.6809ZM163.86 72.059C163.86 72.259 163.843 72.449 163.825 72.639L155.858 68.039C156.083 70.169 157.382 72.239 159.149 73.259C160.448 74.009 161.487 73.909 162.059 73.079L163.618 73.979C162.821 75.739 161.175 76.089 159.149 74.919C156.43 73.349 154.386 69.749 154.386 66.529C154.386 63.329 156.43 62.089 159.149 63.659C161.989 65.299 163.86 68.899 163.86 72.059ZM159.149 65.259C157.452 64.279 156.187 64.789 155.893 66.499L162.388 70.249C162.076 68.149 160.812 66.219 159.149 65.259ZM172.419 71.5407L173.926 72.4107L169.994 80.9407L168.643 80.1607L164.608 67.0307L166.132 67.9107L169.319 78.3507L172.419 71.5407ZM184.208 83.8071C184.208 84.0071 184.191 84.1971 184.174 84.3871L176.206 79.7871C176.431 81.9171 177.73 83.9871 179.497 85.0071C180.796 85.7571 181.835 85.6571 182.407 84.8271L183.966 85.7271C183.169 87.4871 181.524 87.8371 179.497 86.6671C176.778 85.0971 174.734 81.4971 174.734 78.2771C174.734 75.0771 176.778 73.8371 179.497 75.4071C182.338 77.0471 184.208 80.6471 184.208 83.8071ZM179.497 77.0071C177.8 76.0271 176.535 76.5371 176.241 78.2471L182.736 81.9971C182.424 79.8971 181.16 77.9671 179.497 77.0071ZM190.683 82.0454L191.515 82.5254L191.515 84.1254L190.562 83.5754C188.847 82.5854 187.877 83.3054 187.877 85.4054L187.877 91.2654L186.405 90.4154L186.405 79.6154L187.462 80.2254L187.687 82.0154C188.362 81.2854 189.332 81.2654 190.683 82.0454ZM195.981 96.1838C193.764 94.9038 192.326 92.7138 192.239 90.4838L193.694 91.3238C193.764 92.6438 194.716 93.8938 196.033 94.6538C197.314 95.3938 198.232 95.2838 198.232 94.2438C198.232 92.9638 197.072 92.0538 195.807 91.0838C194.214 89.8438 192.413 88.4238 192.413 85.9838C192.413 84.1238 193.833 83.6838 195.946 84.9038C198.059 86.1238 199.41 88.2038 199.462 90.2738L198.076 89.4738C198.024 88.2638 197.228 87.1638 195.911 86.4038C194.647 85.6738 193.85 85.8138 193.85 86.7538C193.85 87.8938 194.924 88.7338 196.171 89.6738C197.782 90.9038 199.687 92.3638 199.687 95.0038C199.687 97.0238 198.198 97.4638 195.981 96.1838ZM210.646 99.0707C210.646 99.2707 210.628 99.4607 210.611 99.6507L202.644 95.0507C202.869 97.1807 204.168 99.2507 205.935 100.271C207.234 101.021 208.273 100.921 208.844 100.091L210.403 100.991C209.607 102.751 207.961 103.101 205.935 101.931C203.215 100.361 201.171 96.7607 201.171 93.5407C201.171 90.3407 203.215 89.1007 205.935 90.6707C208.775 92.3107 210.646 95.9107 210.646 99.0707ZM205.935 92.2707C204.237 91.2907 202.973 91.8007 202.678 93.5107L209.174 97.2607C208.862 95.1607 207.597 93.2307 205.935 92.2707ZM148.954 94.7929L147.395 93.8929L145.819 82.0629L141.645 90.2329L141.229 89.9929L137.055 77.0029L135.461 87.0029L133.902 86.1029L135.946 73.2829L137.418 74.1329L141.419 86.7229L145.438 78.7629L146.945 79.6329L148.954 94.7929ZM155.348 98.7243C152.507 97.0843 150.377 93.4543 150.377 90.2143C150.377 86.9743 152.507 85.8243 155.348 87.4643C158.171 89.0943 160.301 92.7243 160.301 95.9443C160.301 99.1843 158.171 100.354 155.348 98.7243ZM155.348 97.0843C157.339 98.2343 158.794 97.3943 158.794 95.0943C158.794 92.7743 157.339 90.2543 155.348 89.1043C153.338 87.9443 151.884 88.7843 151.884 91.0843C151.884 93.4043 153.338 95.9243 155.348 97.0843ZM166.817 94.2661L167.648 94.7461L167.648 96.3461L166.696 95.7961C164.981 94.8061 164.011 95.5261 164.011 97.6261L164.011 103.486L162.539 102.636L162.539 91.8361L163.595 92.4461L163.82 94.2361C164.496 93.5061 165.466 93.4861 166.817 94.2661ZM173.1 107.174L174.122 107.764L174.122 109.324L172.909 108.624C170.9 107.464 169.653 105.324 169.653 102.984L169.653 97.4836L168.008 96.5336L168.008 96.2336L170.9 94.3836L171.125 94.5136L171.125 96.7936L174.07 98.4936L174.07 100.034L171.125 98.3336L171.125 103.774C171.125 105.234 171.818 106.434 173.1 107.174ZM183.694 104.05L184.681 104.64L184.681 113.92C184.681 117.4 182.949 118.52 180.091 116.87C177.805 115.55 176.177 113.23 175.674 110.66L177.147 111.51C177.562 113.09 178.74 114.53 180.091 115.31C181.962 116.39 183.244 115.71 183.244 113.31L183.244 112.65C182.412 113.17 181.217 113.08 179.831 112.28C177.233 110.78 175.241 107.31 175.241 104.29C175.241 101.29 177.233 100.1 179.831 101.6C181.338 102.47 182.62 103.93 183.469 105.6L183.694 104.05ZM179.987 110.75C181.875 111.84 183.226 111.04 183.226 108.9C183.226 106.76 181.858 104.39 179.987 103.31C178.117 102.23 176.731 103.03 176.731 105.15C176.731 107.27 178.117 109.67 179.987 110.75ZM195.625 110.938L196.785 111.608L196.785 122.408L195.573 121.708L195.417 119.998C194.551 120.658 193.269 120.618 191.745 119.738C188.974 118.138 186.895 114.518 186.895 111.318C186.895 108.078 188.974 106.878 191.745 108.478C193.269 109.358 194.568 110.808 195.434 112.488L195.625 110.938ZM191.849 118.158C193.841 119.308 195.278 118.438 195.278 116.138C195.278 113.858 193.841 111.328 191.849 110.178C189.874 109.038 188.402 109.908 188.402 112.168C188.402 114.448 189.874 117.018 191.849 118.158ZM207.476 117.781L208.463 118.371L208.463 127.651C208.463 131.131 206.731 132.251 203.873 130.601C201.587 129.281 199.959 126.961 199.456 124.391L200.929 125.241C201.344 126.821 202.522 128.261 203.873 129.041C205.744 130.121 207.025 129.441 207.025 127.041L207.025 126.381C206.194 126.901 204.999 126.811 203.613 126.011C201.015 124.511 199.023 121.041 199.023 118.021C199.023 115.021 201.015 113.831 203.613 115.331C205.12 116.201 206.402 117.661 207.251 119.331L207.476 117.781ZM203.769 124.481C205.657 125.571 207.008 124.771 207.008 122.631C207.008 120.491 205.64 118.121 203.769 117.041C201.899 115.961 200.513 116.761 200.513 118.881C200.513 121.001 201.899 123.401 203.769 124.481ZM220.169 130.569C220.169 130.769 220.151 130.959 220.134 131.149L212.167 126.549C212.392 128.679 213.691 130.749 215.457 131.769C216.757 132.519 217.796 132.419 218.367 131.589L219.926 132.489C219.129 134.249 217.484 134.599 215.457 133.429C212.738 131.859 210.694 128.259 210.694 125.039C210.694 121.839 212.738 120.599 215.457 122.169C218.298 123.809 220.169 127.409 220.169 130.569ZM215.457 123.769C213.76 122.789 212.496 123.299 212.201 125.009L218.696 128.759C218.385 126.659 217.12 124.729 215.457 123.769Z" fill="#131F4A"/>
<g filter="url(#filter5_dd_4835_24403)">
<rect width="184" height="214" rx="20" transform="matrix(0.866025 0.5 -2.20305e-08 1 4 0)" fill="white"/>
<rect x="0.433013" y="0.75" width="183" height="213" rx="19.5" transform="matrix(0.866025 0.5 -2.20305e-08 1 4.05801 -0.216506)" stroke="#DDE5F3"/>
</g>
<path opacity="0.5" d="M40.375 150.92C40.375 118.048 46.4759 114.522 74.9468 130.96L92.4058 141.04C120.874 157.476 126.978 168.045 126.978 200.92L126.978 221.08C126.978 253.952 120.877 257.478 92.4058 241.04L74.9468 230.96C46.4783 214.524 40.375 203.955 40.375 171.08L40.375 150.92Z" stroke="#E9EEF7" stroke-width="0.6" stroke-miterlimit="10"/>
<path opacity="0.7" d="M52.5 160.742C52.5 137.074 56.8926 134.536 77.3917 146.371L89.9622 153.629C110.459 165.463 114.854 173.072 114.854 196.742L114.854 211.258C114.854 234.926 110.461 237.464 89.9622 225.629L77.3917 218.371C56.8944 206.537 52.5 198.928 52.5 175.258L52.5 160.742Z" stroke="#E9EEF7" stroke-width="0.8" stroke-miterlimit="10"/>
<rect width="44" height="44" rx="12" transform="matrix(0.866025 0.5 -2.20305e-08 1 64.625 153)" fill="#FFEFEB"/>
<rect x="0.433013" y="0.75" width="43" height="43" rx="11.5" transform="matrix(0.866025 0.5 -2.20305e-08 1 64.683 152.783)" stroke="#FF7958" stroke-opacity="0.5"/>
<path d="M81.0811 193.503L77.3678 191.359C76.5473 190.886 75.8828 189.735 75.8828 188.787L75.8828 184.499" stroke="#FF7958" stroke-width="1.5" stroke-linecap="round" stroke-linejoin="round"/>
<path d="M75.8828 173.85L75.8828 178.997C75.8828 179.273 76.0769 179.609 76.316 179.747L81.5602 182.775C81.7994 182.913 81.9934 182.801 81.9934 182.525L81.9934 177.378" stroke="#FF7958" stroke-width="1.5" stroke-linecap="round" stroke-linejoin="round"/>
<path d="M75.0156 173.995L78.9941 173.291L82.8131 178.497" stroke="#FF7958" stroke-width="1.5" stroke-linecap="round" stroke-linejoin="round"/>
<path d="M87.1445 178.997L89.9915 180.641C90.8119 181.114 91.4765 182.265 91.4765 183.213L91.4765 186.5" stroke="#FF7958" stroke-width="1.5" stroke-linecap="round" stroke-linejoin="round"/>
<path d="M88.0116 198.505C90.3942 199.881 92.3435 198.755 92.3435 196.005C92.3435 193.255 90.3942 189.877 88.0116 188.501C85.6291 187.125 83.6797 188.251 83.6797 191.003C83.6797 192.126 84.008 193.35 84.553 194.502C85.3457 196.174 86.6011 197.691 88.0116 198.505" stroke="#FF7958" stroke-width="1.5" stroke-linecap="round" stroke-linejoin="round"/>
<path d="M88.0113 191.457L88.0113 191.002" stroke="#FF7958" stroke-width="1.5" stroke-linecap="round" stroke-linejoin="round"/>
<path d="M88.0113 195.55L88.0113 196.005" stroke="#FF7958" stroke-width="1.5" stroke-linecap="round" stroke-linejoin="round"/>
<path d="M86.9849 194.47C87.1374 194.847 87.3991 195.198 87.7153 195.38L88.0107 195.551L88.3625 195.754C88.8208 196.019 89.1916 195.804 89.1916 195.275C89.1916 194.836 88.9326 194.303 88.5635 193.983L87.4563 193.023C87.088 192.704 86.8281 192.171 86.8281 191.732C86.8281 191.203 87.1998 190.989 87.6573 191.253L88.0107 191.457L88.3062 191.628C88.6215 191.81 88.8823 192.16 89.0348 192.536" stroke="#FF7958" stroke-width="1.5" stroke-linecap="round" stroke-linejoin="round"/>
<path d="M64.0458 59.6678L65.57 60.5478L65.57 74.5478L64.0458 73.6678L64.0458 67.3078L57.7758 63.6878L57.7758 70.0478L56.2516 69.1678L56.2516 55.1678L57.7758 56.0478L57.7758 62.0078L64.0458 65.6278L64.0458 59.6678ZM70.3941 75.6529L75.9193 78.8429L75.9193 80.5229L68.8699 76.4529L68.8699 62.4529L75.7288 66.4129L75.7288 68.0929L70.3941 65.0129L70.3941 69.3329L75.2784 72.1529L75.2784 73.7729L70.3941 70.9529L70.3941 75.6529ZM79.9677 81.2203L85.2851 84.2903L85.2851 85.9303L78.4435 81.9803L78.4435 67.9803L79.9677 68.8603L79.9677 81.2203ZM92.1046 90.1075C88.4327 87.9875 85.748 83.3375 85.748 79.2175C85.748 75.0775 88.4327 73.5275 92.1046 75.6475C95.7766 77.7675 98.4439 82.4075 98.4439 86.5475C98.4439 90.6675 95.7766 92.2275 92.1046 90.1075ZM92.1046 88.3875C94.8586 89.9775 96.9024 88.7975 96.9024 85.6575C96.9024 82.4975 94.8586 78.9575 92.1046 77.3675C89.3507 75.7775 87.3069 76.9775 87.3069 80.1175C87.3069 83.2375 89.3507 86.7975 92.1046 88.3875ZM106.327 98.2986C102.724 96.2186 100.108 91.6886 100.108 87.5086C100.108 83.3086 102.724 81.7986 106.327 83.8786C109.132 85.4986 111.384 88.7186 112.077 92.1386L110.518 91.2386C109.877 88.8486 108.318 86.7286 106.327 85.5786C103.625 84.0186 101.667 85.1886 101.667 88.4086C101.667 91.6286 103.625 95.0186 106.327 96.5786C108.37 97.7586 109.947 97.3886 110.587 95.6186L112.129 96.5086C111.436 99.2686 109.184 99.9486 106.327 98.2986Z" fill="#131F4A"/>
<defs>
<filter id="filter0_dd_4835_24403" x="467.55" y="5.92316" width="166.548" height="304.954" filterUnits="userSpaceOnUse" color-interpolation-filters="sRGB">
<feFlood flood-opacity="0" result="BackgroundImageFix"/>
<feColorMatrix in="SourceAlpha" type="matrix" values="0 0 0 0 0 0 0 0 0 0 0 0 0 0 0 0 0 0 127 0" result="hardAlpha"/>
<feMorphology radius="6.4" operator="erode" in="SourceAlpha" result="effect1_dropShadow_4835_24403"/>
<feOffset dy="9.6"/>
<feGaussianBlur stdDeviation="4.8"/>
<feComposite in2="hardAlpha" operator="out"/>
<feColorMatrix type="matrix" values="0 0 0 0 0.898039 0 0 0 0 0.909804 0 0 0 0 0.921569 0 0 0 0.5 0"/>
<feBlend mode="multiply" in2="BackgroundImageFix" result="effect1_dropShadow_4835_24403"/>
<feColorMatrix in="SourceAlpha" type="matrix" values="0 0 0 0 0 0 0 0 0 0 0 0 0 0 0 0 0 0 127 0" result="hardAlpha"/>
<feOffset dx="4" dy="-2"/>
<feComposite in2="hardAlpha" operator="out"/>
<feColorMatrix type="matrix" values="0 0 0 0 0.866667 0 0 0 0 0.898039 0 0 0 0 0.952941 0 0 0 1 0"/>
<feBlend mode="normal" in2="effect1_dropShadow_4835_24403" result="effect2_dropShadow_4835_24403"/>
<feBlend mode="normal" in="SourceGraphic" in2="effect2_dropShadow_4835_24403" result="shape"/>
</filter>
<filter id="filter1_dd_4835_24403" x="374.198" y="5.92316" width="166.548" height="304.954" filterUnits="userSpaceOnUse" color-interpolation-filters="sRGB">
<feFlood flood-opacity="0" result="BackgroundImageFix"/>
<feColorMatrix in="SourceAlpha" type="matrix" values="0 0 0 0 0 0 0 0 0 0 0 0 0 0 0 0 0 0 127 0" result="hardAlpha"/>
<feMorphology radius="6.4" operator="erode" in="SourceAlpha" result="effect1_dropShadow_4835_24403"/>
<feOffset dy="9.6"/>
<feGaussianBlur stdDeviation="4.8"/>
<feComposite in2="hardAlpha" operator="out"/>
<feColorMatrix type="matrix" values="0 0 0 0 0.898039 0 0 0 0 0.909804 0 0 0 0 0.921569 0 0 0 0.5 0"/>
<feBlend mode="multiply" in2="BackgroundImageFix" result="effect1_dropShadow_4835_24403"/>
<feColorMatrix in="SourceAlpha" type="matrix" values="0 0 0 0 0 0 0 0 0 0 0 0 0 0 0 0 0 0 127 0" result="hardAlpha"/>
<feOffset dx="4" dy="-2"/>
<feComposite in2="hardAlpha" operator="out"/>
<feColorMatrix type="matrix" values="0 0 0 0 0.866667 0 0 0 0 0.898039 0 0 0 0 0.952941 0 0 0 1 0"/>
<feBlend mode="normal" in2="effect1_dropShadow_4835_24403" result="effect2_dropShadow_4835_24403"/>
<feBlend mode="normal" in="SourceGraphic" in2="effect2_dropShadow_4835_24403" result="shape"/>
</filter>
<filter id="filter2_dd_4835_24403" x="280.847" y="5.92316" width="166.548" height="304.954" filterUnits="userSpaceOnUse" color-interpolation-filters="sRGB">
<feFlood flood-opacity="0" result="BackgroundImageFix"/>
<feColorMatrix in="SourceAlpha" type="matrix" values="0 0 0 0 0 0 0 0 0 0 0 0 0 0 0 0 0 0 127 0" result="hardAlpha"/>
<feMorphology radius="6.4" operator="erode" in="SourceAlpha" result="effect1_dropShadow_4835_24403"/>
<feOffset dy="9.6"/>
<feGaussianBlur stdDeviation="4.8"/>
<feComposite in2="hardAlpha" operator="out"/>
<feColorMatrix type="matrix" values="0 0 0 0 0.898039 0 0 0 0 0.909804 0 0 0 0 0.921569 0 0 0 0.5 0"/>
<feBlend mode="multiply" in2="BackgroundImageFix" result="effect1_dropShadow_4835_24403"/>
<feColorMatrix in="SourceAlpha" type="matrix" values="0 0 0 0 0 0 0 0 0 0 0 0 0 0 0 0 0 0 127 0" result="hardAlpha"/>
<feOffset dx="4" dy="-2"/>
<feComposite in2="hardAlpha" operator="out"/>
<feColorMatrix type="matrix" values="0 0 0 0 0.866667 0 0 0 0 0.898039 0 0 0 0 0.952941 0 0 0 1 0"/>
<feBlend mode="normal" in2="effect1_dropShadow_4835_24403" result="effect2_dropShadow_4835_24403"/>
<feBlend mode="normal" in="SourceGraphic" in2="effect2_dropShadow_4835_24403" result="shape"/>
</filter>
<filter id="filter3_dd_4835_24403" x="187.499" y="5.92316" width="166.548" height="304.954" filterUnits="userSpaceOnUse" color-interpolation-filters="sRGB">
<feFlood flood-opacity="0" result="BackgroundImageFix"/>
<feColorMatrix in="SourceAlpha" type="matrix" values="0 0 0 0 0 0 0 0 0 0 0 0 0 0 0 0 0 0 127 0" result="hardAlpha"/>
<feMorphology radius="6.4" operator="erode" in="SourceAlpha" result="effect1_dropShadow_4835_24403"/>
<feOffset dy="9.6"/>
<feGaussianBlur stdDeviation="4.8"/>
<feComposite in2="hardAlpha" operator="out"/>
<feColorMatrix type="matrix" values="0 0 0 0 0.898039 0 0 0 0 0.909804 0 0 0 0 0.921569 0 0 0 0.5 0"/>
<feBlend mode="multiply" in2="BackgroundImageFix" result="effect1_dropShadow_4835_24403"/>
<feColorMatrix in="SourceAlpha" type="matrix" values="0 0 0 0 0 0 0 0 0 0 0 0 0 0 0 0 0 0 127 0" result="hardAlpha"/>
<feOffset dx="4" dy="-2"/>
<feComposite in2="hardAlpha" operator="out"/>
<feColorMatrix type="matrix" values="0 0 0 0 0.866667 0 0 0 0 0.898039 0 0 0 0 0.952941 0 0 0 1 0"/>
<feBlend mode="normal" in2="effect1_dropShadow_4835_24403" result="effect2_dropShadow_4835_24403"/>
<feBlend mode="normal" in="SourceGraphic" in2="effect2_dropShadow_4835_24403" result="shape"/>
</filter>
<filter id="filter4_dd_4835_24403" x="94.1516" y="5.92316" width="166.548" height="304.954" filterUnits="userSpaceOnUse" color-interpolation-filters="sRGB">
<feFlood flood-opacity="0" result="BackgroundImageFix"/>
<feColorMatrix in="SourceAlpha" type="matrix" values="0 0 0 0 0 0 0 0 0 0 0 0 0 0 0 0 0 0 127 0" result="hardAlpha"/>
<feMorphology radius="6.4" operator="erode" in="SourceAlpha" result="effect1_dropShadow_4835_24403"/>
<feOffset dy="9.6"/>
<feGaussianBlur stdDeviation="4.8"/>
<feComposite in2="hardAlpha" operator="out"/>
<feColorMatrix type="matrix" values="0 0 0 0 0.898039 0 0 0 0 0.909804 0 0 0 0 0.921569 0 0 0 0.5 0"/>
<feBlend mode="multiply" in2="BackgroundImageFix" result="effect1_dropShadow_4835_24403"/>
<feColorMatrix in="SourceAlpha" type="matrix" values="0 0 0 0 0 0 0 0 0 0 0 0 0 0 0 0 0 0 127 0" result="hardAlpha"/>
<feOffset dx="4" dy="-2"/>
<feComposite in2="hardAlpha" operator="out"/>
<feColorMatrix type="matrix" values="0 0 0 0 0.866667 0 0 0 0 0.898039 0 0 0 0 0.952941 0 0 0 1 0"/>
<feBlend mode="normal" in2="effect1_dropShadow_4835_24403" result="effect2_dropShadow_4835_24403"/>
<feBlend mode="normal" in="SourceGraphic" in2="effect2_dropShadow_4835_24403" result="shape"/>
</filter>
<filter id="filter5_dd_4835_24403" x="0.8" y="5.92316" width="166.548" height="304.954" filterUnits="userSpaceOnUse" color-interpolation-filters="sRGB">
<feFlood flood-opacity="0" result="BackgroundImageFix"/>
<feColorMatrix in="SourceAlpha" type="matrix" values="0 0 0 0 0 0 0 0 0 0 0 0 0 0 0 0 0 0 127 0" result="hardAlpha"/>
<feMorphology radius="6.4" operator="erode" in="SourceAlpha" result="effect1_dropShadow_4835_24403"/>
<feOffset dy="9.6"/>
<feGaussianBlur stdDeviation="4.8"/>
<feComposite in2="hardAlpha" operator="out"/>
<feColorMatrix type="matrix" values="0 0 0 0 0.898039 0 0 0 0 0.909804 0 0 0 0 0.921569 0 0 0 0.5 0"/>
<feBlend mode="multiply" in2="BackgroundImageFix" result="effect1_dropShadow_4835_24403"/>
<feColorMatrix in="SourceAlpha" type="matrix" values="0 0 0 0 0 0 0 0 0 0 0 0 0 0 0 0 0 0 127 0" result="hardAlpha"/>
<feOffset dx="4" dy="-2"/>
<feComposite in2="hardAlpha" operator="out"/>
<feColorMatrix type="matrix" values="0 0 0 0 0.866667 0 0 0 0 0.898039 0 0 0 0 0.952941 0 0 0 1 0"/>
<feBlend mode="normal" in2="effect1_dropShadow_4835_24403" result="effect2_dropShadow_4835_24403"/>
<feBlend mode="normal" in="SourceGraphic" in2="effect2_dropShadow_4835_24403" result="shape"/>
</filter>
</defs>
</svg>
