<svg width="169" height="100" viewBox="0 0 169 100" fill="none" xmlns="http://www.w3.org/2000/svg">
<rect x="0.5" y="0.5" width="167.3" height="98.9" rx="9.5" fill="white"/>
<rect x="0.5" y="0.5" width="167.3" height="98.9" rx="9.5" fill="url(#paint0_linear_4810_24616)"/>
<rect x="0.5" y="0.5" width="167.3" height="98.9" rx="9.5" stroke="#DDE5F3"/>
<path d="M48.1419 71.281C48.1419 73.6097 46.5017 75.088 44.1122 75.3918V76.9308H42.2694V75.3918C39.6167 75.1082 38.0372 73.4275 38.0372 70.8962H40.3052C40.3052 72.4555 41.5607 73.306 43.1604 73.306C44.6184 73.306 45.8537 72.5162 45.8537 71.3012C45.8537 69.9647 44.4362 69.6407 42.7959 69.2762C40.6899 68.7902 38.2599 68.2232 38.2599 65.3477C38.2599 63.1607 39.7382 61.7837 42.1074 61.5002V60.0625H43.9907V61.5002C46.3802 61.8242 47.7369 63.3835 47.7369 65.7325H45.5297C45.5297 64.315 44.4159 63.5455 42.9782 63.5455C41.6417 63.5455 40.5077 64.153 40.5077 65.2465C40.5077 66.4817 41.8847 66.8057 43.4844 67.1905C45.6309 67.6967 48.1419 68.3042 48.1419 71.281ZM64.5262 70.5925V72.5365H63.21V75.25H61.1242V72.5365H54.4012V72.091L59.0182 61.7837H61.2457L57.297 70.5925H61.1647L61.509 66.8462H63.21V70.5925H64.5262ZM70.376 66.6437C73.13 66.6437 75.074 68.527 75.074 71.038C75.074 73.6097 73.0895 75.493 70.4975 75.493C67.8852 75.493 65.9817 73.6705 65.921 71.2H68.108C68.1687 72.5162 69.1407 73.4477 70.4975 73.4477C71.8542 73.4477 72.8667 72.415 72.8667 71.038C72.8667 69.6002 71.7935 68.5472 70.295 68.5472H66.731L66.4677 68.2435L67.1765 61.7837H74.1425V63.7885H68.9585L68.6345 66.6437H70.376ZM82.2466 75.493C78.9863 75.493 76.9208 72.7997 76.9208 68.5067C76.9208 64.2137 78.9661 61.5407 82.2466 61.5407C85.5271 61.5407 87.5521 64.2137 87.5521 68.5067C87.5521 72.7997 85.5068 75.493 82.2466 75.493ZM82.2466 73.4477C84.1906 73.4477 85.3448 71.6455 85.3448 68.527C85.3448 65.4085 84.1906 63.6062 82.2466 63.6062C80.3026 63.6062 79.1281 65.4085 79.1281 68.5067C79.1281 71.6252 80.2823 73.4477 82.2466 73.4477ZM89.587 78.166V77.0118C90.4983 76.789 90.8628 76.1208 90.8628 75.25H89.4655V72.6985H92.017V75.0677C92.017 76.87 91.0855 77.8825 89.587 78.166ZM99.2534 75.493C95.9932 75.493 93.9277 72.7997 93.9277 68.5067C93.9277 64.2137 95.9729 61.5407 99.2534 61.5407C102.534 61.5407 104.559 64.2137 104.559 68.5067C104.559 72.7997 102.514 75.493 99.2534 75.493ZM99.2534 73.4477C101.197 73.4477 102.352 71.6455 102.352 68.527C102.352 65.4085 101.197 63.6062 99.2534 63.6062C97.3094 63.6062 96.1349 65.4085 96.1349 68.5067C96.1349 71.6252 97.2892 73.4477 99.2534 73.4477ZM111.949 75.493C108.689 75.493 106.623 72.7997 106.623 68.5067C106.623 64.2137 108.669 61.5407 111.949 61.5407C115.23 61.5407 117.255 64.2137 117.255 68.5067C117.255 72.7997 115.209 75.493 111.949 75.493ZM111.949 73.4477C113.893 73.4477 115.047 71.6455 115.047 68.527C115.047 65.4085 113.893 63.6062 111.949 63.6062C110.005 63.6062 108.831 65.4085 108.831 68.5067C108.831 71.6252 109.985 73.4477 111.949 73.4477ZM124.645 75.493C121.385 75.493 119.319 72.7997 119.319 68.5067C119.319 64.2137 121.365 61.5407 124.645 61.5407C127.926 61.5407 129.951 64.2137 129.951 68.5067C129.951 72.7997 127.905 75.493 124.645 75.493ZM124.645 73.4477C126.589 73.4477 127.743 71.6455 127.743 68.527C127.743 65.4085 126.589 63.6062 124.645 63.6062C122.701 63.6062 121.527 65.4085 121.527 68.5067C121.527 71.6252 122.681 73.4477 124.645 73.4477Z" fill="#131F4A"/>
<path d="M37.3358 28.2039C35.3702 28.2039 33.9432 26.777 33.9432 24.8019C33.9432 22.8174 35.3702 21.3905 37.3358 21.3905C38.8667 21.3905 40.0952 22.2977 40.4732 23.7246H39.6227C39.273 22.7702 38.4225 22.1937 37.3358 22.1937C35.8616 22.1937 34.7937 23.2805 34.7937 24.8019C34.7937 26.3234 35.8616 27.3912 37.3358 27.3912C38.4509 27.3912 39.3108 26.7864 39.6605 25.7753H40.5015C40.1235 27.2684 38.895 28.2039 37.3358 28.2039ZM43.9448 28.2134C42.395 28.2134 41.2327 27.0794 41.2327 25.5485C41.2327 24.0176 42.395 22.893 43.9448 22.893C45.4852 22.893 46.6475 24.027 46.6475 25.5485C46.6475 27.0794 45.4852 28.2134 43.9448 28.2134ZM43.9448 27.4385C45.0316 27.4385 45.8254 26.6447 45.8254 25.5579C45.8254 24.4617 45.0316 23.6679 43.9448 23.6679C42.8486 23.6679 42.0548 24.4617 42.0548 25.5485C42.0548 26.6447 42.8486 27.4385 43.9448 27.4385ZM50.4198 22.893C51.6388 22.893 52.3948 23.8002 52.3948 25.0476V28.1H51.5916V25.2366C51.5916 24.2066 51.1002 23.6207 50.2213 23.6207C49.3425 23.6207 48.6715 24.3672 48.6715 25.3217V28.1H47.8683V22.997H48.4447L48.5959 23.8002C48.9834 23.2332 49.6354 22.893 50.4198 22.893ZM58.1461 22.997L58.6847 23.0064V27.3912C58.6847 29.0355 57.7397 30.0372 56.1805 30.0372C54.9331 30.0372 54.0448 29.3852 53.7707 28.3079H54.574C54.8008 28.941 55.4434 29.3001 56.1805 29.3001C57.2011 29.3001 57.9004 28.6292 57.9004 27.4952V27.1833C57.4468 27.6558 56.7947 27.9393 56.0387 27.9393C54.6212 27.9393 53.5345 26.8431 53.5345 25.4162C53.5345 23.9987 54.6212 22.893 56.0387 22.893C56.8609 22.893 57.5602 23.2332 58.0232 23.7908L58.1461 22.997ZM56.1238 27.1739C57.1538 27.1739 57.8909 26.4273 57.8909 25.4162C57.8909 24.405 57.1444 23.6585 56.1238 23.6585C55.1032 23.6585 54.3472 24.4145 54.3472 25.4162C54.3472 26.4179 55.1032 27.1739 56.1238 27.1739ZM62.6332 22.9781H63.0868V23.7341H62.5671C61.6315 23.7341 61.1023 24.3389 61.1023 25.3311V28.1H60.2991V22.997H60.8755L60.9984 23.7813C61.3669 23.2521 61.8961 22.9781 62.6332 22.9781ZM68.1439 22.997H68.7771V28.1H68.1156L68.0305 27.3345C67.558 27.8826 66.8587 28.2134 66.0271 28.2134C64.5151 28.2134 63.3811 27.0699 63.3811 25.5579C63.3811 24.027 64.5151 22.893 66.0271 22.893C66.8587 22.893 67.5675 23.2238 68.04 23.7813L68.1439 22.997ZM66.0838 27.4385C67.1706 27.4385 67.9549 26.6352 67.9549 25.5485C67.9549 24.4712 67.1706 23.6679 66.0838 23.6679C65.0065 23.6679 64.2033 24.4806 64.2033 25.5485C64.2033 26.6258 65.0065 27.4385 66.0838 27.4385ZM72.5119 27.3629H73.0694V28.1H72.4079C71.3117 28.1 70.6313 27.429 70.6313 26.3234V23.7246H69.7336V23.5829L71.3117 21.9197H71.4346V22.997H73.0411V23.7246H71.4346V26.295C71.4346 26.9849 71.8126 27.3629 72.5119 27.3629ZM75.7578 28.2134C74.5482 28.2134 73.7638 27.5708 73.7166 26.5407H74.5104C74.5482 27.1455 75.0679 27.4763 75.7861 27.4763C76.4854 27.4763 76.9863 27.1739 76.9863 26.6825C76.9863 26.0777 76.3531 25.9643 75.6633 25.8509C74.7939 25.6997 73.8111 25.5201 73.8111 24.3672C73.8111 23.4884 74.586 22.893 75.7389 22.893C76.8918 22.893 77.6289 23.5073 77.6572 24.4712H76.9012C76.8729 23.9136 76.4382 23.6112 75.72 23.6112C75.0301 23.6112 74.5954 23.8947 74.5954 24.3389C74.5954 24.8775 75.1813 24.9815 75.8617 25.0854C76.7406 25.2272 77.7801 25.3973 77.7801 26.6447C77.7801 27.5991 76.9674 28.2134 75.7578 28.2134ZM78.8734 29.3568V28.9127C79.2325 28.7898 79.3648 28.5158 79.3648 28.1H78.8262V27.1077H79.7995V28.0338C79.7995 28.7898 79.4593 29.1962 78.8734 29.3568ZM87.2415 22.997H88.1015L85.6634 28.3173C85.1153 29.5269 84.6333 29.9238 83.6694 29.9238H83.1875V29.1962H83.5938C84.2837 29.1962 84.5199 28.9883 84.9357 28.1378L85.1153 27.7598L82.8473 22.997H83.7167L85.5311 26.862L87.2415 22.997ZM91.1764 28.2134C89.6266 28.2134 88.4642 27.0794 88.4642 25.5485C88.4642 24.0176 89.6266 22.893 91.1764 22.893C92.7167 22.893 93.8791 24.027 93.8791 25.5485C93.8791 27.0794 92.7167 28.2134 91.1764 28.2134ZM91.1764 27.4385C92.2631 27.4385 93.0569 26.6447 93.0569 25.5579C93.0569 24.4617 92.2631 23.6679 91.1764 23.6679C90.0802 23.6679 89.2864 24.4617 89.2864 25.5485C89.2864 26.6447 90.0802 27.4385 91.1764 27.4385ZM97.2733 28.2134C95.9031 28.2134 95.0148 27.3251 95.0148 25.9548V22.997H95.818V25.8225C95.818 26.8242 96.3756 27.4385 97.2733 27.4385C98.19 27.4385 98.7381 26.8148 98.7381 25.8225V22.997H99.5413V25.9548C99.5413 27.3251 98.6625 28.2134 97.2733 28.2134ZM100.919 23.7813V21.4661H101.675V23.7813H100.919ZM105.472 22.9781H105.926V23.7341H105.406C104.47 23.7341 103.941 24.3389 103.941 25.3311V28.1H103.138V22.997H103.714L103.837 23.7813C104.206 23.2521 104.735 22.9781 105.472 22.9781ZM111.398 25.5768C111.398 25.6713 111.389 25.7658 111.38 25.8603H107.033C107.155 26.8053 107.864 27.429 108.828 27.429C109.537 27.429 110.104 27.0983 110.416 26.5502H111.266C110.831 27.5991 109.934 28.2134 108.828 28.2134C107.344 28.2134 106.229 27.0699 106.229 25.5485C106.229 24.0365 107.344 22.893 108.828 22.893C110.378 22.893 111.398 24.0837 111.398 25.5768ZM108.828 23.649C107.902 23.649 107.212 24.2349 107.051 25.1232H110.595C110.425 24.216 109.735 23.649 108.828 23.649ZM117.782 22.893C119.304 22.893 120.4 24.027 120.4 25.5485C120.4 27.0699 119.304 28.2134 117.782 28.2134C117.017 28.2134 116.346 27.9204 115.874 27.4196V29.9238H115.07V22.997H115.628L115.789 23.7813C116.261 23.2238 116.96 22.893 117.782 22.893ZM117.726 27.4385C118.803 27.4385 119.597 26.6352 119.597 25.5485C119.597 24.4712 118.803 23.6679 117.726 23.6679C116.639 23.6679 115.845 24.4806 115.845 25.5485C115.845 26.6258 116.639 27.4385 117.726 27.4385ZM123.957 22.9781H124.41V23.7341H123.891C122.955 23.7341 122.426 24.3389 122.426 25.3311V28.1H121.623V22.997H122.199L122.322 23.7813C122.69 23.2521 123.22 22.9781 123.957 22.9781ZM129.883 25.5768C129.883 25.6713 129.874 25.7658 129.864 25.8603H125.517C125.64 26.8053 126.349 27.429 127.313 27.429C128.022 27.429 128.589 27.0983 128.9 26.5502H129.751C129.316 27.5991 128.418 28.2134 127.313 28.2134C125.829 28.2134 124.714 27.0699 124.714 25.5485C124.714 24.0365 125.829 22.893 127.313 22.893C128.863 22.893 129.883 24.0837 129.883 25.5768ZM127.313 23.649C126.387 23.649 125.697 24.2349 125.536 25.1232H129.08C128.91 24.216 128.22 23.649 127.313 23.649ZM130.921 25.8509V25.076H133.926V25.8509H130.921ZM27.843 38.997H28.4761V44.1H27.8146L27.7296 43.3345C27.2571 43.8826 26.5578 44.2134 25.7262 44.2134C24.2142 44.2134 23.0802 43.0699 23.0802 41.5579C23.0802 40.027 24.2142 38.893 25.7262 38.893C26.5578 38.893 27.2665 39.2238 27.739 39.7813L27.843 38.997ZM25.7829 43.4385C26.8696 43.4385 27.654 42.6352 27.654 41.5485C27.654 40.4712 26.8696 39.6679 25.7829 39.6679C24.7056 39.6679 23.9023 40.4806 23.9023 41.5485C23.9023 42.6258 24.7056 43.4385 25.7829 43.4385ZM32.8063 38.893C34.3277 38.893 35.4239 40.027 35.4239 41.5485C35.4239 43.0699 34.3277 44.2134 32.8063 44.2134C32.0408 44.2134 31.3699 43.9204 30.8974 43.4196V45.9238H30.0941V38.997H30.6517L30.8123 39.7813C31.2848 39.2238 31.9841 38.893 32.8063 38.893ZM32.7496 43.4385C33.8269 43.4385 34.6207 42.6352 34.6207 41.5485C34.6207 40.4712 33.8269 39.6679 32.7496 39.6679C31.6628 39.6679 30.869 40.4806 30.869 41.5485C30.869 42.6258 31.6628 43.4385 32.7496 43.4385ZM39.3585 38.893C40.88 38.893 41.9762 40.027 41.9762 41.5485C41.9762 43.0699 40.88 44.2134 39.3585 44.2134C38.5931 44.2134 37.9221 43.9204 37.4496 43.4196V45.9238H36.6464V38.997H37.2039L37.3646 39.7813C37.8371 39.2238 38.5364 38.893 39.3585 38.893ZM39.3018 43.4385C40.3791 43.4385 41.1729 42.6352 41.1729 41.5485C41.1729 40.4712 40.3791 39.6679 39.3018 39.6679C38.2151 39.6679 37.4213 40.4806 37.4213 41.5485C37.4213 42.6258 38.2151 43.4385 39.3018 43.4385ZM45.5328 38.9781H45.9864V39.7341H45.4666C44.5311 39.7341 44.0019 40.3389 44.0019 41.3311V44.1H43.1986V38.997H43.7751L43.8979 39.7813C44.2665 39.2521 44.7957 38.9781 45.5328 38.9781ZM48.9928 44.2134C47.443 44.2134 46.2807 43.0794 46.2807 41.5485C46.2807 40.0176 47.443 38.893 48.9928 38.893C50.5332 38.893 51.6955 40.027 51.6955 41.5485C51.6955 43.0794 50.5332 44.2134 48.9928 44.2134ZM48.9928 43.4385C50.0796 43.4385 50.8734 42.6447 50.8734 41.5579C50.8734 40.4617 50.0796 39.6679 48.9928 39.6679C47.8966 39.6679 47.1028 40.4617 47.1028 41.5485C47.1028 42.6447 47.8966 43.4385 48.9928 43.4385ZM56.3691 38.997H57.1912L55.0461 44.1H54.309L52.1071 38.997H52.9387L54.6775 43.0605L56.3691 38.997ZM62.8011 41.5768C62.8011 41.6713 62.7917 41.7658 62.7822 41.8603H58.4352C58.5581 42.8053 59.2668 43.429 60.2307 43.429C60.9395 43.429 61.5065 43.0983 61.8183 42.5502H62.6688C62.2341 43.5991 61.3364 44.2134 60.2307 44.2134C58.7471 44.2134 57.632 43.0699 57.632 41.5485C57.632 40.0365 58.7471 38.893 60.2307 38.893C61.7805 38.893 62.8011 40.0837 62.8011 41.5768ZM60.2307 39.649C59.3046 39.649 58.6148 40.2349 58.4541 41.1232H61.9979C61.8278 40.216 61.1379 39.649 60.2307 39.649ZM68.1199 37.1826H68.9232V44.1094H68.2995L68.1955 43.3818C67.723 43.9015 67.0332 44.2134 66.2299 44.2134C64.699 44.2134 63.5934 43.0699 63.5934 41.5579C63.5934 40.027 64.699 38.893 66.2299 38.893C66.9859 38.893 67.6474 39.1765 68.1199 39.649V37.1826ZM66.2866 43.4385C67.3734 43.4385 68.1672 42.6258 68.1672 41.5579C68.1672 40.4806 67.3734 39.6679 66.2866 39.6679C65.2093 39.6679 64.4155 40.4712 64.4155 41.5579C64.4155 42.6352 65.2093 43.4385 66.2866 43.4385ZM75.7286 39.0348V39.7057H74.1599V44.1H73.3566V39.7057H72.3549V39.0348H73.3566V38.619C73.3566 37.5322 73.8575 36.9936 75.0009 36.9936H75.7191V37.6456H75.1427C74.4245 37.6456 74.141 37.9197 74.141 38.6379V39.0348H75.7286ZM78.8009 44.2134C77.2511 44.2134 76.0888 43.0794 76.0888 41.5485C76.0888 40.0176 77.2511 38.893 78.8009 38.893C80.3413 38.893 81.5036 40.027 81.5036 41.5485C81.5036 43.0794 80.3413 44.2134 78.8009 44.2134ZM78.8009 43.4385C79.8877 43.4385 80.6815 42.6447 80.6815 41.5579C80.6815 40.4617 79.8877 39.6679 78.8009 39.6679C77.7047 39.6679 76.9109 40.4617 76.9109 41.5485C76.9109 42.6447 77.7047 43.4385 78.8009 43.4385ZM85.0585 38.9781H85.5121V39.7341H84.9924C84.0568 39.7341 83.5276 40.3389 83.5276 41.3311V44.1H82.7244V38.997H83.3008L83.4237 39.7813C83.7922 39.2521 84.3214 38.9781 85.0585 38.9781ZM92.9317 38.997H93.5649V44.1H92.9034L92.8183 43.3345C92.3458 43.8826 91.6465 44.2134 90.8149 44.2134C89.3029 44.2134 88.1689 43.0699 88.1689 41.5579C88.1689 40.027 89.3029 38.893 90.8149 38.893C91.6465 38.893 92.3553 39.2238 92.8278 39.7813L92.9317 38.997ZM90.8716 43.4385C91.9584 43.4385 92.7427 42.6352 92.7427 41.5485C92.7427 40.4712 91.9584 39.6679 90.8716 39.6679C89.7943 39.6679 88.9911 40.4806 88.9911 41.5485C88.9911 42.6258 89.7943 43.4385 90.8716 43.4385ZM97.6561 44.1V37.1826H98.4594V44.1H97.6561ZM102.38 44.2134C100.83 44.2134 99.6676 43.0794 99.6676 41.5485C99.6676 40.0176 100.83 38.893 102.38 38.893C103.92 38.893 105.082 40.027 105.082 41.5485C105.082 43.0794 103.92 44.2134 102.38 44.2134ZM102.38 43.4385C103.467 43.4385 104.26 42.6447 104.26 41.5579C104.26 40.4617 103.467 39.6679 102.38 39.6679C101.284 39.6679 100.49 40.4617 100.49 41.5485C100.49 42.6447 101.284 43.4385 102.38 43.4385ZM110.66 38.997H111.293V44.1H110.631L110.546 43.3345C110.074 43.8826 109.374 44.2134 108.543 44.2134C107.031 44.2134 105.897 43.0699 105.897 41.5579C105.897 40.027 107.031 38.893 108.543 38.893C109.374 38.893 110.083 39.2238 110.556 39.7813L110.66 38.997ZM108.6 43.4385C109.686 43.4385 110.471 42.6352 110.471 41.5485C110.471 40.4712 109.686 39.6679 108.6 39.6679C107.522 39.6679 106.719 40.4806 106.719 41.5485C106.719 42.6258 107.522 43.4385 108.6 43.4385ZM115.462 38.893C116.681 38.893 117.437 39.8002 117.437 41.0476V44.1H116.634V41.2366C116.634 40.2066 116.143 39.6207 115.264 39.6207C114.385 39.6207 113.714 40.3672 113.714 41.3217V44.1H112.911V38.997H113.487L113.638 39.8002C114.026 39.2332 114.678 38.893 115.462 38.893ZM123.621 44.2134C122.25 44.2134 121.362 43.3251 121.362 41.9548V38.997H122.165V41.8225C122.165 42.8242 122.723 43.4385 123.621 43.4385C124.537 43.4385 125.085 42.8148 125.085 41.8225V38.997H125.889V41.9548C125.889 43.3251 125.01 44.2134 123.621 44.2134ZM130.13 38.893C131.652 38.893 132.748 40.027 132.748 41.5485C132.748 43.0699 131.652 44.2134 130.13 44.2134C129.365 44.2134 128.694 43.9204 128.221 43.4196V45.9238H127.418V38.997H127.976L128.136 39.7813C128.609 39.2238 129.308 38.893 130.13 38.893ZM130.074 43.4385C131.151 43.4385 131.945 42.6352 131.945 41.5485C131.945 40.4712 131.151 39.6679 130.074 39.6679C128.987 39.6679 128.193 40.4806 128.193 41.5485C128.193 42.6258 128.987 43.4385 130.074 43.4385ZM138.403 43.3629H138.961V44.1H138.3C137.203 44.1 136.523 43.429 136.523 42.3234V39.7246H135.625V39.5829L137.203 37.9197H137.326V38.997H138.933V39.7246H137.326V42.295C137.326 42.9849 137.704 43.3629 138.403 43.3629ZM142.275 44.2134C140.725 44.2134 139.563 43.0794 139.563 41.5485C139.563 40.0176 140.725 38.893 142.275 38.893C143.815 38.893 144.977 40.027 144.977 41.5485C144.977 43.0794 143.815 44.2134 142.275 44.2134ZM142.275 43.4385C143.361 43.4385 144.155 42.6447 144.155 41.5579C144.155 40.4617 143.361 39.6679 142.275 39.6679C141.178 39.6679 140.385 40.4617 140.385 41.5485C140.385 42.6447 141.178 43.4385 142.275 43.4385Z" fill="#131F4A"/>
<defs>
<linearGradient id="paint0_linear_4810_24616" x1="15.3" y1="5.10852" x2="82.4362" y2="131.752" gradientUnits="userSpaceOnUse">
<stop stop-color="white"/>
<stop offset="1" stop-color="#FAFCFF"/>
</linearGradient>
</defs>
</svg>
