<svg width="103" height="52" viewBox="0 0 103 52" fill="none" xmlns="http://www.w3.org/2000/svg">
<g clip-path="url(#clip0_4179_3936)">
<path fill-rule="evenodd" clip-rule="evenodd" d="M7.96289 30.8157L11.0212 28.4731C12.6452 30.5935 14.3699 31.5706 16.2917 31.5706C18.2029 31.5706 19.8802 30.6047 21.4315 28.5012L24.5319 30.7876C22.2953 33.8205 19.5126 35.4228 16.2917 35.4228C13.0816 35.4228 10.2731 33.8318 7.96289 30.8157Z" fill="#9CA3AF"/>
<path fill-rule="evenodd" clip-rule="evenodd" d="M16.2822 20.6346L10.8389 25.3249L8.32422 22.4066L16.293 15.54L24.1998 22.4119L21.6728 25.3196L16.2822 20.6346Z" fill="#9CA3AF"/>
<path d="M45.408 19.4998H42.3262V32.3408H45.408V19.4998Z" fill="#9CA3AF"/>
<path fill-rule="evenodd" clip-rule="evenodd" d="M36.0974 32.3977C34.2806 32.3977 32.7667 31.809 31.5387 30.6315C30.3107 29.4371 29.7051 27.9063 29.7051 26.0391C29.7051 24.1551 30.3275 22.6075 31.5555 21.3963C32.8003 20.1683 34.3143 19.5627 36.1142 19.5627C38.3346 19.5627 40.3029 20.5216 41.4466 22.0187L39.4449 24.1214C38.486 23.0953 37.4431 22.5738 36.3161 22.5738C35.3572 22.5738 34.5666 22.8934 33.9105 23.5495C33.2713 24.2056 32.9517 25.0298 32.9517 26.0223C32.9517 26.9811 33.2713 27.7886 33.9105 28.4446C34.5666 29.0839 35.3572 29.4035 36.2993 29.4035C37.5272 29.4035 38.6038 28.8652 39.4953 27.8054L41.5814 29.8072C41.0095 30.5642 40.2355 31.1866 39.2766 31.6744C38.318 32.1622 37.2581 32.3977 36.0974 32.3977Z" fill="#9CA3AF"/>
<path fill-rule="evenodd" clip-rule="evenodd" d="M50.03 20.5271C50.03 21.4491 49.2829 22.1965 48.3609 22.1965C47.4388 22.1965 46.6914 21.4491 46.6914 20.5271C46.6914 19.6052 47.4388 18.8578 48.3609 18.8578C49.2829 18.8578 50.03 19.6052 50.03 20.5271ZM49.9016 22.9669H46.8198V32.3409H49.9016V22.9669Z" fill="#9CA3AF"/>
<path fill-rule="evenodd" clip-rule="evenodd" d="M55.8605 32.4144C54.3971 32.4144 53.2195 31.9602 52.2945 31.0518C51.386 30.1434 50.9316 28.9827 50.9316 27.5529C50.9316 26.123 51.386 24.9623 52.3111 24.054C53.2364 23.1456 54.4307 22.6914 55.911 22.6914C57.8457 22.6914 59.5445 23.6334 60.3351 25.3997L57.9632 26.6445C57.4922 25.8539 56.8364 25.4502 55.9784 25.4502C55.356 25.4502 54.8512 25.652 54.4476 26.0557C54.0606 26.4595 53.8588 26.9641 53.8588 27.5529C53.8588 28.7809 54.7503 29.6892 55.9448 29.6892C56.8025 29.6892 57.5931 29.2182 57.9297 28.4949L60.3015 29.9079C59.494 31.4555 57.8288 32.4144 55.8605 32.4144Z" fill="#9CA3AF"/>
<path fill-rule="evenodd" clip-rule="evenodd" d="M64.156 19.4999H61.0742V32.3409H64.156V29.0719L64.517 28.7351L67.3342 32.3409H70.9193L66.591 26.8011L70.7027 22.9669H66.9369L64.156 25.5603V19.4999Z" fill="#9CA3AF"/>
<path fill-rule="evenodd" clip-rule="evenodd" d="M71.4746 27.4885V19.4999H74.6851V27.3096C74.6851 28.7059 75.4987 29.3787 76.6754 29.3787C77.8349 29.3787 78.6657 28.6722 78.6657 27.3096V19.4999H81.8759V27.4885C81.8759 31.1557 79.3013 32.535 76.6754 32.535C74.0664 32.535 71.4746 31.1557 71.4746 27.4885Z" fill="#9CA3AF"/>
<path fill-rule="evenodd" clip-rule="evenodd" d="M88.8102 32.5979C91.2923 32.5979 93.3047 30.4133 93.3047 27.7183C93.3047 25.0234 91.2923 22.8387 88.8102 22.8387C87.7984 22.8387 86.8649 23.2017 86.1136 23.8142V22.9672H83.1602V36.1934H86.1136V31.6224C86.8649 32.2349 87.7984 32.5979 88.8102 32.5979ZM86.1136 27.7233V27.7133C86.1163 26.51 87.0637 25.5354 88.2323 25.5354C89.4026 25.5354 90.3512 26.5127 90.3512 27.7183C90.3512 28.9239 89.4026 29.9013 88.2323 29.9013C87.0637 29.9013 86.1163 28.9267 86.1136 27.7233Z" fill="#9CA3AF"/>
</g>
<defs>
<clipPath id="clip0_4179_3936">
<rect width="85.7988" height="20.8454" fill="white" transform="translate(7.72266 15.4437)"/>
</clipPath>
</defs>
</svg>
