<svg width="103" height="52" viewBox="0 0 103 52" fill="none" xmlns="http://www.w3.org/2000/svg">
<g clip-path="url(#clip0_4179_4010)">
<path d="M94.7344 24.5885V23.0796H92.8606V20.7338L92.7975 20.7532L91.0375 21.2917L91.0029 21.3022V23.0796H88.2251V22.0896C88.2251 21.6285 88.3282 21.2757 88.5313 21.0404C88.7331 20.8079 89.0217 20.6897 89.3897 20.6897C89.6544 20.6897 89.9284 20.7521 90.204 20.875L90.2731 20.9058V19.3167L90.2407 19.3048C89.9835 19.2124 89.6335 19.1658 89.2 19.1658C88.6534 19.1658 88.1568 19.2847 87.7238 19.5204C87.2904 19.7564 86.9495 20.0934 86.7108 20.5219C86.4728 20.9498 86.352 21.4441 86.352 21.991V23.0796H85.0473V24.5885H86.352V30.9452H88.2251V24.5885H91.0029V28.6281C91.0029 30.2918 91.7876 31.135 93.3352 31.135C93.5896 31.135 93.8572 31.1051 94.1306 31.0467C94.4087 30.9868 94.5982 30.927 94.7097 30.8631L94.7344 30.8485V29.3256L94.6582 29.376C94.5566 29.4439 94.43 29.4992 94.2815 29.5403C94.1324 29.5822 94.0079 29.6033 93.9116 29.6033C93.549 29.6033 93.2808 29.5055 93.1143 29.3128C92.946 29.1182 92.8606 28.7779 92.8606 28.3021V24.5885H94.7344ZM80.8644 29.6034C80.1846 29.6034 79.6486 29.378 79.2709 28.9339C78.8909 28.4876 78.6983 27.8513 78.6983 27.0429C78.6983 26.2089 78.8909 25.5561 79.2711 25.1019C79.649 24.6507 80.1799 24.4217 80.8492 24.4217C81.4986 24.4217 82.0156 24.6404 82.3859 25.0721C82.7581 25.506 82.947 26.1536 82.947 26.9974C82.947 27.8515 82.7693 28.5076 82.4191 28.9465C82.0713 29.3821 81.5483 29.6034 80.8644 29.6034ZM80.9479 22.8901C79.6508 22.8901 78.6206 23.2702 77.8862 24.0197C77.1521 24.7694 76.7799 25.8068 76.7799 27.1034C76.7799 28.3349 77.1432 29.3255 77.8598 30.0471C78.5764 30.7691 79.5516 31.1348 80.7581 31.1348C82.0154 31.1348 83.0251 30.7495 83.7593 29.9895C84.4934 29.2303 84.8654 28.2028 84.8654 26.9365C84.8654 25.6857 84.5164 24.6878 83.8277 23.9709C83.1387 23.2537 82.1696 22.8901 80.9479 22.8901ZM73.76 22.8901C72.8777 22.8901 72.1479 23.1157 71.5904 23.5607C71.0295 24.0083 70.7451 24.5954 70.7451 25.3057C70.7451 25.675 70.8065 26.003 70.9273 26.2812C71.0489 26.5603 71.2371 26.806 71.4871 27.0123C71.7352 27.2169 72.1181 27.4312 72.6256 27.6492C73.0521 27.8247 73.3703 27.9733 73.5724 28.0903C73.7699 28.2049 73.9102 28.3203 73.9894 28.4326C74.0662 28.5424 74.1053 28.6928 74.1053 28.8785C74.1053 29.4069 73.7096 29.6639 72.8953 29.6639C72.5933 29.6639 72.2488 29.601 71.8713 29.4766C71.4937 29.3524 71.1409 29.1738 70.8228 28.9449L70.7451 28.8892V30.6924L70.7736 30.7057C71.0387 30.828 71.3727 30.9311 71.7666 31.0123C72.1597 31.0936 72.5168 31.135 72.8271 31.135C73.7844 31.135 74.5554 30.9082 75.1179 30.4606C75.6841 30.0099 75.971 29.409 75.971 28.674C75.971 28.1438 75.8166 27.6891 75.5121 27.3225C75.2097 26.9587 74.685 26.6249 73.9529 26.3297C73.3698 26.0957 72.9962 25.9013 72.8421 25.7523C72.6935 25.6082 72.6181 25.4044 72.6181 25.1464C72.6181 24.9176 72.7112 24.7344 72.9024 24.5859C73.095 24.4367 73.3631 24.3609 73.6995 24.3609C74.0116 24.3609 74.3309 24.4102 74.6484 24.5068C74.9657 24.6034 75.2444 24.7327 75.4771 24.8911L75.5536 24.9433V23.2328L75.5242 23.2201C75.3095 23.1281 75.0265 23.0493 74.6828 22.9854C74.3404 22.9221 74.0299 22.8901 73.76 22.8901ZM65.8621 29.6034C65.1824 29.6034 64.6463 29.378 64.2686 28.9339C63.8885 28.4876 63.6963 27.8515 63.6963 27.0429C63.6963 26.2089 63.8887 25.5561 64.269 25.1019C64.6467 24.6507 65.1775 24.4217 65.847 24.4217C66.4963 24.4217 67.0133 24.6404 67.3836 25.0721C67.7559 25.506 67.9447 26.1536 67.9447 26.9974C67.9447 27.8515 67.767 28.5076 67.4167 28.9465C67.069 29.3821 66.5462 29.6034 65.8621 29.6034ZM65.9457 22.8901C64.6483 22.8901 63.6181 23.2702 62.884 24.0197C62.15 24.7694 61.7775 25.8068 61.7775 27.1034C61.7775 28.3354 62.1411 29.3255 62.8577 30.0471C63.5742 30.7691 64.5494 31.1348 65.756 31.1348C67.013 31.1348 68.0229 30.7495 68.7572 29.9895C69.4911 29.2303 69.8632 28.2028 69.8632 26.9365C69.8632 25.6857 69.5141 24.6878 68.8253 23.9709C68.1361 23.2537 67.1672 22.8901 65.9457 22.8901ZM58.9343 24.4417V23.0796H57.0841V30.945H58.9343V26.9216C58.9343 26.2374 59.0894 25.6754 59.3955 25.2509C59.6977 24.8314 60.1004 24.6188 60.5921 24.6188C60.7587 24.6188 60.9458 24.6463 61.1484 24.7007C61.3489 24.7547 61.4942 24.8134 61.5799 24.8751L61.6576 24.9314V23.0661L61.6276 23.0533C61.4553 22.98 61.2116 22.9431 60.9031 22.9431C60.4382 22.9431 60.0221 23.0925 59.6657 23.3866C59.3529 23.6452 59.1268 23.9997 58.9539 24.4417H58.9343ZM53.7707 22.8901C52.922 22.8901 52.1648 23.0722 51.5208 23.4309C50.8755 23.7905 50.3764 24.304 50.0369 24.9568C49.6989 25.6082 49.5273 26.3689 49.5273 27.2173C49.5273 27.9604 49.6937 28.6424 50.0225 29.2435C50.3516 29.8455 50.8175 30.3165 51.4071 30.6432C51.9958 30.9695 52.6763 31.135 53.4297 31.135C54.309 31.135 55.0597 30.9591 55.6616 30.6125L55.6859 30.5985V28.9035L55.6082 28.9602C55.3356 29.1588 55.0309 29.3173 54.703 29.4316C54.376 29.5457 54.0778 29.6034 53.8165 29.6034C53.0905 29.6034 52.5077 29.3761 52.0846 28.9284C51.6606 28.4799 51.4457 27.8502 51.4457 27.0578C51.4457 26.2604 51.6698 25.6146 52.1117 25.138C52.5521 24.6628 53.136 24.4218 53.847 24.4218C54.4552 24.4218 55.0478 24.6277 55.6084 25.0344L55.6859 25.0908V23.3048L55.6609 23.2907C55.4499 23.1726 55.1622 23.0751 54.8049 23.0011C54.4492 22.9273 54.1014 22.8901 53.7707 22.8901ZM48.253 23.0797H46.4027V30.945H48.253V23.0797ZM47.3467 19.7289C47.0422 19.7289 46.7766 19.8326 46.5585 20.038C46.3393 20.244 46.2281 20.5034 46.2281 20.8095C46.2281 21.1107 46.338 21.3653 46.5549 21.5659C46.7705 21.7658 47.0369 21.8672 47.3467 21.8672C47.6564 21.8672 47.9239 21.7658 48.1421 21.5662C48.3617 21.3653 48.473 21.1107 48.473 20.8095C48.473 20.5141 48.3647 20.2573 48.1511 20.0463C47.9378 19.8357 47.6671 19.7289 47.3467 19.7289ZM42.7304 22.4994V30.945H44.6186V19.9698H42.0053L38.6835 28.1218L35.46 19.9698H32.7402V30.945H34.5146V22.4985H34.5756L37.9796 30.945H39.3187L42.6695 22.4994H42.7304Z" fill="#9CA3AF"/>
<path d="M17.6393 25.0055H8.93555V16.3018H17.6393V25.0055Z" fill="#9CA3AF"/>
<path d="M27.2486 25.0059H18.5449V16.3021H27.2486V25.0059Z" fill="#9CA3AF"/>
<path d="M17.6391 34.6194H8.93555V25.9156H17.6391V34.6194Z" fill="#9CA3AF"/>
<path d="M27.2486 34.6194H18.5449V25.9156H27.2486V34.6194Z" fill="#9CA3AF"/>
</g>
<defs>
<clipPath id="clip0_4179_4010">
<rect width="85.7988" height="18.3172" fill="white" transform="translate(8.93555 16.3019)"/>
</clipPath>
</defs>
</svg>
