<svg width="103" height="52" viewBox="0 0 103 52" fill="none" xmlns="http://www.w3.org/2000/svg">
<g clip-path="url(#clip0_4179_3983)">
<path fill-rule="evenodd" clip-rule="evenodd" d="M46.2833 8.96135C48.2755 6.88545 51.0493 5.59803 54.1169 5.59803C58.1948 5.59803 61.7526 7.87192 63.6472 11.2476C65.2936 10.5119 67.1161 10.1027 69.0336 10.1027C76.3885 10.1027 82.3513 16.1174 82.3513 23.5366C82.3513 30.9567 76.3885 36.9714 69.0336 36.9714C68.136 36.9714 67.2586 36.8816 66.4103 36.71C64.7419 39.6862 61.5625 41.6969 57.9132 41.6969C56.3855 41.6969 54.9406 41.3441 53.654 40.7166C51.9627 44.6951 48.0221 47.4846 43.4295 47.4846C38.6467 47.4846 34.5706 44.4584 33.006 40.2142C32.3222 40.3594 31.6139 40.435 30.887 40.435C25.1926 40.435 20.5762 35.7711 20.5762 30.0168C20.5762 26.1607 22.6503 22.7939 25.732 20.9926C25.0975 19.5327 24.7447 17.9214 24.7447 16.2274C24.7447 9.6099 30.117 4.24548 36.7433 4.24548C40.6337 4.24548 44.0912 6.09522 46.2833 8.96135ZM29.5238 26.6685C29.4917 26.7522 29.5224 26.7811 29.5409 26.7986C29.5447 26.8022 29.548 26.8054 29.5502 26.8084C29.642 26.8752 29.735 26.9271 29.8286 26.9795C29.8534 26.9933 29.8782 27.0072 29.903 27.0214C30.5331 27.3557 31.128 27.4534 31.7501 27.4534C33.0173 27.4534 33.804 26.7794 33.804 25.6943V25.6732C33.804 24.67 32.9161 24.3057 32.0828 24.0426L31.9745 24.0074L31.9739 24.0072C31.3459 23.8031 30.8041 23.6271 30.8041 23.2136V23.1916C30.8041 22.8379 31.1209 22.5774 31.612 22.5774C32.1576 22.5774 32.8052 22.7587 33.2223 22.9892C33.2223 22.9892 33.3447 23.0684 33.3895 22.9496C33.4142 22.8863 33.6254 22.3178 33.6474 22.2562C33.6711 22.1893 33.6289 22.14 33.5858 22.1136C33.1097 21.8241 32.4515 21.6261 31.7704 21.6261L31.6436 21.627C30.4838 21.627 29.6742 22.3275 29.6742 23.3316V23.3527C29.6742 24.4113 30.5674 24.7545 31.4043 24.9939L31.5389 25.0352L31.5408 25.0358C32.1498 25.223 32.6741 25.3841 32.6741 25.8131V25.8342C32.6741 26.2267 32.3327 26.5189 31.7818 26.5189C31.568 26.5189 30.886 26.5145 30.1494 26.049C30.0984 26.0191 30.0595 25.994 30.0227 25.9701L30.0227 25.9701C29.9954 25.9524 29.9692 25.9354 29.94 25.9178C29.9039 25.895 29.8133 25.8554 29.7737 25.975L29.5238 26.6685ZM48.0919 26.7986C48.0734 26.7811 48.0428 26.7522 48.0748 26.6685L48.3247 25.975C48.3617 25.8615 48.4691 25.9029 48.4919 25.9178L48.5341 25.9452L48.5342 25.9453L48.5343 25.9453L48.5343 25.9453C48.5836 25.9775 48.631 26.0084 48.7005 26.049C49.437 26.5145 50.119 26.5189 50.3329 26.5189C50.8837 26.5189 51.2261 26.2267 51.2261 25.8342V25.8131C51.2261 25.3844 50.7015 25.2232 50.093 25.0361L50.09 25.0352L49.9554 24.9939C49.1185 24.7545 48.2253 24.4113 48.2253 23.3527V23.3316C48.2253 22.3275 49.0349 21.627 50.1947 21.627L50.3214 21.6261C51.0025 21.6261 51.6608 21.8241 52.1368 22.1136C52.18 22.14 52.2222 22.1893 52.1984 22.2562C52.1764 22.3178 51.9652 22.8863 51.9406 22.9496C51.8957 23.0684 51.7734 22.9892 51.7734 22.9892C51.3563 22.7587 50.7086 22.5774 50.163 22.5774C49.672 22.5774 49.3552 22.8379 49.3552 23.1916V23.2136C49.3552 23.6271 49.8969 23.8031 50.5249 24.0072L50.525 24.0072L50.5256 24.0074L50.6338 24.0426C51.4672 24.3057 52.3551 24.67 52.3551 25.6732V25.6943C52.3551 26.7794 51.5684 27.4534 50.3012 27.4534C49.679 27.4534 49.0842 27.3557 48.4541 27.0214C48.4292 27.0072 48.4044 26.9933 48.3796 26.9795C48.286 26.9271 48.1931 26.8752 48.1012 26.8084C48.0991 26.8054 48.0958 26.8022 48.0919 26.7986ZM60.7391 24.5431C60.7391 25.1565 60.6247 25.6396 60.3994 25.981C60.1768 26.3189 59.8398 26.4835 59.3699 26.4835C58.8991 26.4835 58.5638 26.3198 58.3447 25.981C58.1229 25.6404 58.0103 25.1565 58.0103 24.5431C58.0103 23.9306 58.1229 23.4484 58.3447 23.1105C58.5638 22.7761 58.8991 22.6133 59.3699 22.6133C59.8398 22.6133 60.1768 22.7761 60.4003 23.1105C60.6247 23.4484 60.7391 23.9306 60.7391 24.5431ZM61.7969 23.4062C61.693 23.055 61.5311 22.7453 61.3155 22.4874C61.0999 22.2287 60.8271 22.021 60.5033 21.8697C60.1803 21.7192 59.7984 21.6427 59.3699 21.6427C58.9404 21.6427 58.5585 21.7192 58.2356 21.8697C57.9117 22.021 57.6389 22.2287 57.4224 22.4874C57.2077 22.7462 57.0458 23.0559 56.9411 23.4062C56.8381 23.7555 56.7862 24.1374 56.7862 24.5431C56.7862 24.9488 56.8381 25.3316 56.9411 25.68C57.0458 26.0303 57.2069 26.34 57.4233 26.5988C57.6389 26.8575 57.9126 27.0643 58.2356 27.2112C58.5594 27.3582 58.9404 27.433 59.3699 27.433C59.7984 27.433 60.1795 27.3582 60.5033 27.2112C60.8262 27.0643 61.0999 26.8575 61.3155 26.5988C61.5311 26.3409 61.693 26.0312 61.7969 25.68C61.9007 25.3307 61.9526 24.9479 61.9526 24.5431C61.9526 24.1383 61.9007 23.7555 61.7969 23.4062ZM70.3483 26.2557C70.3483 26.2557 70.4478 26.217 70.483 26.32L70.7426 27.0372C70.776 27.126 70.6994 27.163 70.6994 27.163C70.2999 27.3205 69.7438 27.4305 69.2017 27.4305C68.2847 27.4305 67.5816 27.1656 67.1135 26.6447C66.6462 26.1255 66.4095 25.4162 66.4095 24.5389C66.4095 24.1332 66.4676 23.7495 66.582 23.4002C66.6973 23.0499 66.8697 22.7402 67.0968 22.4814C67.3238 22.2227 67.6107 22.0151 67.9486 21.8646C68.2874 21.7132 68.6834 21.6375 69.1278 21.6375C69.4252 21.6375 69.6927 21.656 69.9215 21.6912C70.1662 21.7282 70.49 21.8153 70.6273 21.869C70.6519 21.8787 70.7206 21.913 70.6924 21.9931C70.6254 22.1851 70.5722 22.3316 70.516 22.4864L70.5159 22.4867C70.4895 22.5595 70.4623 22.6342 70.4328 22.7164C70.3932 22.8255 70.3096 22.7894 70.3096 22.7894C69.9611 22.6794 69.6285 22.6293 69.192 22.6293C68.6684 22.6293 68.2759 22.8044 68.0181 23.1458C67.7585 23.489 67.6142 23.9396 67.6124 24.5389C67.6107 25.1971 67.7744 25.6837 68.0665 25.9847C68.3578 26.2856 68.7643 26.4379 69.2765 26.4379C69.4851 26.4379 69.6795 26.4238 69.8564 26.3965C70.0306 26.3692 70.1943 26.3147 70.3483 26.2557ZM72.3336 23.955C72.3838 23.6144 72.4779 23.3311 72.6231 23.1102C72.8423 22.7749 73.1767 22.591 73.6466 22.591C74.1165 22.591 74.4271 22.7758 74.6498 23.1102C74.7976 23.3311 74.8618 23.6267 74.8874 23.955H72.3336ZM75.8949 23.2061C75.8052 22.8673 75.5825 22.525 75.4365 22.3684C75.2059 22.1202 74.9806 21.9468 74.7571 21.85C74.465 21.7251 74.1147 21.6424 73.731 21.6424C73.284 21.6424 72.8783 21.7172 72.5492 21.872C72.2192 22.0269 71.942 22.2381 71.7247 22.5012C71.5073 22.7635 71.3436 23.0759 71.2398 23.4305C71.1351 23.7834 71.0823 24.1679 71.0823 24.5736C71.0823 24.9863 71.1368 25.3709 71.2451 25.7167C71.3542 26.0652 71.5284 26.3723 71.7643 26.6266C71.9992 26.8827 72.3019 27.0833 72.6645 27.2233C73.0244 27.3623 73.4618 27.4345 73.9642 27.4336C74.9982 27.4301 75.5429 27.1995 75.7673 27.0754C75.8069 27.0534 75.8448 27.0147 75.7973 26.9038L75.5632 26.2482C75.528 26.1506 75.4285 26.1866 75.4285 26.1866C75.4062 26.1949 75.383 26.2038 75.3588 26.2131C75.1052 26.3102 74.734 26.4522 73.959 26.4506C73.4037 26.4498 72.9919 26.2861 72.734 26.03C72.4691 25.7678 72.3398 25.3823 72.3169 24.8385L75.8976 24.842C75.8976 24.842 75.9917 24.8403 76.0014 24.7487L76.0036 24.7322C76.0195 24.6158 76.1092 23.9588 75.8949 23.2061ZM43.9474 23.1102C43.8022 23.3311 43.7089 23.6144 43.6579 23.955H46.2116C46.1861 23.6267 46.1219 23.3311 45.9749 23.1102C45.7514 22.7758 45.4408 22.591 44.9708 22.591C44.5009 22.591 44.1665 22.7749 43.9474 23.1102ZM46.7607 22.3684C46.9068 22.525 47.1286 22.8673 47.2183 23.2061C47.4334 23.9589 47.3437 24.6159 47.3278 24.7322L47.3257 24.7487C47.316 24.8403 47.2219 24.842 47.2219 24.842L43.6412 24.8385C43.6641 25.3823 43.7934 25.7678 44.0583 26.03C44.3161 26.2861 44.728 26.4498 45.2824 26.4506C46.0586 26.4522 46.4292 26.3103 46.6826 26.2132L46.7159 26.2005L46.7528 26.1866C46.7528 26.1866 46.8523 26.1506 46.8883 26.2482L47.1215 26.9038C47.1691 27.0147 47.1312 27.0534 47.0916 27.0754C46.8672 27.1995 46.3225 27.4301 45.2885 27.4336C44.7861 27.4345 44.3487 27.3623 43.9888 27.2233C43.6262 27.0833 43.3235 26.8827 43.0886 26.6266C42.8527 26.3723 42.6785 26.0652 42.5694 25.7167C42.4611 25.3709 42.4066 24.9863 42.4066 24.5736C42.4066 24.1679 42.4602 23.7834 42.5641 23.4305C42.6679 23.0759 42.8316 22.7635 43.049 22.5012C43.2663 22.2381 43.5435 22.0269 43.8735 21.872C44.2026 21.7172 44.6092 21.6424 45.0553 21.6424C45.439 21.6424 45.7892 21.7251 46.0814 21.85C46.3049 21.9468 46.5302 22.1202 46.7607 22.3684ZM35.918 26.2996C35.7781 26.1878 35.7588 26.1597 35.7112 26.0875C35.6408 25.9775 35.6048 25.8209 35.6048 25.622C35.6048 25.307 35.7086 25.0808 35.9242 24.9286C35.9216 24.9294 36.2322 24.6602 36.9626 24.6698C37.4756 24.6769 37.9341 24.7526 37.9341 24.7526V26.3805H37.935C37.935 26.3805 37.48 26.4782 36.9679 26.509C36.2392 26.553 35.9154 26.2987 35.918 26.2996ZM37.3427 23.7837C37.1975 23.7731 37.0092 23.767 36.784 23.767C36.4768 23.767 36.1803 23.8057 35.9022 23.8805C35.6224 23.9553 35.3707 24.0723 35.1542 24.2272C34.9369 24.383 34.7617 24.5819 34.635 24.8177C34.5083 25.0535 34.4441 25.3316 34.4441 25.6431C34.4441 25.9599 34.4986 26.2353 34.6077 26.4606C34.7169 26.6868 34.8744 26.8751 35.075 27.0203C35.2739 27.1655 35.5194 27.272 35.8045 27.3362C36.0852 27.4005 36.4038 27.433 36.7523 27.433C37.1192 27.433 37.4853 27.4031 37.8399 27.3424C38.1911 27.2825 38.6222 27.1954 38.7419 27.1681C38.8607 27.14 38.9927 27.1039 38.9927 27.1039C39.0816 27.0819 39.0746 26.9869 39.0746 26.9869L39.0728 23.7124C39.0728 22.9943 38.881 22.462 38.5035 22.132C38.1277 21.8028 37.5742 21.6365 36.8588 21.6365C36.5904 21.6365 36.1583 21.6735 35.8996 21.7254C35.8996 21.7254 35.1173 21.8768 34.7952 22.1284C34.7952 22.1284 34.7248 22.1724 34.7635 22.271L35.0169 22.9521C35.0486 23.0401 35.134 23.0102 35.134 23.0102C35.134 23.0102 35.1613 22.9996 35.1929 22.9811C35.882 22.6063 36.7532 22.6177 36.7532 22.6177C37.1403 22.6177 37.4378 22.6952 37.6384 22.8492C37.8338 22.9987 37.9332 23.2249 37.9332 23.7019V23.8532C37.6252 23.8092 37.3427 23.7837 37.3427 23.7837ZM66.1688 21.8105C66.1926 21.8193 66.2498 21.858 66.2225 21.9389C66.189 22.0366 66.0148 22.5268 65.9532 22.6905C65.9303 22.7529 65.8916 22.7952 65.823 22.7873C65.823 22.7873 65.6171 22.7389 65.4296 22.7389C65.2994 22.7389 65.1155 22.7556 64.9491 22.8066C64.7864 22.8568 64.6376 22.9457 64.5065 23.0724C64.3763 23.2 64.2707 23.3777 64.1932 23.5995C64.114 23.8239 64.0744 24.1812 64.0744 24.5393V27.2074C64.0744 27.2673 64.026 27.3166 63.9662 27.3166H63.0255C62.9657 27.3166 62.9164 27.2673 62.9164 27.2074V21.8668C62.9164 21.8061 62.9595 21.7577 63.0193 21.7577H63.9372C63.997 21.7577 64.0401 21.8061 64.0401 21.8668V22.3024C64.1774 22.1185 64.4238 21.9565 64.6455 21.8562C64.8691 21.7559 65.119 21.6802 65.5687 21.7075C65.8036 21.7225 66.1081 21.7867 66.1688 21.8105ZM57.3923 19.4637C57.2779 19.4285 57.1741 19.4048 57.0386 19.3792C56.9013 19.3546 56.7376 19.3423 56.5519 19.3423C55.9043 19.3423 55.3939 19.5253 55.0357 19.8861C54.6793 20.2451 54.4373 20.7916 54.3159 21.5106L54.2719 21.7526H53.4588C53.4588 21.7526 53.3602 21.749 53.3391 21.8564L53.2062 22.6018C53.1966 22.6722 53.2274 22.717 53.3224 22.717H54.1135L53.311 27.1979C53.2485 27.5587 53.1763 27.8553 53.0962 28.0806C53.0179 28.3023 52.9414 28.4686 52.8463 28.5901C52.7548 28.7062 52.6686 28.7925 52.519 28.8426C52.3958 28.884 52.2532 28.9034 52.0974 28.9034C52.0112 28.9034 51.8959 28.8893 51.8106 28.8717C51.7261 28.855 51.6812 28.8365 51.617 28.8092C51.617 28.8092 51.5246 28.774 51.4876 28.8664C51.4586 28.943 51.2474 29.5229 51.2219 29.5942C51.1972 29.6654 51.2324 29.7209 51.2773 29.7376C51.3829 29.7746 51.4612 29.7992 51.6047 29.8335C51.8035 29.8801 51.9716 29.8828 52.1291 29.8828C52.4582 29.8828 52.7592 29.8362 53.0082 29.7464C53.2582 29.6558 53.4764 29.4982 53.67 29.2853C53.8785 29.0547 54.0097 28.8136 54.1346 28.4836C54.2587 28.158 54.3652 27.7532 54.4497 27.2815L55.2566 22.717H56.4358C56.4358 22.717 56.5352 22.7206 56.5555 22.6123L56.6892 21.8678C56.698 21.7966 56.6681 21.7526 56.5722 21.7526H55.4273C55.4282 21.7488 55.4301 21.737 55.4331 21.7182L55.4331 21.7181L55.4331 21.718C55.4505 21.6089 55.5047 21.2682 55.6165 20.9447C55.6728 20.7837 55.7784 20.6526 55.8673 20.5628C55.9553 20.4748 56.0565 20.4123 56.1674 20.3763C56.2809 20.3393 56.4103 20.3217 56.5519 20.3217C56.6593 20.3217 56.7658 20.334 56.8459 20.3507C56.9567 20.3745 56.9999 20.3868 57.0289 20.3956C57.1459 20.4308 57.1618 20.3965 57.1847 20.3402L57.4583 19.5887C57.4865 19.5077 57.417 19.4734 57.3923 19.4637ZM41.2934 27.316C41.3532 27.316 41.3963 27.2676 41.3963 27.2077V19.5659C41.3963 19.5061 41.3532 19.4577 41.2934 19.4577H40.3439C40.284 19.4577 40.2418 19.5061 40.2418 19.5659V27.2077C40.2418 27.2676 40.284 27.316 40.3439 27.316H41.2934Z" fill="#9CA3AF"/>
</g>
<defs>
<clipPath id="clip0_4179_3983">
<rect width="61.7751" height="43.2577" fill="white" transform="translate(20.5449 4.21497)"/>
</clipPath>
</defs>
</svg>
