<svg width="1424" height="742" viewBox="0 0 1424 742" fill="none" xmlns="http://www.w3.org/2000/svg">
<mask id="mask0_4101_2565" style="mask-type:alpha" maskUnits="userSpaceOnUse" x="0" y="0" width="1424" height="742">
<rect width="1424" height="742" rx="20" fill="url(#paint0_linear_4101_2565)"/>
</mask>
<g mask="url(#mask0_4101_2565)">
<path d="M145.158 544.603C145.158 171.044 225.239 90.9631 598.798 90.9631H827.886C1201.45 90.9631 1281.51 171.028 1281.51 544.587V773.676C1281.51 1147.23 1201.45 1227.3 827.886 1227.3H598.798C225.239 1227.32 145.158 1147.25 145.158 773.691V544.603Z" stroke="#DDE5F3" stroke-width="0.6" stroke-miterlimit="10"/>
<path d="M84.8467 532.734C84.8467 120.436 173.33 32.0499 586.082 32.0499H839.206C1251.96 32.0499 1340.42 120.418 1340.42 532.716V785.562C1340.42 1197.86 1251.96 1286.23 839.206 1286.23H586.082C173.33 1286.25 84.8467 1197.88 84.8467 785.579V532.734Z" stroke="#DDE5F3" stroke-width="0.4" stroke-miterlimit="10"/>
<path d="M24.7246 520.614C24.7246 68.7873 121.878 -28.0723 575.078 -28.0723H853.008C1306.21 -28.0723 1403.34 68.7682 1403.34 520.595V797.683C1403.34 1249.51 1306.21 1346.35 853.008 1346.35H575.078C121.878 1346.37 24.7246 1249.53 24.7246 797.702V520.614Z" stroke="#DDE5F3" stroke-width="0.2" stroke-miterlimit="10"/>
<path d="M-34 509.341C-34 20.7424 71.1351 -84 561.565 -84H862.326C1352.76 -84 1457.87 20.7217 1457.87 509.32V808.958C1457.87 1297.56 1352.76 1402.28 862.326 1402.28H561.565C71.1351 1402.3 -34 1297.58 -34 808.979V509.341Z" stroke="#DDE5F3" stroke-width="0.2" stroke-miterlimit="10"/>
<path d="M202.852 556.23C202.852 220.593 274.787 148.657 610.425 148.657H816.259C1151.9 148.657 1223.83 220.593 1223.83 556.23V762.064C1223.83 1097.7 1151.9 1169.64 816.259 1169.64H610.425C274.787 1169.64 202.852 1097.7 202.852 762.064V556.23Z" stroke="#DDE5F3" stroke-width="0.8" stroke-miterlimit="10"/>
<path d="M260.529 567.857C260.529 270.141 324.336 206.334 622.052 206.334H804.617C1102.33 206.334 1166.14 270.141 1166.14 567.857V750.422C1166.14 1048.14 1102.33 1111.94 804.617 1111.94H622.052C324.336 1111.94 260.529 1048.14 260.529 750.422V567.857Z" stroke="#DDE5F3" stroke-miterlimit="10"/>
<path d="M318.207 579.483C318.207 319.689 373.884 264.012 633.678 264.012H792.989C1052.78 264.012 1108.46 319.689 1108.46 579.483V738.794C1108.46 998.589 1052.78 1054.27 792.989 1054.27H633.678C373.884 1054.27 318.207 998.589 318.207 738.794V579.483Z" stroke="#DDE5F3" stroke-width="1.2" stroke-miterlimit="10"/>
<path d="M375.884 591.111C375.884 369.253 423.431 321.69 645.304 321.69H781.361C1003.22 321.69 1050.78 369.238 1050.78 591.111V727.168C1050.78 949.025 1003.23 996.588 781.361 996.588H645.304C423.447 996.588 375.884 949.041 375.884 727.168V591.111Z" stroke="#DDE5F3" stroke-width="1.4" stroke-miterlimit="10"/>
<path d="M433.578 602.737C433.578 418.802 472.996 379.368 656.948 379.368H769.751C953.687 379.368 993.121 418.786 993.121 602.737V715.541C993.121 899.476 953.702 938.91 769.751 938.91H656.948C473.012 938.91 433.578 899.492 433.578 715.541V602.737Z" stroke="#DDE5F3" stroke-width="1.6" stroke-miterlimit="10"/>
<path d="M491.256 614.364C491.256 468.35 522.545 437.061 668.559 437.061H758.108C904.122 437.061 935.411 468.35 935.411 614.364V703.914C935.411 849.928 904.122 881.217 758.108 881.217H668.559C522.545 881.217 491.256 849.928 491.256 703.914V614.364Z" stroke="#DDE5F3" stroke-width="1.8" stroke-miterlimit="10"/>
<path d="M548.934 626.007C548.934 517.914 572.093 494.755 680.186 494.755H746.466C854.558 494.755 877.718 517.914 877.718 626.007V692.287C877.718 800.38 854.558 823.539 746.466 823.539H680.186C572.093 823.539 548.934 800.38 548.934 692.287V626.007Z" stroke="#DDE5F3" stroke-width="2" stroke-miterlimit="10"/>
</g>
<defs>
<linearGradient id="paint0_linear_4101_2565" x1="712" y1="0" x2="712" y2="742" gradientUnits="userSpaceOnUse">
<stop stop-color="white"/>
<stop offset="0.512303" stop-color="white" stop-opacity="0.320601"/>
<stop offset="1" stop-color="white" stop-opacity="0"/>
</linearGradient>
</defs>
</svg>
