<svg width="448" height="92" viewBox="0 0 448 92" fill="none" xmlns="http://www.w3.org/2000/svg">
<rect x="0.5" y="0.5" width="447" height="91" rx="13.5" fill="white"/>
<rect x="0.5" y="0.5" width="447" height="91" rx="13.5" stroke="#DDE5F3"/>
<rect x="8" y="8" width="212" height="34" rx="8" fill="#F7F9FC"/>
<path d="M23 22.4501V31.7501H35V22.4501" stroke="#131F4A" stroke-width="1.1" stroke-linecap="round" stroke-linejoin="round"/>
<path d="M21.5 23.5L29 18.25L36.5 23.5" stroke="#131F4A" stroke-width="1.1" stroke-linecap="round" stroke-linejoin="round"/>
<path d="M31.25 31.75V27.25C31.25 26.4212 30.5788 25.75 29.75 25.75H28.25C27.4212 25.75 26.75 26.4212 26.75 27.25V31.75" stroke="#131F4A" stroke-width="1.1" stroke-linecap="round" stroke-linejoin="round"/>
<path d="M49.684 29.132C47.8 29.132 46.516 28.076 46.516 26.36H47.92C47.92 27.296 48.688 27.824 49.672 27.824C50.572 27.824 51.328 27.344 51.328 26.576C51.328 25.736 50.428 25.532 49.42 25.292C48.136 24.98 46.66 24.62 46.66 22.892C46.66 21.38 47.812 20.48 49.6 20.48C51.424 20.48 52.504 21.476 52.504 23.06H51.136C51.136 22.22 50.44 21.764 49.564 21.764C48.724 21.764 48.04 22.148 48.04 22.832C48.04 23.612 48.904 23.816 49.9 24.056C51.208 24.38 52.744 24.752 52.744 26.564C52.744 28.244 51.388 29.132 49.684 29.132ZM54.5853 29V20.6H55.9533V29H54.5853ZM63.861 20.6H65.205V29H64.053L59.685 23.012V29H58.341V20.6H59.577L63.861 26.504V20.6ZM71.0967 24.74H75.5967C75.5607 27.32 73.8207 29.168 71.3487 29.168C68.8767 29.168 67.0527 27.32 67.0527 24.812C67.0527 22.304 68.8647 20.456 71.3247 20.456C73.3767 20.456 75.0927 21.74 75.4647 23.576H74.0487C73.6887 22.496 72.6207 21.788 71.3487 21.788C69.6567 21.788 68.4567 23.036 68.4567 24.812C68.4567 26.588 69.6207 27.836 71.3487 27.836C72.6927 27.836 73.7847 27.068 74.0967 25.928H71.0967V24.74ZM78.7749 27.716H82.2669V29H77.4069V20.6H78.7749V27.716ZM85.2024 27.704H88.8384V29H83.8344V20.6H88.7064V21.896H85.2024V24.092H88.3944V25.352H85.2024V27.704ZM98.8418 21.896H95.3738V24.272H98.5298V25.544H95.3738V29H94.0058V20.6H98.8418V21.896ZM105.747 29L105.027 27.176H101.271L100.563 29H99.0994L102.471 20.6H103.767L107.247 29H105.747ZM103.143 22.4L101.751 25.94H104.547L103.143 22.4ZM118.732 29H117.316L116.344 22.916L113.608 28.88H113.26L110.524 22.916L109.54 29H108.136L109.516 20.6H110.872L113.428 26.312L115.996 20.6H117.376L118.732 29ZM120.531 29V20.6H121.899V29H120.531ZM125.654 27.716H129.146V29H124.286V20.6H125.654V27.716ZM136.331 20.6L133.295 25.64V29H131.879V25.64L128.855 20.6H130.343L132.587 24.368L134.843 20.6H136.331ZM145.649 29L143.837 25.892H142.241V29H140.873V20.6H144.137C145.757 20.6 146.957 21.716 146.957 23.264C146.957 24.404 146.273 25.316 145.253 25.7L147.197 29H145.649ZM142.241 21.896V24.608H144.053C144.965 24.608 145.553 24.044 145.553 23.252C145.553 22.472 144.965 21.896 144.053 21.896H142.241ZM150.298 27.704H153.934V29H148.93V20.6H153.802V21.896H150.298V24.092H153.49V25.352H150.298V27.704ZM158.454 29.132C156.57 29.132 155.286 28.076 155.286 26.36H156.69C156.69 27.296 157.458 27.824 158.442 27.824C159.342 27.824 160.098 27.344 160.098 26.576C160.098 25.736 159.198 25.532 158.19 25.292C156.906 24.98 155.43 24.62 155.43 22.892C155.43 21.38 156.582 20.48 158.37 20.48C160.194 20.48 161.274 21.476 161.274 23.06H159.906C159.906 22.22 159.21 21.764 158.334 21.764C157.494 21.764 156.81 22.148 156.81 22.832C156.81 23.612 157.674 23.816 158.67 24.056C159.978 24.38 161.514 24.752 161.514 26.564C161.514 28.244 160.158 29.132 158.454 29.132ZM163.355 29V20.6H164.723V29H163.355ZM170.063 20.6C172.535 20.6 174.323 22.364 174.323 24.8C174.323 27.236 172.535 29 170.063 29H167.111V20.6H170.063ZM170.027 27.716C171.731 27.716 172.919 26.492 172.919 24.8C172.919 23.108 171.731 21.896 170.027 21.896H168.479V27.716H170.027ZM177.555 27.704H181.191V29H176.187V20.6H181.059V21.896H177.555V24.092H180.747V25.352H177.555V27.704ZM188.615 20.6H189.959V29H188.807L184.439 23.012V29H183.095V20.6H184.331L188.615 26.504V20.6ZM196.126 29.156C193.642 29.156 191.806 27.32 191.806 24.812C191.806 22.292 193.642 20.456 196.126 20.456C198.106 20.456 199.702 21.692 200.146 23.588H198.754C198.346 22.472 197.362 21.788 196.126 21.788C194.446 21.788 193.21 23.06 193.21 24.812C193.21 26.564 194.446 27.824 196.126 27.824C197.41 27.824 198.394 27.092 198.778 25.904H200.182C199.738 27.884 198.142 29.156 196.126 29.156ZM203.247 27.704H206.883V29H201.879V20.6H206.751V21.896H203.247V24.092H206.439V25.352H203.247V27.704Z" fill="#131F4A"/>
<rect x="228" y="8" width="212" height="34" rx="8" fill="#F7F9FC"/>
<path fill-rule="evenodd" clip-rule="evenodd" d="M250.725 21.6811C251.419 22.0281 251.981 22.5911 252.326 23.2853C253.217 25.0056 252.649 27.1208 251.018 28.1647C249.386 29.2085 247.228 28.837 246.039 27.3077C245.152 26.1497 245.008 24.5854 245.67 23.2853C246.016 22.5906 246.579 22.0275 247.274 21.6811C247.391 21.6235 247.529 21.6307 247.64 21.7002C247.75 21.7696 247.816 21.8914 247.815 22.0217V25.0005H250.187V22.0217C250.186 21.8922 250.252 21.7714 250.362 21.7021C250.471 21.6328 250.609 21.6249 250.725 21.6811Z" stroke="#131F4A" stroke-width="1.1" stroke-linecap="round" stroke-linejoin="round"/>
<circle cx="249.003" cy="25.0004" r="6.75281" stroke="#131F4A" stroke-width="1.1" stroke-linecap="round" stroke-linejoin="round"/>
<path d="M247.125 28.2456V31.4885" stroke="#131F4A" stroke-width="1.1" stroke-linecap="round" stroke-linejoin="round"/>
<path d="M250.875 28.2461V31.4882" stroke="#131F4A" stroke-width="1.1" stroke-linecap="round" stroke-linejoin="round"/>
<path d="M271.904 24.632C272.66 24.992 273.104 25.748 273.104 26.648C273.104 27.968 271.964 29.012 270.512 29.012H267.068V20.612H270.452C271.856 20.612 272.888 21.536 272.888 22.772C272.888 23.492 272.516 24.236 271.904 24.632ZM271.508 22.964C271.508 22.34 271.028 21.872 270.368 21.872H268.424V24.056H270.368C271.028 24.056 271.508 23.588 271.508 22.964ZM270.44 27.692C271.172 27.692 271.7 27.188 271.7 26.504C271.7 25.82 271.172 25.316 270.44 25.316H268.424V27.692H270.44ZM278.307 29.168C276.375 29.168 274.935 27.8 274.935 25.868V20.6H276.315V25.784C276.315 27.02 277.143 27.836 278.307 27.836C279.471 27.836 280.287 27.02 280.287 25.784V20.6H281.679V25.868C281.679 27.8 280.239 29.168 278.307 29.168ZM283.966 29V20.6H285.334V29H283.966ZM289.09 27.716H292.582V29H287.722V20.6H289.09V27.716ZM298.555 20.6V21.896H296.095V29H294.715V21.896H292.255V20.6H298.555ZM303.008 29V20.6H304.376V29H303.008ZM312.284 20.6H313.628V29H312.476L308.108 23.012V29H306.764V20.6H308L312.284 26.504V20.6ZM321.103 27.776H324.079V29H318.619V28.652C322.111 24.848 322.531 24.188 322.531 23.276C322.531 22.568 322.051 22.1 321.331 22.1C320.587 22.1 320.083 22.58 320.083 23.288V23.468H318.787V23.276C318.787 21.848 319.807 20.876 321.331 20.876C322.807 20.876 323.839 21.86 323.839 23.264C323.839 24.32 323.431 25.172 321.103 27.776ZM328.629 29.144C326.697 29.144 325.473 27.548 325.473 25.004C325.473 22.46 326.685 20.876 328.629 20.876C330.573 20.876 331.773 22.46 331.773 25.004C331.773 27.548 330.561 29.144 328.629 29.144ZM328.629 27.932C329.781 27.932 330.465 26.864 330.465 25.016C330.465 23.168 329.781 22.1 328.629 22.1C327.477 22.1 326.781 23.168 326.781 25.004C326.781 26.852 327.465 27.932 328.629 27.932ZM332.843 21.02H335.531V29H334.259V22.196H332.843V21.02ZM340.568 23.756C342.02 23.756 343.256 24.788 343.256 26.36C343.256 27.992 342.032 29.144 340.34 29.144C338.612 29.144 337.4 27.992 337.4 26.36C337.4 25.616 337.664 24.788 338.252 23.768L339.848 20.972H341.276C340.304 22.688 339.944 23.312 339.608 23.948C339.92 23.816 340.244 23.756 340.568 23.756ZM340.328 27.932C341.264 27.932 341.948 27.284 341.948 26.36C341.948 25.436 341.264 24.8 340.328 24.8C339.392 24.8 338.708 25.448 338.708 26.36C338.708 27.272 339.392 27.932 340.328 27.932Z" fill="#131F4A"/>
<rect x="8" y="50" width="212" height="34" rx="8" fill="#F7F9FC"/>
<path d="M25.25 73.75H22.25V70.75" stroke="#131F4A" stroke-width="1.1" stroke-linecap="round" stroke-linejoin="round"/>
<path d="M22.25 63.25V60.25H25.25" stroke="#131F4A" stroke-width="1.1" stroke-linecap="round" stroke-linejoin="round"/>
<path d="M35.75 70.75V73.75H32.75" stroke="#131F4A" stroke-width="1.1" stroke-linecap="round" stroke-linejoin="round"/>
<path d="M35.75 73.75L22.25 60.25" stroke="#131F4A" stroke-width="1.1" stroke-linecap="round" stroke-linejoin="round"/>
<path d="M35.75 60.25L22.25 73.75" stroke="#131F4A" stroke-width="1.1" stroke-linecap="round" stroke-linejoin="round"/>
<path d="M32.75 60.25H35.75V63.25" stroke="#131F4A" stroke-width="1.1" stroke-linecap="round" stroke-linejoin="round"/>
<path d="M49.708 65.756C51.16 65.756 52.396 66.788 52.396 68.36C52.396 69.992 51.172 71.144 49.48 71.144C47.752 71.144 46.54 69.992 46.54 68.36C46.54 67.616 46.804 66.788 47.392 65.768L48.988 62.972H50.416C49.444 64.688 49.084 65.312 48.748 65.948C49.06 65.816 49.384 65.756 49.708 65.756ZM49.468 69.932C50.404 69.932 51.088 69.284 51.088 68.36C51.088 67.436 50.404 66.8 49.468 66.8C48.532 66.8 47.848 67.448 47.848 68.36C47.848 69.272 48.532 69.932 49.468 69.932ZM58.2943 66.752C58.9543 67.148 59.3503 67.844 59.3503 68.648C59.3503 70.112 58.1623 71.156 56.4583 71.156C54.7303 71.156 53.5663 70.136 53.5663 68.648C53.5663 67.856 53.9503 67.16 54.6223 66.752C54.1183 66.356 53.8183 65.744 53.8183 65.072C53.8183 63.788 54.8983 62.876 56.4583 62.876C58.0183 62.876 59.0863 63.776 59.0863 65.072C59.0863 65.756 58.7863 66.38 58.2943 66.752ZM56.4583 63.956C55.6543 63.956 55.0903 64.436 55.0903 65.096C55.0903 65.768 55.6543 66.236 56.4583 66.236C57.2503 66.236 57.8023 65.768 57.8023 65.096C57.8023 64.436 57.2503 63.956 56.4583 63.956ZM56.4583 70.016C57.4063 70.016 58.0543 69.464 58.0543 68.66C58.0543 67.856 57.4063 67.304 56.4583 67.304C55.5103 67.304 54.8623 67.856 54.8623 68.66C54.8623 69.464 55.5103 70.016 56.4583 70.016ZM63.9469 71.144C62.0149 71.144 60.7909 69.548 60.7909 67.004C60.7909 64.46 62.0029 62.876 63.9469 62.876C65.8909 62.876 67.0909 64.46 67.0909 67.004C67.0909 69.548 65.8789 71.144 63.9469 71.144ZM63.9469 69.932C65.0989 69.932 65.7829 68.864 65.7829 67.016C65.7829 65.168 65.0989 64.1 63.9469 64.1C62.7949 64.1 62.0989 65.168 62.0989 67.004C62.0989 68.852 62.7829 69.932 63.9469 69.932ZM71.7104 71.144C69.7784 71.144 68.5544 69.548 68.5544 67.004C68.5544 64.46 69.7664 62.876 71.7104 62.876C73.6544 62.876 74.8544 64.46 74.8544 67.004C74.8544 69.548 73.6424 71.144 71.7104 71.144ZM71.7104 69.932C72.8624 69.932 73.5464 68.864 73.5464 67.016C73.5464 65.168 72.8624 64.1 71.7104 64.1C70.5584 64.1 69.8624 65.168 69.8624 67.004C69.8624 68.852 70.5464 69.932 71.7104 69.932ZM82.6653 71.132C80.7813 71.132 79.4973 70.076 79.4973 68.36H80.9013C80.9013 69.296 81.6693 69.824 82.6533 69.824C83.5533 69.824 84.3093 69.344 84.3093 68.576C84.3093 67.736 83.4093 67.532 82.4013 67.292C81.1173 66.98 79.6413 66.62 79.6413 64.892C79.6413 63.38 80.7933 62.48 82.5813 62.48C84.4053 62.48 85.4853 63.476 85.4853 65.06H84.1173C84.1173 64.22 83.4213 63.764 82.5453 63.764C81.7053 63.764 81.0213 64.148 81.0213 64.832C81.0213 65.612 81.8853 65.816 82.8813 66.056C84.1893 66.38 85.7253 66.752 85.7253 68.564C85.7253 70.244 84.3693 71.132 82.6653 71.132ZM96.0986 71.948H94.5386L93.4826 70.712C92.8826 71 92.1986 71.168 91.4546 71.168C88.8986 71.168 87.0266 69.296 87.0266 66.8C87.0266 64.316 88.8986 62.444 91.4546 62.444C93.9986 62.444 95.8826 64.316 95.8826 66.8C95.8826 68.132 95.3546 69.272 94.4666 70.064L96.0986 71.948ZM91.4546 69.836C91.8506 69.836 92.2226 69.764 92.5586 69.644L90.7226 67.508H92.2826L93.5786 69.008C94.1426 68.468 94.4786 67.7 94.4786 66.8C94.4786 65.072 93.1826 63.776 91.4546 63.776C89.7266 63.776 88.4186 65.084 88.4186 66.8C88.4186 68.528 89.7266 69.836 91.4546 69.836ZM102.568 63.896H99.1004V66.272H102.256V67.544H99.1004V71H97.7324V62.6H102.568V63.896ZM109.796 62.6V63.896H107.336V71H105.956V63.896H103.496V62.6H109.796ZM115.617 69.716H119.109V71H114.249V62.6H115.617V69.716ZM124.131 71.168C121.575 71.168 119.703 69.296 119.703 66.8C119.703 64.316 121.575 62.444 124.131 62.444C126.675 62.444 128.559 64.316 128.559 66.8C128.559 69.296 126.675 71.168 124.131 71.168ZM124.131 69.836C125.859 69.836 127.155 68.54 127.155 66.8C127.155 65.072 125.859 63.776 124.131 63.776C122.403 63.776 121.095 65.084 121.095 66.8C121.095 68.528 122.403 69.836 124.131 69.836ZM135.53 62.6V63.896H133.07V71H131.69V63.896H129.23V62.6H135.53Z" fill="#131F4A"/>
<rect x="228" y="50" width="212" height="34" rx="8" fill="#F7F9FC"/>
<path d="M243.172 68.7734L244.691 70.2936" stroke="#131F4A" stroke-width="1.1" stroke-linecap="round" stroke-linejoin="round"/>
<path d="M247.734 64.2139L249.255 65.734" stroke="#131F4A" stroke-width="1.1" stroke-linecap="round" stroke-linejoin="round"/>
<path d="M244.691 67.2539L245.705 68.2668" stroke="#131F4A" stroke-width="1.1" stroke-linecap="round" stroke-linejoin="round"/>
<path d="M246.211 65.7339L247.225 66.7468" stroke="#131F4A" stroke-width="1.1" stroke-linecap="round" stroke-linejoin="round"/>
<path d="M249.254 62.6934L250.267 63.707" stroke="#131F4A" stroke-width="1.1" stroke-linecap="round" stroke-linejoin="round"/>
<path d="M250.773 61.1743L251.787 62.1872" stroke="#131F4A" stroke-width="1.1" stroke-linecap="round" stroke-linejoin="round"/>
<path fill-rule="evenodd" clip-rule="evenodd" d="M242.665 71.3064C242.106 70.747 242.106 69.84 242.665 69.2805L251.279 60.6667C251.839 60.1073 252.746 60.1073 253.305 60.6667L255.332 62.6943C255.892 63.2537 255.892 64.1607 255.332 64.7201L246.719 73.3339C246.159 73.8934 245.252 73.8934 244.693 73.3339L242.665 71.3064Z" stroke="#131F4A" stroke-width="1.1" stroke-linecap="round" stroke-linejoin="round"/>
<path d="M272.456 68.648C272.456 70.028 271.484 70.904 270.068 71.084V71.996H268.976V71.084C267.404 70.916 266.468 69.92 266.468 68.42H267.812C267.812 69.344 268.556 69.848 269.504 69.848C270.368 69.848 271.1 69.38 271.1 68.66C271.1 67.868 270.26 67.676 269.288 67.46C268.04 67.172 266.6 66.836 266.6 65.132C266.6 63.836 267.476 63.02 268.88 62.852V62H269.996V62.852C271.412 63.044 272.216 63.968 272.216 65.36H270.908C270.908 64.52 270.248 64.064 269.396 64.064C268.604 64.064 267.932 64.424 267.932 65.072C267.932 65.804 268.748 65.996 269.696 66.224C270.968 66.524 272.456 66.884 272.456 68.648ZM277.018 66.02C278.266 66.236 279.094 67.22 279.094 68.504C279.094 70.04 277.918 71.144 276.346 71.144C274.834 71.144 273.73 70.1 273.67 68.6H274.954C275.002 69.392 275.566 69.932 276.346 69.932C277.186 69.932 277.786 69.32 277.786 68.456C277.786 67.604 277.138 67.016 276.226 67.016H275.218V66.776L276.874 64.208H273.898V63.02H278.782V63.296L277.018 66.02ZM283.666 71.144C281.734 71.144 280.51 69.548 280.51 67.004C280.51 64.46 281.722 62.876 283.666 62.876C285.61 62.876 286.81 64.46 286.81 67.004C286.81 69.548 285.598 71.144 283.666 71.144ZM283.666 69.932C284.818 69.932 285.502 68.864 285.502 67.016C285.502 65.168 284.818 64.1 283.666 64.1C282.514 64.1 281.818 65.168 281.818 67.004C281.818 68.852 282.502 69.932 283.666 69.932ZM290.925 62.876C292.641 62.876 293.841 64.028 293.841 65.66C293.841 66.404 293.601 67.244 293.001 68.264L291.405 71H289.977C290.937 69.356 291.297 68.72 291.645 68.084C291.345 68.204 291.021 68.264 290.697 68.264C289.161 68.264 288.009 67.148 288.009 65.66C288.009 64.028 289.233 62.876 290.925 62.876ZM290.937 67.22C291.873 67.22 292.569 66.572 292.569 65.66C292.569 64.748 291.873 64.088 290.937 64.088C289.989 64.088 289.293 64.748 289.293 65.66C289.293 66.584 289.989 67.22 290.937 67.22ZM302.055 62.6C303.687 62.6 304.923 63.788 304.923 65.384C304.923 66.968 303.699 68.156 302.055 68.156H300.327V71H298.959V62.6H302.055ZM301.995 66.848C302.895 66.848 303.519 66.224 303.519 65.384C303.519 64.532 302.895 63.908 301.995 63.908H300.327V66.848H301.995ZM311.358 71L309.546 67.892H307.95V71H306.582V62.6H309.846C311.466 62.6 312.666 63.716 312.666 65.264C312.666 66.404 311.982 67.316 310.962 67.7L312.906 71H311.358ZM307.95 63.896V66.608H309.762C310.674 66.608 311.262 66.044 311.262 65.252C311.262 64.472 310.674 63.896 309.762 63.896H307.95ZM314.639 71V62.6H316.007V71H314.639ZM322.174 71.156C319.69 71.156 317.854 69.32 317.854 66.812C317.854 64.292 319.69 62.456 322.174 62.456C324.154 62.456 325.75 63.692 326.194 65.588H324.802C324.394 64.472 323.41 63.788 322.174 63.788C320.494 63.788 319.258 65.06 319.258 66.812C319.258 68.564 320.494 69.824 322.174 69.824C323.458 69.824 324.442 69.092 324.826 67.904H326.23C325.786 69.884 324.19 71.156 322.174 71.156ZM329.295 69.704H332.931V71H327.927V62.6H332.799V63.896H329.295V66.092H332.487V67.352H329.295V69.704ZM341.195 62.6C342.827 62.6 344.063 63.788 344.063 65.384C344.063 66.968 342.839 68.156 341.195 68.156H339.467V71H338.099V62.6H341.195ZM341.135 66.848C342.035 66.848 342.659 66.224 342.659 65.384C342.659 64.532 342.035 63.908 341.135 63.908H339.467V66.848H341.135ZM347.089 69.704H350.725V71H345.721V62.6H350.593V63.896H347.089V66.092H350.281V67.352H347.089V69.704ZM357.405 71L355.593 67.892H353.997V71H352.629V62.6H355.893C357.513 62.6 358.713 63.716 358.713 65.264C358.713 66.404 358.029 67.316 357.009 67.7L358.953 71H357.405ZM353.997 63.896V66.608H355.809C356.721 66.608 357.309 66.044 357.309 65.252C357.309 64.472 356.721 63.896 355.809 63.896H353.997ZM366.565 71.132C364.681 71.132 363.397 70.076 363.397 68.36H364.801C364.801 69.296 365.569 69.824 366.553 69.824C367.453 69.824 368.209 69.344 368.209 68.576C368.209 67.736 367.309 67.532 366.301 67.292C365.017 66.98 363.541 66.62 363.541 64.892C363.541 63.38 364.693 62.48 366.481 62.48C368.305 62.48 369.385 63.476 369.385 65.06H368.017C368.017 64.22 367.321 63.764 366.445 63.764C365.605 63.764 364.921 64.148 364.921 64.832C364.921 65.612 365.785 65.816 366.781 66.056C368.089 66.38 369.625 66.752 369.625 68.564C369.625 70.244 368.269 71.132 366.565 71.132ZM379.999 71.948H378.439L377.383 70.712C376.783 71 376.099 71.168 375.355 71.168C372.799 71.168 370.927 69.296 370.927 66.8C370.927 64.316 372.799 62.444 375.355 62.444C377.899 62.444 379.783 64.316 379.783 66.8C379.783 68.132 379.255 69.272 378.367 70.064L379.999 71.948ZM375.355 69.836C375.751 69.836 376.123 69.764 376.459 69.644L374.623 67.508H376.183L377.479 69.008C378.043 68.468 378.379 67.7 378.379 66.8C378.379 65.072 377.083 63.776 375.355 63.776C373.627 63.776 372.319 65.084 372.319 66.8C372.319 68.528 373.627 69.836 375.355 69.836ZM386.468 63.896H383V66.272H386.156V67.544H383V71H381.632V62.6H386.468V63.896ZM393.696 62.6V63.896H391.236V71H389.856V63.896H387.396V62.6H393.696Z" fill="#131F4A"/>
</svg>
