<svg width="103" height="52" viewBox="0 0 103 52" fill="none" xmlns="http://www.w3.org/2000/svg">
<path d="M42.1066 32.5365C38.9763 34.8558 34.4317 36.0841 30.5121 36.0841C25.0156 36.0841 20.0771 34.043 16.3435 30.6814C16.0419 30.4267 16.3201 30.0547 16.6686 30.2642C20.7038 32.6069 25.6892 34.0213 30.8372 34.0213C34.316 34.0213 38.1418 33.3023 41.6424 31.8176C42.1753 31.5629 42.6161 32.1427 42.1066 32.5365Z" fill="#9CA3AF"/>
<path d="M43.4044 31.0283C43.0106 30.5188 40.76 30.797 39.7412 30.9126C39.4395 30.9596 39.3926 30.6814 39.6708 30.4954C41.4571 29.2436 44.4014 29.5905 44.7483 30.0312C45.0969 30.4485 44.6562 33.3928 42.9854 34.8088C42.7307 35.0183 42.476 34.901 42.5916 34.6228C42.9636 33.6726 43.7982 31.5628 43.4044 31.0283Z" fill="#9CA3AF"/>
<path d="M39.81 21.5903V20.3619C39.81 20.1759 39.9491 20.0603 40.1116 20.0603H45.6081C45.7941 20.0603 45.9332 20.1759 45.9332 20.3619V21.4059C45.9332 21.592 45.7941 21.8232 45.516 22.1718L42.6638 26.2305C43.7313 26.207 44.844 26.3696 45.7941 26.9025C46.0036 27.0181 46.0723 27.2041 46.0958 27.3901V28.6889C46.0958 28.8749 45.8863 29.0827 45.702 28.967C44.0095 28.0856 41.7606 27.9934 39.9055 28.967C39.7195 29.0592 39.5117 28.8749 39.5117 28.6889V27.4371C39.5117 27.2276 39.5117 26.9042 39.7212 26.6025L43.0141 21.8718H40.1385C39.9491 21.8919 39.81 21.7763 39.81 21.5903Z" fill="#9CA3AF"/>
<path d="M19.7988 29.2436H18.1298C17.9672 29.2202 17.8516 29.1045 17.8281 28.9654V20.3855C17.8281 20.2229 17.9672 20.0838 18.1532 20.0838H19.7067C19.8692 20.0838 20.0083 20.2229 20.0083 20.362V21.4747H20.0317C20.449 20.3855 21.1914 19.8978 22.2354 19.8978C23.2794 19.8978 23.9279 20.4073 24.4155 21.4747C24.8093 20.3855 25.7377 19.8978 26.7113 19.8978C27.4068 19.8978 28.1726 20.176 28.6368 20.8262C29.1697 21.5451 29.054 22.5891 29.054 23.5158V28.9185C29.054 29.0811 28.9149 29.2202 28.7289 29.2202H27.0599C26.8973 29.1967 26.7582 29.0811 26.7582 28.9185V24.3738C26.7582 24.0035 26.7817 23.0986 26.7113 22.7735C26.5957 22.1936 26.2237 22.0311 25.7377 22.0311C25.3439 22.0311 24.9032 22.3093 24.7406 22.7265C24.5781 23.1673 24.5781 23.8862 24.5781 24.3721V28.9168C24.5781 29.0794 24.439 29.2185 24.253 29.2185H22.5806C22.418 29.195 22.2789 29.0794 22.2789 28.9168V24.3721C22.2789 23.422 22.4415 22.0076 21.2584 22.0076C20.0519 22.0076 20.0988 23.3751 20.0988 24.3721V28.9168C20.1005 29.1045 19.9614 29.2436 19.7988 29.2436Z" fill="#9CA3AF"/>
<path d="M50.6633 19.8978C53.1451 19.8978 54.4891 22.0311 54.4891 24.7207C54.4891 27.3416 53.0043 29.4045 50.6633 29.4045C48.2284 29.4045 46.9062 27.2712 46.9062 24.6269C46.9063 21.9624 48.2519 19.8978 50.6633 19.8978ZM50.6633 21.6373C49.435 21.6373 49.3646 23.3064 49.3646 24.3504C49.3646 25.3944 49.3411 27.6433 50.6633 27.6433C51.962 27.6433 52.0089 25.8351 52.0089 24.7442C52.0089 24.0253 51.9855 23.1673 51.7542 22.4718C51.5682 21.8685 51.1962 21.6373 50.6633 21.6373Z" fill="#9CA3AF"/>
<path d="M57.6894 29.2436H56.0204C55.8578 29.2202 55.7188 29.1045 55.7188 28.942V20.362C55.7422 20.1995 55.8813 20.0838 56.0438 20.0838H57.5973C57.7364 20.0838 57.852 20.1995 57.8989 20.3151V21.6373H57.9224C58.3866 20.4542 59.0351 19.8978 60.1947 19.8978C60.9371 19.8978 61.6794 20.176 62.1419 20.9184C62.5827 21.6138 62.5827 22.75 62.5827 23.5845V28.9872C62.5592 29.1263 62.4201 29.2654 62.2576 29.2654H60.5885C60.426 29.2419 60.3103 29.1498 60.2869 28.9872V24.3269C60.2869 23.3985 60.4025 22.0076 59.2429 22.0076C58.8256 22.0076 58.4553 22.2858 58.2693 22.7031C58.038 23.236 58.0145 23.7471 58.0145 24.3269V28.942C58.0145 29.1045 57.8755 29.2436 57.6894 29.2436Z" fill="#9CA3AF"/>
<path d="M63.625 28.5481C63.625 28.1074 63.9953 27.7605 64.4361 27.7605C64.9003 27.7605 65.2471 28.1091 65.2471 28.5481C65.2471 28.9872 64.8768 29.3357 64.4361 29.3357C63.997 29.3357 63.625 28.9888 63.625 28.5481Z" fill="#9CA3AF"/>
<path d="M81.3407 29.2435C81.1782 29.2435 81.0391 29.1045 81.0391 28.9419V20.3619C81.0391 20.1994 81.1782 20.0838 81.3407 20.0838H81.944C82.1065 20.0838 82.2456 20.1994 82.2691 20.3619V21.6137C82.7098 20.6167 83.5209 19.8508 84.5414 19.8508H84.6118H84.6822C85.7714 19.8508 86.5607 20.6619 86.8623 21.8215C87.3265 20.6619 88.1845 19.8508 89.3441 19.8508H89.4145H89.4849C90.2959 19.8508 91.0852 20.3603 91.479 21.173C91.8728 21.9388 91.8494 22.9359 91.8494 23.7939V28.9419C91.8494 29.1045 91.7103 29.2435 91.5477 29.2435H90.8054C90.6428 29.2435 90.5272 29.1279 90.5037 28.9654V23.7705C90.5037 23.1672 90.5272 22.4952 90.2943 21.9388C90.0396 21.359 89.5519 21.0105 89.0425 20.9887C88.4627 21.0121 87.9298 21.4529 87.5812 22.0092C87.1405 22.7516 87.1405 23.4236 87.1405 24.2816V28.9654C87.117 29.1045 87.0014 29.2201 86.8389 29.2201H86.12C85.9574 29.2201 85.8183 29.081 85.8183 28.9184V23.4219C85.8183 22.9125 85.7949 22.3327 85.5636 21.8685C85.2854 21.359 84.7978 21.0105 84.3118 20.987C83.7789 21.0105 83.2444 21.4277 82.9444 21.8919C82.5271 22.4952 82.4568 23.2376 82.4568 23.9783V28.9168C82.4568 29.0793 82.3177 29.2184 82.1551 29.2184H81.3441" fill="#9CA3AF"/>
<path d="M76.3109 29.4296C73.9464 29.4296 72.8789 27.0181 72.8789 24.6067C72.8789 22.0562 74.1307 19.8525 76.5203 19.8525H76.5907H76.6577C78.977 19.8525 80.1366 22.1953 80.1366 24.6067C80.1366 27.1572 78.8614 29.4296 76.4499 29.4296H76.3796H76.3109ZM76.4734 28.2465C77.261 28.223 77.8643 27.7371 78.2363 26.9243C78.5614 26.2054 78.6301 25.3709 78.6301 24.5816C78.6301 23.7236 78.5379 22.8187 78.1207 22.078C77.7503 21.4294 77.1236 21.0105 76.4751 20.9887C75.7327 21.0122 75.0842 21.5216 74.7356 22.2874C74.434 22.9594 74.3418 23.8409 74.3418 24.5832C74.3418 25.4178 74.4575 26.3696 74.7826 27.0869C75.1278 27.7823 75.7763 28.223 76.4734 28.2465Z" fill="#9CA3AF"/>
<path d="M68.889 28.1996C69.9564 28.1762 70.5128 27.3182 70.744 26.2054C70.7909 26.0664 70.9066 25.9507 71.0457 25.9507H71.7411C71.9037 25.9507 72.0662 26.0898 72.0427 26.2289C71.7176 28.1074 70.5815 29.3827 68.9593 29.3827H68.9124H68.842C66.4775 29.3827 65.4805 27.0182 65.4805 24.6285C65.4805 22.2406 66.501 19.8057 68.8655 19.8057H68.9359H69.0063C70.6519 19.8057 71.8115 21.0575 72.0679 22.936C72.0679 23.0751 71.9288 23.1907 71.7897 23.2142H71.0473C70.8848 23.1907 70.7926 23.0516 70.7692 22.9125C70.5832 21.8685 69.9816 21.034 68.9828 20.9871C67.3825 21.034 66.9183 23.0047 66.9183 24.5112C66.9166 26.0194 67.2886 28.1544 68.889 28.1996Z" fill="#9CA3AF"/>
<path d="M38.4199 27.6667C38.1182 27.2494 37.7931 26.9009 37.7931 26.1133V23.5158C37.7931 22.4031 37.8635 21.406 37.0508 20.6402C36.4022 20.0135 35.3582 19.8057 34.5472 19.8057C32.9703 19.8057 31.1856 20.4089 30.8136 22.3562C30.7667 22.5657 30.9292 22.6813 31.0683 22.7048L32.6921 22.8673C32.8547 22.8673 32.9468 22.7048 32.9937 22.5657C33.1328 21.8937 33.6892 21.5686 34.3394 21.5686C34.6879 21.5686 35.0817 21.6842 35.2678 22.0093C35.499 22.3579 35.4772 22.8204 35.4772 23.2159V23.4253C34.5036 23.541 33.2518 23.6113 32.3469 24.0052C31.3029 24.4459 30.5605 25.3726 30.5605 26.7417C30.5605 28.4811 31.6498 29.3391 33.0641 29.3391C34.2472 29.3391 34.8957 29.061 35.8241 28.1326C36.1257 28.5733 36.2179 28.7811 36.7743 29.2453C36.8899 29.3157 37.0524 29.3157 37.1681 29.1984C37.4932 28.8967 38.1182 28.3638 38.4433 28.0857C38.5355 27.9918 38.512 27.8293 38.4199 27.6667ZM35.127 26.9244C34.8723 27.3885 34.4315 27.6902 33.9674 27.6902C33.3188 27.6902 32.9468 27.2025 32.9468 26.4836C32.9468 25.0693 34.2221 24.7911 35.4286 24.7911V25.1614C35.4504 25.7882 35.4504 26.3445 35.127 26.9244Z" fill="#9CA3AF"/>
<path d="M16.5055 27.6668C16.2039 27.2496 15.8788 26.901 15.8788 26.1134V23.516C15.8788 22.4032 15.9492 21.4062 15.1364 20.6403C14.4879 20.0136 13.4439 19.8058 12.6329 19.8058C11.056 19.8058 9.27129 20.4091 8.89927 22.3563C8.85235 22.5658 9.0149 22.6814 9.15398 22.7049L10.7778 22.8674C10.9169 22.8674 11.0325 22.7049 11.056 22.5658C11.1951 21.8938 11.7514 21.5687 12.4016 21.5687C12.7502 21.5687 13.144 21.6843 13.33 22.0094C13.5612 22.358 13.5394 22.8205 13.5394 23.216V23.4255C12.5658 23.5411 11.314 23.6115 10.4091 24.0053C9.36345 24.4661 8.62109 25.3945 8.62109 26.7619C8.62109 28.5014 9.71034 29.3594 11.1247 29.3594C12.3078 29.3594 12.9563 29.0812 13.8846 28.1528C14.1863 28.5935 14.2785 28.8013 14.8348 29.2655C14.9504 29.3359 15.113 29.3359 15.2286 29.2186C15.5537 28.917 16.1788 28.3841 16.5039 28.1059C16.6446 27.9919 16.6212 27.8294 16.5055 27.6668ZM13.2361 26.9245C12.9814 27.3887 12.5407 27.6903 12.0765 27.6903C11.428 27.6903 11.056 27.2027 11.056 26.4837C11.056 25.0694 12.3312 24.7912 13.5378 24.7912V25.1616C13.5378 25.7883 13.5596 26.3447 13.2361 26.9245Z" fill="#9CA3AF"/>
<path d="M93.5377 20.176C93.9315 20.176 94.2801 20.5011 94.2801 20.9183C94.2801 21.3121 93.955 21.6607 93.5377 21.6607C93.1439 21.6607 92.7953 21.3356 92.7953 20.9183C92.8188 20.5011 93.1439 20.176 93.5377 20.176ZM93.5377 20.0369C93.0735 20.0369 92.6562 20.4072 92.6562 20.9183C92.6562 21.406 93.05 21.7998 93.5377 21.7998C94.0253 21.7998 94.4191 21.406 94.4191 20.9183C94.4191 20.4089 94.0253 20.0369 93.5377 20.0369ZM93.2126 21.406H93.3986V21.0122H93.5612C93.6315 21.0122 93.6533 21.0356 93.6533 21.1043C93.6533 21.1278 93.6768 21.3591 93.7002 21.406H93.9097C93.8863 21.3591 93.8628 21.22 93.8628 21.1513C93.8393 21.0356 93.8393 20.9418 93.7002 20.92C93.7706 20.8965 93.8863 20.8496 93.8863 20.6887C93.8863 20.434 93.655 20.434 93.5377 20.434H93.2126V21.406ZM93.3986 20.5714H93.5612C93.6081 20.5714 93.7002 20.5714 93.7002 20.7105C93.7002 20.7574 93.6768 20.8496 93.5612 20.8496H93.3986V20.5714Z" fill="#9CA3AF"/>
</svg>
