<svg width="243" height="241" viewBox="0 0 243 241" fill="none" xmlns="http://www.w3.org/2000/svg">
<g filter="url(#filter0_dd_4802_25144)">
<rect x="4" y="1" width="235" height="44" rx="12" fill="url(#paint0_linear_4802_25144)" shape-rendering="crispEdges"/>
<rect x="4.5" y="1.5" width="234" height="43" rx="11.5" stroke="#DDE5F3" shape-rendering="crispEdges"/>
<path d="M37 20.375L30.75 26.625L27 22.875" stroke="#1CCFB8" stroke-width="1.5" stroke-linecap="round" stroke-linejoin="round"/>
<path d="M54.928 27.656H60.032V29H53.52V17.8H59.856V19.144H54.928V22.6H59.44V23.896H54.928V27.656ZM69.4079 20.36H70.4799V29H69.3599L69.2159 27.704C68.4159 28.632 67.2319 29.192 65.8239 29.192C63.2639 29.192 61.3439 27.256 61.3439 24.696C61.3439 22.104 63.2639 20.184 65.8239 20.184C67.2319 20.184 68.4319 20.744 69.2319 21.688L69.4079 20.36ZM65.9199 27.88C67.7599 27.88 69.0879 26.52 69.0879 24.68C69.0879 22.856 67.7599 21.496 65.9199 21.496C64.0959 21.496 62.7359 22.872 62.7359 24.68C62.7359 26.504 64.0959 27.88 65.9199 27.88ZM75.9554 29.192C73.9074 29.192 72.5794 28.104 72.4994 26.36H73.8434C73.9074 27.384 74.7874 27.944 76.0034 27.944C77.1874 27.944 78.0354 27.432 78.0354 26.6C78.0354 25.576 76.9634 25.384 75.7954 25.192C74.3234 24.936 72.6594 24.632 72.6594 22.68C72.6594 21.192 73.9714 20.184 75.9234 20.184C77.8754 20.184 79.1234 21.224 79.1714 22.856H77.8914C77.8434 21.912 77.1074 21.4 75.8914 21.4C74.7234 21.4 73.9874 21.88 73.9874 22.632C73.9874 23.544 74.9794 23.72 76.1314 23.896C77.6194 24.136 79.3794 24.424 79.3794 26.536C79.3794 28.152 78.0034 29.192 75.9554 29.192ZM87.5081 20.36H88.9641L84.8361 29.368C83.9081 31.416 83.0921 32.088 81.4601 32.088H80.6441V30.856H81.3321C82.5001 30.856 82.9001 30.504 83.6041 29.064L83.9081 28.424L80.0681 20.36H81.5401L84.6121 26.904L87.5081 20.36ZM101.705 20.36H102.777V29H101.657L101.513 27.704C100.713 28.632 99.5288 29.192 98.1208 29.192C95.5608 29.192 93.6408 27.256 93.6408 24.696C93.6408 22.104 95.5608 20.184 98.1208 20.184C99.5288 20.184 100.729 20.744 101.529 21.688L101.705 20.36ZM98.2168 27.88C100.057 27.88 101.385 26.52 101.385 24.68C101.385 22.856 100.057 21.496 98.2168 21.496C96.3928 21.496 95.0328 22.872 95.0328 24.68C95.0328 26.504 96.3928 27.88 98.2168 27.88ZM110.108 20.184C112.684 20.184 114.54 22.104 114.54 24.68C114.54 27.256 112.684 29.192 110.108 29.192C108.812 29.192 107.676 28.696 106.876 27.848V32.088H105.516V20.36H106.46L106.732 21.688C107.532 20.744 108.716 20.184 110.108 20.184ZM110.012 27.88C111.836 27.88 113.18 26.52 113.18 24.68C113.18 22.856 111.836 21.496 110.012 21.496C108.172 21.496 106.828 22.872 106.828 24.68C106.828 26.504 108.172 27.88 110.012 27.88ZM121.202 20.184C123.778 20.184 125.634 22.104 125.634 24.68C125.634 27.256 123.778 29.192 121.202 29.192C119.906 29.192 118.77 28.696 117.97 27.848V32.088H116.61V20.36H117.554L117.826 21.688C118.626 20.744 119.81 20.184 121.202 20.184ZM121.106 27.88C122.93 27.88 124.274 26.52 124.274 24.68C124.274 22.856 122.93 21.496 121.106 21.496C119.266 21.496 117.922 22.872 117.922 24.68C117.922 26.504 119.266 27.88 121.106 27.88ZM127.704 29V17.288H129.064V29H127.704ZM131.75 18.872V17.32H133.222V18.872H131.75ZM131.798 29V20.36H133.158V29H131.798ZM139.699 29.192C137.139 29.192 135.203 27.256 135.203 24.68C135.203 22.104 137.139 20.184 139.699 20.184C141.763 20.184 143.379 21.4 143.907 23.288H142.547C142.051 22.168 140.979 21.496 139.699 21.496C137.923 21.496 136.595 22.888 136.595 24.68C136.595 26.488 137.939 27.88 139.699 27.88C140.963 27.88 142.019 27.208 142.547 26.056H143.923C143.395 27.96 141.747 29.192 139.699 29.192ZM153.189 20.36H154.261V29H153.141L152.997 27.704C152.197 28.632 151.013 29.192 149.605 29.192C147.045 29.192 145.125 27.256 145.125 24.696C145.125 22.104 147.045 20.184 149.605 20.184C151.013 20.184 152.213 20.744 153.013 21.688L153.189 20.36ZM149.701 27.88C151.541 27.88 152.869 26.52 152.869 24.68C152.869 22.856 151.541 21.496 149.701 21.496C147.877 21.496 146.517 22.872 146.517 24.68C146.517 26.504 147.877 27.88 149.701 27.88ZM160.585 27.752H161.529V29H160.409C158.553 29 157.401 27.864 157.401 25.992V21.592H155.881V21.352L158.553 18.536H158.761V20.36H161.481V21.592H158.761V25.944C158.761 27.112 159.401 27.752 160.585 27.752ZM163.296 18.872V17.32H164.768V18.872H163.296ZM163.344 29V20.36H164.704V29H163.344ZM171.342 29.192C168.718 29.192 166.75 27.272 166.75 24.68C166.75 22.088 168.718 20.184 171.342 20.184C173.95 20.184 175.918 22.104 175.918 24.68C175.918 27.272 173.95 29.192 171.342 29.192ZM171.342 27.88C173.182 27.88 174.526 26.536 174.526 24.696C174.526 22.84 173.182 21.496 171.342 21.496C169.486 21.496 168.142 22.84 168.142 24.68C168.142 26.536 169.486 27.88 171.342 27.88ZM182.305 20.184C184.369 20.184 185.649 21.72 185.649 23.832V29H184.289V24.152C184.289 22.408 183.457 21.416 181.969 21.416C180.481 21.416 179.345 22.68 179.345 24.296V29H177.985V20.36H178.961L179.217 21.72C179.873 20.76 180.977 20.184 182.305 20.184Z" fill="#333B57"/>
</g>
<g filter="url(#filter1_dd_4802_25144)">
<rect x="4" y="61" width="235" height="44" rx="12" fill="url(#paint1_linear_4802_25144)" shape-rendering="crispEdges"/>
<rect x="4.5" y="61.5" width="234" height="43" rx="11.5" stroke="#DDE5F3" shape-rendering="crispEdges"/>
<path d="M37 80.375L30.75 86.625L27 82.875" stroke="#1CCFB8" stroke-width="1.5" stroke-linecap="round" stroke-linejoin="round"/>
<path d="M58.496 89.176C55.168 89.176 52.752 86.76 52.752 83.416C52.752 80.056 55.168 77.64 58.496 77.64C61.088 77.64 63.168 79.176 63.808 81.592H62.368C61.776 79.976 60.336 79 58.496 79C56 79 54.192 80.84 54.192 83.416C54.192 85.992 56 87.8 58.496 87.8C60.384 87.8 61.84 86.776 62.432 85.064H63.856C63.216 87.592 61.136 89.176 58.496 89.176ZM69.6859 89.192C67.0619 89.192 65.0939 87.272 65.0939 84.68C65.0939 82.088 67.0619 80.184 69.6859 80.184C72.2939 80.184 74.2619 82.104 74.2619 84.68C74.2619 87.272 72.2939 89.192 69.6859 89.192ZM69.6859 87.88C71.5259 87.88 72.8699 86.536 72.8699 84.696C72.8699 82.84 71.5259 81.496 69.6859 81.496C67.8299 81.496 66.4859 82.84 66.4859 84.68C66.4859 86.536 67.8299 87.88 69.6859 87.88ZM85.8808 80.184C87.7048 80.184 88.9208 81.544 88.9208 83.48V89H87.5608V83.912C87.5608 82.344 86.8408 81.416 85.6088 81.416C84.3448 81.416 83.3048 82.632 83.3048 84.216V89H81.9608V83.912C81.9608 82.344 81.2408 81.416 79.9928 81.416C78.7288 81.416 77.6888 82.632 77.6888 84.216V89H76.3288V80.36H77.3048L77.5288 81.56C78.2008 80.696 79.2088 80.184 80.2968 80.184C81.5288 80.184 82.4728 80.808 82.9528 81.816C83.5928 80.808 84.6968 80.184 85.8808 80.184ZM96.1239 80.184C98.6999 80.184 100.556 82.104 100.556 84.68C100.556 87.256 98.6999 89.192 96.1239 89.192C94.8279 89.192 93.6919 88.696 92.8919 87.848V92.088H91.5319V80.36H92.4759L92.7479 81.688C93.5479 80.744 94.7319 80.184 96.1239 80.184ZM96.0279 87.88C97.8519 87.88 99.1959 86.52 99.1959 84.68C99.1959 82.856 97.8519 81.496 96.0279 81.496C94.1879 81.496 92.8439 82.872 92.8439 84.68C92.8439 86.504 94.1879 87.88 96.0279 87.88ZM110.706 84.728C110.706 84.888 110.69 85.048 110.674 85.208H103.314C103.522 86.808 104.722 87.864 106.354 87.864C107.554 87.864 108.514 87.304 109.042 86.376H110.482C109.746 88.152 108.226 89.192 106.354 89.192C103.842 89.192 101.954 87.256 101.954 84.68C101.954 82.12 103.842 80.184 106.354 80.184C108.978 80.184 110.706 82.2 110.706 84.728ZM106.354 81.464C104.786 81.464 103.618 82.456 103.346 83.96H109.346C109.058 82.424 107.89 81.464 106.354 81.464ZM116.225 87.752H117.169V89H116.049C114.193 89 113.041 87.864 113.041 85.992V81.592H111.521V81.352L114.193 78.536H114.401V80.36H117.121V81.592H114.401V85.944C114.401 87.112 115.041 87.752 116.225 87.752ZM118.937 78.872V77.32H120.409V78.872H118.937ZM118.985 89V80.36H120.345V89H118.985ZM126.663 87.752H127.607V89H126.487C124.631 89 123.479 87.864 123.479 85.992V81.592H121.959V81.352L124.631 78.536H124.839V80.36H127.559V81.592H124.839V85.944C124.839 87.112 125.479 87.752 126.663 87.752ZM129.375 78.872V77.32H130.847V78.872H129.375ZM129.423 89V80.36H130.783V89H129.423ZM139.612 80.36H141.004L137.372 89H136.124L132.396 80.36H133.804L136.748 87.24L139.612 80.36ZM150.503 84.728C150.503 84.888 150.487 85.048 150.47 85.208H143.111C143.319 86.808 144.519 87.864 146.151 87.864C147.351 87.864 148.311 87.304 148.839 86.376H150.279C149.543 88.152 148.023 89.192 146.151 89.192C143.639 89.192 141.751 87.256 141.751 84.68C141.751 82.12 143.639 80.184 146.151 80.184C148.775 80.184 150.503 82.2 150.503 84.728ZM146.151 81.464C144.583 81.464 143.414 82.456 143.143 83.96H149.142C148.855 82.424 147.687 81.464 146.151 81.464ZM160.671 80.328H161.439V81.608H160.559C158.975 81.608 158.079 82.632 158.079 84.312V89H156.719V80.36H157.695L157.903 81.688C158.527 80.792 159.423 80.328 160.671 80.328ZM170.002 80.36H171.074V89H169.954L169.81 87.704C169.01 88.632 167.826 89.192 166.418 89.192C163.858 89.192 161.938 87.256 161.938 84.696C161.938 82.104 163.858 80.184 166.418 80.184C167.826 80.184 169.026 80.744 169.826 81.688L170.002 80.36ZM166.514 87.88C168.354 87.88 169.682 86.52 169.682 84.68C169.682 82.856 168.354 81.496 166.514 81.496C164.69 81.496 163.33 82.872 163.33 84.68C163.33 86.504 164.69 87.88 166.514 87.88ZM177.397 87.752H178.341V89H177.221C175.365 89 174.213 87.864 174.213 85.992V81.592H172.693V81.352L175.365 78.536H175.573V80.36H178.293V81.592H175.573V85.944C175.573 87.112 176.213 87.752 177.397 87.752ZM188.128 84.728C188.128 84.888 188.112 85.048 188.095 85.208H180.736C180.944 86.808 182.144 87.864 183.776 87.864C184.976 87.864 185.936 87.304 186.464 86.376H187.904C187.168 88.152 185.648 89.192 183.776 89.192C181.264 89.192 179.376 87.256 179.376 84.68C179.376 82.12 181.264 80.184 183.776 80.184C186.4 80.184 188.128 82.2 188.128 84.728ZM183.776 81.464C182.208 81.464 181.039 82.456 180.768 83.96H186.767C186.48 82.424 185.312 81.464 183.776 81.464ZM192.893 89.192C190.845 89.192 189.517 88.104 189.437 86.36H190.781C190.845 87.384 191.725 87.944 192.941 87.944C194.125 87.944 194.973 87.432 194.973 86.6C194.973 85.576 193.901 85.384 192.733 85.192C191.261 84.936 189.597 84.632 189.597 82.68C189.597 81.192 190.909 80.184 192.861 80.184C194.813 80.184 196.061 81.224 196.109 82.856H194.829C194.781 81.912 194.045 81.4 192.829 81.4C191.661 81.4 190.925 81.88 190.925 82.632C190.925 83.544 191.917 83.72 193.069 83.896C194.557 84.136 196.317 84.424 196.317 86.536C196.317 88.152 194.941 89.192 192.893 89.192Z" fill="#333B57"/>
</g>
<g filter="url(#filter2_dd_4802_25144)">
<rect x="4" y="121" width="235" height="44" rx="12" fill="url(#paint2_linear_4802_25144)" shape-rendering="crispEdges"/>
<rect x="4.5" y="121.5" width="234" height="43" rx="11.5" stroke="#DDE5F3" shape-rendering="crispEdges"/>
<path d="M37 140.375L30.75 146.625L27 142.875" stroke="#1CCFB8" stroke-width="1.5" stroke-linecap="round" stroke-linejoin="round"/>
<path d="M57.536 137.8C59.648 137.8 61.248 139.336 61.248 141.4C61.248 143.448 59.664 144.984 57.536 144.984H54.928V149H53.52V137.8H57.536ZM57.472 143.624C58.832 143.624 59.824 142.68 59.824 141.4C59.824 140.12 58.832 139.16 57.472 139.16H54.928V143.624H57.472ZM71.1119 144.728C71.1119 144.888 71.0959 145.048 71.0799 145.208H63.7199C63.9279 146.808 65.1279 147.864 66.7599 147.864C67.9599 147.864 68.9199 147.304 69.4479 146.376H70.8879C70.1519 148.152 68.6319 149.192 66.7599 149.192C64.2479 149.192 62.3599 147.256 62.3599 144.68C62.3599 142.12 64.2479 140.184 66.7599 140.184C69.3839 140.184 71.1119 142.2 71.1119 144.728ZM66.7599 141.464C65.1919 141.464 64.0239 142.456 63.7519 143.96H69.7519C69.4639 142.424 68.2959 141.464 66.7599 141.464ZM77.0933 140.328H77.8613V141.608H76.9813C75.3973 141.608 74.5013 142.632 74.5013 144.312V149H73.1413V140.36H74.1173L74.3253 141.688C74.9493 140.792 75.8453 140.328 77.0933 140.328ZM81.9866 149.192C79.9386 149.192 78.6106 148.104 78.5306 146.36H79.8746C79.9386 147.384 80.8186 147.944 82.0346 147.944C83.2186 147.944 84.0666 147.432 84.0666 146.6C84.0666 145.576 82.9946 145.384 81.8266 145.192C80.3546 144.936 78.6906 144.632 78.6906 142.68C78.6906 141.192 80.0026 140.184 81.9546 140.184C83.9066 140.184 85.1546 141.224 85.2026 142.856H83.9226C83.8746 141.912 83.1386 141.4 81.9226 141.4C80.7546 141.4 80.0186 141.88 80.0186 142.632C80.0186 143.544 81.0106 143.72 82.1626 143.896C83.6506 144.136 85.4106 144.424 85.4106 146.536C85.4106 148.152 84.0346 149.192 81.9866 149.192ZM91.3578 149.192C88.7338 149.192 86.7658 147.272 86.7658 144.68C86.7658 142.088 88.7338 140.184 91.3578 140.184C93.9658 140.184 95.9338 142.104 95.9338 144.68C95.9338 147.272 93.9658 149.192 91.3578 149.192ZM91.3578 147.88C93.1978 147.88 94.5417 146.536 94.5417 144.696C94.5417 142.84 93.1978 141.496 91.3578 141.496C89.5018 141.496 88.1578 142.84 88.1578 144.68C88.1578 146.536 89.5018 147.88 91.3578 147.88ZM102.321 140.184C104.385 140.184 105.665 141.72 105.665 143.832V149H104.305V144.152C104.305 142.408 103.473 141.416 101.985 141.416C100.497 141.416 99.3606 142.68 99.3606 144.296V149H98.0006V140.36H98.9766L99.2326 141.72C99.8886 140.76 100.993 140.184 102.321 140.184ZM115.642 140.36H116.714V149H115.594L115.45 147.704C114.65 148.632 113.466 149.192 112.058 149.192C109.498 149.192 107.578 147.256 107.578 144.696C107.578 142.104 109.498 140.184 112.058 140.184C113.466 140.184 114.666 140.744 115.466 141.688L115.642 140.36ZM112.154 147.88C113.994 147.88 115.322 146.52 115.322 144.68C115.322 142.856 113.994 141.496 112.154 141.496C110.33 141.496 108.97 142.872 108.97 144.68C108.97 146.504 110.33 147.88 112.154 147.88ZM119.454 149V137.288H120.814V149H119.454ZM123.5 138.872V137.32H124.972V138.872H123.5ZM123.548 149V140.36H124.908V149H123.548ZM128.857 147.736H133.449V149H126.681V148.808L131.257 141.624H126.969V140.36H133.417V140.6L128.857 147.736ZM143.268 144.728C143.268 144.888 143.252 145.048 143.236 145.208H135.876C136.084 146.808 137.284 147.864 138.916 147.864C140.116 147.864 141.076 147.304 141.604 146.376H143.044C142.308 148.152 140.788 149.192 138.916 149.192C136.404 149.192 134.516 147.256 134.516 144.68C134.516 142.12 136.404 140.184 138.916 140.184C141.54 140.184 143.268 142.2 143.268 144.728ZM138.916 141.464C137.348 141.464 136.18 142.456 135.908 143.96H141.908C141.62 142.424 140.452 141.464 138.916 141.464ZM152.274 137.288H153.634V149.016H152.578L152.402 147.784C151.602 148.664 150.434 149.192 149.074 149.192C146.482 149.192 144.61 147.256 144.61 144.696C144.61 142.104 146.482 140.184 149.074 140.184C150.354 140.184 151.474 140.664 152.274 141.464V137.288ZM149.17 147.88C151.01 147.88 152.354 146.504 152.354 144.696C152.354 142.872 151.01 141.496 149.17 141.496C147.346 141.496 146.002 142.856 146.002 144.696C146.002 146.52 147.346 147.88 149.17 147.88ZM163.299 149.192C161.251 149.192 159.923 148.104 159.843 146.36H161.187C161.251 147.384 162.131 147.944 163.347 147.944C164.531 147.944 165.379 147.432 165.379 146.6C165.379 145.576 164.307 145.384 163.139 145.192C161.667 144.936 160.003 144.632 160.003 142.68C160.003 141.192 161.315 140.184 163.267 140.184C165.219 140.184 166.467 141.224 166.515 142.856H165.235C165.187 141.912 164.451 141.4 163.235 141.4C162.067 141.4 161.331 141.88 161.331 142.632C161.331 143.544 162.323 143.72 163.475 143.896C164.963 144.136 166.723 144.424 166.723 146.536C166.723 148.152 165.347 149.192 163.299 149.192ZM172.446 149.192C170.126 149.192 168.622 147.688 168.622 145.368V140.36H169.982V145.144C169.982 146.84 170.926 147.88 172.446 147.88C173.998 147.88 174.926 146.824 174.926 145.144V140.36H176.286V145.368C176.286 147.688 174.798 149.192 172.446 149.192ZM183.468 140.184C186.044 140.184 187.9 142.104 187.9 144.68C187.9 147.256 186.044 149.192 183.468 149.192C182.172 149.192 181.036 148.696 180.236 147.848V152.088H178.876V140.36H179.82L180.092 141.688C180.892 140.744 182.076 140.184 183.468 140.184ZM183.372 147.88C185.196 147.88 186.54 146.52 186.54 144.68C186.54 142.856 185.196 141.496 183.372 141.496C181.532 141.496 180.188 142.872 180.188 144.68C180.188 146.504 181.532 147.88 183.372 147.88ZM194.561 140.184C197.137 140.184 198.993 142.104 198.993 144.68C198.993 147.256 197.137 149.192 194.561 149.192C193.265 149.192 192.129 148.696 191.329 147.848V152.088H189.969V140.36H190.913L191.185 141.688C191.985 140.744 193.169 140.184 194.561 140.184ZM194.465 147.88C196.289 147.88 197.633 146.52 197.633 144.68C197.633 142.856 196.289 141.496 194.465 141.496C192.625 141.496 191.281 142.872 191.281 144.68C191.281 146.504 192.625 147.88 194.465 147.88ZM204.967 149.192C202.343 149.192 200.375 147.272 200.375 144.68C200.375 142.088 202.343 140.184 204.967 140.184C207.575 140.184 209.543 142.104 209.543 144.68C209.543 147.272 207.575 149.192 204.967 149.192ZM204.967 147.88C206.807 147.88 208.151 146.536 208.151 144.696C208.151 142.84 206.807 141.496 204.967 141.496C203.111 141.496 201.767 142.84 201.767 144.68C201.767 146.536 203.111 147.88 204.967 147.88ZM215.562 140.328H216.33V141.608H215.45C213.866 141.608 212.97 142.632 212.97 144.312V149H211.61V140.36H212.586L212.794 141.688C213.418 140.792 214.314 140.328 215.562 140.328ZM221.366 147.752H222.31V149H221.19C219.334 149 218.182 147.864 218.182 145.992V141.592H216.662V141.352L219.334 138.536H219.542V140.36H222.262V141.592H219.542V145.944C219.542 147.112 220.182 147.752 221.366 147.752Z" fill="#333B57"/>
</g>
<g filter="url(#filter3_dd_4802_25144)">
<rect x="4" y="181" width="235" height="44" rx="12" fill="url(#paint3_linear_4802_25144)" shape-rendering="crispEdges"/>
<rect x="4.5" y="181.5" width="234" height="43" rx="11.5" stroke="#DDE5F3" shape-rendering="crispEdges"/>
<path d="M37 200.375L30.75 206.625L27 202.875" stroke="#1CCFB8" stroke-width="1.5" stroke-linecap="round" stroke-linejoin="round"/>
<path d="M61.024 197.8H62.56L58.112 209H56.816L52.288 197.8H53.84L57.456 206.904L61.024 197.8ZM71.5025 204.728C71.5025 204.888 71.4865 205.048 71.4705 205.208H64.1105C64.3185 206.808 65.5185 207.864 67.1505 207.864C68.3505 207.864 69.3105 207.304 69.8385 206.376H71.2785C70.5425 208.152 69.0225 209.192 67.1505 209.192C64.6385 209.192 62.7505 207.256 62.7505 204.68C62.7505 202.12 64.6385 200.184 67.1505 200.184C69.7745 200.184 71.5025 202.2 71.5025 204.728ZM67.1505 201.464C65.5825 201.464 64.4145 202.456 64.1425 203.96H70.1425C69.8545 202.424 68.6865 201.464 67.1505 201.464ZM77.4839 200.328H78.2519V201.608H77.3719C75.7879 201.608 74.8919 202.632 74.8919 204.312V209H73.5319V200.36H74.5079L74.7159 201.688C75.3399 200.792 76.2359 200.328 77.4839 200.328ZM79.6558 198.872V197.32H81.1278V198.872H79.6558ZM79.7038 209V200.36H81.0638V209H79.7038ZM88.4215 200.424V201.56H85.7655V209H84.4055V201.56H82.7095V200.424H84.4055V199.72C84.4055 197.88 85.2535 196.968 87.1895 196.968H88.4055V198.072H87.4295C86.2135 198.072 85.7335 198.536 85.7335 199.752V200.424H88.4215ZM89.937 198.872V197.32H91.409V198.872H89.937ZM89.985 209V200.36H91.345V209H89.985ZM102.159 204.728C102.159 204.888 102.143 205.048 102.127 205.208H94.7668C94.9748 206.808 96.1748 207.864 97.8068 207.864C99.0068 207.864 99.9668 207.304 100.495 206.376H101.935C101.199 208.152 99.6788 209.192 97.8068 209.192C95.2948 209.192 93.4068 207.256 93.4068 204.68C93.4068 202.12 95.2948 200.184 97.8068 200.184C100.431 200.184 102.159 202.2 102.159 204.728ZM97.8068 201.464C96.2388 201.464 95.0707 202.456 94.7988 203.96H100.799C100.511 202.424 99.3428 201.464 97.8068 201.464ZM111.164 197.288H112.524V209.016H111.468L111.292 207.784C110.492 208.664 109.324 209.192 107.964 209.192C105.372 209.192 103.5 207.256 103.5 204.696C103.5 202.104 105.372 200.184 107.964 200.184C109.244 200.184 110.364 200.664 111.164 201.464V197.288ZM108.06 207.88C109.9 207.88 111.244 206.504 111.244 204.696C111.244 202.872 109.9 201.496 108.06 201.496C106.236 201.496 104.892 202.856 104.892 204.696C104.892 206.52 106.236 207.88 108.06 207.88ZM122.772 207.752H123.716V209H122.596C120.74 209 119.588 207.864 119.588 205.992V201.592H118.068V201.352L120.74 198.536H120.948V200.36H123.668V201.592H120.948V205.944C120.948 207.112 121.588 207.752 122.772 207.752ZM129.327 209.192C126.703 209.192 124.735 207.272 124.735 204.68C124.735 202.088 126.703 200.184 129.327 200.184C131.935 200.184 133.903 202.104 133.903 204.68C133.903 207.272 131.935 209.192 129.327 209.192ZM129.327 207.88C131.167 207.88 132.51 206.536 132.51 204.696C132.51 202.84 131.167 201.496 129.327 201.496C127.471 201.496 126.127 202.84 126.127 204.68C126.127 206.536 127.471 207.88 129.327 207.88ZM140.561 200.184C143.137 200.184 144.993 202.104 144.993 204.68C144.993 207.256 143.137 209.192 140.561 209.192C139.265 209.192 138.129 208.696 137.329 207.848V212.088H135.969V200.36H136.913L137.185 201.688C137.985 200.744 139.169 200.184 140.561 200.184ZM140.465 207.88C142.289 207.88 143.633 206.52 143.633 204.68C143.633 202.856 142.289 201.496 140.465 201.496C138.625 201.496 137.281 202.872 137.281 204.68C137.281 206.504 138.625 207.88 140.465 207.88ZM151.251 209V197.288H152.611V209H151.251ZM163.424 204.728C163.424 204.888 163.408 205.048 163.392 205.208H156.032C156.24 206.808 157.44 207.864 159.072 207.864C160.272 207.864 161.232 207.304 161.76 206.376H163.2C162.464 208.152 160.944 209.192 159.072 209.192C156.56 209.192 154.672 207.256 154.672 204.68C154.672 202.12 156.56 200.184 159.072 200.184C161.696 200.184 163.424 202.2 163.424 204.728ZM159.072 201.464C157.504 201.464 156.336 202.456 156.064 203.96H162.064C161.776 202.424 160.608 201.464 159.072 201.464ZM169.774 200.184C171.838 200.184 173.118 201.72 173.118 203.832V209H171.758V204.152C171.758 202.408 170.926 201.416 169.438 201.416C167.95 201.416 166.814 202.68 166.814 204.296V209H165.454V200.36H166.43L166.686 201.72C167.342 200.76 168.446 200.184 169.774 200.184ZM182.695 197.288H184.055V209.016H182.999L182.823 207.784C182.023 208.664 180.855 209.192 179.495 209.192C176.903 209.192 175.031 207.256 175.031 204.696C175.031 202.104 176.903 200.184 179.495 200.184C180.775 200.184 181.895 200.664 182.695 201.464V197.288ZM179.591 207.88C181.431 207.88 182.775 206.504 182.775 204.696C182.775 202.872 181.431 201.496 179.591 201.496C177.767 201.496 176.423 202.856 176.423 204.696C176.423 206.52 177.767 207.88 179.591 207.88ZM194.878 204.728C194.878 204.888 194.862 205.048 194.845 205.208H187.486C187.694 206.808 188.894 207.864 190.526 207.864C191.726 207.864 192.686 207.304 193.214 206.376H194.654C193.918 208.152 192.398 209.192 190.526 209.192C188.014 209.192 186.126 207.256 186.126 204.68C186.126 202.12 188.014 200.184 190.526 200.184C193.15 200.184 194.878 202.2 194.878 204.728ZM190.526 201.464C188.958 201.464 187.789 202.456 187.518 203.96H193.517C193.23 202.424 192.062 201.464 190.526 201.464ZM200.859 200.328H201.627V201.608H200.747C199.163 201.608 198.267 202.632 198.267 204.312V209H196.907V200.36H197.883L198.091 201.688C198.715 200.792 199.611 200.328 200.859 200.328Z" fill="#333B57"/>
</g>
<defs>
<filter id="filter0_dd_4802_25144" x="0" y="0" width="243" height="61" filterUnits="userSpaceOnUse" color-interpolation-filters="sRGB">
<feFlood flood-opacity="0" result="BackgroundImageFix"/>
<feColorMatrix in="SourceAlpha" type="matrix" values="0 0 0 0 0 0 0 0 0 0 0 0 0 0 0 0 0 0 127 0" result="hardAlpha"/>
<feMorphology radius="8" operator="erode" in="SourceAlpha" result="effect1_dropShadow_4802_25144"/>
<feOffset dy="12"/>
<feGaussianBlur stdDeviation="6"/>
<feComposite in2="hardAlpha" operator="out"/>
<feColorMatrix type="matrix" values="0 0 0 0 0.898039 0 0 0 0 0.909804 0 0 0 0 0.921569 0 0 0 0.4 0"/>
<feBlend mode="multiply" in2="BackgroundImageFix" result="effect1_dropShadow_4802_25144"/>
<feColorMatrix in="SourceAlpha" type="matrix" values="0 0 0 0 0 0 0 0 0 0 0 0 0 0 0 0 0 0 127 0" result="hardAlpha"/>
<feOffset dy="1"/>
<feGaussianBlur stdDeviation="1"/>
<feComposite in2="hardAlpha" operator="out"/>
<feColorMatrix type="matrix" values="0 0 0 0 0.898039 0 0 0 0 0.909804 0 0 0 0 0.921569 0 0 0 0.8 0"/>
<feBlend mode="normal" in2="effect1_dropShadow_4802_25144" result="effect2_dropShadow_4802_25144"/>
<feBlend mode="normal" in="SourceGraphic" in2="effect2_dropShadow_4802_25144" result="shape"/>
</filter>
<filter id="filter1_dd_4802_25144" x="0" y="60" width="243" height="61" filterUnits="userSpaceOnUse" color-interpolation-filters="sRGB">
<feFlood flood-opacity="0" result="BackgroundImageFix"/>
<feColorMatrix in="SourceAlpha" type="matrix" values="0 0 0 0 0 0 0 0 0 0 0 0 0 0 0 0 0 0 127 0" result="hardAlpha"/>
<feMorphology radius="8" operator="erode" in="SourceAlpha" result="effect1_dropShadow_4802_25144"/>
<feOffset dy="12"/>
<feGaussianBlur stdDeviation="6"/>
<feComposite in2="hardAlpha" operator="out"/>
<feColorMatrix type="matrix" values="0 0 0 0 0.898039 0 0 0 0 0.909804 0 0 0 0 0.921569 0 0 0 0.4 0"/>
<feBlend mode="multiply" in2="BackgroundImageFix" result="effect1_dropShadow_4802_25144"/>
<feColorMatrix in="SourceAlpha" type="matrix" values="0 0 0 0 0 0 0 0 0 0 0 0 0 0 0 0 0 0 127 0" result="hardAlpha"/>
<feOffset dy="1"/>
<feGaussianBlur stdDeviation="1"/>
<feComposite in2="hardAlpha" operator="out"/>
<feColorMatrix type="matrix" values="0 0 0 0 0.898039 0 0 0 0 0.909804 0 0 0 0 0.921569 0 0 0 0.8 0"/>
<feBlend mode="normal" in2="effect1_dropShadow_4802_25144" result="effect2_dropShadow_4802_25144"/>
<feBlend mode="normal" in="SourceGraphic" in2="effect2_dropShadow_4802_25144" result="shape"/>
</filter>
<filter id="filter2_dd_4802_25144" x="0" y="120" width="243" height="61" filterUnits="userSpaceOnUse" color-interpolation-filters="sRGB">
<feFlood flood-opacity="0" result="BackgroundImageFix"/>
<feColorMatrix in="SourceAlpha" type="matrix" values="0 0 0 0 0 0 0 0 0 0 0 0 0 0 0 0 0 0 127 0" result="hardAlpha"/>
<feMorphology radius="8" operator="erode" in="SourceAlpha" result="effect1_dropShadow_4802_25144"/>
<feOffset dy="12"/>
<feGaussianBlur stdDeviation="6"/>
<feComposite in2="hardAlpha" operator="out"/>
<feColorMatrix type="matrix" values="0 0 0 0 0.898039 0 0 0 0 0.909804 0 0 0 0 0.921569 0 0 0 0.4 0"/>
<feBlend mode="multiply" in2="BackgroundImageFix" result="effect1_dropShadow_4802_25144"/>
<feColorMatrix in="SourceAlpha" type="matrix" values="0 0 0 0 0 0 0 0 0 0 0 0 0 0 0 0 0 0 127 0" result="hardAlpha"/>
<feOffset dy="1"/>
<feGaussianBlur stdDeviation="1"/>
<feComposite in2="hardAlpha" operator="out"/>
<feColorMatrix type="matrix" values="0 0 0 0 0.898039 0 0 0 0 0.909804 0 0 0 0 0.921569 0 0 0 0.8 0"/>
<feBlend mode="normal" in2="effect1_dropShadow_4802_25144" result="effect2_dropShadow_4802_25144"/>
<feBlend mode="normal" in="SourceGraphic" in2="effect2_dropShadow_4802_25144" result="shape"/>
</filter>
<filter id="filter3_dd_4802_25144" x="0" y="180" width="243" height="61" filterUnits="userSpaceOnUse" color-interpolation-filters="sRGB">
<feFlood flood-opacity="0" result="BackgroundImageFix"/>
<feColorMatrix in="SourceAlpha" type="matrix" values="0 0 0 0 0 0 0 0 0 0 0 0 0 0 0 0 0 0 127 0" result="hardAlpha"/>
<feMorphology radius="8" operator="erode" in="SourceAlpha" result="effect1_dropShadow_4802_25144"/>
<feOffset dy="12"/>
<feGaussianBlur stdDeviation="6"/>
<feComposite in2="hardAlpha" operator="out"/>
<feColorMatrix type="matrix" values="0 0 0 0 0.898039 0 0 0 0 0.909804 0 0 0 0 0.921569 0 0 0 0.4 0"/>
<feBlend mode="multiply" in2="BackgroundImageFix" result="effect1_dropShadow_4802_25144"/>
<feColorMatrix in="SourceAlpha" type="matrix" values="0 0 0 0 0 0 0 0 0 0 0 0 0 0 0 0 0 0 127 0" result="hardAlpha"/>
<feOffset dy="1"/>
<feGaussianBlur stdDeviation="1"/>
<feComposite in2="hardAlpha" operator="out"/>
<feColorMatrix type="matrix" values="0 0 0 0 0.898039 0 0 0 0 0.909804 0 0 0 0 0.921569 0 0 0 0.8 0"/>
<feBlend mode="normal" in2="effect1_dropShadow_4802_25144" result="effect2_dropShadow_4802_25144"/>
<feBlend mode="normal" in="SourceGraphic" in2="effect2_dropShadow_4802_25144" result="shape"/>
</filter>
<linearGradient id="paint0_linear_4802_25144" x1="25.3636" y1="3.25" x2="36.9869" y2="72.7608" gradientUnits="userSpaceOnUse">
<stop stop-color="white"/>
<stop offset="1" stop-color="#FAFCFF"/>
</linearGradient>
<linearGradient id="paint1_linear_4802_25144" x1="25.3636" y1="63.25" x2="36.9869" y2="132.761" gradientUnits="userSpaceOnUse">
<stop stop-color="white"/>
<stop offset="1" stop-color="#FAFCFF"/>
</linearGradient>
<linearGradient id="paint2_linear_4802_25144" x1="25.3636" y1="123.25" x2="36.9869" y2="192.761" gradientUnits="userSpaceOnUse">
<stop stop-color="white"/>
<stop offset="1" stop-color="#FAFCFF"/>
</linearGradient>
<linearGradient id="paint3_linear_4802_25144" x1="25.3636" y1="183.25" x2="36.9869" y2="252.761" gradientUnits="userSpaceOnUse">
<stop stop-color="white"/>
<stop offset="1" stop-color="#FAFCFF"/>
</linearGradient>
</defs>
</svg>
