<svg width="448" height="92" viewBox="0 0 448 92" fill="none" xmlns="http://www.w3.org/2000/svg">
<rect x="0.5" y="0.5" width="447" height="91" rx="13.5" fill="white"/>
<rect x="0.5" y="0.5" width="447" height="91" rx="13.5" stroke="#DDE5F3"/>
<rect x="8" y="8" width="432" height="34" rx="8" fill="#F7F9FC"/>
<path d="M289.034 22.4443V29.1688" stroke="#1CCFB8" stroke-width="1.25" stroke-linecap="round" stroke-linejoin="round"/>
<path d="M292.667 29.1688V22.4443" stroke="#1CCFB8" stroke-width="1.25" stroke-linecap="round" stroke-linejoin="round"/>
<path d="M287.664 31.67H294.334V30.8363L293.5 29.1689H287.664" stroke="#1CCFB8" stroke-width="1.25" stroke-linecap="round" stroke-linejoin="round"/>
<path d="M281.412 25.0005C283.483 25.0005 285.163 26.6804 285.163 28.7521C285.163 30.8237 283.483 32.5036 281.412 32.5036C279.34 32.5036 277.66 30.8237 277.66 28.7521C277.66 26.6804 279.34 25.0005 281.412 25.0005" stroke="#1CCFB8" stroke-width="1.25" stroke-linecap="round" stroke-linejoin="round"/>
<path d="M282.872 28.0225L281.048 29.8466L279.953 28.7519" stroke="#1CCFB8" stroke-width="1.25" stroke-linecap="round" stroke-linejoin="round"/>
<path fill-rule="evenodd" clip-rule="evenodd" d="M279.328 22.4443H294.334V19.9383L286.831 16.6636L279.328 19.9383V22.4443Z" stroke="#1CCFB8" stroke-width="1.25" stroke-linecap="round" stroke-linejoin="round"/>
<path d="M24.592 19.2V19.214C27.476 19.214 29.562 21.272 29.562 24.1C29.562 26.942 27.476 29 24.592 29H21.33V19.2H24.592ZM24.564 27.852C26.762 27.852 28.316 26.27 28.316 24.1C28.316 21.944 26.762 20.362 24.564 20.362H22.562V27.852H24.564ZM38.5276 25.262C38.5276 25.402 38.5136 25.542 38.4996 25.682H32.0596C32.2416 27.082 33.2916 28.006 34.7196 28.006C35.7696 28.006 36.6096 27.516 37.0716 26.704H38.3316C37.6876 28.258 36.3576 29.168 34.7196 29.168C32.5216 29.168 30.8696 27.474 30.8696 25.22C30.8696 22.98 32.5216 21.286 34.7196 21.286C37.0156 21.286 38.5276 23.05 38.5276 25.262ZM34.7196 22.406C33.3476 22.406 32.3256 23.274 32.0876 24.59H37.3376C37.0856 23.246 36.0636 22.406 34.7196 22.406ZM46.7573 21.44H47.6953V29H46.7153L46.5893 27.866C45.8893 28.678 44.8533 29.168 43.6213 29.168C41.3813 29.168 39.7013 27.474 39.7013 25.234C39.7013 22.966 41.3813 21.286 43.6213 21.286C44.8533 21.286 45.9033 21.776 46.6033 22.602L46.7573 21.44ZM43.7053 28.02C45.3153 28.02 46.4773 26.83 46.4773 25.22C46.4773 23.624 45.3153 22.434 43.7053 22.434C42.1093 22.434 40.9193 23.638 40.9193 25.22C40.9193 26.816 42.1093 28.02 43.7053 28.02ZM50.0923 29V18.752H51.2823V29H50.0923ZM60.4044 29.126C58.2484 29.126 56.7784 27.922 56.7784 25.99H58.0384C58.0384 27.208 59.0324 27.922 60.3904 27.922C61.6224 27.922 62.5884 27.278 62.5884 26.242C62.5884 25.094 61.4264 24.828 60.1524 24.52C58.6404 24.17 56.9744 23.764 56.9744 21.804C56.9744 20.11 58.2764 19.088 60.3064 19.088C62.3364 19.088 63.5824 20.208 63.5824 21.986H62.3644C62.3644 20.894 61.4684 20.264 60.2784 20.264C59.0884 20.264 58.1924 20.824 58.1924 21.762C58.1924 22.826 59.3264 23.106 60.5864 23.4C62.1264 23.778 63.8624 24.184 63.8624 26.228C63.8624 28.076 62.3504 29.126 60.4044 29.126ZM65.65 20.138V18.78H66.938V20.138H65.65ZM65.692 29V21.44H66.882V29H65.692ZM75.518 21.44L76.316 21.454V27.95C76.316 30.386 74.916 31.87 72.606 31.87C70.758 31.87 69.442 30.904 69.036 29.308H70.226C70.562 30.246 71.514 30.778 72.606 30.778C74.118 30.778 75.154 29.784 75.154 28.104V27.642C74.482 28.342 73.516 28.762 72.396 28.762C70.296 28.762 68.686 27.138 68.686 25.024C68.686 22.924 70.296 21.286 72.396 21.286C73.614 21.286 74.65 21.79 75.336 22.616L75.518 21.44ZM72.522 27.628C74.048 27.628 75.14 26.522 75.14 25.024C75.14 23.526 74.034 22.42 72.522 22.42C71.01 22.42 69.89 23.54 69.89 25.024C69.89 26.508 71.01 27.628 72.522 27.628ZM82.4876 21.286C84.2936 21.286 85.4136 22.63 85.4136 24.478V29H84.2236V24.758C84.2236 23.232 83.4956 22.364 82.1936 22.364C80.8916 22.364 79.8976 23.47 79.8976 24.884V29H78.7076V21.44H79.5616L79.7856 22.63C80.3596 21.79 81.3256 21.286 82.4876 21.286ZM94.76 25.262C94.76 25.402 94.746 25.542 94.732 25.682H88.292C88.474 27.082 89.524 28.006 90.952 28.006C92.002 28.006 92.842 27.516 93.304 26.704H94.564C93.92 28.258 92.59 29.168 90.952 29.168C88.754 29.168 87.102 27.474 87.102 25.22C87.102 22.98 88.754 21.286 90.952 21.286C93.248 21.286 94.76 23.05 94.76 25.262ZM90.952 22.406C89.58 22.406 88.558 23.274 88.32 24.59H93.57C93.318 23.246 92.296 22.406 90.952 22.406ZM102.64 18.752H103.83V29.014H102.906L102.752 27.936C102.052 28.706 101.03 29.168 99.8397 29.168C97.5717 29.168 95.9337 27.474 95.9337 25.234C95.9337 22.966 97.5717 21.286 99.8397 21.286C100.96 21.286 101.94 21.706 102.64 22.406V18.752ZM99.9237 28.02C101.534 28.02 102.71 26.816 102.71 25.234C102.71 23.638 101.534 22.434 99.9237 22.434C98.3277 22.434 97.1517 23.624 97.1517 25.234C97.1517 26.83 98.3277 28.02 99.9237 28.02Z" fill="#131F4A"/>
<path d="M308.69 19.2C311.574 19.2 313.66 21.258 313.66 24.1C313.66 26.942 311.574 29 308.69 29H305.246V19.2H308.69ZM308.648 27.502C310.636 27.502 312.022 26.074 312.022 24.1C312.022 22.126 310.636 20.712 308.648 20.712H306.842V27.502H308.648ZM322.597 25.248C322.597 25.416 322.583 25.584 322.555 25.752H316.423C316.619 26.984 317.501 27.74 318.733 27.74C319.643 27.74 320.371 27.32 320.777 26.62H322.415C321.813 28.216 320.427 29.196 318.733 29.196C316.521 29.196 314.855 27.488 314.855 25.22C314.855 22.966 316.521 21.258 318.733 21.258C321.057 21.258 322.597 23.05 322.597 25.248ZM318.733 22.672C317.571 22.672 316.717 23.372 316.465 24.492H321.029C320.749 23.344 319.895 22.672 318.733 22.672ZM328.307 21.258C330.561 21.258 332.227 22.952 332.227 25.22C332.227 27.488 330.561 29.196 328.307 29.196C327.327 29.196 326.459 28.86 325.801 28.286V31.716H324.247V21.44H325.283L325.577 22.378C326.263 21.678 327.215 21.258 328.307 21.258ZM328.181 27.712C329.609 27.712 330.645 26.648 330.645 25.22C330.645 23.806 329.609 22.742 328.181 22.742C326.753 22.742 325.703 23.806 325.703 25.22C325.703 26.648 326.753 27.712 328.181 27.712ZM337.385 29.196C335.061 29.196 333.339 27.502 333.339 25.22C333.339 22.938 335.061 21.258 337.385 21.258C339.695 21.258 341.417 22.952 341.417 25.22C341.417 27.502 339.695 29.196 337.385 29.196ZM337.385 27.712C338.813 27.712 339.835 26.676 339.835 25.22C339.835 23.778 338.813 22.742 337.385 22.742C335.943 22.742 334.921 23.778 334.921 25.22C334.921 26.676 335.943 27.712 337.385 27.712ZM345.592 29.196C343.758 29.196 342.554 28.174 342.512 26.606H344.024C344.066 27.404 344.738 27.824 345.648 27.824C346.488 27.824 347.132 27.474 347.132 26.844C347.132 26.116 346.32 25.962 345.396 25.808C344.136 25.584 342.652 25.304 342.652 23.554C342.652 22.196 343.814 21.258 345.578 21.258C347.328 21.258 348.476 22.224 348.504 23.68H347.034C347.006 22.966 346.446 22.574 345.536 22.574C344.682 22.574 344.15 22.952 344.15 23.498C344.15 24.17 344.92 24.296 345.83 24.45C347.104 24.66 348.658 24.912 348.658 26.774C348.658 28.244 347.44 29.196 345.592 29.196ZM350.305 20.278V18.668H351.901V20.278H350.305ZM350.333 29V21.44H351.887V29H350.333ZM357.452 27.6H358.32V29H357.158C355.506 29 354.484 27.978 354.484 26.312V22.784H353.126V22.476L355.758 19.676H356.024V21.44H358.278V22.784H356.038V26.186C356.038 27.096 356.542 27.6 357.452 27.6ZM369.074 29L366.96 25.374H365.098V29H363.502V19.2H367.31C369.2 19.2 370.6 20.502 370.6 22.308C370.6 23.638 369.802 24.702 368.612 25.15L370.88 29H369.074ZM365.098 20.712V23.876H367.212C368.276 23.876 368.962 23.218 368.962 22.294C368.962 21.384 368.276 20.712 367.212 20.712H365.098ZM379.499 25.248C379.499 25.416 379.485 25.584 379.457 25.752H373.325C373.521 26.984 374.403 27.74 375.635 27.74C376.545 27.74 377.273 27.32 377.679 26.62H379.317C378.715 28.216 377.329 29.196 375.635 29.196C373.423 29.196 371.757 27.488 371.757 25.22C371.757 22.966 373.423 21.258 375.635 21.258C377.959 21.258 379.499 23.05 379.499 25.248ZM375.635 22.672C374.473 22.672 373.619 23.372 373.367 24.492H377.931C377.651 23.344 376.797 22.672 375.635 22.672ZM384.551 29.196C382.297 29.196 380.589 27.474 380.589 25.22C380.589 22.966 382.297 21.258 384.551 21.258C386.427 21.258 387.883 22.406 388.303 24.142H386.763C386.371 23.274 385.531 22.742 384.551 22.742C383.193 22.742 382.171 23.82 382.171 25.22C382.171 26.62 383.207 27.712 384.551 27.712C385.545 27.712 386.343 27.18 386.749 26.256H388.317C387.911 28.02 386.413 29.196 384.551 29.196ZM397.04 25.248C397.04 25.416 397.026 25.584 396.998 25.752H390.866C391.062 26.984 391.944 27.74 393.176 27.74C394.086 27.74 394.814 27.32 395.22 26.62H396.858C396.256 28.216 394.87 29.196 393.176 29.196C390.964 29.196 389.298 27.488 389.298 25.22C389.298 22.966 390.964 21.258 393.176 21.258C395.5 21.258 397.04 23.05 397.04 25.248ZM393.176 22.672C392.014 22.672 391.16 23.372 390.908 24.492H395.472C395.192 23.344 394.338 22.672 393.176 22.672ZM398.662 20.278V18.668H400.258V20.278H398.662ZM398.69 29V21.44H400.244V29H398.69ZM407.616 21.44H409.212L406.104 29H404.69L401.498 21.44H403.136L405.404 27.054L407.616 21.44ZM417.466 25.248C417.466 25.416 417.452 25.584 417.424 25.752H411.292C411.488 26.984 412.37 27.74 413.602 27.74C414.512 27.74 415.24 27.32 415.646 26.62H417.284C416.682 28.216 415.296 29.196 413.602 29.196C411.39 29.196 409.724 27.488 409.724 25.22C409.724 22.966 411.39 21.258 413.602 21.258C415.926 21.258 417.466 23.05 417.466 25.248ZM413.602 22.672C412.44 22.672 411.586 23.372 411.334 24.492H415.898C415.618 23.344 414.764 22.672 413.602 22.672ZM424.982 18.738H426.536V29.014H425.36L425.15 28.146C424.478 28.804 423.54 29.196 422.49 29.196C420.194 29.196 418.556 27.488 418.556 25.234C418.556 22.952 420.194 21.258 422.49 21.258C423.456 21.258 424.31 21.58 424.982 22.14V18.738ZM422.602 27.712C424.03 27.712 425.08 26.634 425.08 25.22C425.08 23.806 424.03 22.742 422.602 22.742C421.188 22.742 420.138 23.806 420.138 25.22C420.138 26.648 421.188 27.712 422.602 27.712Z" fill="#1CCFB8"/>
<rect x="8" y="50" width="432" height="34" rx="8" fill="#F7F9FC"/>
<path d="M24.214 65.218C25.74 65.428 26.79 66.604 26.79 68.13C26.79 69.908 25.432 71.168 23.654 71.168C21.932 71.168 20.686 69.978 20.602 68.284H21.736C21.806 69.362 22.576 70.076 23.654 70.076C24.788 70.076 25.614 69.236 25.614 68.102C25.614 66.954 24.732 66.128 23.514 66.128H22.478V65.904L24.62 62.754H20.896V61.69H26.426V61.97L24.214 65.218ZM33.4985 66.016C34.2825 66.45 34.8005 67.318 34.8005 68.312C34.8005 69.978 33.4425 71.168 31.4965 71.168C29.5225 71.168 28.1925 70.02 28.1925 68.312C28.1925 67.346 28.7105 66.478 29.5225 66.016C28.9205 65.596 28.5285 64.84 28.5285 64.028C28.5285 62.558 29.7325 61.536 31.4965 61.536C33.2465 61.536 34.4365 62.544 34.4365 64.028C34.4365 64.854 34.0585 65.624 33.4985 66.016ZM31.4965 62.516C30.4045 62.516 29.6625 63.132 29.6625 64.028C29.6625 64.938 30.4045 65.554 31.4965 65.554C32.5605 65.554 33.3025 64.938 33.3025 64.028C33.3025 63.132 32.5605 62.516 31.4965 62.516ZM31.4965 70.146C32.7705 70.146 33.6385 69.404 33.6385 68.354C33.6385 67.262 32.7565 66.534 31.4965 66.534C30.2365 66.534 29.3545 67.262 29.3545 68.354C29.3545 69.404 30.2225 70.146 31.4965 70.146ZM38.3033 69.908H42.2933V71H36.0353V70.636C40.2773 66.17 40.7673 65.372 40.7673 64.224C40.7673 63.272 40.1093 62.628 39.1153 62.628C38.0933 62.628 37.3933 63.286 37.3933 64.238V64.462H36.2453V64.238C36.2453 62.6 37.4213 61.536 39.1153 61.536C40.7813 61.536 41.9293 62.642 41.9293 64.224C41.9293 65.512 41.4533 66.464 38.3033 69.908ZM43.223 61.69H46.149V71H45.015V62.754H43.223V61.69ZM56.0159 61.2C57.8639 61.2 59.2639 62.544 59.2639 64.35C59.2639 66.142 57.8779 67.486 56.0159 67.486H53.7339V71H52.5019V61.2H56.0159ZM55.9599 66.296C57.1499 66.296 58.0179 65.47 58.0179 64.35C58.0179 63.23 57.1499 62.39 55.9599 62.39H53.7339V66.296H55.9599ZM67.2788 63.44H68.2168V71H67.2368L67.1108 69.866C66.4108 70.678 65.3748 71.168 64.1428 71.168C61.9028 71.168 60.2228 69.474 60.2228 67.234C60.2228 64.966 61.9028 63.286 64.1428 63.286C65.3748 63.286 66.4248 63.776 67.1248 64.602L67.2788 63.44ZM64.2268 70.02C65.8368 70.02 66.9988 68.83 66.9988 67.22C66.9988 65.624 65.8368 64.434 64.2268 64.434C62.6308 64.434 61.4408 65.638 61.4408 67.22C61.4408 68.816 62.6308 70.02 64.2268 70.02ZM70.6138 71V60.752H71.8038V71H70.6138ZM82.5539 63.286C84.1499 63.286 85.2139 64.476 85.2139 66.17V71H84.0239V66.548C84.0239 65.176 83.3939 64.364 82.3159 64.364C81.2099 64.364 80.2999 65.428 80.2999 66.814V71H79.1239V66.548C79.1239 65.176 78.4939 64.364 77.4019 64.364C76.2959 64.364 75.3859 65.428 75.3859 66.814V71H74.1959V63.44H75.0499L75.2459 64.49C75.8339 63.734 76.7159 63.286 77.6679 63.286C78.7459 63.286 79.5719 63.832 79.9919 64.714C80.5519 63.832 81.5179 63.286 82.5539 63.286ZM94.5647 61.2V61.214C97.4487 61.214 99.5347 63.272 99.5347 66.1C99.5347 68.942 97.4487 71 94.5647 71H91.3027V61.2H94.5647ZM94.5367 69.852C96.7347 69.852 98.2887 68.27 98.2887 66.1C98.2887 63.944 96.7347 62.362 94.5367 62.362H92.5347V69.852H94.5367ZM104.82 63.412H105.492V64.532H104.722C103.336 64.532 102.552 65.428 102.552 66.898V71H101.362V63.44H102.216L102.398 64.602C102.944 63.818 103.728 63.412 104.82 63.412ZM106.72 62.138V60.78H108.008V62.138H106.72ZM106.762 71V63.44H107.952V71H106.762ZM115.678 63.44H116.896L113.718 71H112.626L109.364 63.44H110.596L113.172 69.46L115.678 63.44ZM125.207 67.262C125.207 67.402 125.193 67.542 125.179 67.682H118.739C118.921 69.082 119.971 70.006 121.399 70.006C122.449 70.006 123.289 69.516 123.751 68.704H125.011C124.367 70.258 123.037 71.168 121.399 71.168C119.201 71.168 117.549 69.474 117.549 67.22C117.549 64.98 119.201 63.286 121.399 63.286C123.695 63.286 125.207 65.05 125.207 67.262ZM121.399 64.406C120.027 64.406 119.005 65.274 118.767 66.59H124.017C123.765 65.246 122.743 64.406 121.399 64.406ZM126.61 72.862V72.204C127.142 72.022 127.338 71.616 127.338 71H126.54V69.53H127.982V70.902C127.982 72.022 127.478 72.624 126.61 72.862ZM136.885 71.126C134.729 71.126 133.259 69.922 133.259 67.99H134.519C134.519 69.208 135.513 69.922 136.871 69.922C138.103 69.922 139.069 69.278 139.069 68.242C139.069 67.094 137.907 66.828 136.633 66.52C135.121 66.17 133.455 65.764 133.455 63.804C133.455 62.11 134.757 61.088 136.787 61.088C138.817 61.088 140.063 62.208 140.063 63.986H138.845C138.845 62.894 137.949 62.264 136.759 62.264C135.569 62.264 134.673 62.824 134.673 63.762C134.673 64.826 135.807 65.106 137.067 65.4C138.607 65.778 140.343 66.184 140.343 68.228C140.343 70.076 138.831 71.126 136.885 71.126ZM148.626 63.44H149.564V71H148.584L148.458 69.866C147.758 70.678 146.722 71.168 145.49 71.168C143.25 71.168 141.57 69.474 141.57 67.234C141.57 64.966 143.25 63.286 145.49 63.286C146.722 63.286 147.772 63.776 148.472 64.602L148.626 63.44ZM145.574 70.02C147.184 70.02 148.346 68.83 148.346 67.22C148.346 65.624 147.184 64.434 145.574 64.434C143.978 64.434 142.788 65.638 142.788 67.22C142.788 68.816 143.978 70.02 145.574 70.02ZM155.741 63.286C157.547 63.286 158.667 64.63 158.667 66.478V71H157.477V66.758C157.477 65.232 156.749 64.364 155.447 64.364C154.145 64.364 153.151 65.47 153.151 66.884V71H151.961V63.44H152.815L153.039 64.63C153.613 63.79 154.579 63.286 155.741 63.286ZM168.01 61.2V61.214C170.894 61.214 172.98 63.272 172.98 66.1C172.98 68.942 170.894 71 168.01 71H164.748V61.2H168.01ZM167.982 69.852C170.18 69.852 171.734 68.27 171.734 66.1C171.734 63.944 170.18 62.362 167.982 62.362H165.98V69.852H167.982ZM174.765 62.138V60.78H176.053V62.138H174.765ZM174.807 71V63.44H175.997V71H174.807ZM185.459 67.262C185.459 67.402 185.445 67.542 185.431 67.682H178.991C179.173 69.082 180.223 70.006 181.651 70.006C182.701 70.006 183.541 69.516 184.003 68.704H185.263C184.619 70.258 183.289 71.168 181.651 71.168C179.453 71.168 177.801 69.474 177.801 67.22C177.801 64.98 179.453 63.286 181.651 63.286C183.947 63.286 185.459 65.05 185.459 67.262ZM181.651 64.406C180.279 64.406 179.257 65.274 179.019 66.59H184.269C184.017 65.246 182.995 64.406 181.651 64.406ZM193.479 63.44L194.277 63.454V69.95C194.277 72.386 192.877 73.87 190.567 73.87C188.719 73.87 187.403 72.904 186.997 71.308H188.187C188.523 72.246 189.475 72.778 190.567 72.778C192.079 72.778 193.115 71.784 193.115 70.104V69.642C192.443 70.342 191.477 70.762 190.357 70.762C188.257 70.762 186.647 69.138 186.647 67.024C186.647 64.924 188.257 63.286 190.357 63.286C191.575 63.286 192.611 63.79 193.297 64.616L193.479 63.44ZM190.483 69.628C192.009 69.628 193.101 68.522 193.101 67.024C193.101 65.526 191.995 64.42 190.483 64.42C188.971 64.42 187.851 65.54 187.851 67.024C187.851 68.508 188.971 69.628 190.483 69.628ZM200.085 71.168C197.789 71.168 196.067 69.488 196.067 67.22C196.067 64.952 197.789 63.286 200.085 63.286C202.367 63.286 204.089 64.966 204.089 67.22C204.089 69.488 202.367 71.168 200.085 71.168ZM200.085 70.02C201.695 70.02 202.871 68.844 202.871 67.234C202.871 65.61 201.695 64.434 200.085 64.434C198.461 64.434 197.285 65.61 197.285 67.22C197.285 68.844 198.461 70.02 200.085 70.02ZM205.497 72.862V72.204C206.029 72.022 206.225 71.616 206.225 71H205.427V69.53H206.869V70.902C206.869 72.022 206.365 72.624 205.497 72.862ZM217.2 71.154C214.288 71.154 212.174 69.04 212.174 66.114C212.174 63.174 214.288 61.06 217.2 61.06C219.468 61.06 221.288 62.404 221.848 64.518H220.588C220.07 63.104 218.81 62.25 217.2 62.25C215.016 62.25 213.434 63.86 213.434 66.114C213.434 68.368 215.016 69.95 217.2 69.95C218.852 69.95 220.126 69.054 220.644 67.556H221.89C221.33 69.768 219.51 71.154 217.2 71.154ZM230.328 71L229.362 68.662H224.644L223.692 71H222.39L226.394 61.2H227.542L231.658 71H230.328ZM226.982 62.894L225.106 67.528H228.9L226.982 62.894ZM238.878 61.536C240.824 61.536 242.21 62.852 242.21 64.7C242.21 65.596 241.874 66.646 241.216 67.794L239.34 71.014H238.08C239.34 68.802 239.76 68.074 240.082 67.458C239.662 67.654 239.214 67.752 238.738 67.752C236.96 67.752 235.574 66.422 235.574 64.7C235.574 62.852 236.96 61.536 238.878 61.536ZM238.892 66.758C240.138 66.758 241.048 65.89 241.048 64.7C241.048 63.51 240.138 62.628 238.892 62.628C237.646 62.628 236.736 63.496 236.736 64.7C236.736 65.904 237.646 66.758 238.892 66.758ZM245.651 69.908H249.641V71H243.383V70.636C247.625 66.17 248.115 65.372 248.115 64.224C248.115 63.272 247.457 62.628 246.463 62.628C245.441 62.628 244.741 63.286 244.741 64.238V64.462H243.593V64.238C243.593 62.6 244.769 61.536 246.463 61.536C248.129 61.536 249.277 62.642 249.277 64.224C249.277 65.512 248.801 66.464 245.651 69.908ZM250.571 61.69H253.497V71H252.363V62.754H250.571V61.69ZM259.209 71.168C256.997 71.168 255.597 69.306 255.597 66.352C255.597 63.37 256.983 61.536 259.209 61.536C261.421 61.536 262.793 63.37 262.793 66.352C262.793 69.306 261.407 71.168 259.209 71.168ZM259.209 70.076C260.707 70.076 261.631 68.676 261.631 66.352C261.631 64.028 260.707 62.628 259.209 62.628C257.697 62.628 256.773 64.028 256.773 66.352C256.773 68.676 257.683 70.076 259.209 70.076ZM267.778 65.218C269.304 65.428 270.354 66.604 270.354 68.13C270.354 69.908 268.996 71.168 267.218 71.168C265.496 71.168 264.25 69.978 264.166 68.284H265.3C265.37 69.362 266.14 70.076 267.218 70.076C268.352 70.076 269.178 69.236 269.178 68.102C269.178 66.954 268.296 66.128 267.078 66.128H266.042V65.904L268.184 62.754H264.46V61.69H269.99V61.97L267.778 65.218Z" fill="#131F4A"/>
<path d="M374.532 68.256C374.532 69.866 373.398 70.888 371.746 71.098V72.162H370.472V71.098C368.638 70.902 367.546 69.74 367.546 67.99H369.114C369.114 69.068 369.982 69.656 371.088 69.656C372.096 69.656 372.95 69.11 372.95 68.27C372.95 67.346 371.97 67.122 370.836 66.87C369.38 66.534 367.7 66.142 367.7 64.154C367.7 62.642 368.722 61.69 370.36 61.494V60.5H371.662V61.494C373.314 61.718 374.252 62.796 374.252 64.42H372.726C372.726 63.44 371.956 62.908 370.962 62.908C370.038 62.908 369.254 63.328 369.254 64.084C369.254 64.938 370.206 65.162 371.312 65.428C372.796 65.778 374.532 66.198 374.532 68.256ZM379.406 64.882C381.1 64.882 382.542 66.086 382.542 67.92C382.542 69.824 381.114 71.168 379.14 71.168C377.124 71.168 375.71 69.824 375.71 67.92C375.71 67.052 376.018 66.086 376.704 64.896L378.566 61.634H380.232C379.098 63.636 378.678 64.364 378.286 65.106C378.65 64.952 379.028 64.882 379.406 64.882ZM379.126 69.754C380.218 69.754 381.016 68.998 381.016 67.92C381.016 66.842 380.218 66.1 379.126 66.1C378.034 66.1 377.236 66.856 377.236 67.92C377.236 68.984 378.034 69.754 379.126 69.754ZM390.193 67.78V69.124H389.283V71H387.841V69.124H383.193V68.816L386.385 61.69H387.925L385.195 67.78H387.869L388.107 65.19H389.283V67.78H390.193ZM394.238 65.05C396.142 65.05 397.486 66.352 397.486 68.088C397.486 69.866 396.114 71.168 394.322 71.168C392.516 71.168 391.2 69.908 391.158 68.2H392.67C392.712 69.11 393.384 69.754 394.322 69.754C395.26 69.754 395.96 69.04 395.96 68.088C395.96 67.094 395.218 66.366 394.182 66.366H391.718L391.536 66.156L392.026 61.69H396.842V63.076H393.258L393.034 65.05H394.238ZM399.057 73.016V72.218C399.687 72.064 399.939 71.602 399.939 71H398.973V69.236H400.737V70.874C400.737 72.12 400.093 72.82 399.057 73.016ZM405.739 71.168C403.485 71.168 402.057 69.306 402.057 66.338C402.057 63.37 403.471 61.522 405.739 61.522C408.007 61.522 409.407 63.37 409.407 66.338C409.407 69.306 407.993 71.168 405.739 71.168ZM405.739 69.754C407.083 69.754 407.881 68.508 407.881 66.352C407.881 64.196 407.083 62.95 405.739 62.95C404.395 62.95 403.583 64.196 403.583 66.338C403.583 68.494 404.381 69.754 405.739 69.754ZM414.517 71.168C412.263 71.168 410.835 69.306 410.835 66.338C410.835 63.37 412.249 61.522 414.517 61.522C416.785 61.522 418.185 63.37 418.185 66.338C418.185 69.306 416.771 71.168 414.517 71.168ZM414.517 69.754C415.861 69.754 416.659 68.508 416.659 66.352C416.659 64.196 415.861 62.95 414.517 62.95C413.173 62.95 412.361 64.196 412.361 66.338C412.361 68.494 413.159 69.754 414.517 69.754ZM423.294 71.168C421.04 71.168 419.612 69.306 419.612 66.338C419.612 63.37 421.026 61.522 423.294 61.522C425.562 61.522 426.962 63.37 426.962 66.338C426.962 69.306 425.548 71.168 423.294 71.168ZM423.294 69.754C424.638 69.754 425.436 68.508 425.436 66.352C425.436 64.196 424.638 62.95 423.294 62.95C421.95 62.95 421.138 64.196 421.138 66.338C421.138 68.494 421.936 69.754 423.294 69.754Z" fill="#131F4A"/>
</svg>
