<svg width="103" height="52" viewBox="0 0 103 52" fill="none" xmlns="http://www.w3.org/2000/svg">
<path fill-rule="evenodd" clip-rule="evenodd" d="M76.4591 22.3659C76.7547 22.8757 76.8513 23.4548 76.8829 24.1063L76.9252 24.9735V31.0453L76.9674 31.9155C77.0518 33.3347 78.0985 34.3844 79.5297 34.4734L80.3954 34.5156V24.975L80.4377 24.1078C80.4738 23.4654 80.5689 22.8742 80.869 22.3599C81.8312 20.7039 83.9532 20.1414 85.6106 21.1006C86.1355 21.4052 86.5713 21.8426 86.876 22.3705C87.17 22.8802 87.2635 23.4699 87.2997 24.1078L87.342 24.9735V31.0468L87.3842 31.917C87.4732 33.3422 88.5123 34.3919 89.9481 34.4749L90.8107 34.5171V24.1093C90.8107 20.2756 87.7054 17.1688 83.8717 17.1688C81.8794 17.1673 79.9807 18.024 78.6656 19.5185C77.349 18.0225 75.4517 17.1658 73.4594 17.1658C72.0191 17.1658 70.6814 17.6032 69.5729 18.3588C68.8958 17.6032 67.3861 17.1658 66.5159 17.1658V34.5171L67.3831 34.4749C68.8339 34.3799 69.8851 33.3573 69.9409 31.917L69.9877 31.0468V24.975L70.0299 24.1078C70.0661 23.4518 70.1566 22.8772 70.4537 22.3644C71.075 21.2936 72.2197 20.6361 73.4579 20.6361C74.6931 20.6346 75.8393 21.2951 76.4591 22.3659ZM17.059 34.4734L17.9262 34.5156H30.9386L30.8963 33.6499C30.7772 32.2247 29.7682 31.1811 28.3385 31.0876L27.4713 31.0453H19.6636L30.0714 20.6331L30.0292 19.7674C29.9613 18.3271 28.9101 17.2865 27.4713 17.205L26.6041 17.1643L13.5918 17.1598L13.634 18.027C13.7486 19.4401 14.7727 20.5049 16.1919 20.5848L17.0621 20.6285H24.8683L14.459 31.0438L14.5012 31.911C14.5857 33.3453 15.6188 34.3814 17.059 34.4734ZM63.106 19.704C66.4933 23.0913 66.4948 28.5855 63.106 31.9713C59.7141 35.3586 54.2229 35.3586 50.8311 31.9713C47.4438 28.584 47.4438 23.0883 50.8311 19.701C52.4584 18.0737 54.6618 17.1598 56.9617 17.1598C59.2692 17.1613 61.4787 18.0752 63.106 19.704ZM60.6522 22.1608C62.6837 24.1938 62.6837 27.4891 60.6522 29.5236C58.6192 31.5551 55.3224 31.5551 53.2894 29.5236C51.2579 27.4906 51.2579 24.1938 53.2894 22.1608C55.3224 20.1293 58.6192 20.1293 60.6522 22.1608ZM38.7568 17.1643C41.0568 17.1643 43.2632 18.0798 44.8875 19.7055C48.2763 23.0929 48.2763 28.5886 44.8875 31.9728C41.4956 35.3602 36.0045 35.3602 32.6126 31.9728C29.2253 28.5855 29.2253 23.0898 32.6126 19.7025C34.2399 18.0752 36.4433 17.1613 38.7433 17.1613H38.7553V17.1643H38.7568ZM42.4307 22.1578C44.4637 24.1908 44.4637 27.4876 42.4307 29.5221C40.3977 31.5536 37.1009 31.5536 35.0679 29.5221C33.0364 27.4891 33.0364 24.1923 35.0679 22.1593C37.1039 20.1278 40.3977 20.1278 42.4307 22.1578Z" fill="#9CA3AF"/>
</svg>
