<svg width="103" height="52" viewBox="0 0 103 52" fill="none" xmlns="http://www.w3.org/2000/svg">
<g clip-path="url(#clip0_4179_3962)">
<path fill-rule="evenodd" clip-rule="evenodd" d="M32.079 27.3491C31.7094 26.8429 31.081 26.429 30.32 26.429C28.9104 26.429 27.8939 27.5152 27.8939 28.9866C27.8939 30.4584 28.9104 31.5444 30.32 31.5444C30.9785 31.5444 31.5941 31.2609 31.916 30.9784C31.9376 30.9594 31.9487 30.9321 31.9487 30.9032V30.1051C31.9487 30.0551 31.9085 30.0143 31.8588 30.0143H30.046C29.9738 30.0143 29.9154 29.9551 29.9154 29.8825V28.6981C29.9154 28.6252 29.9738 28.5661 30.046 28.5661H33.2964V26.8083L32.2469 27.3887C32.191 27.4197 32.1169 27.4009 32.079 27.3491ZM16.8202 28.1808H18.7564C19.3109 28.1808 19.6575 27.8653 19.6575 27.3633C19.6575 26.8842 19.3109 26.5457 18.7564 26.5457H16.8202C16.7537 26.5457 16.7001 26.6001 16.7001 26.667V28.0595C16.7001 28.1264 16.7537 28.1808 16.8202 28.1808ZM24.6922 32.7672C24.6922 32.8274 24.644 32.8758 24.5848 32.8758H23.1592C23.0998 32.8758 23.0516 32.8274 23.0516 32.7672V25.1946C23.0516 25.1347 23.0998 25.086 23.1592 25.086H24.5848C24.644 25.086 24.6922 25.1347 24.6922 25.1946V32.7672ZM18.7496 25.086H19.1145C20.5817 25.086 21.3325 26.0317 21.3325 27.0711C21.3325 27.8798 20.9145 28.4771 20.3536 28.7411C20.2603 28.7851 20.2637 28.9184 20.359 28.9577C21.0129 29.2283 21.4829 29.9357 21.4829 30.7619C21.4829 31.9416 20.7203 32.8758 19.2417 32.8758H15.1797C15.1133 32.8758 15.0595 32.8216 15.0595 32.7545V27.8134L4.57273 35.5649C4.37185 35.7136 4.47564 36.0354 4.72494 36.0354H33.0389C33.1811 36.0354 33.2965 35.9188 33.2965 35.775V31.8546C32.5388 32.5688 31.5426 33.0161 30.3198 33.0161C28.0557 33.0161 26.2073 31.4396 26.2073 28.9866C26.2073 26.5222 28.0557 24.9574 30.3198 24.9574C31.7435 24.9574 32.6972 25.6094 33.2965 26.4059V14.8465C33.2965 14.6335 33.057 14.5106 32.8867 14.6363L18.7496 25.086ZM16.8202 31.4159H18.8257C19.4379 31.4159 19.8074 31.0888 19.8074 30.5282C19.8074 30.038 19.4613 29.6406 18.8257 29.6406H16.8202C16.7537 29.6406 16.7001 29.6951 16.7001 29.762V31.2945C16.7001 31.3614 16.7537 31.4159 16.8202 31.4159ZM41.5135 31.1796L40.6299 30.7164C40.573 30.6864 40.5011 30.7083 40.4666 30.763C40.0929 31.3553 39.4034 31.7951 38.6542 31.7951C37.1834 31.7951 36.0914 30.6039 36.0914 28.9802C36.0914 27.3336 37.1834 26.1656 38.6542 26.1656C39.4029 26.1656 40.0921 26.5944 40.4661 27.1949C40.5008 27.2508 40.5735 27.2724 40.6312 27.2409L41.5081 26.758C41.5748 26.7212 41.5982 26.6371 41.5573 26.5721C41.0025 25.6894 40.0839 24.951 38.6542 24.951C36.4589 24.951 34.754 26.5747 34.754 28.9802C34.754 31.3746 36.4589 33.0097 38.6542 33.0097C40.0823 33.0097 40.9904 32.2518 41.564 31.3686C41.6075 31.3017 41.5836 31.2163 41.5135 31.1796ZM46.1194 31.7951C44.6136 31.7951 43.6542 30.5805 43.6542 28.9803C43.6542 27.3688 44.6136 26.1657 46.1194 26.1657C47.614 26.1657 48.5844 27.3688 48.5844 28.9803C48.5844 30.5805 47.614 31.7951 46.1194 31.7951ZM45.0661 25.0872C43.4093 25.5348 42.3158 27.0423 42.3158 28.9803C42.3158 31.3046 43.8886 33.0098 46.1194 33.0098C48.0191 33.0098 49.4531 31.7608 49.8271 29.9434C50.4362 26.9837 47.8661 24.3311 45.0661 25.0872ZM59.1765 25.0796H57.4855C57.4103 25.0796 57.3428 25.126 57.3153 25.1968L55.2701 30.5419L53.2133 25.1963C53.1858 25.126 53.1183 25.0796 53.0431 25.0796H51.3518C51.3018 25.0796 51.2612 25.1208 51.2612 25.1713V32.778C51.2612 32.8285 51.3018 32.8697 51.3518 32.8697H52.5224C52.5723 32.8697 52.613 32.8285 52.613 32.778V26.8548L54.9652 32.8283C54.975 32.8533 54.9989 32.8697 55.0254 32.8697H55.5148C55.5413 32.8697 55.5653 32.8533 55.575 32.8283L57.9156 26.8548V32.778C57.9156 32.8285 57.956 32.8697 58.0063 32.8697H59.1765C59.2268 32.8697 59.2672 32.8285 59.2672 32.778V25.1713C59.2672 25.1208 59.2268 25.0796 59.1765 25.0796ZM76.4624 25.0796H71.4614C71.3844 25.0796 71.322 25.1426 71.322 25.2205V32.7288C71.322 32.8066 71.3844 32.8697 71.4614 32.8697H76.4624C76.5394 32.8697 76.6017 32.8066 76.6017 32.7288V31.8076C76.6017 31.7298 76.5394 31.6667 76.4624 31.6667H72.8132C72.7362 31.6667 72.6739 31.6037 72.6739 31.5259V29.6351C72.6739 29.5572 72.7362 29.4942 72.8132 29.4942H76.3818C76.4585 29.4942 76.5211 29.4309 76.5211 29.3534V28.4322C76.5211 28.3543 76.4585 28.2913 76.3818 28.2913H72.8132C72.7362 28.2913 72.6739 28.2283 72.6739 28.1504V26.4234C72.6739 26.3456 72.7362 26.2825 72.8132 26.2825H76.4624C76.5394 26.2825 76.6017 26.2193 76.6017 26.1417V25.2205C76.6017 25.1426 76.5394 25.0796 76.4624 25.0796ZM81.7345 28.7585H80.0126C79.9363 28.7585 79.8745 28.696 79.8745 28.619V26.4219C79.8745 26.3449 79.9363 26.2824 80.0126 26.2824H81.7345C82.4966 26.2824 83.0513 26.7615 83.0513 27.509C83.0513 28.268 82.4966 28.7585 81.7345 28.7585ZM82.7951 29.7693C83.6576 29.5495 84.4374 28.8028 84.4374 27.5205C84.4374 26.0723 83.4325 25.0797 81.9076 25.0797H78.6607C78.5845 25.0797 78.5227 25.1422 78.5227 25.2193V32.7299C78.5227 32.807 78.5845 32.8698 78.6607 32.8698H79.7362C79.8125 32.8698 79.8745 32.807 79.8745 32.7299V30.101C79.8745 30.0239 79.9363 29.9614 80.0126 29.9614H81.1473C81.1962 29.9614 81.2413 29.9875 81.2663 30.0299L82.8842 32.801C82.9089 32.8435 82.9542 32.8698 83.0032 32.8698H84.2461C84.3545 32.8698 84.4212 32.7497 84.3635 32.6568C84.0068 32.0806 83.0274 30.4986 82.7052 29.9781C82.6539 29.8958 82.7019 29.793 82.7951 29.7693ZM95.0537 26.2825H98.7098C98.7847 26.2825 98.8455 26.221 98.8455 26.145V25.217C98.8455 25.1413 98.7847 25.0796 98.7098 25.0796H93.7018C93.6269 25.0796 93.5658 25.1413 93.5658 25.217V32.7321C93.5658 32.8081 93.6269 32.8696 93.7018 32.8696H98.7098C98.7847 32.8696 98.8455 32.8081 98.8455 32.7321V31.8041C98.8455 31.7284 98.7847 31.6669 98.7098 31.6669H95.0537C94.9785 31.6669 94.9177 31.6052 94.9177 31.5295V29.6316C94.9177 29.5556 94.9785 29.4941 95.0537 29.4941H98.6289C98.7041 29.4941 98.7649 29.4327 98.7649 29.3567V28.4287C98.7649 28.3529 98.7041 28.2912 98.6289 28.2912H95.0537C94.9785 28.2912 94.9177 28.2298 94.9177 28.1537V26.4199C94.9177 26.3439 94.9785 26.2825 95.0537 26.2825ZM92.1866 31.1472L91.303 30.684C91.2461 30.654 91.1742 30.6759 91.1397 30.7306C90.766 31.3229 90.0766 31.7627 89.3274 31.7627C87.8565 31.7627 86.7645 30.5715 86.7645 28.9478C86.7645 27.3012 87.8565 26.1332 89.3274 26.1332C90.0761 26.1332 90.7653 26.5621 91.1392 27.1625C91.174 27.2184 91.2466 27.2401 91.3043 27.2086L92.1812 26.7256C92.2479 26.6889 92.2714 26.6045 92.2304 26.5397C91.6757 25.657 90.757 24.9186 89.3274 24.9186C87.1321 24.9186 85.4271 26.5423 85.4271 28.9478C85.4271 31.3422 87.1321 32.9773 89.3274 32.9773C90.7552 32.9773 91.6636 32.2194 92.2371 31.3362C92.2806 31.2693 92.2567 31.1839 92.1866 31.1472ZM69.1566 25.0796H67.4656C67.3904 25.0796 67.3229 25.126 67.2953 25.1968L65.2502 30.5419L63.1934 25.1963C63.1658 25.126 63.0984 25.0796 63.0232 25.0796H61.3319C61.2819 25.0796 61.2412 25.1208 61.2412 25.1713V32.778C61.2412 32.8285 61.2819 32.8697 61.3319 32.8697H62.5024C62.5524 32.8697 62.5931 32.8285 62.5931 32.778V26.8548L64.9452 32.8283C64.955 32.8533 64.979 32.8697 65.0055 32.8697H65.4948C65.5213 32.8697 65.5453 32.8533 65.5551 32.8283L67.8957 26.8548V32.778C67.8957 32.8285 67.9361 32.8697 67.9863 32.8697H69.1566C69.2068 32.8697 69.2473 32.8285 69.2473 32.778V25.1713C69.2473 25.1208 69.2068 25.0796 69.1566 25.0796Z" fill="#9CA3AF"/>
</g>
<defs>
<clipPath id="clip0_4179_3962">
<rect width="94.3787" height="21.4497" fill="white" transform="translate(4.4668 14.5858)"/>
</clipPath>
</defs>
</svg>
