<svg width="103" height="52" viewBox="0 0 103 52" fill="none" xmlns="http://www.w3.org/2000/svg">
<path fill-rule="evenodd" clip-rule="evenodd" d="M18.415 19.3413V21.8449C17.2244 21.4284 15.9206 21.1853 14.8811 21.1853C13.598 21.1853 12.884 21.5762 12.884 22.2787C12.884 22.7269 13.1965 23.024 14.093 23.4269L16.5041 24.5088C18.4328 25.3754 19.4049 26.6397 19.4049 28.2824C19.4049 30.8178 17.2104 32.4172 13.7319 32.4172C12.4632 32.4172 10.9957 32.2357 9.4411 31.8842V29.2964C10.9823 29.7157 12.3939 29.9396 13.4921 29.9396C14.9302 29.9396 15.7005 29.539 15.7005 28.7923C15.7005 28.3436 15.3996 28.0138 14.7107 27.7061L12.0718 26.5309C10.1156 25.6585 9.21289 24.4833 9.21289 22.8078C9.21289 20.4068 11.3279 18.8757 14.6462 18.8757C15.8079 18.8757 17.2378 19.0524 18.415 19.3413ZM21.2826 19.1381H25.1819V32.1548H21.2826V19.1381ZM37.8602 19.1381V21.5228H31.9734V24.4587H37.1158V26.6156H31.9734V29.6594H37.9362V32.1548H28.1843V19.1381H37.8602ZM56.2817 19.1381V32.1548H52.509V23.5873L48.8133 32.2564H46.4282L42.7576 23.5873V32.1548H40.1524V19.1381H44.914L48.2804 27.0557L51.6294 19.1381H56.2817ZM68.9701 19.1381V21.5228H63.0746V24.4587H68.2156V26.6156H63.0746V29.6594H69.0365V32.1548H59.2759V19.1381H68.9701ZM82.7047 19.1381V32.1548H78.5434L73.8579 23.8063V32.1548H71.2522V19.1381H75.5232L80.1082 27.3763V19.1381H82.7047ZM94.0209 19.3413V21.8449C92.8389 21.4313 91.5269 21.1853 90.5067 21.1853C89.2034 21.1853 88.4899 21.57 88.4899 22.2748C88.4899 22.7341 88.7812 23.0086 89.7084 23.4274L92.109 24.5093C94.0517 25.385 95.0117 26.6383 95.0117 28.3002C95.0117 30.8221 92.8153 32.4181 89.3445 32.4181C88.0739 32.4181 86.6006 32.2357 85.0479 31.8852V29.2973C86.5871 29.7157 87.9959 29.9406 89.0869 29.9406C90.5154 29.9406 91.3069 29.54 91.3069 28.8168C91.3069 28.3383 91.0296 28.0297 90.3074 27.7071L87.6791 26.5319C85.7109 25.6527 84.8187 24.491 84.8187 22.8092C84.8187 20.4097 86.9348 18.8777 90.2453 18.8777C91.4104 18.8762 92.8461 19.0524 94.0209 19.3413Z" fill="#9CA3AF"/>
</svg>
