<svg width="103" height="52" viewBox="0 0 103 52" fill="none" xmlns="http://www.w3.org/2000/svg">
<path fill-rule="evenodd" clip-rule="evenodd" d="M72.8505 19.877H70.9184V31.7061H79.9957L81.2256 29.7735H72.8505V19.877ZM46.3547 20.4627L39.269 31.7066H41.6118L43.7492 28.3101H48.3171L49.5177 26.378H44.9498L47.4388 22.4836L53.2658 31.7071H55.608L48.4633 20.433C48.024 19.701 46.8526 19.701 46.3547 20.4627ZM60.0872 21.8061H68.2125L69.4106 19.875L60.0276 19.8806C56.7633 19.8806 54.6148 22.527 54.6148 25.7913C54.6148 29.0567 56.7638 31.7031 60.0276 31.7031L67.9648 31.6935L69.2073 29.7771H60.0866C57.8857 29.7771 56.5988 27.9928 56.5988 25.7913C56.5993 23.5904 57.8862 21.8061 60.0872 21.8061ZM18.6219 19.8806H10.2474C6.98299 19.8806 4.83398 22.527 4.83398 25.7918C4.83398 29.0567 6.98299 31.7031 10.2474 31.7031H18.6219C21.8863 31.7031 24.0353 29.0567 24.0353 25.7918C24.0353 22.527 21.8863 19.8806 18.6219 19.8806ZM18.6219 29.7771H10.2474C8.04639 29.7771 6.75951 27.9928 6.75951 25.7918C6.75951 23.5909 8.04639 21.8061 10.2474 21.8061H18.6219C20.8229 21.8061 22.1098 23.5909 22.1098 25.7918C22.1098 27.9928 20.8229 29.7771 18.6219 29.7771ZM86.7489 21.8061H94.8743L96.0734 19.875L86.6904 19.8806C83.4251 19.8806 81.2766 22.527 81.2766 25.7913C81.2766 29.0567 83.4256 31.7031 86.6904 31.7031L94.6266 31.6935L95.8691 29.7771H86.7485C84.8693 29.7771 83.6667 28.4781 83.3524 26.7286H93.5854L94.8153 24.796H83.3524C83.6874 23.0834 84.8966 21.8061 86.7489 21.8061ZM35.0482 26.9001C35.979 26.9001 36.8717 26.5304 37.5298 25.8722C38.188 25.214 38.5577 24.3214 38.5577 23.3906C38.5577 22.4598 38.188 21.5672 37.5298 20.909C36.8717 20.2508 35.979 19.8811 35.0482 19.8811L25.1951 19.877V31.7061H27.3617V21.8066H35.0482C35.4683 21.8066 35.8712 21.9735 36.1683 22.2705C36.4653 22.5676 36.6322 22.9705 36.6322 23.3906C36.6322 23.8107 36.4653 24.2136 36.1683 24.5107C35.8712 24.8077 35.4683 24.9746 35.0482 24.9746H28.8847L35.8377 31.693H38.6349L33.6574 26.9047L35.0482 26.9001ZM98.1458 19.7333C97.5646 19.7333 97.0738 20.1802 97.0738 20.7861C97.0738 21.3975 97.5646 21.8449 98.1458 21.8449C98.7213 21.8449 99.2127 21.398 99.2127 20.7861C99.2127 20.1797 98.7208 19.7333 98.1458 19.7333ZM98.1458 21.6684C97.663 21.6684 97.2856 21.2941 97.2856 20.7856C97.2856 20.2857 97.663 19.9088 98.1458 19.9088C98.6235 19.9088 98.9998 20.2862 98.9998 20.7856C98.9998 21.2941 98.6235 21.6684 98.1458 21.6684Z" fill="#9CA3AF"/>
<path fill-rule="evenodd" clip-rule="evenodd" d="M98.3169 20.8621C98.4955 20.8399 98.6322 20.7445 98.6322 20.5266C98.6322 20.2865 98.4904 20.1801 98.2024 20.1801H97.7383V21.3978H97.9224V20.8702H98.1353L98.4566 21.3978H98.6625L98.3169 20.8621ZM97.9224 20.7138V20.3364H98.1746C98.3028 20.3364 98.4395 20.3642 98.4395 20.515C98.4395 20.7022 98.2997 20.7133 98.1429 20.7133L97.9224 20.7138Z" fill="#9CA3AF"/>
</svg>
