<svg width="103" height="52" viewBox="0 0 103 52" fill="none" xmlns="http://www.w3.org/2000/svg">
<g clip-path="url(#clip0_4179_3954)">
<path d="M34.7944 25.8296C34.7944 21.8146 34.8006 17.7964 34.7851 13.7845C34.7851 13.2264 35.154 12.8792 35.7121 12.8792C36.7445 12.873 37.7832 12.8699 38.8156 12.8792C39.4016 12.8854 39.7426 13.2419 39.7364 13.7907C39.7209 17.3438 39.7271 20.903 39.7271 24.4561V24.6514C39.7333 25.0452 39.9069 25.3335 40.2697 25.4886C40.62 25.6374 40.9487 25.5599 41.2339 25.256C42.2757 24.1399 43.3143 23.0206 44.3498 21.9014C44.9854 21.2131 45.6303 20.5341 46.2597 19.8427C46.4984 19.5823 46.7744 19.4583 47.1309 19.4645C48.43 19.4738 49.7353 19.4738 51.0343 19.4645C51.4188 19.4645 51.7226 19.5823 51.8838 19.9388C52.0482 20.3078 51.9707 20.6364 51.6947 20.9372C49.7446 23.095 47.8006 25.256 45.8535 27.4139C45.6985 27.5875 45.5466 27.7674 45.4257 27.9658C45.2086 28.3161 45.2086 28.6603 45.4102 29.0168C45.6272 29.4013 45.9341 29.7113 46.238 30.0245C48.5974 32.449 50.963 34.8735 53.3286 37.2918C53.6139 37.5864 53.6976 37.9088 53.555 38.2871C53.4185 38.6405 53.1488 38.8017 52.7055 38.8017C51.2607 38.8017 49.8128 38.7955 48.368 38.8017C48.0424 38.8017 47.7913 38.6994 47.5588 38.4514C45.4598 36.247 43.3453 34.055 41.237 31.8599C40.9363 31.5437 40.6014 31.4631 40.2542 31.6088C39.9038 31.7483 39.7209 32.0459 39.7209 32.4769V37.8809C39.7209 38.4638 39.4264 38.7645 38.8497 38.7676H35.6749C35.0393 38.7676 34.7913 38.5165 34.7913 37.8902L34.7944 25.8296ZM54.4944 21.7898C54.4944 19.1327 54.5037 16.4726 54.4851 13.8155C54.4789 13.214 54.8292 12.8699 55.44 12.8699C56.4446 12.8761 57.4429 12.8699 58.4443 12.8699C59.0303 12.8699 59.3651 13.1985 59.3651 13.7814C59.3713 15.3316 59.3713 16.8849 59.3744 18.4351C59.3744 19.1048 59.7186 19.4521 60.3821 19.4521H64.5521C64.9924 19.4521 65.2807 19.6908 65.3675 20.1217C65.411 20.3295 65.3955 20.5372 65.4017 20.7511V23.3214C65.4017 23.9942 65.1009 24.2949 64.4281 24.2949C63.0949 24.2949 61.7618 24.2887 60.4286 24.2887C59.7465 24.2887 59.3961 24.6328 59.3899 25.3056C59.3837 26.6729 59.362 28.034 59.3806 29.4013C59.4086 31.4848 61.0053 33.4039 63.0794 33.8938C63.6902 34.0395 64.3103 34.0643 64.9304 33.9775C65.4358 33.9062 65.8016 34.1759 65.8605 34.6844C65.9876 35.7664 66.1023 36.8516 66.214 37.9336C66.2574 38.346 65.9566 38.7242 65.5319 38.7924C64.3878 38.9878 63.2438 38.9196 62.1183 38.6653C58.1002 37.7662 55.1486 34.5542 54.5719 30.4833C54.513 30.0803 54.4944 29.6772 54.4944 29.2773V21.7898ZM90.1709 34.486C90.1709 34.117 89.8887 33.8597 89.5198 33.8411C89.2686 33.8318 89.0206 33.8225 88.7695 33.8008C87.4859 33.7047 86.8255 33.1032 86.593 31.8382C86.4132 30.874 86.4194 29.8942 86.4132 28.9145C86.4039 26.1024 86.407 23.2904 86.407 20.4783C86.407 20.3946 86.407 20.3171 86.4008 20.2365C86.3667 19.7807 86.038 19.4552 85.576 19.4552C84.494 19.449 83.4089 19.449 82.3268 19.4552C81.8369 19.4552 81.4897 19.8055 81.468 20.2892C81.4618 20.407 81.468 20.5279 81.468 20.6674C81.375 20.6178 81.3037 20.5837 81.2355 20.5496C79.2822 19.5234 77.2111 19.1916 75.0346 19.5544C69.4942 20.4845 65.8822 26.0342 67.2588 31.4786C69.0074 38.3863 77.2886 41.1364 82.8291 36.6407C82.9593 36.5353 83.012 36.5384 83.1143 36.6811C83.6848 37.4965 84.4382 38.0855 85.3745 38.4421C86.407 38.8358 87.4828 38.8885 88.5742 38.811C88.9617 38.7831 89.3462 38.7273 89.6996 38.5506C89.9507 38.4235 90.1554 38.2344 90.1616 37.946C90.1833 36.7927 90.1771 35.6393 90.1709 34.486ZM76.6903 33.9868C73.996 33.9775 71.8536 31.7855 71.8629 29.0385C71.8722 26.4404 74.0735 24.2825 76.7151 24.2887C79.4248 24.2949 81.5641 26.4714 81.5579 29.2246C81.5486 31.8196 79.3318 33.9899 76.6903 33.9868ZM22.6934 19.4148C17.5467 19.4241 13.076 23.3989 12.9612 28.9207C12.8434 34.6317 17.3669 38.718 22.4175 38.8451C27.8184 38.9816 32.2923 34.7185 32.3853 29.3331C32.4752 23.8515 28.1812 19.4769 22.6934 19.4148ZM22.6593 33.9868C20.0023 33.9868 17.8227 31.8041 17.8165 29.1377C17.8103 26.4683 19.9868 24.2887 22.6686 24.2794C25.3443 24.2732 27.5115 26.4466 27.5115 29.1315C27.5115 31.8165 25.3443 33.9868 22.6593 33.9868Z" fill="#9CA3AF"/>
</g>
<defs>
<clipPath id="clip0_4179_3954">
<rect width="77.2189" height="26.0373" fill="white" transform="translate(12.957 12.8699)"/>
</clipPath>
</defs>
</svg>
