<svg width="103" height="52" viewBox="0 0 103 52" fill="none" xmlns="http://www.w3.org/2000/svg">
<path fill-rule="evenodd" clip-rule="evenodd" d="M56.7128 22.0791H59.1206L54.7612 32.6122H52.3753L54.1125 28.2967L51.3308 22.0791H53.8101L55.2779 25.7239L56.7128 22.0791ZM59.7529 18.3573H61.9903V29.1323H59.7639L59.7529 18.3573ZM66.6522 21.8977H66.7731C67.2569 21.8922 67.7407 21.9911 68.1915 22.1725C68.6422 22.3594 69.0546 22.6288 69.4009 22.9697C69.7472 23.316 70.0221 23.7228 70.209 24.1736C70.3959 24.6244 70.4949 25.1027 70.4949 25.5919V25.7019C70.4784 26.1857 70.3685 26.664 70.165 27.1037C69.9616 27.549 69.6758 27.9449 69.3184 28.2802C68.9611 28.6101 68.5433 28.8684 68.087 29.0389C67.6362 29.2093 67.1469 29.2862 66.6632 29.2697H66.5422C66.0584 29.2697 65.5747 29.1763 65.1294 28.9949C64.6786 28.808 64.2718 28.5386 63.9254 28.1977C63.5846 27.8569 63.3097 27.4501 63.1228 27.0048C62.9359 26.554 62.8369 26.0757 62.8314 25.5919V25.46C62.8534 24.9762 62.9634 24.498 63.1668 24.0582C63.3702 23.6184 63.6561 23.217 64.0079 22.8872C64.3652 22.5574 64.783 22.299 65.2393 22.1286C65.6901 21.9581 66.1739 21.8812 66.6632 21.8977H66.6522ZM66.7511 27.1972C66.9545 27.1862 67.1469 27.1367 67.3284 27.0543C67.5098 26.9663 67.6747 26.8454 67.8121 26.6969C67.9441 26.5485 68.0485 26.3726 68.12 26.1857C68.186 25.9933 68.2134 25.7954 68.208 25.5919V25.504C68.2025 25.3006 68.164 25.0972 68.0815 24.9103C68.0045 24.7234 67.8891 24.5584 67.7462 24.4155C67.5977 24.2726 67.4273 24.1626 67.2404 24.0856C67.0535 24.0087 66.8501 23.9702 66.6467 23.9757H66.5532C66.3498 23.9812 66.1519 24.0307 65.9705 24.1186C65.7836 24.2066 65.6186 24.3275 65.4867 24.4815C65.3493 24.6299 65.2448 24.8058 65.1733 24.9982C65.1074 25.1851 65.0799 25.3885 65.0909 25.5919V25.6964C65.0909 25.8943 65.1349 26.0922 65.2173 26.2791C65.2998 26.4605 65.4152 26.631 65.5582 26.7684C65.7011 26.9058 65.877 27.0158 66.0639 27.0928C66.2509 27.1642 66.4488 27.1972 66.6522 27.1972H66.7511ZM75.1073 23.9922H74.9643C74.7609 23.9977 74.563 24.0472 74.3761 24.1296C74.1892 24.2121 74.0243 24.333 73.8868 24.4815C73.7494 24.6299 73.6394 24.8058 73.568 24.9982C73.4965 25.1906 73.4635 25.3885 73.4745 25.5919V25.7459C73.4855 25.9493 73.535 26.1472 73.6229 26.3341C73.7109 26.5155 73.8318 26.6804 73.9858 26.8179C74.1342 26.9553 74.3156 27.0598 74.508 27.1257C74.7004 27.1972 74.9039 27.2247 75.1073 27.2137C75.2355 27.2137 75.3638 27.1972 75.4921 27.1642C75.6204 27.1349 75.7431 27.0891 75.8604 27.0268C75.974 26.9681 76.0821 26.8967 76.1848 26.8124C76.2837 26.7281 76.3735 26.6346 76.4541 26.532L78.1748 27.6205C78.0099 27.8789 77.812 28.1098 77.5866 28.3187C77.3612 28.5221 77.1138 28.7035 76.8445 28.8464C76.5751 28.9894 76.2892 29.0993 75.9923 29.1708C75.6955 29.2423 75.3931 29.2807 75.0908 29.2752C73.0292 29.2752 71.1986 27.8239 71.1986 25.5865C71.1986 23.3435 73.0292 21.9087 75.0908 21.9087C75.3931 21.9032 75.6955 21.9416 75.9923 22.0131C76.2892 22.0846 76.5751 22.1945 76.8445 22.3375C77.1138 22.4859 77.3612 22.6618 77.5866 22.8652C77.812 23.0741 78.0099 23.305 78.1748 23.5634L76.4486 24.6519C76.3717 24.5493 76.2819 24.4558 76.1793 24.3715C76.0803 24.2872 75.9722 24.2158 75.8549 24.1571C75.7376 24.0985 75.6167 24.0527 75.4921 24.0197C75.3638 23.9904 75.2337 23.9739 75.1018 23.9702L75.1073 23.9922ZM80.1209 18.4013H80.1539C80.3243 18.3958 80.4948 18.4288 80.6542 18.4947C80.8136 18.5607 80.9621 18.6542 81.083 18.7751C81.2094 18.8961 81.3084 19.039 81.3744 19.1984C81.4458 19.3578 81.4788 19.5283 81.4843 19.6987C81.4788 19.8746 81.4403 20.045 81.3689 20.2044C81.2974 20.3639 81.1984 20.5123 81.072 20.6332C80.9456 20.7542 80.7971 20.8476 80.6322 20.9081C80.4728 20.9741 80.2969 21.0071 80.1209 21.0016C79.945 21.0071 79.7691 20.9741 79.6042 20.9136C79.4393 20.8531 79.2908 20.7597 79.1589 20.6387C79.0324 20.5178 78.928 20.3694 78.851 20.2099C78.7796 20.0505 78.7356 19.8746 78.7301 19.6987C78.7356 19.5283 78.7796 19.3523 78.8565 19.1929C78.928 19.039 79.0379 18.8961 79.1644 18.7751C79.2963 18.6597 79.4447 18.5662 79.6097 18.5057C79.7746 18.4453 79.9505 18.4178 80.1264 18.4288L80.1209 18.4013ZM78.994 22.0901H81.2314V29.1488H78.994V22.0901ZM85.7613 19.5502V22.0901H89.3347L90.8025 25.7349L92.2373 22.0901H94.6452L90.2967 32.6232H87.9053L89.6425 28.3077L87.614 23.7723H85.7723V29.1543H83.5349V23.7723H82.2485V22.0901H83.5349V19.5612L85.7613 19.5502ZM38.7856 21.9142H38.9175C39.3793 21.9416 39.8246 22.0516 40.2424 22.2495C40.6547 22.4474 41.0285 22.7223 41.3364 23.0631C41.6387 23.404 41.8806 23.8053 42.0291 24.2396C42.183 24.6684 42.249 25.1302 42.227 25.5865V25.7404C42.2325 26.1967 42.15 26.6475 41.9796 27.0708C41.8092 27.4996 41.5563 27.8844 41.2374 28.2142C40.9186 28.5386 40.5392 28.8025 40.1159 28.9784C39.6981 29.1598 39.2473 29.2588 38.7856 29.2642C38.584 29.2679 38.3824 29.2514 38.1808 29.2148C37.9793 29.1745 37.785 29.1158 37.5981 29.0389C37.4112 28.9582 37.2334 28.8593 37.0648 28.742C36.8999 28.6247 36.7478 28.4909 36.6086 28.3407V32.6232H34.3711V22.0901H36.6086V22.8707C36.746 22.7168 36.8999 22.5793 37.0648 22.4584C37.2298 22.343 37.4057 22.2385 37.5926 22.156C37.7795 22.0791 37.9774 22.0186 38.1808 21.9746C38.3787 21.9361 38.5821 21.9197 38.7856 21.9251V21.9142ZM38.934 27.0708C39.1319 26.9938 39.3078 26.8729 39.4617 26.7244C39.6102 26.576 39.7311 26.4001 39.8136 26.2077C39.9015 26.0098 39.9455 25.8009 39.9455 25.5919C39.9455 24.9487 39.5552 24.3715 38.967 24.1241C38.3732 23.8767 37.6916 24.0087 37.2298 24.4595C36.7735 24.9103 36.6306 25.5865 36.8669 26.1857C37.1033 26.7849 37.6751 27.1807 38.3128 27.1917C38.5272 27.1917 38.7361 27.1532 38.934 27.0708ZM48.4446 22.0901H50.6711V29.1543H48.4446V28.3297C48.3071 28.4836 48.1532 28.621 47.9883 28.742C47.8179 28.8574 47.642 28.9619 47.4495 29.0444C47.2626 29.1213 47.0647 29.1818 46.8613 29.2258C46.6634 29.2642 46.4545 29.2807 46.2511 29.2752H46.1082C45.6519 29.2478 45.2066 29.1323 44.7943 28.9344C44.3875 28.7365 44.0191 28.4561 43.7113 28.1208C43.4089 27.7799 43.1725 27.3786 43.0241 26.9498C42.8757 26.521 42.8097 26.0647 42.8317 25.6084V25.4655C42.8262 25.0092 42.9086 24.5529 43.0736 24.1296C43.244 23.7008 43.4914 23.316 43.8102 22.9862C44.1291 22.6563 44.5084 22.3924 44.9262 22.211C45.3495 22.0296 45.8003 21.9306 46.2566 21.9251C46.46 21.9197 46.6689 21.9361 46.8668 21.9746C47.0702 22.0131 47.2681 22.0736 47.455 22.156C47.6475 22.2385 47.8234 22.3375 47.9938 22.4584C48.1587 22.5793 48.3126 22.7168 48.4501 22.8707L48.4446 22.0901ZM46.7349 27.1972C46.9438 27.1972 47.1527 27.1532 47.3506 27.0763C47.543 26.9938 47.7189 26.8784 47.8674 26.7354C48.0213 26.587 48.1422 26.4111 48.2247 26.2187C48.3071 26.0262 48.3511 25.8173 48.3566 25.6084C48.3566 24.9652 47.9718 24.388 47.3836 24.1406C46.7953 23.8932 46.1137 24.0197 45.6574 24.4705C45.2011 24.9158 45.0582 25.5974 45.2945 26.1912C45.5309 26.7849 46.1027 27.1807 46.7404 27.1917L46.7349 27.1972Z" fill="#9CA3AF"/>
<path fill-rule="evenodd" clip-rule="evenodd" d="M8.8457 26.6805V26.664C8.8457 26.6457 8.84754 26.6292 8.8512 26.6146C8.85487 26.5999 8.86036 26.5871 8.86769 26.5761C8.87869 26.5651 8.89152 26.5559 8.90618 26.5486C8.91717 26.5413 8.93 26.5358 8.94466 26.5321H15.4866C15.4976 26.5321 15.5086 26.5339 15.5196 26.5376C15.5306 26.5449 15.5398 26.5523 15.5471 26.5596C15.5544 26.5669 15.5618 26.5761 15.5691 26.5871C15.5728 26.5944 15.5764 26.6036 15.5801 26.6146C16.8335 31.3589 18.021 32.9421 19.049 32.9421C20.4838 32.9421 21.6053 29.8746 22.1605 27.9834C22.199 27.846 22.3749 27.901 22.353 28.0439C21.171 35.7458 17.6306 35.7458 16.4872 35.7458C12.9248 35.7403 9.90671 31.9416 8.8457 26.6805ZM29.2523 26.6476C28.2132 31.8646 25.1951 35.7293 21.6163 35.7293C21.4844 35.7293 21.3506 35.7238 21.215 35.7129C21.083 35.7019 20.9493 35.6854 20.8137 35.6634C20.6817 35.6451 20.5498 35.6194 20.4179 35.5864C20.2896 35.5571 20.1613 35.5223 20.033 35.482C20.0294 35.4783 20.0257 35.4765 20.022 35.4765C20.0184 35.4728 20.0147 35.471 20.011 35.471C20.0074 35.4673 20.0055 35.4636 20.0055 35.46C20.0019 35.4563 19.9982 35.4545 19.9945 35.4545C19.9836 35.4398 19.9744 35.4252 19.9671 35.4105C19.9597 35.3958 19.9561 35.3793 19.9561 35.361C19.9561 35.3427 19.9597 35.3262 19.9671 35.3115C19.9744 35.2969 19.9836 35.2822 19.9945 35.2676C21.7757 33.6348 22.8092 30.6882 23.2161 26.6366C23.2161 26.6219 23.2197 26.6091 23.2271 26.5981C23.2307 26.5834 23.2362 26.5724 23.2435 26.5651C23.2545 26.5541 23.2655 26.5468 23.2765 26.5431C23.2875 26.5358 23.3004 26.5321 23.315 26.5321H29.1478C29.1625 26.5321 29.1753 26.5358 29.1863 26.5431C29.201 26.5504 29.212 26.5596 29.2193 26.5706C29.2303 26.5816 29.2376 26.5926 29.2413 26.6036C29.2486 26.6182 29.2504 26.6329 29.2468 26.6476H29.2523Z" fill="#9CA3AF"/>
<path fill-rule="evenodd" clip-rule="evenodd" d="M29.2468 24.5037C29.2468 24.5073 29.2468 24.5091 29.2468 24.5091C29.2468 24.5091 29.2468 24.511 29.2468 24.5146C29.2468 24.5146 29.2468 24.5165 29.2468 24.5201C29.2504 24.5348 29.2504 24.5495 29.2468 24.5641C29.2468 24.5788 29.2413 24.5934 29.2303 24.6081C29.2229 24.6191 29.2138 24.6301 29.2028 24.6411C29.1881 24.6484 29.1735 24.6539 29.1588 24.6576H22.6168C22.6022 24.6576 22.5912 24.6557 22.5838 24.6521C22.5729 24.6448 22.5619 24.6374 22.5509 24.6301C22.5435 24.6228 22.5362 24.6154 22.5289 24.6081C22.5252 24.5971 22.5215 24.5861 22.5179 24.5751C21.27 19.8253 20.0825 18.2421 19.049 18.2421C17.6196 18.2421 16.4927 21.3151 15.9374 23.2063C15.8989 23.3382 15.723 23.2887 15.745 23.1403C16.9325 15.4438 20.4783 15.4438 21.5998 15.4438C25.1732 15.4438 28.1913 19.2426 29.2468 24.5037ZM16.4872 15.4548C16.6191 15.4548 16.7529 15.4603 16.8885 15.4713C17.0204 15.4823 17.1524 15.4988 17.2843 15.5208C17.4162 15.5428 17.5482 15.5685 17.6801 15.5978C17.8121 15.6308 17.9403 15.6674 18.0649 15.7077C18.0686 15.7114 18.0723 15.7132 18.0759 15.7132C18.0796 15.7169 18.0833 15.7187 18.0869 15.7187C18.0906 15.7224 18.0943 15.7261 18.0979 15.7297C18.1016 15.7297 18.1034 15.7315 18.1034 15.7352C18.1181 15.7499 18.1272 15.7645 18.1309 15.7792C18.1382 15.7939 18.1419 15.8103 18.1419 15.8287C18.1419 15.8433 18.1382 15.858 18.1309 15.8726C18.1272 15.891 18.1181 15.9056 18.1034 15.9166C16.3222 17.5439 15.2887 20.5015 14.8819 24.5531C14.8819 24.5678 14.8801 24.5806 14.8764 24.5916C14.8691 24.6026 14.8618 24.6136 14.8544 24.6246C14.8434 24.6319 14.8324 24.6393 14.8214 24.6466C14.8104 24.6502 14.7976 24.6521 14.783 24.6521H8.94466C8.93366 24.6521 8.92084 24.6484 8.90618 24.6411C8.89152 24.6338 8.88052 24.6246 8.87319 24.6136C8.8622 24.6026 8.85487 24.5916 8.8512 24.5806C8.84754 24.566 8.8457 24.5513 8.8457 24.5366C9.88472 19.325 12.9083 15.4548 16.4872 15.4548Z" fill="#9CA3AF"/>
</svg>
