<svg width="25" height="24" viewBox="0 0 25 24" fill="none" xmlns="http://www.w3.org/2000/svg">
<path d="M20.2172 9.61109V3.99675C20.2172 3.44452 19.7691 2.99634 19.2168 2.99634L17.3591 2.99634C16.8068 2.99634 16.3586 3.44452 16.3586 3.99675V6.30372" stroke="#131F4A" stroke-width="1.5" stroke-linecap="round" stroke-linejoin="round"/>
<path d="M3.49634 10.7136L11.1975 4.1128C11.9469 3.47054 13.0523 3.47054 13.8016 4.1128L21.5038 10.7136" stroke="#131F4A" stroke-width="1.5" stroke-linecap="round" stroke-linejoin="round"/>
<path d="M4.78296 9.61108L4.78296 19.003C4.78296 20.1085 5.67833 21.0038 6.78379 21.0038H11.4998" stroke="#131F4A" stroke-width="1.5" stroke-linecap="round" stroke-linejoin="round"/>
<path d="M17.5001 22.0042C20.2513 22.0042 22.5022 19.7532 22.5022 17.0031C22.5022 14.2529 20.2513 12 17.5001 12C14.749 12 12.498 14.2509 12.498 17.0031C12.498 18.1256 12.8772 19.16 13.5065 19.9973C14.4218 21.2118 15.8715 22.0042 17.5001 22.0042" stroke="#131F4A" stroke-width="1.5" stroke-linecap="round" stroke-linejoin="round"/>
<path d="M17.5002 14.9563V14.5011" stroke="#131F4A" stroke-width="1.5" stroke-linecap="round" stroke-linejoin="round"/>
<path d="M17.5002 19.049V19.5042" stroke="#131F4A" stroke-width="1.5" stroke-linecap="round" stroke-linejoin="round"/>
<path d="M16.3158 18.5608C16.4919 18.8499 16.794 19.05 17.1592 19.05H17.5003H17.9065C18.4357 19.05 18.8639 18.6208 18.8639 18.0926C18.8639 17.6534 18.5648 17.2703 18.1386 17.1632L16.8601 16.8421C16.4349 16.736 16.1348 16.3529 16.1348 15.9137C16.1348 15.3845 16.5639 14.9563 17.0922 14.9563H17.5003H17.8415C18.2056 14.9563 18.5068 15.1554 18.6828 15.4435" stroke="#131F4A" stroke-width="1.5" stroke-linecap="round" stroke-linejoin="round"/>
</svg>
