<svg width="24" height="24" viewBox="0 0 24 24" fill="none" xmlns="http://www.w3.org/2000/svg">
<path d="M19.7172 9.61109V3.99675C19.7172 3.44452 19.269 2.99634 18.7168 2.99634L16.859 2.99634C16.3068 2.99634 15.8586 3.44452 15.8586 3.99675V6.30372" stroke="#636B87" stroke-width="1.5" stroke-linecap="round" stroke-linejoin="round"/>
<path d="M2.99625 10.7136L10.6975 4.1128C11.4468 3.47054 12.5522 3.47054 13.3015 4.1128L21.0038 10.7136" stroke="#636B87" stroke-width="1.5" stroke-linecap="round" stroke-linejoin="round"/>
<path d="M4.28279 9.61108L4.28279 19.003C4.28279 20.1085 5.17816 21.0038 6.28362 21.0038H10.9996" stroke="#636B87" stroke-width="1.5" stroke-linecap="round" stroke-linejoin="round"/>
<path d="M17.0001 22.0042C19.7513 22.0042 22.0022 19.7532 22.0022 17.0031C22.0022 14.2529 19.7513 12 17.0001 12C14.249 12 11.998 14.2509 11.998 17.0031C11.998 18.1256 12.3772 19.16 13.0065 19.9973C13.9218 21.2118 15.3715 22.0042 17.0001 22.0042" stroke="#636B87" stroke-width="1.5" stroke-linecap="round" stroke-linejoin="round"/>
<path d="M17.0002 14.9563V14.5011" stroke="#636B87" stroke-width="1.5" stroke-linecap="round" stroke-linejoin="round"/>
<path d="M17.0002 19.049V19.5042" stroke="#636B87" stroke-width="1.5" stroke-linecap="round" stroke-linejoin="round"/>
<path d="M15.8158 18.5608C15.9919 18.8499 16.294 19.05 16.6592 19.05H17.0003H17.4065C17.9357 19.05 18.3639 18.6208 18.3639 18.0926C18.3639 17.6534 18.0648 17.2703 17.6386 17.1632L16.3601 16.8421C15.9349 16.736 15.6348 16.3529 15.6348 15.9137C15.6348 15.3845 16.0639 14.9563 16.5922 14.9563H17.0003H17.3415C17.7056 14.9563 18.0068 15.1554 18.1828 15.4435" stroke="#636B87" stroke-width="1.5" stroke-linecap="round" stroke-linejoin="round"/>
</svg>
