<svg width="25" height="24" viewBox="0 0 25 24" fill="none" xmlns="http://www.w3.org/2000/svg">
<path d="M11.2227 7.36308L11.6558 6.9299C12.8283 5.75742 14.7281 5.75742 15.9006 6.9299L20.4155 11.4448C21.8671 12.8964 21.8671 15.2494 20.4155 16.701L20.1944 16.9221C18.7428 18.3737 16.3898 18.3737 14.9382 16.9221L11.4237 13.4076" stroke="#131F4A" stroke-width="1.5" stroke-linecap="round" stroke-linejoin="round"/>
<path d="M5.99938 14.5141C4.52176 13.7758 3.49634 12.2642 3.49634 10.4994C3.49634 8.0134 5.51218 5.99756 7.99821 5.99756C10.4842 5.99756 12.5001 8.0134 12.5001 10.4994C12.5001 12.2632 11.4757 13.7748 9.99905 14.5131V14.5111L9.99805 19.007C9.99705 19.2711 9.892 19.5242 9.70492 19.7103L8.70251 20.7127C8.31234 21.1018 7.68208 21.1008 7.29292 20.7117L6.2895 19.7063C6.10242 19.5192 5.99738 19.2651 5.99738 19.001L5.99938 14.5121" stroke="#131F4A" stroke-width="1.5" stroke-linecap="round" stroke-linejoin="round"/>
<path d="M7.99829 10.2494V5.74748C7.99829 4.22785 9.2298 2.99634 10.7494 2.99634V2.99634C12.2691 2.99634 13.5006 4.22785 13.5006 5.74748V6.06462" stroke="#131F4A" stroke-width="1.5" stroke-linecap="round" stroke-linejoin="round"/>
<path d="M7.99724 10.2494C7.85919 10.2494 7.74714 10.3614 7.74914 10.4995C7.74914 10.6375 7.86119 10.7496 7.99924 10.7496C8.1373 10.7496 8.24935 10.6375 8.24935 10.4995C8.24835 10.3614 8.1363 10.2494 7.99724 10.2494" stroke="#131F4A" stroke-width="1.5" stroke-linecap="round" stroke-linejoin="round"/>
</svg>
