<svg width="24" height="24" viewBox="0 0 24 24" fill="none" xmlns="http://www.w3.org/2000/svg">
<path d="M10.7225 7.36308L11.1557 6.9299C12.3281 5.75742 14.2279 5.75742 15.4004 6.9299L19.9153 11.4448C21.3669 12.8964 21.3669 15.2494 19.9153 16.701L19.6942 16.9221C18.2426 18.3737 15.8896 18.3737 14.438 16.9221L10.9236 13.4076" stroke="#636B87" stroke-width="1.5" stroke-linecap="round" stroke-linejoin="round"/>
<path d="M5.4993 14.5141C4.02168 13.7758 2.99625 12.2642 2.99625 10.4994C2.99625 8.0134 5.01209 5.99756 7.49813 5.99756C9.98416 5.99756 12 8.0134 12 10.4994C12 12.2632 10.9756 13.7748 9.49896 14.5131V14.5111L9.49796 19.007C9.49696 19.2711 9.39192 19.5242 9.20484 19.7103L8.20242 20.7127C7.81226 21.1018 7.182 21.1008 6.79284 20.7117L5.78942 19.7063C5.60234 19.5192 5.4973 19.2651 5.4973 19.001L5.4993 14.5121" stroke="#636B87" stroke-width="1.5" stroke-linecap="round" stroke-linejoin="round"/>
<path d="M7.49813 10.2494V5.74748C7.49813 4.22785 8.72964 2.99634 10.2493 2.99634V2.99634C11.7689 2.99634 13.0004 4.22785 13.0004 5.74748V6.06462" stroke="#636B87" stroke-width="1.5" stroke-linecap="round" stroke-linejoin="round"/>
<path d="M7.49713 10.2494C7.35907 10.2494 7.24703 10.3614 7.24903 10.4995C7.24903 10.6375 7.36107 10.7496 7.49913 10.7496C7.63719 10.7496 7.74923 10.6375 7.74923 10.4995C7.74823 10.3614 7.63619 10.2494 7.49713 10.2494" stroke="#636B87" stroke-width="1.5" stroke-linecap="round" stroke-linejoin="round"/>
</svg>
