<svg width="44" height="44" viewBox="0 0 44 44" fill="none" xmlns="http://www.w3.org/2000/svg">
<g filter="url(#filter0_d_4238_51682)">
<rect x="2" y="1" width="40" height="40" rx="10.9091" fill="white"/>
<rect x="2.45455" y="1.45455" width="39.0909" height="39.0909" rx="10.4545" stroke="#DDE5F3" stroke-width="0.909091"/>
</g>
<path d="M22.0016 13.066C24.5855 13.066 24.8915 13.0757 25.9122 13.1223C26.526 13.1298 27.1338 13.2425 27.7095 13.4554C28.1269 13.6164 28.506 13.863 28.8224 14.1794C29.1387 14.4958 29.3854 14.8749 29.5463 15.2923C29.7593 15.8679 29.872 16.4758 29.8795 17.0895C29.9256 18.1103 29.9357 18.4163 29.9357 21.0001C29.9357 23.584 29.9261 23.89 29.8795 24.9107C29.872 25.5245 29.7593 26.1324 29.5463 26.708C29.3854 27.1254 29.1387 27.5045 28.8224 27.8209C28.506 28.1372 28.1269 28.3839 27.7095 28.5448C27.1338 28.7578 26.526 28.8705 25.9122 28.878C24.892 28.9241 24.586 28.9342 22.0016 28.9342C19.4173 28.9342 19.1113 28.9246 18.091 28.878C17.4773 28.8705 16.8694 28.7578 16.2938 28.5448C15.8764 28.3839 15.4973 28.1372 15.1809 27.8209C14.8645 27.5045 14.6179 27.1254 14.4569 26.708C14.244 26.1324 14.1313 25.5245 14.1238 24.9107C14.0777 23.89 14.0675 23.584 14.0675 21.0001C14.0675 18.4163 14.0772 18.1103 14.1238 17.0895C14.1313 16.4758 14.244 15.8679 14.4569 15.2923C14.6179 14.8749 14.8645 14.4958 15.1809 14.1794C15.4973 13.863 15.8764 13.6164 16.2938 13.4554C16.8694 13.2425 17.4773 13.1298 18.091 13.1223C19.1118 13.0762 19.4178 13.066 22.0016 13.066ZM22.0016 11.3223C19.3749 11.3223 19.044 11.3333 18.0118 11.3803C17.2086 11.3963 16.4139 11.5484 15.6615 11.8301C15.0162 12.0733 14.4316 12.4543 13.9486 12.9467C13.4558 13.4298 13.0744 14.0147 12.8311 14.6605C12.5494 15.4129 12.3973 16.2075 12.3814 17.0107C12.3353 18.0421 12.3242 18.373 12.3242 20.9997C12.3242 23.6264 12.3353 23.9573 12.3823 24.9895C12.3983 25.7928 12.5503 26.5874 12.8321 27.3398C13.0751 27.9855 13.4562 28.5704 13.9486 29.0536C14.4319 29.5461 15.0167 29.9271 15.6625 30.1702C16.4148 30.4519 17.2095 30.604 18.0127 30.62C19.045 30.666 19.3744 30.678 22.0026 30.678C24.6307 30.678 24.9602 30.667 25.9924 30.62C26.7956 30.604 27.5903 30.4519 28.3427 30.1702C28.9853 29.9211 29.5689 29.5406 30.0561 29.0531C30.5433 28.5655 30.9235 27.9817 31.1721 27.3389C31.4539 26.5865 31.6059 25.7918 31.6219 24.9886C31.668 23.9573 31.6791 23.6264 31.6791 20.9997C31.6791 18.373 31.668 18.0421 31.621 17.0098C31.605 16.2066 31.4529 15.4119 31.1712 14.6596C30.9282 14.0139 30.5471 13.429 30.0546 12.9458C29.5714 12.4533 28.9865 12.0722 28.3408 11.8292C27.5885 11.5475 26.7938 11.3954 25.9906 11.3794C24.9592 11.3333 24.6284 11.3223 22.0016 11.3223Z" fill="#636B87"/>
<path d="M22.0028 16.0312C21.0199 16.0312 20.0591 16.3227 19.2418 16.8688C18.4246 17.4148 17.7876 18.191 17.4115 19.0991C17.0354 20.0071 16.9369 21.0063 17.1287 21.9704C17.3204 22.9344 17.7938 23.8199 18.4888 24.5149C19.1838 25.2099 20.0693 25.6832 21.0333 25.8749C21.9973 26.0667 22.9965 25.9683 23.9046 25.5921C24.8126 25.216 25.5888 24.579 26.1348 23.7618C26.6809 22.9445 26.9724 21.9837 26.9724 21.0008C26.9724 19.6828 26.4488 18.4188 25.5168 17.4868C24.5848 16.5548 23.3208 16.0312 22.0028 16.0312ZM22.0028 24.2266C21.3648 24.2266 20.7411 24.0375 20.2106 23.683C19.6801 23.3285 19.2667 22.8247 19.0225 22.2353C18.7784 21.6459 18.7145 20.9973 18.839 20.3715C18.9634 19.7458 19.2707 19.171 19.7218 18.7198C20.1729 18.2687 20.7477 17.9615 21.3735 17.837C21.9992 17.7125 22.6478 17.7764 23.2373 18.0206C23.8267 18.2647 24.3305 18.6782 24.685 19.2087C25.0394 19.7392 25.2286 20.3628 25.2286 21.0008C25.2286 21.8564 24.8887 22.6769 24.2838 23.2818C23.6788 23.8868 22.8583 24.2266 22.0028 24.2266Z" fill="#636B87"/>
<path d="M27.1681 16.9954C27.8095 16.9954 28.3294 16.4755 28.3294 15.8341C28.3294 15.1928 27.8095 14.6729 27.1681 14.6729C26.5268 14.6729 26.0068 15.1928 26.0068 15.8341C26.0068 16.4755 26.5268 16.9954 27.1681 16.9954Z" fill="#636B87"/>
<defs>
<filter id="filter0_d_4238_51682" x="0.181818" y="0.0909091" width="43.6364" height="43.6364" filterUnits="userSpaceOnUse" color-interpolation-filters="sRGB">
<feFlood flood-opacity="0" result="BackgroundImageFix"/>
<feColorMatrix in="SourceAlpha" type="matrix" values="0 0 0 0 0 0 0 0 0 0 0 0 0 0 0 0 0 0 127 0" result="hardAlpha"/>
<feOffset dy="0.909091"/>
<feGaussianBlur stdDeviation="0.909091"/>
<feComposite in2="hardAlpha" operator="out"/>
<feColorMatrix type="matrix" values="0 0 0 0 0.891 0 0 0 0 0.894 0 0 0 0 0.9 0 0 0 0.25 0"/>
<feBlend mode="normal" in2="BackgroundImageFix" result="effect1_dropShadow_4238_51682"/>
<feBlend mode="normal" in="SourceGraphic" in2="effect1_dropShadow_4238_51682" result="shape"/>
</filter>
</defs>
</svg>
