<svg width="48" height="48" viewBox="0 0 48 48" fill="none" xmlns="http://www.w3.org/2000/svg">
<g filter="url(#filter0_d_4114_3190)">
<rect x="2" y="1" width="44" height="44" rx="12" fill="white"/>
<rect x="2.5" y="1.5" width="43" height="43" rx="11.5" stroke="#DDE5F3"/>
</g>
<g clip-path="url(#clip0_4114_3190)">
<path d="M14.9131 16.1433C14.9131 15.5614 15.1167 15.0814 15.524 14.7033C15.9313 14.3251 16.4607 14.136 17.1124 14.136C17.7524 14.136 18.2702 14.3222 18.6658 14.6945C19.0731 15.0785 19.2767 15.5789 19.2767 16.1956C19.2767 16.7542 19.0789 17.2196 18.6833 17.592C18.276 17.976 17.7407 18.168 17.0774 18.168H17.06C16.42 18.168 15.9022 17.976 15.5065 17.592C15.1109 17.208 14.9131 16.7251 14.9131 16.1433ZM15.14 31.416V19.7563H19.0149V31.416H15.14ZM21.1618 31.416H25.0367V24.9054C25.0367 24.4982 25.0833 24.184 25.1764 23.9629C25.3393 23.5673 25.5865 23.2327 25.9182 22.9593C26.2498 22.6858 26.6658 22.5491 27.1662 22.5491C28.4694 22.5491 29.1211 23.4276 29.1211 25.1847V31.416H32.996V24.7309C32.996 23.0087 32.5887 21.7025 31.7742 20.8123C30.9596 19.9222 29.8833 19.4771 28.5451 19.4771C27.044 19.4771 25.8745 20.1229 25.0367 21.4145V21.4494H25.0193L25.0367 21.4145V19.7563H21.1618C21.1851 20.1287 21.1967 21.2865 21.1967 23.2298C21.1967 25.1731 21.1851 27.9018 21.1618 31.416Z" fill="#9197AE"/>
</g>
<defs>
<filter id="filter0_d_4114_3190" x="0" y="0" width="48" height="48" filterUnits="userSpaceOnUse" color-interpolation-filters="sRGB">
<feFlood flood-opacity="0" result="BackgroundImageFix"/>
<feColorMatrix in="SourceAlpha" type="matrix" values="0 0 0 0 0 0 0 0 0 0 0 0 0 0 0 0 0 0 127 0" result="hardAlpha"/>
<feOffset dy="1"/>
<feGaussianBlur stdDeviation="1"/>
<feComposite in2="hardAlpha" operator="out"/>
<feColorMatrix type="matrix" values="0 0 0 0 0.891 0 0 0 0 0.894 0 0 0 0 0.9 0 0 0 0.25 0"/>
<feBlend mode="normal" in2="BackgroundImageFix" result="effect1_dropShadow_4114_3190"/>
<feBlend mode="normal" in="SourceGraphic" in2="effect1_dropShadow_4114_3190" result="shape"/>
</filter>
<clipPath id="clip0_4114_3190">
<rect width="18" height="17.4545" fill="white" transform="translate(15 14.0303)"/>
</clipPath>
</defs>
</svg>
