<svg width="19" height="19" viewBox="0 0 19 19" fill="none" xmlns="http://www.w3.org/2000/svg">
<g clip-path="url(#clip0_4111_2526)">
<path d="M-0.0917969 2.22914C-0.0917969 1.615 0.123153 1.10833 0.553052 0.709139C0.982951 0.309948 1.54182 0.110352 2.22966 0.110352C2.90521 0.110352 3.4518 0.306877 3.86942 0.699927C4.29931 1.10526 4.51426 1.63342 4.51426 2.28441C4.51426 2.87399 4.30546 3.3653 3.88784 3.75835C3.45794 4.16368 2.89293 4.36635 2.19281 4.36635H2.17439C1.49883 4.36635 0.952243 4.16368 0.534627 3.75835C0.117011 3.35302 -0.0917969 2.84328 -0.0917969 2.22914ZM0.147718 18.3504V6.04296H4.2379V18.3504H0.147718ZM6.50408 18.3504H10.5943V11.4781C10.5943 11.0482 10.6434 10.7166 10.7417 10.4832C10.9136 10.0656 11.1746 9.71245 11.5247 9.42381C11.8747 9.13516 12.3139 8.99084 12.842 8.99084C14.2177 8.99084 14.9055 9.91819 14.9055 11.7729V18.3504H18.9957V11.2939C18.9957 9.47601 18.5658 8.09726 17.706 7.15762C16.8462 6.21799 15.7101 5.74817 14.2975 5.74817C12.7131 5.74817 11.4786 6.42987 10.5943 7.79326V7.83011H10.5758L10.5943 7.79326V6.04296H6.50408C6.52865 6.43601 6.54093 7.65815 6.54093 9.70938C6.54093 11.7606 6.52865 14.6409 6.50408 18.3504Z" fill="#636B87"/>
</g>
<defs>
<clipPath id="clip0_4111_2526">
<rect width="19" height="18.4242" fill="white"/>
</clipPath>
</defs>
</svg>
