<svg width="78" height="24" viewBox="0 0 78 24" fill="none" xmlns="http://www.w3.org/2000/svg">
<path d="M6.80518 16.107V0H0.00170898V17.6599C0.00170898 21.1508 2.89041 23.9872 6.44573 23.9872H18.1182V17.3134H8.02732C7.34763 17.3134 6.79865 16.7743 6.79865 16.107H6.80518Z" fill="#131F4A"/>
<path d="M48.11 0.0449219H32.2549V24H39.0518V6.71872H46.5284C47.2081 6.71872 47.7571 7.25776 47.7571 7.92513V24H54.5541V6.37219C54.5541 2.88129 51.6588 0.0449219 48.11 0.0449219Z" fill="#131F4A"/>
<path d="M28.627 0H21.7451V24H28.627V0Z" fill="#131F4A"/>
<path d="M59.0715 7.85897C59.1703 8.76852 59.635 9.55097 60.3054 10.0845L60.3014 10.0872L63.7708 12.8013C63.4357 12.3749 63.4196 11.7646 63.7735 11.3211L63.9244 11.1318L72.7663 0.0450439H64.1314L59.5295 5.81612C59.1689 6.41057 58.9913 7.11888 59.0715 7.85897Z" fill="url(#paint0_linear_3936_399)"/>
<path d="M77.3716 23.5028L63.9839 13.0184C63.9011 12.9549 63.833 12.8808 63.7716 12.8026L60.3021 10.0886L60.3061 10.0859C59.6357 9.55368 59.171 8.7699 59.0722 7.86035C58.9921 7.11894 59.1697 6.41196 59.5302 5.8175L58.6622 6.90579L57.4456 8.43097C56.3466 9.80788 55.9232 11.4986 56.1276 13.1124C56.2865 14.3675 56.8287 15.5723 57.7234 16.5521C57.9718 16.8235 58.2415 17.0816 58.5447 17.3146L67.0848 23.9939H78.0006L77.3716 23.5014V23.5028Z" fill="#5AE9D7"/>
<defs>
<linearGradient id="paint0_linear_3936_399" x1="59.0528" y1="6.42381" x2="72.7663" y2="6.42381" gradientUnits="userSpaceOnUse">
<stop stop-color="#131F4A"/>
<stop offset="1" stop-color="#5AE9D7"/>
</linearGradient>
</defs>
</svg>
