<svg width="25" height="24" viewBox="0 0 25 24" fill="none" xmlns="http://www.w3.org/2000/svg">
<path d="M19.0028 18.5671V20.5028C19.0028 20.7051 18.881 20.8874 18.6941 20.9649C18.5071 21.0423 18.292 20.9995 18.1489 20.8565L15.8596 18.5671" stroke="#131F4A" stroke-width="1.5" stroke-linecap="round" stroke-linejoin="round"/>
<path d="M18.5027 9.49902H19.0064C20.3858 9.49902 21.5039 10.6172 21.5039 11.9965V16.0695C21.5039 17.4488 20.3858 18.567 19.0064 18.567V18.567" stroke="#131F4A" stroke-width="1.5" stroke-linecap="round" stroke-linejoin="round"/>
<path d="M15.8631 18.5672H12.9968C11.6174 18.5672 10.4993 17.449 10.4993 16.0697V15.0015" stroke="#131F4A" stroke-width="1.5" stroke-linecap="round" stroke-linejoin="round"/>
<path fill-rule="evenodd" clip-rule="evenodd" d="M9.20477 12.0001L6.85129 14.3536C6.70822 14.4967 6.49307 14.5395 6.30616 14.4621C6.11924 14.3846 5.99738 14.2022 5.99738 13.9999V12.0001H5.99384C5.33146 12.0001 4.6962 11.737 4.22783 11.2686C3.75946 10.8002 3.49634 10.1649 3.49634 9.50257V5.49384C3.49634 4.11451 4.61451 2.99634 5.99384 2.99634H13.0038C14.3832 2.99634 15.5013 4.11451 15.5013 5.49384V9.50257C15.5013 10.1649 15.2382 10.8002 14.7698 11.2686C14.3015 11.737 13.6662 12.0001 13.0038 12.0001H9.20477Z" stroke="#131F4A" stroke-width="1.5" stroke-linecap="round" stroke-linejoin="round"/>
<path d="M7.49805 5.99752H10.4993" stroke="#131F4A" stroke-width="1.5" stroke-linecap="round" stroke-linejoin="round"/>
<path d="M7.49805 8.99899H8.49846" stroke="#131F4A" stroke-width="1.5" stroke-linecap="round" stroke-linejoin="round"/>
<path d="M15.5015 15.0014H17.5023" stroke="#131F4A" stroke-width="1.5" stroke-linecap="round" stroke-linejoin="round"/>
</svg>
