<svg width="18" height="18" viewBox="0 0 18 18" fill="none" xmlns="http://www.w3.org/2000/svg">
<path d="M9.70484 8.29468L4.40234 13.5972" stroke="#636B87" stroke-width="1.1" stroke-linecap="round" stroke-linejoin="round"/>
<path d="M4.97606 9.74895L2.37881 9.13545C2.09306 9.06795 1.99256 8.7132 2.19956 8.50545L4.26506 6.43995C4.40381 6.3012 4.59206 6.2217 4.78931 6.2202L7.11806 6.19995" stroke="#636B87" stroke-width="1.1" stroke-linecap="round" stroke-linejoin="round"/>
<path fill-rule="evenodd" clip-rule="evenodd" d="M14.9093 6.73121L15.5153 3.81522C15.6803 3.02172 14.9783 2.31972 14.1848 2.48472L11.2688 3.09072C10.4101 3.26922 9.62255 3.69447 9.00305 4.31472L6.61055 6.70646C5.6978 7.61921 5.1038 8.80271 4.9163 10.08L4.90805 10.1347C4.78955 10.95 5.06255 11.7727 5.64455 12.3555V12.3555C6.22655 12.9375 7.05005 13.2105 7.8653 13.0912L7.92005 13.083C9.1973 12.8962 10.3808 12.3015 11.2936 11.3887L13.6853 8.99696C14.3056 8.37746 14.7308 7.58996 14.9093 6.73121V6.73121Z" stroke="#636B87" stroke-width="1.1" stroke-linecap="round" stroke-linejoin="round"/>
<path d="M10.0508 3.53516C11.784 4.71716 13.2833 6.21641 14.4653 7.94966" stroke="#636B87" stroke-width="1.1" stroke-linecap="round" stroke-linejoin="round"/>
<path d="M8.25 13.0253L8.8635 15.6226C8.931 15.9083 9.28575 16.0088 9.4935 15.8018L11.559 13.7363C11.6977 13.5976 11.7772 13.4093 11.7787 13.2121L11.799 10.8833" stroke="#636B87" stroke-width="1.1" stroke-linecap="round" stroke-linejoin="round"/>
</svg>
