<svg width="102" height="102" viewBox="0 0 102 102" fill="none" xmlns="http://www.w3.org/2000/svg">
<path d="M1 40.92C1 8.04753 8.04471 1 40.92 1L61.08 1C93.9525 1 101 8.04471 101 40.92V61.08C101 93.9525 93.9553 101 61.08 101H40.92C8.04753 101 1 93.9553 1 61.08L1 40.92Z" stroke="#E9EEF7" stroke-width="0.6" stroke-miterlimit="10"/>
<path d="M15 43.7424C15 20.0742 20.0722 15 43.7424 15H58.2576C81.9258 15 87 20.0722 87 43.7424V58.2576C87 81.9258 81.9278 87 58.2576 87H43.7424C20.0742 87 15 81.9278 15 58.2576V43.7424Z" stroke="#E9EEF7" stroke-width="0.8" stroke-miterlimit="10"/>
<g filter="url(#filter0_d_4411_78679)">
<rect x="29" y="29" width="44" height="44" rx="12" fill="#F7F9FC"/>
<rect x="29.5" y="29.5" width="43" height="43" rx="11.5" stroke="#DDE5F3"/>
</g>
<path d="M58.5615 45.743L51.0055 53.299L47.2285 49.521" stroke="#131F4A" stroke-width="1.5" stroke-linecap="round" stroke-linejoin="round"/>
<path d="M59.5957 52.506V57.4C59.5957 58.56 58.6557 59.5 57.4957 59.5H44.6957C43.5357 59.5 42.5957 58.56 42.5957 57.4V44.6C42.5957 43.44 43.5357 42.5 44.6957 42.5H51.0957" stroke="#131F4A" stroke-width="1.5" stroke-linecap="round" stroke-linejoin="round"/>
<defs>
<filter id="filter0_d_4411_78679" x="27" y="28" width="48" height="48" filterUnits="userSpaceOnUse" color-interpolation-filters="sRGB">
<feFlood flood-opacity="0" result="BackgroundImageFix"/>
<feColorMatrix in="SourceAlpha" type="matrix" values="0 0 0 0 0 0 0 0 0 0 0 0 0 0 0 0 0 0 127 0" result="hardAlpha"/>
<feOffset dy="1"/>
<feGaussianBlur stdDeviation="1"/>
<feComposite in2="hardAlpha" operator="out"/>
<feColorMatrix type="matrix" values="0 0 0 0 0.891 0 0 0 0 0.894 0 0 0 0 0.9 0 0 0 0.25 0"/>
<feBlend mode="normal" in2="BackgroundImageFix" result="effect1_dropShadow_4411_78679"/>
<feBlend mode="normal" in="SourceGraphic" in2="effect1_dropShadow_4411_78679" result="shape"/>
</filter>
</defs>
</svg>
